<svg viewBox="0 0 96 96" xmlns="http://www.w3.org/2000/svg" xmlns:xlink="http://www.w3.org/1999/xlink" id="Icons_Upload1_M" overflow="hidden"><path d="M80.624 37.891C79.8283 32.9953 77.1331 28.6112 73.124 25.691 68.9674 22.7792 63.8003 21.6952 58.824 22.691 54.9002 16.6663 48.2058 13.0232 41.016 13 39.3674 12.9997 37.7246 13.195 36.122 13.582 27.6033 15.798 21.2286 22.8833 19.922 31.588 14.2868 31.7854 9.03773 34.5017 5.622 38.988 1.62878 44.6027 0.905217 51.9113 3.72 58.2 6.58699 64.3828 12.617 68.4925 19.42 68.9L26.72 68.9 39.026 68.93 39.026 66.93 26.721 66.9 19.482 66.9C13.4467 66.5155 8.10286 62.8664 5.548 57.385 3.04256 51.7519 3.68208 45.2165 7.232 40.176 10.2944 36.1923 14.9708 33.7779 19.992 33.588L21.653 33.529 21.899 31.885C23.0667 23.977 28.8531 17.5353 36.591 15.529 38.0399 15.1784 39.5253 15.0009 41.016 15 47.5336 15.0034 53.6059 18.308 57.148 23.779L57.888 24.912 59.215 24.646C63.6447 23.7599 68.2441 24.7203 71.949 27.305 75.524 29.9234 77.9295 33.8395 78.649 38.212L78.884 39.651 80.326 39.867C87.7834 40.9169 92.9777 47.8134 91.9278 55.2708 91.0014 61.8512 85.4664 66.8055 78.824 67L68.224 67 57.024 66.973 57.024 68.973 68.224 69 78.824 69C87.4561 68.778 94.2739 61.6003 94.0519 52.9682 93.8557 45.3388 88.1799 38.9658 80.624 37.891Z" fill="#FFFFFF"/><path d="M49 83 49 43.438C49.0001 43.4325 49.0046 43.4281 49.0101 43.4281 49.0127 43.4282 49.0152 43.4292 49.017 43.431L62.293 56.707 63.707 55.293 48 39.586 32.293 55.293 33.707 56.707 46.983 43.431C46.9869 43.4271 46.9933 43.4272 46.9971 43.4311 46.9989 43.433 47 43.4354 47 43.438L47 83Z" fill="#FFFFFF"/></svg>