<svg viewBox="0 0 96 96" xmlns="http://www.w3.org/2000/svg" xmlns:xlink="http://www.w3.org/1999/xlink" id="Icons_Run_M" overflow="hidden"><g id="Icons"><path d="M64 20.858C68.4183 20.858 72 17.2763 72 12.858 72 8.43972 68.4183 4.858 64 4.858 59.5817 4.858 56 8.43972 56 12.858 56 17.2763 59.5817 20.858 64 20.858ZM64 6.858C67.3137 6.858 70 9.54429 70 12.858 70 16.1717 67.3137 18.858 64 18.858 60.6863 18.858 58 16.1717 58 12.858 58.0022 9.54456 60.6866 6.85841 64 6.854Z" stroke="#70AD47" stroke-width="0.999917" fill="#70AD47"/><path d="M36.441 67.706C35.9403 68.6629 34.947 69.26 33.867 69.253L15.112 69.253C13.4828 69.253 12.162 67.9322 12.162 66.303 12.162 64.6738 13.4828 63.353 15.112 63.353L31.5 63.353C31.8683 63.353 32.2068 63.1505 32.381 62.826L37.081 54.067C36.5878 53.4075 36.2172 52.6647 35.987 51.874L30.9 61.354 15.112 61.354C12.3782 61.354 10.162 63.5702 10.162 66.304 10.162 69.0378 12.3782 71.254 15.112 71.254L33.867 71.254C35.6843 71.2664 37.3565 70.2632 38.201 68.654L43.07 59.679 41.545 58.3Z" stroke="#70AD47" stroke-width="0.999917" fill="#70AD47"/><path d="M85.4 27.058C85.0315 25.7644 84.1514 24.677 82.963 24.047 81.8094 23.4614 80.4742 23.3439 79.236 23.719 77.9967 24.0953 76.9673 24.9656 76.39 26.125L73.5 31.581 70.516 29.7 70.516 29.7 66.204 26.984 66.194 26.978 66.194 26.978 61.434 23.978 61.434 23.978 59.48 22.748C58.7106 22.2443 57.8075 21.9836 56.888 22L40.388 22C38.5951 21.9869 36.9449 22.9758 36.111 24.563L29.811 36.19C29.1703 37.3045 29.0159 38.6333 29.384 39.865 29.7482 41.138 30.6146 42.208 31.784 42.829 32.4943 43.1946 33.2775 43.3965 34.076 43.42 35.8604 43.4054 37.4971 42.4258 38.353 40.86L43.311 31.768 46.773 31.768 38.273 47.627C37.2103 49.6018 37.6316 52.0468 39.294 53.552L53.927 66.829 53.077 85.829C52.9565 87.1138 53.3715 88.3913 54.224 89.36 55.098 90.3548 56.3418 90.9476 57.665 91L57.859 91C60.4543 90.9756 62.5876 88.9459 62.741 86.355L63.709 65.03C63.8187 63.5772 63.2337 62.1583 62.132 61.205L53.28 52.991 64.023 32.975C64.2995 32.4969 64.1362 31.8852 63.6581 31.6087 63.1801 31.3321 62.5683 31.4955 62.2918 31.9735 62.2813 31.9917 62.2713 32.0102 62.262 32.029L51.153 52.729C50.9376 53.1297 51.0198 53.6253 51.353 53.935L60.785 62.688C61.4353 63.233 61.7812 64.0593 61.713 64.905L60.742 86.265C60.6485 87.7924 59.3892 88.9871 57.859 89L57.711 89C56.9476 88.9687 56.2309 88.6239 55.73 88.047 55.2311 87.4749 54.9927 86.721 55.072 85.966L55.945 66.448C55.9591 66.1506 55.8391 65.8625 55.618 65.663L40.633 52.071C39.652 51.1811 39.4044 49.7368 40.033 48.571L49.327 31.239C49.5882 30.7524 49.4055 30.1462 48.9189 29.8849 48.7735 29.8069 48.611 29.766 48.446 29.766L42.715 29.766C42.3488 29.7661 42.012 29.9664 41.837 30.288L36.592 39.905C36.0834 40.8232 35.1234 41.4 34.074 41.418 33.5933 41.3955 33.1232 41.2693 32.696 41.048 32.0166 40.6804 31.5154 40.0529 31.307 39.309 31.0901 38.5906 31.1803 37.8146 31.556 37.165L37.868 25.511C38.358 24.5759 39.3293 23.9928 40.385 24L56.885 24C57.4191 23.9856 57.9447 24.1353 58.391 24.429L59.898 25.379 59.898 25.379 66.678 29.65 66.678 29.65 73.341 33.85C73.8082 34.1445 74.4257 34.0045 74.7202 33.5373 74.7336 33.516 74.7462 33.4942 74.758 33.472L78.166 27.042C78.4999 26.3639 79.0992 25.854 79.822 25.633 80.5551 25.4104 81.3457 25.4773 82.031 25.82 82.7341 26.1926 83.2553 26.8352 83.475 27.6 83.672 28.3189 83.5673 29.0871 83.185 29.727L77.836 39.934C77.4698 40.6463 76.8135 41.1656 76.036 41.358 75.2482 41.5673 74.4086 41.4344 73.724 40.992L64.944 35.465 64.589 36.143 64.003 37.235 72.638 42.67C73.7985 43.4249 75.2256 43.6497 76.562 43.288 77.8827 42.9506 78.9938 42.0603 79.611 40.845L84.931 30.687C85.5725 29.5908 85.7417 28.2813 85.4 27.058Z" stroke="#70AD47" stroke-width="0.999917" fill="#70AD47"/></g></svg>