<svg viewBox="0 0 96 96" xmlns="http://www.w3.org/2000/svg" xmlns:xlink="http://www.w3.org/1999/xlink" id="Icons_Dollar_M" overflow="hidden"><g id="Icons"><path d="M65.043 56.663C64.4244 55.1885 63.5227 53.8496 62.389 52.722 61.2595 51.6191 59.9741 50.6881 58.574 49.959 57.1229 49.1982 55.6229 48.5345 54.084 47.972 52.52 47.397 50.905 46.859 49.284 46.372 49.158 46.334 49.035 46.291 48.91 46.252L48.91 18.037C49.131 18.031 49.342 18.011 49.567 18.011 52.146 17.9627 54.7089 18.4284 57.106 19.381 59.4314 20.406 61.5221 21.8967 63.249 23.761L64.692 22.377C62.7769 20.3145 60.4587 18.6671 57.881 17.537 55.2387 16.4806 52.4122 15.9618 49.567 16.011 49.343 16.011 49.131 16.031 48.91 16.037L48.91 5.011 46.91 5.011 46.91 16.172C45.2666 16.3364 43.6523 16.7191 42.11 17.31 40.0503 18.1001 38.1687 19.2927 36.575 20.818 35.0927 22.2639 33.9247 24.0001 33.144 25.918 32.367 27.829 31.9692 29.873 31.973 31.936 31.9334 33.8554 32.2638 35.7645 32.946 37.559 33.5538 39.0949 34.4495 40.5004 35.585 41.7 36.7011 42.8575 37.9876 43.8375 39.4 44.606 40.8499 45.3963 42.3536 46.0837 43.9 46.663 44.878 47.032 45.888 47.379 46.909 47.714L46.909 78.006C45.3195 78.0146 43.7343 77.8419 42.184 77.491 40.8685 77.1842 39.5896 76.7376 38.369 76.159 37.3759 75.6883 36.4351 75.1144 35.562 74.447 34.8559 73.9014 34.1796 73.3182 33.536 72.7 32.9667 72.1453 32.518 71.69 32.19 71.334 31.911 71.034 31.727 70.834 31.599 70.705L31.52 70.623 30.072 72 30.154 72.086C30.277 72.214 30.454 72.398 30.718 72.686 31.064 73.0633 31.5377 73.5443 32.139 74.129 32.8338 74.7989 33.5642 75.4308 34.327 76.022 35.3116 76.7772 36.3732 77.4265 37.494 77.959 38.8438 78.5999 40.2582 79.095 41.713 79.436 43.4187 79.8253 45.1635 80.0172 46.913 80.008L46.913 91.008 48.913 91.008 48.913 79.936C51.0231 79.8129 53.0999 79.3534 55.065 78.575 57.2863 77.6884 59.3087 76.368 61.014 74.691 62.6414 73.0631 63.9135 71.1155 64.75 68.971 65.6057 66.7686 66.0389 64.4247 66.027 62.062 66.0652 60.2145 65.7305 58.3782 65.043 56.663ZM44.607 44.792C43.15 44.2457 41.7332 43.5978 40.367 42.853 39.1311 42.1822 38.0054 41.3259 37.029 40.314 36.0685 39.3002 35.3106 38.1123 34.796 36.814 34.2115 35.2582 33.9311 33.6046 33.97 31.943 33.9663 30.1383 34.3137 28.35 34.993 26.678 35.6704 25.0132 36.6847 23.5063 37.972 22.252 39.3759 20.9119 41.0328 19.8652 42.846 19.173 44.1534 18.674 45.5191 18.3436 46.91 18.19L46.91 45.615C46.13 45.351 45.36 45.076 44.607 44.792ZM62.886 68.239C62.1503 70.1272 61.0315 71.8426 59.6 73.277 58.0801 74.7672 56.2783 75.9394 54.3 76.725 52.5767 77.4081 50.7569 77.8171 48.907 77.937L48.907 48.351C50.421 48.81 51.929 49.312 53.391 49.851 54.8468 50.3832 56.2659 51.0109 57.639 51.73 58.8659 52.3676 59.9923 53.1824 60.982 54.148 61.9297 55.0929 62.6835 56.2139 63.201 57.448 63.7803 58.9156 64.0591 60.4846 64.021 62.062 64.0339 64.174 63.6488 66.2695 62.886 68.239Z" stroke="#FFFFFF" stroke-width="1.0001" fill="#FFFFFF"/></g></svg>