<svg viewBox="0 0 96 96" xmlns="http://www.w3.org/2000/svg" xmlns:xlink="http://www.w3.org/1999/xlink" id="Icons_DailyCalendar_M" overflow="hidden"><g id="Icons"><path d="M68 20 68 15C68 14.4477 67.5523 14 67 14 66.4477 14 66 14.4477 66 15L66 20 30 20 30 15C30 14.4477 29.5523 14 29 14 28.4477 14 28 14.4477 28 15L28 20 14 20 14 82 82 82 82 20ZM80 80 16 80 16 36 80 36ZM16 34 16 22 28 22 28 26C28 26.5523 28.4477 27 29 27 29.5523 27 30 26.5523 30 26L30 22 66 22 66 26C66 26.5523 66.4477 27 67 27 67.5523 27 68 26.5523 68 26L68 22 80 22 80 34Z"/><path d="M41 74 74 74 74 42 22 42 22 74 41 74ZM41 72 41 64 55 64 55 72ZM41 54 55 54 55 62 41 62ZM39 62 24 62 24 54 39 54ZM57 54 72 54 72 62 57 62ZM57 72 57 64 72 64 72 72ZM72 44 72 52 57 52 57 44ZM55 44 55 52 41 52 41 44ZM39 44 39 52 24 52 24 44ZM24 72 24 64 39 64 39 72Z"/></g></svg>