<svg viewBox="0 0 96 96" xmlns="http://www.w3.org/2000/svg" xmlns:xlink="http://www.w3.org/1999/xlink" id="Icons_Briefcase_M" overflow="hidden"><g id="Icons"><path d="M86 24.007 64 24.007 64 18C63.9967 15.2399 61.7601 13.0033 59 13L41 13C38.2399 13.0033 36.0033 15.2399 36 18L36 24.007 14 24.007C11.7938 24.0141 10.0071 25.8008 10 28.007L10 76.022C10.0071 78.2282 11.7938 80.0149 14 80.022L86 80.022C88.2062 80.0149 89.9929 78.2282 90 76.022L90 28.008C89.9934 25.8014 88.2066 24.0141 86 24.007ZM38 18C38 16.3431 39.3431 15 41 15L59 15C60.6569 15 62 16.3431 62 18L62 24 38 24ZM14 26.007 86 26.007C87.1046 26.007 88 26.9024 88 28.007L88 46 57 46 57 42 43 42 43 46 12 46 12 28.008C11.9994 26.9034 12.8944 26.0076 13.999 26.007 13.9993 26.007 13.9997 26.007 14 26.007ZM55 44 55 51C55 52.1046 54.1046 53 53 53L47 53C45.8954 53 45 52.1046 45 51L45 44ZM86 78.023 14 78.023C12.8954 78.023 12 77.1276 12 76.023L12 48 43 48 43 51C43 53.2091 44.7909 55 47 55L53 55C55.2091 55 57 53.2091 57 51L57 48 88 48 88 76.022C88.0005 77.1266 87.1056 78.0225 86.001 78.023 86.0007 78.023 86.0003 78.023 86 78.023Z" stroke="#F2F2F2" stroke-width="0.999917" fill="#FFFFFF"/></g></svg>