<svg viewBox="0 0 96 96" xmlns="http://www.w3.org/2000/svg" xmlns:xlink="http://www.w3.org/1999/xlink" id="Icons_BarChart_RTL_M" overflow="hidden"><g id="Icons"><path d="M80.002 14 82.002 14 82.002 82 14.032 82 14.032 80 80.002 80 80.002 14Z" stroke="#FFFFFF" stroke-width="1.0001" fill="#FFFFFF"/><path d="M74 74.016 74 35.006 62 35.006 62 74.016ZM72 72.016 64 72.016 64 37.006 72 37.006Z" stroke="#FFFFFF" stroke-width="1.0001" fill="#FFFFFF"/><path d="M58 74.016 58 14 46 14 46 74.016ZM56 72.016 48 72.016 48 16 56 16Z" stroke="#FFFFFF" stroke-width="1.0001" fill="#FFFFFF"/><path d="M42 74.016 42 35.006 30 35.006 30 74.016ZM40 72.016 32 72.016 32 37.006 40 37.006Z" stroke="#FFFFFF" stroke-width="1.0001" fill="#FFFFFF"/><path d="M26 52.011 14 52.011 14 74.016 26 74.016ZM24 72.016 16 72.016 16 54.011 24 54.011Z" stroke="#FFFFFF" stroke-width="1.0001" fill="#FFFFFF"/></g></svg>