<svg viewBox="0 0 96 96" xmlns="http://www.w3.org/2000/svg" xmlns:xlink="http://www.w3.org/1999/xlink" id="Icons_DownloadFromCloud" overflow="hidden"><path d="M55.5 35 39.5 35 39.5 59 27 59 47.5 83 68 59 55.5 59Z"/><path d="M80.6 37.9C79.8 33 77.1 28.6 73.1 25.7 69 22.8 63.8 21.7 58.8 22.7 53.9 15.2 44.8 11.5 36.1 13.6 27.6 15.8 21.2 22.9 19.9 31.6 14.3 31.8 9 34.5 5.6 39 1.6 44.6 0.9 51.9 3.7 58.2 6.6 64.4 12.6 68.5 19.4 68.9L26.7 68.9 24 65.6 21.5 62.7 19.7 62.7C15.2 62.4 11.2 59.7 9.2 55.6 7.3 51.4 7.8 46.6 10.5 42.8 13.2 39.1 17.7 37.3 22.3 38L25.8 38.6 25.8 34.7C25.8 27.6 30.6 21.4 37.5 19.7 44.4 18 51.5 21.4 54.7 27.7L55.9 30.1 58.4 29.2C62.2 27.9 66.3 28.5 69.6 30.8 72.8 33.2 74.7 36.9 74.8 40.9L74.8 44 78.9 44C84 44.2 88 48.4 87.9 53.4 87.9 58.5 83.8 62.6 78.8 62.7L73.6 62.7 71 65.6 68.2 69 78.8 69C86.9 68.8 93.5 62.4 94 54.3 94.5 46.2 88.6 39.1 80.6 37.9Z"/></svg>