<svg viewBox="0 0 96 96" xmlns="http://www.w3.org/2000/svg" xmlns:xlink="http://www.w3.org/1999/xlink" id="Icons_FolderSearch_M" overflow="hidden"><g id="Icons"><path d="M52 64 19.5 64 30.414 37.617C30.5674 37.2427 30.9324 36.9987 31.337 37L79.061 37C79.6133 37.0005 80.0606 37.4485 80.0602 38.0008 80.0601 38.1345 80.0331 38.2669 79.981 38.39L76.081 47.61 77.923 48.39 81.823 39.169C82.4686 37.6431 81.755 35.8828 80.2291 35.2371 79.8595 35.0807 79.4623 35.0001 79.061 35L31.337 35C30.1222 34.9968 29.0264 35.7293 28.565 36.853L16.5 66 52 66Z" stroke="#70AD47" stroke-width="0.999917" fill="#70AD47"/><path d="M78.552 53.448C73.2953 48.1661 64.752 48.1457 59.4701 53.4024 54.4449 58.4036 54.1474 66.4409 58.789 71.8L57.115 73.474C55.7588 72.7406 54.0824 72.981 52.987 74.066L46.025 81.028C44.6581 82.3949 44.6581 84.6111 46.025 85.978 47.3919 87.3449 49.6081 87.3449 50.975 85.978L57.938 79.016C59.0227 77.9204 59.2627 76.244 58.529 74.888L60.2 73.211C65.8329 78.0898 74.3543 77.4785 79.2331 71.8456 83.8747 66.4865 83.5772 58.4492 78.552 53.448ZM60.874 54.862C64.1921 51.552 69.1856 50.5843 73.5 52.415L68.351 64 57.56 64C57.2573 60.6136 58.4709 57.2671 60.874 54.862ZM56.523 77.6 49.561 84.562C48.975 85.148 48.025 85.148 47.439 84.562 46.853 83.976 46.853 83.026 47.439 82.44L54.4 75.477C54.9863 74.8907 55.9368 74.8907 56.523 75.477 57.1093 76.0632 57.1093 77.0137 56.523 77.6ZM77.138 71.127C72.6625 75.618 65.3938 75.6305 60.9029 71.155 59.472 69.7291 58.4428 67.9509 57.919 66L69.649 66 75.271 53.353C80.5956 56.8042 82.1143 63.9183 78.6631 69.2429 78.2225 69.9226 77.7113 70.5538 77.138 71.126Z" stroke="#70AD47" stroke-width="0.999917" fill="#70AD47"/><path d="M34.418 19C34.6079 19.0001 34.7938 19.0542 34.954 19.156L44.972 25.531C45.4529 25.8379 46.0116 26.0006 46.582 26L72 26C72.5523 26 73 26.4477 73 27L73 33 75 33 75 27C75 25.3431 73.6569 24 72 24L46.582 24C46.3921 23.9999 46.2062 23.9458 46.046 23.844L36.028 17.469C35.5471 17.1621 34.9884 16.9994 34.418 17L17 17C15.3431 17 14 18.3431 14 20L14 66 16 66 16 20C16 19.4477 16.4477 19 17 19Z" stroke="#70AD47" stroke-width="0.999917" fill="#70AD47"/></g></svg>