<svg id="Layer_2" data-name="Layer 2" xmlns="http://www.w3.org/2000/svg" viewBox="0 0 104.3601 99.1734"><defs><style>.cls-1{fill:#39b54a;}</style></defs><path class="cls-1" d="M60.7831,84.7383a1.1285,1.1285,0,0,0,1.1355-1.5918l-4.7623-13.865a2.904,2.904,0,0,1,.6594-2.7655,5.78,5.78,0,0,0,1.64-3.6821,5.5629,5.5629,0,1,0-11.1258,0,5.7791,5.7791,0,0,0,1.64,3.6817,2.904,2.904,0,0,1,.6594,2.7659L45.8674,83.1461a1.1287,1.1287,0,0,0,1.1355,1.5922Z" transform="translate(-1.7128 -5.0638)"/><path class="cls-1" d="M35.16,35.2633V33.1624a18.7336,18.7336,0,1,1,37.4672,0v2.1005a31.9586,31.9586,0,0,1,9.3457,9.7316V33.1624a28.0793,28.0793,0,1,0-56.1585,0V44.9953A31.9434,31.9434,0,0,1,35.16,35.2633Z" transform="translate(-1.7128 -5.0638)"/><path class="cls-1" d="M84.2663,54.0993H82.1946C79.0725,41.7911,67.4436,32.646,53.5666,32.646s-25.5059,9.1451-28.628,21.4533H23.5194A21.8143,21.8143,0,0,0,1.7128,75.9211v6.4944a21.8143,21.8143,0,0,0,21.8066,21.8218H84.2663a21.8143,21.8143,0,0,0,21.8066-21.8218V75.9211A21.8143,21.8143,0,0,0,84.2663,54.0993Zm13.24,28.3162a13.2592,13.2592,0,0,1-13.24,13.2489H23.5194A13.2592,13.2592,0,0,1,10.28,82.4155V75.9211a13.2592,13.2592,0,0,1,13.24-13.2489h1.44c2.39,0,6.651,1.5587,6.651,1.5587a63.6985,63.6985,0,0,1,1.8467-10.1316,21.6326,21.6326,0,0,1,40.22,0A63.64,63.64,0,0,1,75.523,64.2309s4.6873-1.5587,7.4222-1.5587h1.3211a13.2592,13.2592,0,0,1,13.24,13.2489Z" transform="translate(-1.7128 -5.0638)"/></svg>