<?xml version="1.0" encoding="utf-8"?>
<!-- Generator: Adobe Illustrator 24.1.3, SVG Export Plug-In . SVG Version: 6.00 Build 0)  -->
<svg version="1.1" id="Layer_1" xmlns="http://www.w3.org/2000/svg" xmlns:xlink="http://www.w3.org/1999/xlink" x="0px" y="0px"
	 viewBox="0 0 250 250" style="enable-background:new 0 0 250 250;" xml:space="preserve">
<path d="M194.2,101.8c2.2-15.6-2.4-31.3-12.7-43.2c-10.3-11.9-25.2-18.8-41-18.8c-19.1,0-36.8,10.1-46.6,26.5
	c-12.4-5.3-26.6-3.9-37.6,3.8c-11,7.8-17.3,20.6-16.5,34C16.8,110.8,1,132,1,156c0,29.9,24.3,54.2,54.3,54.2h139.5
	c29.9,0,54.2-24.3,54.2-54.2c0-14.5-5.8-28.4-16-38.6C222.7,107.2,208.7,101.6,194.2,101.8L194.2,101.8z"/>
</svg>
