<?xml version="1.0" encoding="utf-8"?>
<!-- Generator: Adobe Illustrator 24.1.3, SVG Export Plug-In . SVG Version: 6.00 Build 0)  -->
<svg version="1.1" id="Icons_WorkFromHomeHouse" xmlns="http://www.w3.org/2000/svg" xmlns:xlink="http://www.w3.org/1999/xlink"
	 x="0px" y="0px" viewBox="0 0 250 250" style="enable-background:new 0 0 250 250;" xml:space="preserve">
<g>
	<path d="M125,43.1L125,43.1l110.6,105.1l13.4-11.5l-124-118h0L1,136.7l13.4,11.5L125,43.1z"/>
	<path d="M114.1,132.7v7.2h22.1v-7.2c0-0.6-0.4-1.1-1-1.1c0,0-0.1,0-0.1,0h-19.9c-0.6,0-1.1,0.4-1.1,1
		C114.1,132.7,114.1,132.7,114.1,132.7L114.1,132.7z"/>
	<path d="M36.4,143.5v87.8h177.1v-87.8L125,59.4L36.4,143.5z M169.3,197.4c0,2.4-2,4.4-4.4,4.4H85.4c-2.4,0-4.4-2-4.4-4.4v-30.9
		h37.5v2.2c0,2.4,2,4.4,4.4,4.4h4.4c2.4,0,4.4-2,4.4-4.4v-2.2h37.5V197.4z M142.8,132.7v7.2h22.1c2.4,0,4.4,2,4.4,4.4v16.1h-37.5v-3
		h-13.2v3H81v-16.1c0-2.4,2-4.4,4.4-4.4h22.1v-7.2c0-4.2,3.4-7.7,7.6-7.7c0,0,0.1,0,0.1,0h19.9C139.3,125,142.8,128.4,142.8,132.7
		C142.8,132.7,142.8,132.7,142.8,132.7z"/>
</g>
</svg>
