<?xml version="1.0" encoding="utf-8"?>
<!-- Generator: Adobe Illustrator 24.1.3, SVG Export Plug-In . SVG Version: 6.00 Build 0)  -->
<svg version="1.1" id="Icons_CycleWithPeople" xmlns="http://www.w3.org/2000/svg" xmlns:xlink="http://www.w3.org/1999/xlink"
	 x="0px" y="0px" viewBox="0 0 250 250" style="enable-background:new 0 0 250 250;" xml:space="preserve">
<style type="text/css">
	.st0{stroke:#FFFFFF;stroke-width:0.9999;}
</style>
<path class="st0" d="M75,150.5l16.8-29.2c-4.4-2.2-8.5-4.8-12.4-7.8l-18.2,31.6C66.1,146.4,70.7,148.2,75,150.5z"/>
<path class="st0" d="M144,212.5c-0.5-3-0.8-6.1-0.8-9.1c0-1.8,0.1-3.7,0.3-5.5h-37.1c0.2,1.8,0.3,3.6,0.3,5.5c0,3.1-0.3,6.1-0.8,9.1
	H144z"/>
<path class="st0" d="M172.4,152c4.2-2.6,8.7-4.6,13.3-6.1l-18.7-32.4c-3.9,3-8.1,5.7-12.5,7.8L172.4,152z"/>
<path class="st0" d="M46.6,157.8C21.4,157.8,1,178.2,1,203.4C1,228.6,21.4,249,46.6,249s45.6-20.4,45.6-45.6
	C92.2,178.2,71.8,157.8,46.6,157.8z M46.6,175.6c7.1,0,12.8,5.7,12.8,12.8c0,7.1-5.7,12.8-12.8,12.8c-7.1,0-12.8-5.7-12.8-12.8
	c0,0,0,0,0-0.1C33.8,181.3,39.5,175.6,46.6,175.6z M72.1,226.9H21.1v-9.7c0-2,1-3.9,2.6-5.1c3.8-2.7,8-4.8,12.5-6.1
	c3.4-1,7-1.5,10.5-1.6c3.6,0,7.1,0.6,10.5,1.6c4.5,1.2,8.8,3.2,12.5,6.1c1.6,1.2,2.5,3.1,2.6,5.1L72.1,226.9z"/>
<path class="st0" d="M179.7,57.5c0-31.2-25.3-56.5-56.5-56.5S66.6,26.3,66.6,57.5s25.3,56.5,56.5,56.5S179.7,88.7,179.7,57.5z
	 M123.1,22.9c8.8,0,15.9,7.1,15.9,15.9s-7.1,15.9-15.9,15.9s-15.9-7.1-15.9-15.9C107.2,30,114.3,22.9,123.1,22.9z M154.7,86.5H91.4
	V74.3c0-2.5,1.2-4.8,3.2-6.3c4.7-3.4,9.9-5.9,15.4-7.5c4.3-1.2,8.7-1.9,13.1-2c4.4,0,8.8,0.7,13.1,2c5.6,1.5,10.9,4,15.5,7.5
	c1.9,1.5,3.1,3.9,3.1,6.3V86.5z"/>
<path class="st0" d="M203.4,157.8c-25.2,0-45.6,20.4-45.6,45.6c0,25.2,20.4,45.6,45.6,45.6c25.2,0,45.6-20.4,45.6-45.6
	C249,178.2,228.6,157.8,203.4,157.8z M203.4,175.6c7.1,0,12.8,5.7,12.8,12.8c0,7.1-5.7,12.8-12.8,12.8c-7.1,0-12.8-5.7-12.8-12.8
	c0,0,0,0,0-0.1C190.7,181.3,196.4,175.6,203.4,175.6z M228.9,226.9h-51.1v-9.7c0-2,1-3.9,2.6-5.1c3.8-2.7,8-4.8,12.5-6.1
	c3.4-1,7-1.5,10.5-1.6c3.6,0,7.1,0.6,10.5,1.6c4.5,1.2,8.8,3.2,12.5,6.1c1.6,1.2,2.5,3.1,2.6,5.1L228.9,226.9z"/>
</svg>
