<?xml version="1.0" encoding="utf-8"?>
<!-- Generator: Adobe Illustrator 24.1.3, SVG Export Plug-In . SVG Version: 6.00 Build 0)  -->
<svg version="1.1" id="Layer_1" xmlns="http://www.w3.org/2000/svg" xmlns:xlink="http://www.w3.org/1999/xlink" x="0px" y="0px"
	 viewBox="0 0 250 250" style="enable-background:new 0 0 250 250;" xml:space="preserve">
<g>
	<path d="M18.4,175.2V36.6c0-10.1,8.2-18.2,18.1-18.2h63.4c1.8,0,3.6,0.3,5.4,0.9h0.1c2.2-0.4,4.4-0.6,6.8-0.6h18.4
		C124.5,8.1,113,1,99.9,1H36.5C16.9,1,1,17,1,36.6v138.6c0,19.6,15.9,35.6,35.5,35.6h28.9v-17.4H36.5
		C26.5,193.4,18.4,185.3,18.4,175.2z"/>
	<path d="M231.6,79.4l-32.2-32.2l-17.4-17.4h-47.2h-18h-4.8c-19.6,0-35.5,16-35.5,35.5v128.1v17.4v2.7c0,19.5,15.9,35.5,35.5,35.5
		h101.3c19.6,0,35.6-16,35.6-35.5V96.8L231.6,79.4z M213.4,231.6H112.2c-10,0-18.1-8.2-18.1-18.1v-2.7v-17.4V65.4
		c0-10,8.2-18.1,18.1-18.1h6h17.4h46.6v49.5h49.5v116.7C231.6,223.5,223.5,231.6,213.4,231.6z"/>
	<path d="M203.1,117.1c-4.2-4.2-9.6-6.2-15-6.2c-5.5,0-10.9,2-15,6.2l-16.2,16.2c1.1-0.2,2.3-0.3,3.5-0.3c2.2,0,4.3,0.3,6.4,0.8
		l11.5-11.5c2.6-2.6,6.1-4,9.8-4c3.6,0,7.2,1.4,9.8,4l3.5,3.5c2.6,2.6,4,6.2,4,9.8c0,3.7-1.4,7.2-4,9.8l-11.5,11.5l-2.3,2.3
		l-12.4,12.4c-0.2,0.2-0.4,0.4-0.7,0.6c-2.1,1.8-4.5,2.9-7.1,3.2c-0.7,0.1-1.3,0.2-2,0.2c-0.7,0-1.3-0.1-2-0.2
		c-2.8-0.4-5.6-1.6-7.7-3.8l-3.6-3.6c-2.1-2.1-3.5-4.8-3.8-7.7l-6,6c1,2.6,2.6,4.9,4.6,7l3.6,3.5c2.1,2.1,4.4,3.6,6.9,4.6
		c1,0.4,2,0.7,3,1c1.1,0.3,2.3,0.4,3.5,0.5c0.5,0.1,1,0.1,1.6,0.1c4.8,0,9.5-1.6,13.5-4.7c0.1-0.1,0.3-0.3,0.4-0.4
		c0.4-0.4,0.9-0.8,1.2-1.1l6.4-6.4v-0.1l3.6-3.6l16.2-16.2c4-4,6.2-9.3,6.2-15c0-5.6-2.2-11-6.2-15L203.1,117.1z"/>
	<path d="M159,187.9l-11.5,11.5c-2.8,2.7-6.2,4-9.8,4s-7.1-1.3-9.8-4l-3.6-3.6c-2.6-2.6-4-6.1-4-9.8c0-3.6,1.4-7.2,4-9.7l11.5-11.5
		l2.3-2.3l2.6-2.6l9.8-9.8c0.3-0.3,0.5-0.5,0.8-0.7c2-1.7,4.4-2.8,7-3.1c0.7-0.1,1.3-0.2,2-0.2c0.7,0,1.3,0.1,2,0.2
		c3,0.4,5.6,1.6,7.8,3.8l3.5,3.5c2.2,2.2,3.5,4.9,3.8,7.9l6.1-6.1c-1-2.6-2.6-5-4.7-7l-3.5-3.5c-2.1-2.1-4.5-3.6-7-4.6
		c-1-0.4-2-0.8-3-1c-1.1-0.3-2.3-0.4-3.5-0.5c-0.5-0.1-1-0.1-1.5-0.1c-5.2,0-10.5,1.8-14.5,5.6c-0.2,0.2-0.3,0.3-0.4,0.5h-0.1
		l-6.5,6.4v0.1l-3.6,3.6L119,171.1c-4,4-6.2,9.4-6.2,15c0,5.7,2.2,11,6.2,15l3.6,3.6c4.1,4.1,9.5,6.2,15,6.2c5.4,0,10.9-2.1,15-6.2
		l16.1-16.1c-1.1,0.1-2.3,0.2-3.4,0.2C163.2,188.7,161,188.4,159,187.9z"/>
</g>
</svg>
