<?xml version="1.0" encoding="utf-8"?>
<!-- Generator: Adobe Illustrator 24.1.3, SVG Export Plug-In . SVG Version: 6.00 Build 0)  -->
<svg version="1.1" id="Icons_Repeat" xmlns="http://www.w3.org/2000/svg" xmlns:xlink="http://www.w3.org/1999/xlink" x="0px"
	 y="0px" viewBox="0 0 250 250" style="enable-background:new 0 0 250 250;" xml:space="preserve">
<path d="M52.4,150.6l51.3-51.3H75.1c9.3-18.2,28.3-30.7,50.2-30.7c14.1,0,27.2,5.3,37.1,14.1h52.1c-15.8-33.6-49.9-56.6-89.2-56.6
	c-45.6,0-84.1,31-95.3,73.1H1.1L52.4,150.6z"/>
<path d="M249.1,150.6l-51.3-51.3l-51.3,51.3h28.8c-9.3,18.2-28.3,30.7-50.2,30.7c-14.1,0-27.2-5.3-37.1-14.1H35.9
	c16,33.6,49.9,56.6,89.4,56.6c45.6,0,84.1-31,95.3-73.1H249.1z"/>
</svg>
