<?xml version="1.0" encoding="utf-8"?>
<!-- Generator: Adobe Illustrator 24.1.3, SVG Export Plug-In . SVG Version: 6.00 Build 0)  -->
<svg version="1.1" id="Layer_1" xmlns="http://www.w3.org/2000/svg" xmlns:xlink="http://www.w3.org/1999/xlink" x="0px" y="0px"
	 viewBox="0 0 250 250" style="enable-background:new 0 0 250 250;" xml:space="preserve">
<g>
	<polygon points="150.4,188 130.8,188 144.9,205 159.1,222 173.2,205 187.4,188 167.8,188 167.8,171.6 150.4,171.6 	"/>
	<rect x="82.2" y="171.6" width="17.3" height="50.4"/>
	<path d="M203.5,80.7c-0.9,0-2,0-2.9,0.2c0.9-3.4,1.5-7.1,1.5-10.8c0-23.2-18.8-42-41.9-42c-14.7,0-27.7,7.7-35.1,19.1
		C117.6,35.6,104.6,28,89.9,28c-23.2,0-42,18.9-42,42c0,3.8,0.5,7.4,1.5,10.8c-0.9-0.2-2-0.2-2.9-0.2C21.3,80.7,1,101,1,126.2
		c0,25.1,20.3,45.5,45.4,45.5h35.8v-38.8H62.6l14.1-17l4.1-4.9l5.5-6.5l4.6-5.6l9.7,11.7l4.4,5.3l14.1,17H99.5v38.8h50.9v-60.9v-12
		h16.9h0.5v12.5v60.4h35.7c25.1,0,45.5-20.4,45.5-45.5C249,101,228.6,80.7,203.5,80.7z"/>
</g>
</svg>
