<?xml version="1.0" encoding="utf-8"?>
<!-- Generator: Adobe Illustrator 24.1.3, SVG Export Plug-In . SVG Version: 6.00 Build 0)  -->
<svg version="1.1" id="Layer_1" xmlns="http://www.w3.org/2000/svg" xmlns:xlink="http://www.w3.org/1999/xlink" x="0px" y="0px"
	 viewBox="0 0 250 250" style="enable-background:new 0 0 250 250;" xml:space="preserve">
<path d="M197,31.6c-1,0-1.9-0.2-2.9-0.7c-23.7-12.3-44.4-17.5-69.1-17.5c-24.6,0-47.8,5.9-69.1,17.5c-3,1.6-6.8,0.6-8.4-2.5
	c-1.6-3-0.6-6.8,2.5-8.4c23.1-12.6,48.4-19,75-19c26.4,0,49.5,5.8,74.8,18.9c3,1.5,4.2,5.3,2.7,8.4C201.4,30.4,199.3,31.6,197,31.6z
	 M19.6,96.7c-1.2,0-2.5-0.4-3.6-1.1c-2.8-2-3.5-5.8-1.5-8.6c12.3-17.4,28-31,46.6-40.6c39-20.2,88.8-20.2,127.9-0.1
	c18.5,9.5,34.2,23.1,46.5,40.3c2,2.8,1.4,6.6-1.4,8.6c-2.8,2-6.7,1.4-8.7-1.4c-11.2-15.6-25.3-27.9-42-36.5
	c-35.6-18.3-81-18.2-116.6,0.1c-16.8,8.7-31,21-42.1,36.8C23.4,95.9,21.5,96.7,19.6,96.7z M97.2,246.3c-1.6,0-3.2-0.6-4.4-1.9
	c-10.7-10.8-16.6-17.7-24.9-32.7c-8.6-15.3-13.1-33.9-13.1-53.9c0-36.8,31.5-66.8,70.2-66.8s70.2,29.9,70.2,66.8
	c0,3.4-2.8,6.2-6.2,6.2c-3.4,0-6.2-2.8-6.2-6.2c0-30-25.9-54.4-57.8-54.4c-31.9,0-57.8,24.4-57.8,54.4c0,17.9,4,34.3,11.5,47.8
	c8,14.3,13.3,20.4,22.9,30c2.4,2.4,2.4,6.4-0.1,8.7C100.3,245.8,98.7,246.3,97.2,246.3z M186,223.4c-14.8,0-27.7-3.7-38.4-11
	c-18.4-12.5-29.5-32.9-29.5-54.4c0-3.4,2.8-6.2,6.2-6.2c3.4,0,6.2,2.8,6.2,6.2c0,17.4,9,33.9,24.1,44.1c8.7,6,19,8.9,31.4,8.9
	c3,0,8-0.3,13-1.2c3.3-0.6,6.6,1.7,7.2,5c0.6,3.3-1.7,6.6-5,7.2C193.9,223.3,187.7,223.4,186,223.4z M161,249
	c-0.6,0-1.1-0.1-1.6-0.2c-19.8-5.4-32.7-12.7-46.1-26C96,205.5,86.5,182.5,86.5,158c0-20.1,17.1-36.5,38.2-36.5s38.2,16.4,38.2,36.5
	c0,13.3,11.6,24.1,25.8,24.1c14.2,0,25.8-10.8,25.8-24.1c0-46.7-40.3-84.8-89.8-84.8c-35.3,0-67.5,19.6-82,50
	c-4.8,10-7.3,21.8-7.3,34.8c0,9.7,0.9,24.9,8.2,44.7c1.2,3.2-0.4,6.8-3.7,8c-3.2,1.2-6.8-0.4-8-3.7c-6.1-16.3-9.1-32.3-9.1-49
	c0-14.9,2.9-28.4,8.5-40.1c16.6-34.6,53.1-57,93.1-57c56.4,0,102.2,43.6,102.2,97.2c0,20.2-17.2,36.5-38.2,36.5
	c-21,0-38.2-16.4-38.2-36.5c0-13.3-11.6-24.1-25.8-24.1c-14.2,0-25.8,10.8-25.8,24.1c0,21.1,8.2,41,23.2,55.9
	c11.7,11.7,23.1,18.1,40.6,22.9c3.3,0.9,5.3,4.3,4.3,7.6C166.2,247.2,163.7,249,161,249z"/>
</svg>
