<?xml version="1.0" encoding="utf-8"?>
<!-- Generator: Adobe Illustrator 24.1.3, SVG Export Plug-In . SVG Version: 6.00 Build 0)  -->
<svg version="1.1" id="Icons_ShareWithPerson" xmlns="http://www.w3.org/2000/svg" xmlns:xlink="http://www.w3.org/1999/xlink"
	 x="0px" y="0px" viewBox="0 0 250 250" style="enable-background:new 0 0 250 250;" xml:space="preserve">
<path d="M52.7,74.6C24.1,74.6,1,97.8,1,126.3S24.1,178,52.7,178s51.7-23.1,51.7-51.7S81.2,74.6,52.7,74.6z M52.7,94.6
	c8,0,14.5,6.5,14.5,14.5s-6.5,14.5-14.5,14.5c-8,0-14.5-6.5-14.5-14.5c0,0,0,0,0,0C38.2,101.1,44.7,94.7,52.7,94.6z M81.6,152.8
	H23.7v-11.2c0.1-2.3,1.1-4.4,2.9-5.8c4.3-3,9.1-5.2,14.1-6.6c3.9-1.1,7.9-1.7,11.9-1.8c4,0,8.1,0.6,11.9,1.8
	c5.1,1.3,9.9,3.7,14.1,6.9c1.8,1.4,2.8,3.5,2.9,5.8L81.6,152.8z"/>
<path d="M161.8,61.1l-50.6,30.3c2.8,4.8,5.1,9.9,6.8,15.2l52.1-31.2C166.6,71.1,163.8,66.3,161.8,61.1z"/>
<circle cx="211.8" cy="41.6" r="37.2"/>
<path d="M170.1,177.2L118,145.8c-1.7,5.3-3.9,10.4-6.8,15.2l50.6,30.5C163.8,186.3,166.6,181.5,170.1,177.2z"/>
<circle cx="211.8" cy="211" r="37.2"/>
</svg>
