<?xml version="1.0" encoding="utf-8"?>
<!-- Generator: Adobe Illustrator 24.1.3, SVG Export Plug-In . SVG Version: 6.00 Build 0)  -->
<svg version="1.1" id="Icons_MagnifyingGlass" xmlns="http://www.w3.org/2000/svg" xmlns:xlink="http://www.w3.org/1999/xlink"
	 x="0px" y="0px" viewBox="0 0 250 250" style="enable-background:new 0 0 250 250;" xml:space="preserve">
<path d="M242.6,211.4l-39.2-39.2c-5.3-5.3-12.6-7.2-19.5-6l-13.8-13.8c12.2-15.7,19.5-35.8,19.5-57.1c0-51.8-42.4-94.2-94.2-94.2
	S1.2,43.5,1.2,95.3s42.4,94.2,94.2,94.2c21.3,0,41.1-7.2,57.1-19.5l13.8,13.8c-1.3,6.9,0.6,14.1,6,19.5l39.2,39.2
	c4.4,4.4,10,6.6,15.7,6.6c5.7,0,11.3-2.2,15.7-6.6C251.1,233.7,251.1,219.9,242.6,211.4z M95,170.3c-41.4,0-75.3-33.9-75.3-75.3
	S53.6,19.6,95,19.6s75.3,33.9,75.3,75.3S136.5,170.3,95,170.3z"/>
</svg>
