<svg id="Layer_2" data-name="Layer 2" xmlns="http://www.w3.org/2000/svg" viewBox="0 0 342.7 102.96"><defs><style>.cls-1,.cls-6{font-size:38px;}.cls-1,.cls-4{fill:#39b54a;}.cls-1,.cls-6,.cls-7{font-family:ConthraxBold, Conthrax Bold;}.cls-2{letter-spacing:-0.01em;}.cls-3{letter-spacing:-0.02em;}.cls-5,.cls-6,.cls-7{fill:#000104;}.cls-7{font-size:17px;}.cls-8{letter-spacing:-0.02em;}</style></defs><text class="cls-1" transform="translate(114.36 91.53)"><tspan class="cls-2">L</tspan><tspan x="30.13" y="0">oc</tspan><tspan class="cls-3" x="91.05" y="0">k</tspan><tspan x="120.88" y="0">er</tspan></text><path class="cls-4" d="M68.26,88.87a1.13,1.13,0,0,0,1.14-1.6L64.64,73.41a2.89,2.89,0,0,1,.65-2.77A5.76,5.76,0,0,0,66.93,67a5.56,5.56,0,1,0-11.12,0,5.76,5.76,0,0,0,1.64,3.68,2.92,2.92,0,0,1,.66,2.77L53.35,87.27a1.13,1.13,0,0,0,1.13,1.6Z" transform="translate(-9.19 -9.19)"/><path class="cls-4" d="M42.64,39.39v-2.1a18.74,18.74,0,1,1,37.47,0v2.1a32.09,32.09,0,0,1,9.34,9.73V37.29a28.08,28.08,0,1,0-56.16,0V49.12A32.12,32.12,0,0,1,42.64,39.39Z" transform="translate(-9.19 -9.19)"/><path class="cls-4" d="M91.74,58.23H89.67C86.55,45.92,74.92,36.77,61.05,36.77S35.54,45.92,32.42,58.23H31A21.81,21.81,0,0,0,9.19,80.05v6.49A21.81,21.81,0,0,0,31,108.36H91.74a21.81,21.81,0,0,0,21.81-21.82V80.05A21.81,21.81,0,0,0,91.74,58.23ZM105,86.54A13.25,13.25,0,0,1,91.74,99.79H31A13.26,13.26,0,0,1,17.76,86.54V80.05A13.26,13.26,0,0,1,31,66.8h1.44c2.39,0,6.65,1.56,6.65,1.56a62.27,62.27,0,0,1,1.85-10.13,21.63,21.63,0,0,1,40.22,0A63.19,63.19,0,0,1,83,68.36s4.69-1.56,7.42-1.56h1.32A13.25,13.25,0,0,1,105,80.05Z" transform="translate(-9.19 -9.19)"/><path class="cls-5" d="M297,108H126.55a1.46,1.46,0,0,1,0-2.88H297a1.46,1.46,0,0,1,0,2.88Z" transform="translate(-9.19 -9.19)"/><text class="cls-6" transform="translate(112.72 59.57)">Evidence</text><text class="cls-7" transform="translate(289.79 98.34)"><tspan class="cls-8">.</tspan><tspan x="4.57" y="0">Com</tspan></text></svg>