<svg viewBox="0 0 96 96" xmlns="http://www.w3.org/2000/svg" xmlns:xlink="http://www.w3.org/1999/xlink" id="Icons_Key_M" overflow="hidden"><g id="Icons"><path d="M43.5 38.011C37.9772 27.8086 25.2294 24.0151 15.027 29.538 4.82463 35.0608 1.03114 47.8086 6.55398 58.011 12.0768 68.2134 24.8246 72.0069 35.027 66.484 38.6141 64.5422 41.5582 61.5981 43.5 58.011L50 58.011 54 54.011 58 58.011 64.5 51.511 71 58.011 77.5 51.511 84 58.011 92 48.011 84 38.011ZM83.836 55.021 78.918 50.1 77.5 48.686 76.089 50.1 71 55.188 65.918 50.1 64.5 48.686 63.089 50.1 58 55.188 55.417 52.6 54 51.187 52.588 52.6 49.174 56.015 42.315 56.015 41.746 57.058C36.7503 66.2897 25.2167 69.7237 15.985 64.728 6.75333 59.7323 3.31936 48.1987 8.31506 38.967 13.3107 29.7353 24.8443 26.3013 34.076 31.297 37.3235 33.0544 39.9887 35.7196 41.746 38.967L42.315 40.01 83.043 40.01 86.233 44 46 44 46 46 87.833 46 89.443 48.013Z" stroke="#70AD47" stroke-width="0.999917" fill="#70AD47"/><path d="M16 42.012C12.6863 42.012 10 44.6983 10 48.012 10 51.3257 12.6863 54.012 16 54.012 19.3137 54.012 22 51.3257 22 48.012 21.9896 44.7026 19.3094 42.0224 16 42.012ZM16 52.012C13.7909 52.012 12 50.2211 12 48.012 12 45.8029 13.7909 44.012 16 44.012 18.2091 44.012 20 45.8029 20 48.012 19.9983 50.2209 18.2089 52.0117 16 52.015Z" stroke="#70AD47" stroke-width="0.999917" fill="#70AD47"/></g></svg>