<svg viewBox="0 0 96 96" xmlns="http://www.w3.org/2000/svg" xmlns:xlink="http://www.w3.org/1999/xlink" id="Icons_Image_M" overflow="hidden"><g id="Icons"><path d="M18 68 77 68C77.6 68 78 67.6 78 67 78 66.8 78 66.7 77.9 66.5L63.9 42.5C63.7 42.2 63.4 42 63 42L63 42C62.6 42 62.3 42.2 62.1 42.5L55.8 54.2 40.8 31.4C40.7 31.2 40.3 31 40 31L40 31C39.7 31 39.3 31.2 39.2 31.5L27.3 50.3C27.2 50.4 27.1 50.6 27 50.7L17.1 66.5C16.8 67 16.9 67.6 17.4 67.9 17.6 67.9 17.8 68 18 68ZM63 45.1 75.3 66 63.5 66 57 56.1 63 45.1C63 45.1 63 45.1 63 45.1 63 45.1 63 45.1 63 45.1ZM50.1 49.2 44 45.6C43.6 45.4 43.1 45.4 42.8 45.8L40 48.6 37.7 46.3C37.4 46 37 45.9 36.6 46.1L30.7 48.7 40 33.9C40 33.9 40 33.9 40 33.9L50.1 49.2ZM28.8 51.8 36.8 48.2 39.3 50.7C39.7 51.1 40.3 51.1 40.7 50.7L43.7 47.7 52.5 52.8C52.5 52.8 52.5 52.8 52.5 52.8L61.1 66 19.8 66 28.8 51.8Z" stroke="#70AD47" stroke-width="0.999917" fill="#70AD47"/><path d="M27 35C28.7 35 30 33.7 30 32 30 30.3 28.7 29 27 29 25.3 29 24 30.3 24 32 24 33.7 25.3 35 27 35ZM27 31C27.6 31 28 31.4 28 32 28 32.6 27.6 33 27 33 26.4 33 26 32.6 26 32 26 31.4 26.4 31 27 31Z" stroke="#70AD47" stroke-width="0.999917" fill="#70AD47"/><path d="M86 20 10 20 10 78 86 78 86 20ZM84 76 12 76 12 22 84 22 84 76Z" stroke="#70AD47" stroke-width="0.999917" fill="#70AD47"/></g></svg>