<svg viewBox="0 0 96 96" xmlns="http://www.w3.org/2000/svg" xmlns:xlink="http://www.w3.org/1999/xlink" id="Icons_Tablet_M" overflow="hidden"><g id="Icons"><path d="M15 25 13 25 13 71.02 15 71.02 70 71 83 71 83 69 83 27 83 25 15 25ZM81 69 70 69 15 69.02 15 27 81 27Z" stroke="#70AD47" stroke-width="0.999955" fill="#70AD47"/><path d="M84 20.005 12 20.005C9.79382 20.0121 8.00714 21.7988 8 24.005L8 72.02C8.00659 74.2264 9.7936 76.0134 12 76.02L84 76.02C86.2064 76.0134 87.9934 74.2264 88 72.02L88 24.007C87.994 21.8 86.207 20.0121 84 20.005ZM86 72.02C86 73.1246 85.1046 74.02 84 74.02L12 74.02C10.8954 74.02 10 73.1246 10 72.02L10 24.007C10 22.9024 10.8954 22.007 12 22.007L84 22.007C85.1046 22.007 86 22.9024 86 24.007Z" stroke="#70AD47" stroke-width="0.999955" fill="#70AD47"/></g></svg>