<svg width="235" height="150" xmlns="http://www.w3.org/2000/svg" xmlns:xlink="http://www.w3.org/1999/xlink" overflow="hidden"><defs><filter id="fx0" x="-10%" y="-10%" width="120%" height="120%" filterUnits="userSpaceOnUse" primitiveUnits="userSpaceOnUse"><feComponentTransfer color-interpolation-filters="sRGB"><feFuncR type="discrete" tableValues="0 0"/><feFuncG type="discrete" tableValues="0 0"/><feFuncB type="discrete" tableValues="0 0"/><feFuncA type="linear" slope="0.4" intercept="0"/></feComponentTransfer><feGaussianBlur stdDeviation="1.77778 1.77778"/></filter><clipPath id="clip1"><rect x="209" y="190" width="235" height="150"/></clipPath><clipPath id="clip2"><path d="M212.5 213.5 212.5 333.5 433.5 333.5 433.5 213.5ZM209 190 444 190 444 340 209 340Z" fill-rule="evenodd" clip-rule="evenodd"/></clipPath><clipPath id="clip3"><rect x="-2" y="-2" width="240" height="139"/></clipPath><clipPath id="clip4"><rect x="0" y="0" width="236" height="135"/></clipPath><clipPath id="clip5"><rect x="351" y="311" width="19" height="20"/></clipPath><clipPath id="clip6"><rect x="351" y="311" width="19" height="20"/></clipPath><clipPath id="clip7"><rect x="351" y="311" width="19" height="20"/></clipPath><clipPath id="clip8"><rect x="239" y="206" width="48" height="48"/></clipPath><clipPath id="clip9"><rect x="239" y="206" width="48" height="48"/></clipPath><clipPath id="clip10"><rect x="239" y="206" width="48" height="48"/></clipPath></defs><g clip-path="url(#clip1)" transform="translate(-209 -190)"><g clip-path="url(#clip2)"><g clip-path="url(#clip3)" filter="url(#fx0)" transform="translate(209 206)"><g clip-path="url(#clip4)"><rect x="7.50005" y="7.50005" width="221" height="120" stroke="#FFFFFF" stroke-miterlimit="8" fill="#FFFFFF"/></g></g></g><rect x="212.5" y="213.5" width="221" height="120" stroke="#FFFFFF" stroke-width="1.33333" stroke-miterlimit="8" fill="#FFFFFF"/><rect x="223.5" y="191.5" width="77" height="77" stroke="#44546A" stroke-width="1.33333" stroke-miterlimit="8" fill="#44546A"/><text font-family="Calibri,Calibri_MSFontService,sans-serif" font-weight="700" font-size="13" transform="translate(333.265 237)">Account Owners<tspan font-size="32" x="58.6667" y="34">12</tspan></text><rect x="212.5" y="308.5" width="220" height="25" stroke="#4472C4" stroke-width="0" stroke-miterlimit="8" stroke-opacity="0.501961" fill="#4472C4" fill-opacity="0.501961"/><text fill="#FFFFFF" font-family="Calibri,Calibri_MSFontService,sans-serif" font-weight="400" font-size="13" transform="translate(300.059 324)">Manage</text><g clip-path="url(#clip5)"><g clip-path="url(#clip6)"><g clip-path="url(#clip7)"><path d="M9.5 2.375C13.435 2.375 16.625 5.56496 16.625 9.5 16.625 13.435 13.435 16.625 9.5 16.625 5.56496 16.625 2.375 13.435 2.375 9.5 2.37914 5.56668 5.56668 2.37914 9.5 2.375M9.5 1.97917C5.34636 1.97917 1.97917 5.34636 1.97917 9.5 1.97917 13.6536 5.34636 17.0208 9.5 17.0208 13.6536 17.0208 17.0208 13.6536 17.0208 9.5 17.0208 5.34636 13.6536 1.97917 9.5 1.97917Z" transform="matrix(1 0 0 1.05263 351 311)"/><path d="M14.3901 9.36007 11.4214 6.39132C11.3427 6.31538 11.2175 6.31756 11.1415 6.39619 11.0674 6.47288 11.0674 6.59448 11.1415 6.67118L13.7691 9.29872C13.7708 9.3005 13.7702 9.30208 13.7677 9.30208L4.61819 9.30208C4.50888 9.30208 4.42027 9.39069 4.42027 9.5 4.42027 9.60931 4.50888 9.69792 4.61819 9.69792L13.7677 9.69792C13.7688 9.69794 13.7696 9.69883 13.7696 9.69992 13.7696 9.70043 13.7694 9.70093 13.7691 9.70128L11.1415 12.3288C11.0629 12.4048 11.0607 12.53 11.1367 12.6087 11.2126 12.6873 11.3379 12.6895 11.4165 12.6135 11.4182 12.6119 11.4198 12.6103 11.4214 12.6087L14.3901 9.63993C14.4674 9.56264 14.4674 9.43736 14.3901 9.36007Z" transform="matrix(1 0 0 1.05263 351 311)"/></g></g></g><g clip-path="url(#clip8)"><g clip-path="url(#clip9)"><g clip-path="url(#clip10)"><path d="M263 214C266.866 214 270 217.134 270 221 270 224.866 266.866 228 263 228 259.134 228 256 224.866 256 221 256.004 217.136 259.136 214.004 263 214M263 213C258.582 213 255 216.582 255 221 255 225.418 258.582 229 263 229 267.418 229 271 225.418 271 221 271 216.582 267.418 213 263 213Z" fill="#FFFFFF"/><path d="M279 247 278 247 278 239.25C277.976 238.188 277.476 237.193 276.638 236.54 274.445 234.858 271.934 233.637 269.257 232.95 267.229 232.326 265.121 232.006 263 232 260.88 232.037 258.774 232.356 256.738 232.95 254.089 233.726 251.589 234.943 249.344 236.55 248.514 237.203 248.021 238.194 248 239.25L248 247 247 247 247 239.25C247.025 237.884 247.663 236.602 248.738 235.76 251.084 234.076 253.697 232.801 256.469 231.988 258.592 231.37 260.789 231.037 263 231 265.216 231.005 267.419 231.339 269.538 231.99 272.342 232.712 274.971 233.996 277.267 235.762 278.339 236.605 278.976 237.886 279 239.25Z" fill="#FFFFFF"/></g></g></g></g></svg>