<svg width="49" height="50" xmlns="http://www.w3.org/2000/svg" xmlns:xlink="http://www.w3.org/1999/xlink" overflow="hidden"><defs><clipPath id="clip0"><rect x="283" y="142" width="49" height="50"/></clipPath><clipPath id="clip1"><rect x="283" y="143" width="48" height="48"/></clipPath><clipPath id="clip2"><rect x="283" y="143" width="48" height="48"/></clipPath><clipPath id="clip3"><rect x="283" y="143" width="48" height="48"/></clipPath></defs><g clip-path="url(#clip0)" transform="translate(-283 -142)"><g clip-path="url(#clip1)"><g clip-path="url(#clip2)"><g clip-path="url(#clip3)"><path d="M307 173C303.7 173 301 170.3 301 167 301 163.7 303.7 161 307 161 310.3 161 313 163.7 313 167 313 170.3 310.3 173 307 173ZM320.5 163.25C320.2 162.15 319.75 161.1 319.2 160.15L320.45 156.4 317.6 153.55 313.85 154.8C312.85 154.25 311.8 153.8 310.7 153.5L309 150 305 150 303.25 153.5C302.15 153.8 301.1 154.25 300.15 154.8L296.4 153.55 293.55 156.4 294.8 160.15C294.25 161.15 293.8 162.2 293.5 163.3L290 165 290 169 293.5 170.75C293.8 171.85 294.25 172.9 294.8 173.85L293.55 177.6 296.4 180.45 300.15 179.2C301.15 179.75 302.2 180.2 303.3 180.5L305.05 184 309.05 184 310.8 180.5C311.9 180.2 312.95 179.75 313.9 179.2L317.65 180.45 320.5 177.6 319.25 173.85C319.8 172.85 320.25 171.8 320.55 170.7L324.05 168.95 324.05 164.95 320.5 163.25Z" fill="#70AD47"/></g></g></g></g></svg>