<?xml version="1.0" encoding="utf-8"?>
<!-- Generator: Adobe Illustrator 25.0.0, SVG Export Plug-In . SVG Version: 6.00 Build 0)  -->
<svg version="1.1" id="Layer_1" xmlns="http://www.w3.org/2000/svg" xmlns:xlink="http://www.w3.org/1999/xlink" x="0px" y="0px"
	 viewBox="0 0 72 72" style="enable-background:new 0 0 72 72;" xml:space="preserve">
<style type="text/css">
	.st0{fill:#70AD47;stroke:#70AD47;stroke-miterlimit:10;}
</style>
<g id="comp_x5F_347-uber">
	<g>
		<path d="M63.5,3.6h-55c-2.7,0-4.9,2.2-4.9,4.9v55c0,2.7,2.2,4.9,4.9,4.9h55c2.7,0,4.9-2.2,4.9-4.9v-55C68.4,5.8,66.2,3.6,63.5,3.6
			z M38,55.5C27.2,56.6,17.5,48.8,16.5,38h13.7v3c0,0.5,0.4,1,1,1h9.8c0.5,0,1-0.4,1-1v-9.8c0-0.5-0.4-1-1-1h-9.8c-0.5,0-1,0.4-1,1
			v3H16.5c1-10,9.5-17.7,19.5-17.7c10.1,0,18.5,7.6,19.5,17.7C56.6,44.8,48.8,54.5,38,55.5z"/>
	</g>
</g>
<g id="Layer_1_1_">
</g>
<g id="comp_x5F_347-uber_1_">
	<g>
		<path d="M64.5,3.6h-55c-2.7,0-4.9,2.2-4.9,4.9v55c0,2.7,2.2,4.9,4.9,4.9h55c2.7,0,4.9-2.2,4.9-4.9v-55C69.4,5.8,67.2,3.6,64.5,3.6
			z M39,55.5C28.2,56.6,18.5,48.8,17.5,38h13.7v3c0,0.5,0.4,1,1,1h9.8c0.5,0,1-0.4,1-1v-9.8c0-0.5-0.4-1-1-1h-9.8c-0.5,0-1,0.4-1,1
			v3H17.5c1-10,9.5-17.7,19.5-17.7c10.1,0,18.5,7.6,19.5,17.7C57.6,44.8,49.8,54.5,39,55.5z"/>
	</g>
</g>
<g id="Layer_1_2_">
</g>
<g id="comp_x5F_347-uber_2_">
	<g>
		<path class="st0" d="M63.5,3.6h-55c-2.7,0-4.9,2.2-4.9,4.9v55c0,2.7,2.2,4.9,4.9,4.9h55c2.7,0,4.9-2.2,4.9-4.9v-55
			C68.4,5.8,66.2,3.6,63.5,3.6z M38,55.5C27.2,56.6,17.5,48.8,16.5,38h13.7v3c0,0.5,0.4,1,1,1h9.8c0.5,0,1-0.4,1-1v-9.8
			c0-0.5-0.4-1-1-1h-9.8c-0.5,0-1,0.4-1,1v3H16.5c1-10,9.5-17.7,19.5-17.7c10.1,0,18.5,7.6,19.5,17.7C56.6,44.8,48.8,54.5,38,55.5z"
			/>
	</g>
</g>
<g id="Layer_1_3_">
</g>
</svg>
