<?xml version="1.0" encoding="utf-8"?>
<!-- Generator: Adobe Illustrator 25.0.0, SVG Export Plug-In . SVG Version: 6.00 Build 0)  -->
<svg version="1.1" id="Layer_1" xmlns="http://www.w3.org/2000/svg" xmlns:xlink="http://www.w3.org/1999/xlink" x="0px" y="0px"
	 viewBox="0 0 72 72" style="enable-background:new 0 0 72 72;" xml:space="preserve">
<style type="text/css">
	.st0{fill:#4472C4;stroke:#4472C4;stroke-miterlimit:10;}
	.st1{fill:#FFFFFF;}
</style>
<path class="st0" d="M63,3.6H9C6,3.6,3.6,6,3.6,9v54c0,3,2.4,5.4,5.4,5.4h54c3,0,5.4-2.4,5.4-5.4V9C68.4,6,66,3.6,63,3.6z"/>
<path id="Win8_2_" class="st1" d="M21,47l12,1.5V37H21V47z M21,35h12V23.5l-12,2V35z M35,49l16,2V37H35V49z M35,23v12h16V21L35,23z"
	/>
</svg>
