<?xml version="1.0" encoding="utf-8"?>
<!-- Generator: Adobe Illustrator 24.1.3, SVG Export Plug-In . SVG Version: 6.00 Build 0)  -->
<svg version="1.1" id="Layer_1" xmlns="http://www.w3.org/2000/svg" xmlns:xlink="http://www.w3.org/1999/xlink" x="0px" y="0px"
	 viewBox="0 0 250 250" style="enable-background:new 0 0 250 250;" xml:space="preserve">
<style type="text/css">
	.st0{fill-rule:evenodd;clip-rule:evenodd;}
</style>
<path d="M43,205.8v-16.3h23.5v16.3C58.7,204.4,50.8,204.4,43,205.8z"/>
<path d="M62.2,1C77.6,1,90,13.5,90,28.9c0,15.4-12.5,27.9-27.9,27.9c-15.4,0-27.9-12.5-27.9-27.9c0-7.4,2.9-14.5,8.2-19.7
	C47.7,3.9,54.8,1,62.2,1z"/>
<path class="st0" d="M25.5,174.9h65.1c3.2,0,5.7,2.6,5.7,5.7c0,3.1-2.6,5.7-5.7,5.7H19.8c-3.2,0-5.7-2.6-5.7-5.7V72.1
	c0-3.2,2.6-5.7,5.7-5.7s5.7,2.6,5.7,5.7L25.5,174.9z"/>
<path d="M39.5,67.8c4.4-4.4,10.5-6.9,16.7-6.9c10.3,0,18.7,9,26.6,17.7c2.6,2.8,5.1,5.5,7.5,7.8h36.9c6.5,0,11.8,5.3,11.8,11.8
	c0,6.5-5.3,11.8-11.8,11.8H86c-0.1,0-0.3,0-0.4,0c-1.3,0-2.5-0.3-3.7-0.7c-0.7-0.3-1.4-0.6-2-1V140h38.5c7.4,0,13.3,6,13.3,13.3
	v58.1h7.9c7.4,0,13.3,6,13.3,13.3c0,7.4-6,13.3-13.3,13.3h-21.2c-7.4,0-13.3-6-13.3-13.3v-54.5c-16.7,0-21.7,0-26.2,0
	c-13.8,0-18.6,0-22.7,0c-13.1,0-23.7-10.6-23.7-23.7V84.5C32.5,78.2,35,72.2,39.5,67.8z"/>
<path d="M235.9,122.7l0,122.5h-3.8l3.8,0c0,2.1-1.7,3.8-3.8,3.8h0h-57.2c-2.1,0-3.8-1.7-3.8-3.8c0-0.1,0-0.2,0-0.3l0-102.7h-36.9
	c-6.5,0-11.7-5.3-11.7-11.8c0-6.4,5.2-11.7,11.7-11.7h40.1c0.2,0,0.4,0,0.6,0h57.2c2.1,0,3.8,1.7,3.8,3.8v0
	C235.9,122.5,235.9,122.6,235.9,122.7L235.9,122.7z M190.3,217.2c-2.1,0-3.8,1.7-3.8,3.8c0,2.1,1.7,3.8,3.8,3.8h26.5
	c2.1,0,3.8-1.7,3.8-3.8c0-2.1-1.7-3.8-3.8-3.8H190.3z M190.3,192.4c-2.1,0-3.8,1.7-3.8,3.8c0,2.1,1.7,3.8,3.8,3.8h26.5
	c2.1,0,3.8-1.7,3.8-3.8c0-2.1-1.7-3.8-3.8-3.8H190.3z M190.3,167.5c-2.1,0-3.8,1.7-3.8,3.8c0,2.1,1.7,3.8,3.8,3.8c0,0,0,0,0,0h26.5
	c2.1,0,3.8-1.7,3.8-3.8c0-2.1-1.7-3.8-3.8-3.8c0,0,0,0,0,0H190.3z M190.3,142.7c-2.1,0-3.8,1.7-3.8,3.8c0,2.1,1.7,3.8,3.8,3.8
	c0,0,0,0,0,0h26.5c2.1,0,3.8-1.7,3.8-3.8c0-2.1-1.7-3.8-3.8-3.8c0,0,0,0,0,0H190.3z"/>
<path class="st0" d="M211.9,107.5L211.9,107.5l-0.5,1.8c0,0.1,0,0.2-0.1,0.2l-0.4,1.6l-0.3-0.1c-1.1,1.6-2.9,2.5-4.8,2.5h-55
	c-3.2,0-5.7-2.6-5.7-5.7c0-3.2,2.6-5.7,5.7-5.7h50.7l11.6-43.5c0.8-3,4-4.8,7-4c3,0.8,4.8,3.9,4,6.9L211.9,107.5z"/>
<path class="st0" d="M19,227.9c0-7.4,5.9-12.6,12-15.6c7.1-3.5,15.9-4.9,23.8-4.9c7.9,0,16.6,1.4,23.8,4.9c6.1,3,12,8.2,12,15.6v1.9
	H79.1v-1.9c0-2.2-3.9-4.5-5.6-5.3c-5.6-2.7-12.6-3.7-18.8-3.7c-6.1,0-13.2,1-18.8,3.7c-1.7,0.8-5.6,3.1-5.6,5.3v1.9H19V227.9z"/>
<path class="st0" d="M84.8,238.5c4.1,0,7.4-3.3,7.4-7.4c0-4.1-3.3-7.4-7.4-7.4c-4.1,0-7.4,3.3-7.4,7.4l0,0
	C77.3,235.1,80.6,238.5,84.8,238.5z"/>
<rect x="51" y="213.1" width="7.6" height="15.3"/>
<path class="st0" d="M54.8,235.3c3.8,0,6.9-3.1,6.9-6.9s-3.1-6.9-6.9-6.9c-3.8,0-6.9,3.1-6.9,6.9c0,0,0,0,0,0
	C47.9,232.3,51,235.3,54.8,235.3z"/>
<path class="st0" d="M25.3,238.5c4.1,0,7.4-3.3,7.4-7.4c0-4.1-3.3-7.4-7.4-7.4s-7.4,3.3-7.4,7.4c0,0,0,0,0,0
	C17.9,235.1,21.2,238.5,25.3,238.5z"/>
</svg>
