<?xml version="1.0" encoding="utf-8"?>
<!-- Generator: Adobe Illustrator 24.1.3, SVG Export Plug-In . SVG Version: 6.00 Build 0)  -->
<svg version="1.1" id="Layer_1" xmlns="http://www.w3.org/2000/svg" xmlns:xlink="http://www.w3.org/1999/xlink" x="0px" y="0px"
	 viewBox="0 0 64 64" style="enable-background:new 0 0 64 64;" xml:space="preserve">
<style type="text/css">
	.st0{fill:none;}
	.st1{fill:#FFFFFF;}
	.st2{fill:#EA6B03;}
</style>
<rect x="-81.2" y="-156.8" class="st0" width="442" height="442"/>
<polygon class="st1" points="15.7,56.6 15.7,8.1 41.8,8.1 50.6,17 50.6,56.6 "/>
<path class="st2" d="M41.6,8.7l8.5,8.5v38.9H16.2V8.7H41.6 M42,7.6H15.1v49.6h36V16.7L42,7.6z"/>
<polygon class="st1" points="42.6,16.1 42.6,9 49.7,16.1 "/>
<path class="st2" d="M43.2,10.4l5.1,5.1h-5.1V10.4 M42,7.6v9.1h9.1L42,7.6z"/>
<rect x="12.2" y="14.9" class="st2" width="26.5" height="11.1"/>
<path class="st1" d="M25.8,23.9L25.2,22h-2l-0.6,1.9h-1.5l2.3-7.1h1.8l2.3,7.1L25.8,23.9z M24.9,20.8l-0.5-1.5
	c-0.1-0.3-0.2-0.6-0.2-0.9C24.1,18.7,24,19,24,19.3l-0.5,1.5H24.9z"/>
<path class="st2" d="M25,17l2.2,6.8h-1.3l-0.6-1.9h-2.2l-0.6,1.9h-1.3l2.2-6.8H25 M23.3,21h1.8l-0.5-1.7c-0.1-0.4-0.2-0.9-0.3-1.3
	l0,0c-0.1,0.4-0.2,0.9-0.3,1.3L23.3,21 M25.2,16.8h-1.9l0,0.2L21,23.8l-0.1,0.3h1.8l0-0.2l0.5-1.8h1.8l0.6,1.8l0.1,0.2h1.9l-0.1-0.3
	l-2.2-6.8L25.2,16.8L25.2,16.8z M23.7,20.8l0.4-1.4c0-0.1,0.1-0.3,0.1-0.4l0.1,0.4l0.4,1.4H23.7z"/>
<rect x="28.1" y="16.9" class="st1" width="1.5" height="7.1"/>
<path class="st2" d="M29.4,17v6.8h-1.3V17H29.4 M29.7,16.8h-1.7v7.3h1.7V16.8L29.7,16.8z"/>
<rect x="30.1" y="31.8" class="st2" width="6" height="1.9"/>
<path class="st2" d="M37.1,40.3l-1.5-5.7h-5l-1.5,5.7c-0.3,0.4,0,1.3,0,1.3L33,50l-0.2-8.3c-0.3-0.1-0.5-0.4-0.5-0.8
	c0-0.5,0.4-0.8,0.8-0.8c0.5,0,0.9,0.4,0.9,0.8c0,0.3-0.2,0.6-0.5,0.8L33.3,50l3.8-8.5C37.2,41.5,37.4,40.7,37.1,40.3z"/>
</svg>
