<?xml version="1.0" encoding="utf-8"?>
<!-- Generator: Adobe Illustrator 25.0.0, SVG Export Plug-In . SVG Version: 6.00 Build 0)  -->
<svg version="1.1" id="Layer_1" xmlns="http://www.w3.org/2000/svg" xmlns:xlink="http://www.w3.org/1999/xlink" x="0px" y="0px"
	 viewBox="0 0 64 64" style="enable-background:new 0 0 64 64;" xml:space="preserve">
<style type="text/css">
	.st0{fill:#FFFFFF;}
	.st1{fill:#EA6B03;}
</style>
<polygon class="st0" points="15.3,56.4 15.3,7.9 41.4,7.9 50.2,16.7 50.2,56.4 "/>
<path class="st1" d="M41.2,8.4l8.5,8.5v38.9H15.8V8.4H41.2 M41.6,7.3H14.7v49.6h36V16.5C50.7,16.5,41.6,7.3,41.6,7.3z"/>
<polygon class="st0" points="42.2,15.9 42.2,8.8 49.3,15.9 "/>
<path class="st1" d="M42.8,10.2l5.1,5.1h-5.1V10.2 M41.6,7.3v9.1h9.1L41.6,7.3z"/>
<path class="st1" d="M38.2,40.7c0.2,0.1,0.3,0.4,0.2,0.7c0,0.1-0.1,0.1-0.2,0.2l-3.3,1.9l-3.3,1.9c-0.2,0.1-0.5,0.1-0.7-0.2
	c0-0.1-0.1-0.2-0.1-0.3v-7.7c0-0.3,0.2-0.5,0.5-0.5c0.1,0,0.2,0,0.2,0.1l3.3,1.9L38.2,40.7z"/>
<path class="st1" d="M28.9,36.8L28.9,36.8c0.4,0,0.7,0.3,0.7,0.7v7.2c0,0.4-0.3,0.7-0.7,0.7h0c-0.4,0-0.7-0.3-0.7-0.7v-7.2
	C28.2,37.2,28.6,36.8,28.9,36.8z"/>
<path class="st1" d="M32.7,50.5c-5.2,0-9.4-4.2-9.3-9.4s4.2-9.4,9.4-9.3s9.3,4.2,9.3,9.4l0,0C42.1,46.3,37.9,50.5,32.7,50.5z
	 M32.7,33c-4.5,0-8.2,3.7-8.2,8.2s3.7,8.2,8.2,8.2s8.2-3.7,8.2-8.2C40.9,36.6,37.2,33,32.7,33L32.7,33z"/>
<rect x="11.8" y="14.6" class="st1" width="26.5" height="11.1"/>
<path class="st0" d="M22.4,23.7l-0.6-1.9h-2l-0.6,1.9h-1.5l2.3-7.1h1.8l2.3,7.1H22.4z M21.5,20.6L21,19.1c-0.1-0.3-0.2-0.6-0.2-0.9
	c-0.1,0.3-0.1,0.6-0.2,0.9l-0.5,1.5H21.5z"/>
<path class="st1" d="M21.6,16.8l2.2,6.8h-1.3l-0.6-1.9h-2.2l-0.6,1.9h-1.3l2.2-6.8H21.6 M19.9,20.7h1.8L21.1,19
	c-0.1-0.4-0.2-0.9-0.4-1.3l0,0c-0.1,0.4-0.2,0.9-0.3,1.3L19.9,20.7 M21.8,16.5h-2l-0.1,0.2l-2.2,6.8l-0.1,0.3h1.8l0.1-0.2l0.5-1.8
	h1.8l0.6,1.8v0.2h1.9L24,23.5l-2.2-6.8L21.8,16.5L21.8,16.5z M20.3,20.4l0.4-1.4c0-0.1,0.1-0.3,0.1-0.4c0,0.1,0.1,0.3,0.1,0.4
	l0.4,1.4H20.3z"/>
<path class="st0" d="M25.7,23.7l-2.3-7.1H25l1,3.2c0.2,0.8,0.4,1.4,0.6,2c0.1-0.6,0.4-1.3,0.6-2l1-3.2h1.6l-2.4,7.1L25.7,23.7z"/>
<path class="st1" d="M29.5,16.8l-2.4,6.8h-1.4l-2.2-6.8h1.4l0.9,3.1c0.3,0.9,0.5,1.7,0.7,2.5l0,0c0.2-0.8,0.4-1.7,0.7-2.5l1-3.1
	H29.5 M29.9,16.5H28v0.2l-1,3.1c-0.2,0.6-0.3,1.1-0.5,1.6c-0.1-0.5-0.3-1-0.5-1.6l-0.9-3.1l0-0.2h-1.9l0.1,0.3l2.2,6.8v0.2h1.8
	l0-0.2l2.4-6.8L29.9,16.5L29.9,16.5z"/>
<rect x="30.2" y="16.6" class="st0" width="1.5" height="7.1"/>
<path class="st1" d="M31.5,16.8v6.8h-1.2v-6.8H31.5 M31.8,16.5H30v7.3h1.7L31.8,16.5L31.8,16.5z"/>
</svg>
