<?xml version="1.0" encoding="utf-8"?>
<!-- Generator: Adobe Illustrator 25.0.0, SVG Export Plug-In . SVG Version: 6.00 Build 0)  -->
<svg version="1.1" id="Layer_1" xmlns="http://www.w3.org/2000/svg" xmlns:xlink="http://www.w3.org/1999/xlink" x="0px" y="0px"
	 viewBox="0 0 64 64" style="enable-background:new 0 0 64 64;" xml:space="preserve">
<style type="text/css">
	.st0{fill:#FFFFFF;}
	.st1{fill:#D3132F;}
</style>
<polygon class="st0" points="15.3,56.6 15.3,8.1 41.4,8.1 50.2,16.9 50.2,56.6 "/>
<path class="st1" d="M41.2,8.6l8.5,8.5V56H15.8V8.6H41.2 M41.6,7.5H14.7v49.6h36V16.7C50.7,16.7,41.6,7.5,41.6,7.5z"/>
<polygon class="st0" points="42.2,16.1 42.2,9 49.3,16.1 "/>
<path class="st1" d="M42.8,10.4l5.1,5.1h-5.1V10.4 M41.6,7.5v9.1h9.1L41.6,7.5z"/>
<path class="st1" d="M22.5,32.7v14.1H43V32.7H22.5z M41.9,33.8v8.6c-1-0.3-2.1-0.5-3.1-0.5c-2.8-0.2-2.8,1.9-6.8,0.9L29.4,38
	L28,40.3l-2-4.4l-2.4,5.2v-7.3H41.9z"/>
<circle class="st1" cx="38" cy="36.5" r="1.2"/>
<polygon class="st1" points="38.4,25.9 11.8,25.9 11.8,25.9 11.8,14.8 38.4,14.8 "/>
<path class="st0" d="M17.8,23.9c-0.5,0-1,0-1.5-0.1h-0.1v-6.9h0.1c0.6-0.1,1.2-0.1,1.8-0.1c0.7-0.1,1.4,0.1,2,0.5
	c0.5,0.3,0.8,0.8,0.8,1.4c0,0.6-0.4,1.2-0.9,1.5c0.7,0.3,1.2,0.9,1.2,1.7c0,0.6-0.2,1.1-0.7,1.5C19.7,23.7,18.7,24,17.8,23.9z
	 M17.6,22.6c0.2,0,0.4,0,0.5,0c0.5,0,1.4-0.1,1.4-1s-0.9-1-1.4-1h-0.5V22.6z M18.2,19.5c0.8,0,1.2-0.3,1.2-0.9s-0.4-0.8-1.1-0.8
	c-0.2,0-0.4,0-0.6,0v1.7H18.2z"/>
<path class="st1" d="M18.1,16.8c0.7-0.1,1.4,0.1,2,0.4c0.5,0.3,0.7,0.8,0.7,1.3c0,0.7-0.5,1.3-1.1,1.5l0,0c0.8,0.2,1.4,0.9,1.4,1.7
	c0,0.5-0.2,1.1-0.7,1.4c-0.7,0.5-1.6,0.7-2.5,0.6c-0.5,0-1,0-1.5-0.1v-6.7C16.9,16.8,17.5,16.8,18.1,16.8 M17.5,19.6h0.6
	c0.9,0,1.3-0.4,1.3-1s-0.5-0.9-1.3-0.9c-0.2,0-0.5,0-0.7,0V19.6 M18.2,22.8c0.8,0,1.5-0.3,1.5-1.1s-0.7-1.1-1.5-1.1h-0.6v2.2
	C17.7,22.7,18,22.7,18.2,22.8 M18.1,16.5c-0.6,0-1.2,0-1.9,0.1H16v7.1h0.2c0.5,0.1,1,0.1,1.6,0.1c1,0.1,1.9-0.2,2.7-0.7
	c0.5-0.4,0.8-1,0.7-1.6c-0.1-0.7-0.4-1.3-1-1.6c0.5-0.3,0.8-0.9,0.8-1.5c0-0.6-0.3-1.2-0.8-1.5C19.6,16.6,18.8,16.5,18.1,16.5
	L18.1,16.5z M17.8,18h0.5c1,0,1,0.5,1,0.7c0,0.5-0.4,0.7-1.1,0.7h-0.4L17.8,18L17.8,18z M17.8,20.8h0.4c0.5,0,1.3,0.1,1.3,0.9
	s-0.7,0.9-1.3,0.9h-0.4L17.8,20.8L17.8,20.8z"/>
<path class="st0" d="M27.9,23.8l-0.1-3c0-0.6-0.1-1.3-0.1-2c-0.2,0.6-0.4,1.3-0.6,1.9l-1,3h-1.2l-0.9-3c-0.2-0.6-0.4-1.2-0.5-1.8
	c0,0.6-0.1,1.4-0.1,2.1l-0.2,2.9h-1.4l0.5-7.1h1.8l0.9,2.8c0.2,0.6,0.4,1.3,0.5,2c0.1-0.5,0.3-1.2,0.6-2l1-2.8H29l0.4,7.1L27.9,23.8
	z"/>
<path class="st1" d="M28.8,16.8l0.4,6.8H28l-0.1-2.8c0-0.9-0.1-1.9-0.1-2.9l0,0c-0.2,0.8-0.5,1.8-0.8,2.6l-1,3h-1l-0.9-2.9
	c-0.3-0.9-0.5-1.8-0.7-2.6l0,0c0,0.9-0.1,2-0.1,2.9l-0.1,2.7H22l0.5-6.8H24l0.9,2.7c0.2,0.8,0.5,1.6,0.6,2.4l0,0
	c0.2-0.7,0.4-1.6,0.7-2.4l0.9-2.7H28.8 M29,16.6h-2l-0.1,0.2L26,19.5c-0.2,0.5-0.3,1.1-0.5,1.5c-0.1-0.5-0.3-1-0.4-1.5l-0.9-2.8
	l0-0.2h-2v0.2l-0.5,6.8v0.3h1.6v-0.2l0.1-2.7c0-0.4,0-0.8,0.1-1.2c0.1,0.3,0.2,0.7,0.3,1l0.9,2.9l0.1,0.2h1.3l0.1-0.2l1-3
	c0.1-0.4,0.3-0.8,0.4-1.2c0,0.4,0,0.9,0,1.3v0.1l0.1,2.8v0.2h1.7v-0.3l-0.4-6.8v-0.2L29,16.6z"/>
<path class="st0" d="M30.4,23.8v-7h0.1c0.6-0.1,1.3-0.2,1.9-0.1c0.7-0.1,1.5,0.2,2.1,0.6c0.5,0.4,0.7,1,0.7,1.6
	c0,0.6-0.2,1.2-0.6,1.6c-0.6,0.5-1.4,0.8-2.2,0.8h-0.5v2.5L30.4,23.8z M31.8,20c0.2,0,0.3,0,0.5,0c0.9,0,1.4-0.4,1.4-1.1
	c0-0.9-0.8-1-1.3-1c-0.2,0-0.4,0-0.6,0L31.8,20z"/>
<path class="st1" d="M32.4,16.8c0.7-0.1,1.4,0.1,2,0.5c0.4,0.4,0.7,0.9,0.7,1.5c0,0.6-0.2,1.1-0.6,1.5c-0.6,0.5-1.4,0.8-2.2,0.7
	c-0.2,0-0.4,0-0.6,0v2.6h-1.2v-6.8C31.1,16.8,31.8,16.8,32.4,16.8 M32.3,20.2c0.9,0,1.5-0.5,1.5-1.2s-0.5-1.2-1.4-1.2
	c-0.2,0-0.5,0-0.7,0.1v2.3C31.9,20.1,32.1,20.1,32.3,20.2 M32.4,16.5c-0.7,0-1.3,0-2,0.1h-0.2v7.3H32v-2.5h0.4
	c0.8,0.1,1.7-0.2,2.3-0.8c0.5-0.5,0.7-1.1,0.7-1.7c0-0.6-0.3-1.3-0.8-1.7C34,16.7,33.2,16.5,32.4,16.5L32.4,16.5z M32,18h0.5
	c0.5,0,1.1,0.2,1.1,0.9s-0.8,1-1.2,1H32V18z"/>
</svg>
