<?xml version="1.0" encoding="utf-8"?>
<!-- Generator: Adobe Illustrator 25.0.0, SVG Export Plug-In . SVG Version: 6.00 Build 0)  -->
<svg version="1.1" id="Layer_1" xmlns="http://www.w3.org/2000/svg" xmlns:xlink="http://www.w3.org/1999/xlink" x="0px" y="0px"
	 viewBox="0 0 64 64" style="enable-background:new 0 0 64 64;" xml:space="preserve">
<style type="text/css">
	.st0{fill:#FFFFFF;}
	.st1{fill:#EA6B03;}
	.st2{fill:#4C9315;}
</style>
<polygon class="st0" points="16.6,55.2 16.6,9.2 41.3,9.2 49.7,17.6 49.7,55.2 "/>
<path class="st1" d="M41.1,9.8l8,8.1v36.9h-32V9.8H41.1 M41.6,8.8H16.1v47h34.1V17.4L41.6,8.8L41.6,8.8z"/>
<polygon class="st0" points="42.1,16.8 42.1,10.1 48.9,16.8 "/>
<path class="st1" d="M42.7,11.4l4.8,4.8h-4.8V11.4 M41.6,8.7v8.7h8.7C50.2,17.4,41.6,8.7,41.6,8.7z"/>
<rect x="21.8" y="30.2" class="st1" width="22.8" height="1.9"/>
<rect x="21.8" y="33.8" class="st1" width="22.8" height="1.9"/>
<rect x="21.8" y="37.4" class="st1" width="22.8" height="1.9"/>
<rect x="21.8" y="41" class="st1" width="22.8" height="1.9"/>
<rect x="21.8" y="44.6" class="st1" width="22.8" height="1.9"/>
<rect x="21.8" y="48.2" class="st1" width="22.8" height="1.9"/>
<rect x="13.3" y="15.6" class="st1" width="25.2" height="10.6"/>
<polygon class="st0" points="19.7,24.2 19.7,18.8 17.9,18.8 17.9,17.5 23,17.5 23,18.8 21.1,18.8 21.1,24.2 "/>
<path class="st1" d="M22.9,17.6v1H21v5.5h-1.2v-5.5H18v-1L22.9,17.6 M23.1,17.4h-5.4v1.5h1.8v5.5h1.6v-5.5h1.9L23.1,17.4L23.1,17.4z
	"/>
<path class="st0" d="M27.2,24.2l-0.7-1.4c-0.2-0.4-0.4-0.7-0.5-1c-0.1,0.3-0.3,0.6-0.5,1l-0.7,1.4h-1.6l2-3.4l-1.9-3.3h1.6l0.7,1.4
	c0.2,0.3,0.3,0.6,0.4,0.9c0.1-0.3,0.2-0.6,0.4-0.9l0.7-1.4h1.6l-2,3.3l2,3.4L27.2,24.2z"/>
<path class="st1" d="M28.6,17.6l-1.9,3.1l2,3.3h-1.4l-0.7-1.3c-0.3-0.5-0.5-0.9-0.6-1.2l0,0c-0.2,0.4-0.3,0.7-0.6,1.2l-0.6,1.3h-1.4
	l1.9-3.3l-1.9-3.2h1.4l0.7,1.3c0.2,0.4,0.4,0.7,0.5,1.1l0,0c0.2-0.4,0.3-0.7,0.5-1.1l0.7-1.3H28.6 M29,17.4h-1.9L27,17.5l-0.7,1.3
	c-0.1,0.2-0.2,0.4-0.3,0.7c-0.1-0.2-0.2-0.4-0.3-0.7L25,17.5l-0.1-0.1H23l0.2,0.3l1.8,3.1L23.1,24l-0.2,0.4h1.9l0.1-0.1l0.6-1.3
	c0.2-0.3,0.3-0.6,0.4-0.8l0.5,0.8l0.7,1.3l0.1,0.1H29L28.8,24l-1.9-3.2l1.8-3L29,17.4L29,17.4z"/>
<polygon class="st0" points="30.7,24.2 30.7,18.8 28.9,18.8 28.9,17.5 34,17.5 34,18.8 32.1,18.8 32.1,24.2 "/>
<path class="st1" d="M33.8,17.6v1H32v5.5h-1.2v-5.5H29v-1L33.8,17.6 M34.1,17.4h-5.4v1.5h1.8v5.5h1.6v-5.5h1.9L34.1,17.4L34.1,17.4z
	"/>
<polygon class="st0" points="14.9,56.6 14.9,8.1 41,8.1 49.8,17 49.8,56.6 "/>
<path class="st2" d="M40.8,8.7l8.5,8.5v38.9H15.4V8.7H40.8 M41.2,7.6H14.4v49.6h36V16.7L41.2,7.6z"/>
<polygon class="st0" points="41.8,16.1 41.8,9 48.9,16.1 "/>
<path class="st2" d="M42.4,10.4l5.1,5.1h-5.1V10.4 M41.2,7.6v9.1h9.1L41.2,7.6z"/>
<path class="st2" d="M30.8,45.7c-0.2-0.6-0.5-1.3-0.7-2s-0.5-1.4-0.6-2.2S29.1,40,29,39.2c-0.2-0.8-0.3-1.6-0.4-2.4v-0.6
	c0-0.2,0-0.4,0-0.6s0-0.4,0-0.6v-0.3v-0.3c0.1-0.8,0.3-1.5,0.6-2.2c0.3-0.6,0.7-1.2,1.1-1.7c0.1-0.1,0.2-0.2,0.3-0.3l-0.3,0.1
	l-0.2,0.1l-0.4,0.4l-0.5,0.4c-0.3,0.3-0.7,0.7-1.1,1.1c-0.1,0.1-0.2,0.2-0.2,0.3l-0.1,0.2c0,0-0.1,0.1-0.1,0.2s-0.2,0.2-0.2,0.4
	l-0.2,0.4c-0.3,0.6-0.5,1.2-0.6,1.8v0.2v0.2c0,0.1,0,0.2,0,0.2v0.2c0,0.1,0,0.2,0,0.2v0.2v0.3l0,0.2c0.1,0.7,0.3,1.4,0.6,2.1
	c0.3,0.7,0.6,1.3,0.9,2s0.6,1.3,1,1.9s0.7,1.2,1,1.8s0.6,1.1,0.9,1.6l0.1,0.2h0.2C31.2,46.7,31,46.2,30.8,45.7z"/>
<path class="st2" d="M33.5,43.4l0.3-1.1c0.1-0.4,0.2-0.7,0.3-1.1c0.2-0.7,0.3-1.5,0.5-2.2s0.3-1.5,0.4-2.2c0-0.4,0.1-0.7,0.1-1.1
	c0-0.2,0-0.4,0-0.5v-0.5c0-0.7-0.1-1.3-0.3-1.9c-0.2-0.6-0.4-1.1-0.8-1.5c-0.1-0.1-0.2-0.2-0.3-0.3c-0.1-0.1-0.2-0.2-0.3-0.3
	L33,30.2c0,0-0.1-0.1-0.1-0.1c-0.2,0-0.4,0-0.6,0c-0.2,0-0.4,0-0.6,0l-0.1,0.1l-0.3,0.3c-0.1,0.1-0.2,0.2-0.3,0.3
	C31,30.9,31,31,30.9,31.1c-0.4,0.5-0.6,1-0.8,1.5c-0.2,0.6-0.3,1.3-0.3,1.9v0.5c0,0.2,0,0.4,0,0.5c0,0.4,0,0.7,0.1,1.1
	c0.1,0.7,0.2,1.5,0.4,2.2c0.1,0.8,0.3,1.5,0.5,2.2c0.1,0.4,0.2,0.7,0.3,1.1l0.3,1.1c0.3,1.4,0.6,2.7,0.9,3.8h0.4
	C32.8,46.1,33.1,44.8,33.5,43.4z"/>
<path class="st2" d="M29.4,45.8c-0.4-0.5-0.7-1.1-1.1-1.7L28,43.6l-0.3-0.5c-0.2-0.3-0.4-0.7-0.5-1c-0.3-0.7-0.7-1.4-0.9-2.1
	c-0.3-0.7-0.5-1.5-0.6-2.3c-0.1-0.8-0.1-1.6,0-2.3c0.1-0.7,0.4-1.4,0.8-2c0.4-0.5,0.8-1,1.2-1.5c0.4-0.4,0.8-0.7,1.3-1l0.3-0.2
	c-3.1,1.3-5,4.4-4.7,7.7c0.4,2.3,3.3,6.2,5.4,8.8h0.4L29.4,45.8z"/>
<path class="st2" d="M33.7,47l0.9-1.6c0.3-0.6,0.7-1.2,1-1.8s0.7-1.3,1-1.9s0.6-1.3,0.9-2c0.3-0.7,0.4-1.4,0.6-2.1l0-0.2v-0.3v-0.2
	c0-0.1,0-0.2,0-0.2v-0.2c0-0.1,0-0.2,0-0.2v-0.2c0-0.1,0-0.2,0-0.2c-0.1-0.6-0.3-1.2-0.5-1.8l-0.2-0.4c-0.1-0.1-0.2-0.2-0.2-0.4
	c0-0.1-0.1-0.1-0.1-0.2l-0.1-0.2c-0.1-0.1-0.2-0.2-0.3-0.3c-0.3-0.4-0.6-0.7-1-1.1L35,30.9l-0.4-0.4l-0.2-0.1l-0.3-0.1l0.3,0.3
	c0.5,0.5,0.9,1.1,1.1,1.7c0.3,0.7,0.5,1.4,0.6,2.2v0.3v0.3c0,0.2,0,0.4,0,0.6s0,0.4,0,0.6v0.6c-0.1,0.8-0.2,1.6-0.3,2.4
	c-0.2,0.8-0.3,1.6-0.5,2.3s-0.4,1.5-0.6,2.2s-0.5,1.4-0.7,2s-0.4,1-0.5,1.5h0.2L33.7,47z"/>
<path class="st2" d="M35.4,30.7l0.3,0.2c0.4,0.3,0.9,0.6,1.3,1c0.5,0.4,0.9,0.9,1.2,1.5c0.4,0.6,0.7,1.3,0.8,2
	c0.1,0.8,0.1,1.6,0,2.3c-0.1,0.8-0.3,1.5-0.6,2.3c-0.3,0.7-0.6,1.4-1,2.1c-0.2,0.3-0.3,0.7-0.5,1l-0.3,0.5l-0.3,0.5
	c-0.4,0.6-0.8,1.2-1.1,1.7s-0.7,0.9-1,1.4h0.4c2.1-2.6,5-6.5,5.4-8.8C40.3,35.1,38.4,32,35.4,30.7z"/>
<path class="st2" d="M32.4,47.8L32.4,47.8c1.2,0,2.2,1,2.2,2.2l0,0c0,1.2-1,2.2-2.2,2.2l0,0c-1.2,0-2.2-1-2.2-2.2l0,0
	C30.1,48.8,31.1,47.8,32.4,47.8z"/>
<polygon class="st2" points="38,26 11.5,26 11.5,26 11.5,14.9 38,14.9 "/>
<path class="st0" d="M19.1,24c-1.8,0.1-3.5-1.2-3.6-3.1c0-0.2,0-0.3,0-0.5c-0.1-2,1.4-3.6,3.3-3.7c0.1,0,0.3,0,0.4,0
	c0.6,0,1.2,0.1,1.7,0.3h0.1l-0.3,1.2l-0.1,0c-0.4-0.2-0.8-0.3-1.3-0.3c-1.2-0.1-2.2,0.9-2.3,2c0,0.1,0,0.2,0,0.3
	c-0.1,1.2,0.7,2.2,1.9,2.3c0.1,0,0.3,0,0.4,0c0.4,0,0.9-0.1,1.3-0.2l0.1-0.1l0.2,1.3h-0.1C20.3,23.9,19.7,24.1,19.1,24z"/>
<path class="st2" d="M19.3,16.9c0.6,0,1.1,0.1,1.7,0.3l-0.3,1c-0.4-0.2-0.9-0.3-1.3-0.3c-1.3-0.1-2.3,0.9-2.4,2.2c0,0.1,0,0.2,0,0.4
	c-0.1,1.2,0.8,2.3,2,2.5c0.1,0,0.3,0,0.4,0c0.5,0,0.9-0.1,1.4-0.3l0.2,1c-0.6,0.2-1.2,0.3-1.8,0.3c-1.8,0.1-3.3-1.2-3.5-2.9
	c0-0.2,0-0.3,0-0.5c-0.1-1.9,1.4-3.5,3.2-3.6C19,16.9,19.1,16.9,19.3,16.9 M19.3,16.7c-2-0.1-3.7,1.4-3.9,3.4c0,0.1,0,0.3,0,0.4
	c-0.1,1.9,1.3,3.6,3.2,3.7c0.2,0,0.3,0,0.5,0c0.6,0,1.3-0.1,1.9-0.3l0.2-0.1v-0.2l-0.2-1l-0.1-0.3l-0.3,0.1
	c-0.4,0.2-0.8,0.2-1.2,0.2c-1.1,0.1-2.1-0.8-2.1-1.9c0-0.1,0-0.2,0-0.4c-0.2-1.1,0.6-2.1,1.7-2.3c0.1,0,0.3,0,0.4,0
	c0.4,0,0.8,0.1,1.2,0.2l0.3,0.1l0.1-0.3l0.3-1l0.1-0.2L21,17C20.4,16.8,19.8,16.6,19.3,16.7L19.3,16.7z"/>
<path class="st0" d="M23.6,24c-0.6,0-1.1,0-1.7-0.1h-0.1V17h0.1c0.7-0.1,1.3-0.1,2-0.1c1-0.1,2,0.2,2.9,0.8c0.8,0.6,1.2,1.6,1.1,2.6
	c0.1,1-0.3,2.1-1.1,2.8C25.9,23.8,24.7,24.1,23.6,24z M23.3,22.8c0.2,0,0.4,0,0.6,0l0,0c0.7,0,1.3-0.2,1.8-0.6
	c0.5-0.5,0.7-1.2,0.6-1.9c0-0.6-0.2-1.2-0.6-1.6C25.3,18.2,24.7,18,24,18c-0.2,0-0.5,0-0.7,0V22.8z"/>
<path class="st2" d="M23.9,17c1-0.1,2,0.2,2.8,0.8c0.7,0.6,1.1,1.6,1.1,2.5c0,1-0.3,2-1.1,2.7c-0.9,0.7-2,1-3.1,0.9
	c-0.6,0-1.1,0-1.7-0.1v-6.7C22.6,17,23.3,17,23.9,17 M23.9,22.9c1.3,0.1,2.4-0.8,2.6-2.1c0-0.2,0-0.4,0-0.5c0.1-1.2-0.7-2.3-1.9-2.4
	c-0.2,0-0.4,0-0.6,0c-0.3,0-0.6,0-0.9,0.1v4.9C23.4,22.9,23.6,22.9,23.9,22.9L23.9,22.9 M23.8,16.7c-0.7,0-1.3,0-2,0.1h-0.2V24h0.2
	c0.6,0.1,1.1,0.1,1.7,0.1c1.2,0.1,2.3-0.3,3.2-1c0.8-0.7,1.2-1.8,1.2-2.8c0.1-1-0.4-2-1.1-2.7C26,16.9,25,16.6,23.8,16.7L23.8,16.7z
	 M23.4,18.2c0.2,0,0.4,0,0.6,0c0.6,0,1.2,0.2,1.6,0.6c0.4,0.4,0.6,1,0.5,1.6c0.2,1.1-0.6,2.2-1.8,2.4c-0.2,0-0.3,0-0.5,0h-0.5
	L23.4,18.2L23.4,18.2z"/>
<path class="st0" d="M32.3,24L32.3,24c-0.2-0.6-0.4-1.1-0.5-1.7c-0.2-0.8-0.4-1.1-1.1-1.1h-0.5V24h-1.5v-7h0.1
	c0.6-0.1,1.3-0.1,1.9-0.1c0.8-0.1,1.5,0.1,2.2,0.6c0.4,0.4,0.7,0.9,0.6,1.5c0,0.7-0.4,1.4-1.1,1.7c0.4,0.3,0.7,0.8,0.8,1.3l0.1,0.4
	c0.1,0.5,0.3,1,0.4,1.5l0.1,0.2L32.3,24z M30.8,20c0.8,0,1.2-0.4,1.2-1c0-0.8-0.7-1-1.2-1c-0.2,0-0.4,0-0.6,0v2H30.8z"/>
<path class="st2" d="M30.7,17c0.7-0.1,1.5,0.1,2.1,0.5c0.4,0.3,0.6,0.8,0.6,1.4c0,0.8-0.5,1.5-1.2,1.7l0,0c0.5,0.2,0.9,0.7,1,1.3
	c0.1,0.6,0.3,1.3,0.5,1.9h-1.3c-0.2-0.5-0.4-1.1-0.5-1.6c-0.2-0.9-0.5-1.2-1.2-1.2h-0.6v2.8h-1.2v-6.7C29.5,17,30.1,17,30.7,17
	 M30.1,20.2h0.7c0.8,0,1.4-0.5,1.4-1.1s-0.5-1.1-1.3-1.1c-0.3,0-0.5,0-0.8,0.1V20.2 M30.7,16.8c-0.6,0-1.3,0-1.9,0.1h-0.2v7.2h1.7
	v-2.8h0.4c0.5,0,0.8,0.2,1,1c0.1,0.6,0.3,1.1,0.5,1.7l0.1,0.1h1.8l-0.2-0.4c-0.2-0.5-0.3-1-0.4-1.5l-0.1-0.4
	c-0.1-0.5-0.3-0.9-0.7-1.3c0.6-0.4,1-1,1-1.7c0-0.6-0.2-1.2-0.7-1.5C32.3,16.9,31.5,16.6,30.7,16.8L30.7,16.8z M30.3,18.2
	c0.2,0,0.4,0,0.5,0c0.7,0,1.1,0.3,1.1,0.9s-0.4,0.9-1.1,0.9h-0.5V18.2L30.3,18.2z"/>
</svg>
