<?xml version="1.0" encoding="utf-8"?>
<!-- Generator: Adobe Illustrator 25.0.0, SVG Export Plug-In . SVG Version: 6.00 Build 0)  -->
<svg version="1.1" id="Layer_1" xmlns="http://www.w3.org/2000/svg" xmlns:xlink="http://www.w3.org/1999/xlink" x="0px" y="0px"
	 viewBox="0 0 64 64" style="enable-background:new 0 0 64 64;" xml:space="preserve">
<style type="text/css">
	.st0{fill:#FFFFFF;}
	.st1{fill:#4C9315;}
</style>
<polygon class="st0" points="15.3,57.2 15.3,8.7 41.4,8.7 50.2,17.5 50.2,57.2 "/>
<path class="st1" d="M41.1,9.2l8.5,8.5v38.9H15.8V9.2H41.1 M41.6,8.1H14.7v49.6h36V17.3L41.6,8.1L41.6,8.1z"/>
<polygon class="st0" points="42.2,16.7 42.2,9.6 49.3,16.7 "/>
<path class="st1" d="M42.8,11l5.1,5.1h-5.1V11 M41.6,8.1v9.1h9.1L41.6,8.1z"/>
<path class="st1" d="M40.7,40.8c-1,0-1.2,0.6-1.2,1.1c0,0.4,0,0.8,0.1,1.2c0.1,0.4,0.1,0.8,0.1,1.2c0,1.5-0.9,2-2.2,2h-0.4v-1.1h0.3
	c0.7,0,1-0.4,1-1.2c0-0.3,0-0.6-0.1-0.9c-0.1-0.4-0.1-0.7-0.1-1.1c-0.1-0.8,0.4-1.5,1.2-1.7v0c-0.8-0.1-1.3-0.9-1.2-1.7c0,0,0,0,0,0
	c0-0.4,0-0.7,0.1-1.1c0.1-0.3,0.1-0.6,0.1-0.9c0-0.7-0.3-1.1-1-1.2h-0.3v-1.1h0.4c1.3,0,2.2,0.6,2.2,2c0,0.4,0,0.8-0.1,1.2
	c-0.1,0.4-0.1,0.8-0.1,1.2c0,0.5,0.1,1,1.2,1.1L40.7,40.8z"/>
<path class="st1" d="M24.7,39.8c1,0,1.2-0.6,1.2-1.1c0-0.4,0-0.8-0.1-1.2c-0.1-0.4-0.1-0.8-0.1-1.2c0-1.4,0.9-2,2.2-2h0.4v1.1H28
	c-0.8,0-1,0.4-1,1.2c0,0.3,0,0.6,0.1,0.9c0,0.3,0.1,0.7,0.1,1.1c0.1,0.8-0.4,1.5-1.2,1.7c0,0,0,0,0,0v0c0.8,0.1,1.3,0.9,1.2,1.7
	c0,0,0,0,0,0c0,0.4-0.1,0.8-0.1,1.1C27,43.3,27,43.7,27,44c0,0.7,0.3,1.2,1,1.2h0.3v1.1h-0.4c-1.3,0-2.2-0.5-2.2-2
	c0-0.4,0-0.8,0.1-1.2c0.1-0.4,0.1-0.8,0.1-1.2c0-0.4-0.1-1-1.2-1.1L24.7,39.8z"/>
<path class="st1" d="M30.9,43.8c0,0.5-0.4,0.9-0.9,0.9s-0.9-0.4-0.9-0.9c0-0.5,0.4-0.9,0.9-0.9h0C30.5,42.9,30.9,43.3,30.9,43.8z"/>
<path class="st1" d="M33.6,43.8c0,0.5-0.4,0.9-0.9,0.9s-0.9-0.4-0.9-0.9c0-0.5,0.4-0.9,0.9-0.9S33.6,43.3,33.6,43.8L33.6,43.8z"/>
<path class="st1" d="M36.4,43.8c0,0.5-0.4,0.9-0.9,0.9s-0.9-0.4-0.9-0.9c0-0.5,0.4-0.9,0.9-0.9C36,42.9,36.4,43.3,36.4,43.8
	C36.4,43.8,36.4,43.8,36.4,43.8z"/>
<polygon class="st1" points="38.4,26.5 11.8,26.5 11.8,26.5 11.8,15.4 38.4,15.4 "/>
<path class="st0" d="M20.5,24.6c-1.8,0.1-3.5-1.2-3.6-3.1c0-0.2,0-0.3,0-0.5c-0.1-2,1.4-3.6,3.4-3.7c0.1,0,0.3,0,0.4,0
	c0.6,0,1.2,0.1,1.7,0.3l0.1,0l-0.3,1.2L22,18.9c-0.4-0.2-0.8-0.3-1.3-0.3c-1.2-0.1-2.2,0.8-2.3,2c0,0.1,0,0.2,0,0.3
	c-0.1,1.2,0.7,2.2,1.9,2.3c0.1,0,0.3,0,0.4,0c0.4,0,0.9-0.1,1.3-0.2l0.1-0.1l0.3,1.2l-0.1,0C21.7,24.5,21.1,24.6,20.5,24.6z"/>
<path class="st1" d="M20.6,17.5c0.6,0,1.1,0.1,1.7,0.3l-0.3,1c-0.4-0.2-0.9-0.3-1.3-0.3c-1.3-0.1-2.3,0.9-2.4,2.1c0,0.1,0,0.2,0,0.4
	c-0.1,1.2,0.8,2.3,2,2.5c0.1,0,0.3,0,0.4,0c0.5,0,0.9-0.1,1.4-0.3l0.2,1c-0.6,0.2-1.2,0.3-1.8,0.3c-1.8,0.1-3.3-1.2-3.5-2.9
	c0-0.2,0-0.3,0-0.5c-0.1-1.9,1.4-3.5,3.2-3.6C20.4,17.5,20.5,17.5,20.6,17.5 M20.6,17.2c-2-0.1-3.8,1.4-3.9,3.4c0,0.1,0,0.3,0,0.4
	c-0.1,1.9,1.3,3.6,3.2,3.7c0.2,0,0.3,0,0.5,0c0.6,0,1.3-0.1,1.9-0.3l0.2-0.1l0-0.2l-0.2-1l-0.1-0.3L21.9,23
	c-0.4,0.2-0.8,0.2-1.3,0.2c-1.1,0.1-2.1-0.7-2.1-1.8c0-0.1,0-0.2,0-0.4c-0.1-1.1,0.7-2.1,1.8-2.3c0.1,0,0.2,0,0.4,0
	c0.4,0,0.8,0.1,1.2,0.2l0.3,0.1l0.1-0.3l0.3-1l0.1-0.2l-0.2-0.1C21.9,17.3,21.3,17.2,20.6,17.2L20.6,17.2z"/>
<path class="st0" d="M24.8,24.6c-0.7,0-1.3-0.1-1.9-0.4l-0.1,0l0.3-1.3l0.1,0.1c0.5,0.3,1,0.4,1.6,0.4c0.7,0,1.1-0.3,1.1-0.8
	c0-0.5-0.3-0.7-1.1-1c-1.3-0.5-1.9-1.2-1.9-2.1c0-1.2,1-2.1,2.5-2.1c0.6,0,1.2,0.1,1.7,0.4l0.1,0L26.9,19l-0.1-0.1
	c-0.4-0.2-0.8-0.3-1.3-0.3c-0.7,0-1,0.4-1,0.7c0,0.4,0.3,0.6,1.2,1c1.3,0.5,1.8,1.1,1.8,2.1C27.6,23.4,26.8,24.6,24.8,24.6z"/>
<path class="st1" d="M25.5,17.5c0.6,0,1.1,0.1,1.6,0.3l-0.3,1c-0.4-0.2-0.9-0.3-1.4-0.3c-0.8,0-1.1,0.4-1.1,0.8
	c0,0.5,0.4,0.8,1.3,1.1c1.2,0.4,1.8,1,1.8,2c0,1.1-0.8,2-2.6,2c-0.6,0-1.3-0.1-1.8-0.4l0.3-1c0.5,0.3,1.1,0.4,1.6,0.4
	c0.8,0,1.2-0.4,1.2-0.9c0-0.5-0.3-0.8-1.2-1.1c-1.1-0.4-1.8-1-1.8-2C23.1,18.3,24,17.5,25.5,17.5 M25.5,17.2c-1.6,0-2.7,0.9-2.7,2.2
	c0,1,0.7,1.7,2,2.2c0.9,0.3,1.1,0.6,1.1,0.9c0,0.6-0.7,0.7-1,0.7c-0.5,0-1.1-0.1-1.5-0.4l-0.3-0.2L23,23l-0.3,1l0,0.2l0.2,0.1
	c0.6,0.3,1.3,0.5,2,0.5c2.1,0,2.8-1.2,2.8-2.3c0-1.1-0.6-1.8-1.9-2.3c-0.9-0.4-1.1-0.5-1.1-0.9c0-0.3,0.3-0.6,0.9-0.6
	c0.4,0,0.9,0.1,1.2,0.3l0.3,0.1l0.1-0.3l0.3-1l0.1-0.2l-0.2-0.1C26.7,17.3,26.1,17.2,25.5,17.2L25.5,17.2z"/>
<path class="st0" d="M30.1,24.6c-0.7,0-1.3-0.1-1.9-0.4l-0.1,0l0.3-1.3l0.1,0.1c0.5,0.3,1,0.4,1.6,0.4c0.7,0,1.1-0.3,1.1-0.8
	c0-0.5-0.3-0.7-1.1-1c-1.3-0.5-1.9-1.2-1.9-2.1c0-1.2,1-2.1,2.5-2.1c0.6,0,1.2,0.1,1.7,0.4l0.1,0L32.2,19L32,18.9
	c-0.4-0.2-0.8-0.3-1.3-0.3c-0.7,0-1,0.4-1,0.7c0,0.4,0.3,0.6,1.2,1c1.3,0.5,1.8,1.1,1.8,2.1C32.8,23.4,32.1,24.6,30.1,24.6z"/>
<path class="st1" d="M30.8,17.5c0.6,0,1.1,0.1,1.6,0.3l-0.3,1c-0.4-0.2-0.9-0.3-1.4-0.3c-0.8,0-1.1,0.4-1.1,0.8
	c0,0.5,0.4,0.8,1.3,1.1c1.2,0.4,1.8,1,1.8,2c0,1.1-0.8,2-2.6,2c-0.6,0-1.3-0.1-1.8-0.4l0.3-1c0.5,0.3,1.1,0.4,1.6,0.4
	c0.8,0,1.2-0.4,1.2-0.9c0-0.5-0.3-0.8-1.2-1.1c-1.1-0.4-1.8-1-1.8-2C28.4,18.3,29.3,17.5,30.8,17.5 M30.8,17.2
	c-1.6,0-2.7,0.9-2.7,2.2c0,1,0.7,1.7,2,2.2c0.9,0.3,1.1,0.6,1.1,0.9c0,0.6-0.7,0.7-1,0.7c-0.5,0-1.1-0.1-1.5-0.4l-0.3-0.2L28.3,23
	L28,24l0,0.2l0.2,0.1c0.6,0.3,1.3,0.5,2,0.5c2.1,0,2.8-1.2,2.8-2.3c0-1.1-0.6-1.8-1.9-2.3c-0.9-0.4-1.1-0.5-1.1-0.9
	c0-0.3,0.3-0.6,0.9-0.6c0.4,0,0.9,0.1,1.2,0.3l0.3,0.1l0.1-0.3l0.3-1l0.1-0.2l-0.2-0.1C32,17.3,31.4,17.2,30.8,17.2L30.8,17.2z"/>
</svg>
