<?xml version="1.0" encoding="utf-8"?>
<!-- Generator: Adobe Illustrator 25.0.0, SVG Export Plug-In . SVG Version: 6.00 Build 0)  -->
<svg version="1.1" id="Layer_1" xmlns="http://www.w3.org/2000/svg" xmlns:xlink="http://www.w3.org/1999/xlink" x="0px" y="0px"
	 viewBox="0 0 64 64" style="enable-background:new 0 0 64 64;" xml:space="preserve">
<style type="text/css">
	.st0{fill:#FFFFFF;}
	.st1{fill:#4C9315;}
</style>
<polygon class="st0" points="15.3,56.8 15.3,8.3 41.4,8.3 50.2,17.1 50.2,56.8 "/>
<path class="st1" d="M41.1,8.8l8.5,8.5v38.9H15.8V8.8H41.1 M41.6,7.7H14.7v49.6h36V16.9C50.7,16.9,41.6,7.7,41.6,7.7z"/>
<polygon class="st0" points="42.2,16.3 42.2,9.1 49.3,16.3 "/>
<path class="st1" d="M42.8,10.6l5.1,5.1h-5.1V10.6 M41.6,7.7v9.1h9.1C50.7,16.9,41.6,7.7,41.6,7.7z"/>
<path class="st1" d="M21.3,33.4v16h22.9v-16H21.3z M27.7,44.6V42h7.2v2.7L27.7,44.6z M34.9,45.7v2.7h-7.2v-2.7L34.9,45.7z
	 M27.7,40.9v-2.7h7.2v2.7L27.7,40.9z M27.7,37.2v-2.7h7.2v2.7H27.7z M22.3,34.5h4.4v2.7h-4.4V34.5z M22.3,38.2h4.4v2.7h-4.4V38.2z
	 M22.3,42h4.4v2.7h-4.4V42z M22.3,45.7h4.4v2.7h-4.4V45.7z M43.1,48.4h-7.2v-2.7h7.2V48.4z M43.1,44.6h-7.2V42h7.2V44.6z M43.1,40.9
	h-7.2v-2.7h7.2V40.9z M43.1,37.2h-7.2v-2.7h7.2V37.2z"/>
<polygon class="st1" points="38.4,26.1 11.8,26.1 11.8,26.1 11.8,15 38.4,15 "/>
<path class="st0" d="M20.1,24.2c-1.8,0.1-3.5-1.2-3.6-3.1c0-0.2,0-0.3,0-0.5c-0.1-2,1.4-3.6,3.4-3.7c0.1,0,0.3,0,0.4,0
	c0.6,0,1.2,0.1,1.7,0.3l0.1,0l-0.3,1.2l-0.1-0.1c-0.4-0.2-0.8-0.3-1.3-0.3c-1.2-0.1-2.2,0.8-2.3,2c0,0.1,0,0.2,0,0.3
	c-0.1,1.2,0.7,2.2,1.9,2.3c0.1,0,0.3,0,0.4,0c0.4,0,0.9-0.1,1.3-0.2l0.1-0.1l0.3,1.2l-0.1,0C21.3,24.1,20.7,24.2,20.1,24.2z"/>
<path class="st1" d="M20.2,17c0.6,0,1.1,0.1,1.7,0.3l-0.3,1c-0.4-0.2-0.9-0.3-1.3-0.3C19,18,18,19,17.9,20.2c0,0.1,0,0.2,0,0.4
	c-0.1,1.2,0.8,2.3,2,2.5c0.1,0,0.3,0,0.4,0c0.5,0,0.9-0.1,1.4-0.3l0.2,1c-0.6,0.2-1.2,0.3-1.8,0.3c-1.8,0.1-3.3-1.2-3.5-2.9
	c0-0.2,0-0.3,0-0.5c-0.1-1.9,1.4-3.5,3.2-3.6C20,17,20.1,17,20.2,17 M20.2,16.8c-2-0.1-3.8,1.4-3.9,3.4c0,0.1,0,0.3,0,0.4
	c-0.1,1.9,1.3,3.6,3.2,3.7c0.2,0,0.3,0,0.5,0c0.6,0,1.3-0.1,1.9-0.3l0.2-0.1l0-0.2l-0.2-1l-0.1-0.3l-0.3,0.1
	c-0.4,0.2-0.8,0.2-1.3,0.2c-1.1,0.1-2.1-0.7-2.1-1.8c0-0.1,0-0.2,0-0.4c-0.1-1.1,0.7-2.1,1.8-2.3c0.1,0,0.2,0,0.4,0
	c0.4,0,0.8,0.1,1.2,0.2l0.3,0.1l0.1-0.3l0.3-1l0.1-0.2L22,17.1C21.4,16.9,20.8,16.8,20.2,16.8L20.2,16.8z"/>
<path class="st0" d="M24.4,24.2c-0.7,0-1.3-0.1-1.9-0.4l-0.1,0l0.3-1.3l0.1,0.1c0.5,0.3,1,0.4,1.6,0.4c0.7,0,1.1-0.3,1.1-0.8
	c0-0.5-0.3-0.7-1.1-1c-1.3-0.5-1.9-1.2-1.9-2.1c0-1.2,1-2.1,2.5-2.1c0.6,0,1.2,0.1,1.7,0.4l0.1,0l-0.4,1.2l-0.1-0.1
	c-0.4-0.2-0.8-0.3-1.3-0.3c-0.7,0-1,0.4-1,0.7c0,0.4,0.3,0.6,1.2,1c1.3,0.5,1.8,1.1,1.8,2.1C27.1,23,26.4,24.2,24.4,24.2z"/>
<path class="st1" d="M25.1,17c0.6,0,1.1,0.1,1.6,0.3l-0.3,1c-0.4-0.2-0.9-0.3-1.4-0.3c-0.8,0-1.1,0.4-1.1,0.8c0,0.5,0.4,0.8,1.3,1.1
	c1.2,0.4,1.8,1,1.8,2c0,1.1-0.8,2-2.6,2c-0.6,0-1.3-0.1-1.8-0.4l0.3-1c0.5,0.3,1.1,0.4,1.6,0.4c0.8,0,1.2-0.4,1.2-0.9
	c0-0.5-0.3-0.8-1.2-1.1c-1.1-0.4-1.8-1-1.8-2C22.7,17.9,23.6,17,25.1,17 M25.1,16.8c-1.6,0-2.7,0.9-2.7,2.2c0,1,0.7,1.7,2,2.2
	c0.9,0.3,1.1,0.6,1.1,0.9c0,0.6-0.7,0.7-1,0.7c-0.5,0-1.1-0.1-1.5-0.4l-0.3-0.2l-0.1,0.3l-0.3,1l0,0.2l0.2,0.1
	c0.6,0.3,1.3,0.5,2,0.5c2.1,0,2.8-1.2,2.8-2.3c0-1.1-0.6-1.8-1.9-2.3c-0.9-0.3-1.1-0.5-1.1-0.9c0-0.3,0.3-0.6,0.9-0.6
	c0.4,0,0.9,0.1,1.2,0.3l0.3,0.1l0.1-0.3l0.3-1l0.1-0.2l-0.2-0.1C26.3,16.9,25.7,16.8,25.1,16.8L25.1,16.8z"/>
<path class="st0" d="M29.6,24.1L27.3,17h1.6l1,3.2c0.2,0.8,0.4,1.4,0.6,2c0.2-0.6,0.3-1.3,0.6-2l1-3.2h1.6l-2.4,7.1H29.6z"/>
<path class="st1" d="M33.5,17.1L31.1,24h-1.4l-2.2-6.8h1.4l0.9,3.1c0.3,0.9,0.5,1.7,0.7,2.5h0c0.2-0.8,0.4-1.6,0.7-2.5l1-3.1H33.5
	 M33.8,16.9H32l-0.1,0.2l-1,3.1c-0.2,0.6-0.3,1.1-0.5,1.6c-0.1-0.5-0.3-1-0.4-1.6l-0.9-3.1L29,16.9h-1.9l0.1,0.3l2.2,6.8l0.1,0.2
	h1.8l0.1-0.2l2.4-6.8L33.8,16.9L33.8,16.9z"/>
</svg>
