<?xml version="1.0" encoding="utf-8"?>
<!-- Generator: Adobe Illustrator 25.0.0, SVG Export Plug-In . SVG Version: 6.00 Build 0)  -->
<svg version="1.1" id="Layer_1" xmlns="http://www.w3.org/2000/svg" xmlns:xlink="http://www.w3.org/1999/xlink" x="0px" y="0px"
	 viewBox="0 0 64 64" style="enable-background:new 0 0 64 64;" xml:space="preserve">
<style type="text/css">
	.st0{fill:#FFFFFF;}
	.st1{fill:#51448C;}
</style>
<polygon class="st0" points="15.3,57 15.3,8.5 41.4,8.5 50.2,17.3 50.2,57 "/>
<path class="st1" d="M41.1,9l8.5,8.5v38.9H15.8V9H41.1 M41.6,7.9H14.7v49.6h36V17.1L41.6,7.9L41.6,7.9z"/>
<polygon class="st0" points="42.2,16.5 42.2,9.4 49.3,16.5 "/>
<path class="st1" d="M42.8,10.8l5.1,5.1h-5.1V10.8 M41.6,7.9v9.1h9.1L41.6,7.9z"/>
<path class="st1" d="M37.2,42.4l-2-0.5c-0.1-0.4-0.3-0.9-0.5-1.3l1.1-1.8c0.1-0.1,0.1-0.3,0-0.4l-1.3-1.4c-0.1-0.1-0.3-0.1-0.4,0
	l-1.7,1.1c-0.4-0.2-0.8-0.4-1.2-0.5l-0.5-2c0-0.2-0.2-0.3-0.3-0.3h-1.9c-0.2,0-0.3,0.1-0.3,0.3l-0.5,2c-0.4,0.1-0.8,0.3-1.2,0.5
	l-1.7-1.1c-0.1-0.1-0.3-0.1-0.4,0l-1.3,1.4c-0.1,0.1-0.1,0.3,0,0.4l1.1,1.8c-0.2,0.4-0.4,0.8-0.5,1.3l-2,0.5c-0.2,0-0.3,0.2-0.3,0.3
	v1.9c0,0.2,0.1,0.3,0.3,0.3l2,0.5c0.1,0.4,0.3,0.9,0.5,1.3l-1.1,1.8c-0.1,0.1-0.1,0.3,0,0.4l1.3,1.4c0.1,0.1,0.3,0.1,0.4,0l1.7-1.1
	c0.4,0.2,0.8,0.4,1.2,0.5l0.5,2c0,0.2,0.2,0.3,0.3,0.3h1.9c0.2,0,0.3-0.1,0.3-0.3l0.5-2c0.4-0.1,0.8-0.3,1.2-0.5l1.7,1.1
	c0.1,0.1,0.3,0.1,0.4,0l1.3-1.4c0.1-0.1,0.1-0.3,0-0.4l-1.1-1.8c0.2-0.4,0.4-0.8,0.5-1.3l2-0.5c0.2,0,0.3-0.2,0.3-0.3v-1.9
	C37.4,42.6,37.3,42.5,37.2,42.4z M29.3,47.6c-2.1,0.1-3.9-1.6-3.9-3.7c-0.1-2.1,1.6-3.9,3.7-3.9c2.1-0.1,3.9,1.6,3.9,3.7
	c0,0,0,0.1,0,0.1C33.1,45.8,31.4,47.5,29.3,47.6L29.3,47.6z"/>
<path class="st1" d="M43.9,35.3L43,34.5c0.1-0.3,0.1-0.5,0.1-0.8l1.1-0.6c0.1,0,0.1-0.1,0.1-0.2l-0.3-1.1c0-0.1-0.1-0.1-0.2-0.1
	l-1.2,0.1c-0.1-0.2-0.3-0.4-0.5-0.6l0.3-1.2c0-0.1,0-0.2-0.1-0.2l-1-0.5c-0.1,0-0.2,0-0.2,0l-0.8,1c-0.3-0.1-0.5-0.1-0.8-0.1
	l-0.6-1.1c0-0.1-0.1-0.1-0.2-0.1l-1.1,0.3c-0.1,0-0.1,0.1-0.1,0.2l0.1,1.3c-0.2,0.2-0.4,0.3-0.6,0.5l-1.2-0.3c-0.1,0-0.2,0-0.2,0.1
	l-0.6,1c0,0.1,0,0.2,0,0.2l0.9,0.8c-0.1,0.3-0.1,0.5-0.1,0.8l-1.1,0.6c-0.1,0-0.1,0.1-0.1,0.2l0.3,1.1c0,0.1,0.1,0.1,0.2,0.1
	l1.2-0.1c0.1,0.2,0.3,0.4,0.5,0.6l-0.3,1.2c0,0.1,0,0.2,0.1,0.2l1,0.5c0.1,0,0.2,0,0.2,0l0.8-1c0.3,0.1,0.5,0.1,0.8,0.1l0.6,1.1
	c0,0.1,0.1,0.1,0.2,0.1l1.1-0.3c0.1,0,0.1-0.1,0.1-0.2l-0.1-1.3c0.2-0.2,0.4-0.3,0.6-0.5l1.2,0.3c0.1,0,0.2,0,0.2-0.1l0.6-1
	C44,35.5,44,35.4,43.9,35.3z M38.2,35.8c-1.1-0.6-1.6-2-1-3.1s2-1.6,3.1-1c1.1,0.6,1.6,2,1,3.1c0,0,0,0,0,0.1
	C40.7,35.9,39.4,36.3,38.2,35.8L38.2,35.8z"/>
<rect x="11.8" y="15.2" class="st1" width="26.5" height="11.1"/>
<path class="st0" d="M19.8,24.4c-0.6,0-1.1,0-1.7-0.1l-0.1,0v-6.9l0.1,0c0.7-0.1,1.3-0.1,2-0.1c1-0.1,2,0.2,2.9,0.8
	c0.8,0.6,1.2,1.6,1.1,2.6c0.1,1-0.3,2.1-1.1,2.8C22,24.1,20.9,24.4,19.8,24.4z M19.4,23.1c0.2,0,0.4,0,0.6,0h0
	c0.7,0,1.3-0.2,1.8-0.6c0.5-0.5,0.7-1.2,0.6-1.9c0-0.6-0.2-1.2-0.6-1.6c-0.5-0.4-1.1-0.6-1.7-0.6c-0.2,0-0.5,0-0.7,0L19.4,23.1z"/>
<path class="st1" d="M20.1,17.3c1-0.1,2,0.2,2.8,0.8c0.7,0.6,1.1,1.6,1.1,2.5c0.1,1-0.3,2-1.1,2.7c-0.9,0.7-2,1-3.1,0.9
	c-0.6,0-1.1,0-1.7-0.1v-6.7C18.7,17.3,19.4,17.3,20.1,17.3 M20,23.2c1.3,0.1,2.4-0.8,2.6-2.1c0-0.2,0-0.4,0-0.5
	c0.1-1.2-0.7-2.3-1.9-2.4c-0.2,0-0.3,0-0.5,0c-0.3,0-0.6,0-0.8,0.1v4.9C19.6,23.2,19.8,23.2,20,23.2L20,23.2 M20.1,17.1
	c-0.7,0-1.4,0-2,0.1l-0.2,0v7.1l0.2,0c0.6,0.1,1.1,0.1,1.7,0.1c1.2,0.1,2.3-0.3,3.2-1c0.8-0.8,1.2-1.8,1.1-2.9c0.1-1-0.4-2-1.2-2.7
	C22.2,17.3,21.1,17,20.1,17.1L20.1,17.1z M19.6,18.5c0.2,0,0.4,0,0.6,0c0.6,0,1.2,0.2,1.6,0.6c0.4,0.4,0.6,1,0.5,1.6
	c0.2,1.1-0.6,2.2-1.8,2.4c-0.2,0-0.4,0-0.5,0l0,0c-0.1,0-0.3,0-0.4,0V18.5L19.6,18.5z"/>
<polygon class="st0" points="24.9,24.3 24.9,17.2 26.4,17.2 26.4,23 29.2,23 29.2,24.3 "/>
<path class="st1" d="M26.2,17.3v5.8H29v1h-4v-6.8H26.2 M26.5,17.1h-1.7v7.3h4.5v-1.5h-2.8L26.5,17.1L26.5,17.1z"/>
<polygon class="st0" points="29.9,24.3 29.9,17.2 31.3,17.2 31.3,23 34.1,23 34.1,24.3 "/>
<path class="st1" d="M31.2,17.3v5.8H34v1h-4v-6.8H31.2 M31.5,17.1h-1.7v7.3h4.5v-1.5h-2.8C31.5,22.9,31.5,17.1,31.5,17.1z"/>
</svg>
