<?xml version="1.0" encoding="utf-8"?>
<!-- Generator: Adobe Illustrator 25.0.0, SVG Export Plug-In . SVG Version: 6.00 Build 0)  -->
<svg version="1.1" id="Layer_1" xmlns="http://www.w3.org/2000/svg" xmlns:xlink="http://www.w3.org/1999/xlink" x="0px" y="0px"
	 viewBox="0 0 64 64" style="enable-background:new 0 0 64 64;" xml:space="preserve">
<style type="text/css">
	.st0{fill:#FFFFFF;}
	.st1{fill:#2159AA;}
</style>
<polygon class="st0" points="15.3,56.6 15.3,8.1 41.4,8.1 50.2,16.9 50.2,56.6 "/>
<path class="st1" d="M41.1,8.7l8.5,8.5v38.9H15.8V8.7H41.1 M41.6,7.6H14.7v49.6h36V16.7C50.7,16.7,41.6,7.6,41.6,7.6z"/>
<polygon class="st0" points="42.2,16.1 42.2,9 49.3,16.1 "/>
<path class="st1" d="M42.8,10.4l5.1,5.1h-5.1V10.4 M41.6,7.6v9.1h9.1C50.7,16.7,41.6,7.6,41.6,7.6z"/>
<polygon class="st1" points="43.5,37.3 37.7,37.3 37.7,35.4 35.7,35.4 35.7,29.5 34.4,29.5 34.4,35.4 32.5,35.4 32.5,37.3 
	21.9,37.3 21.9,38.6 32.5,38.6 32.5,40.5 34.4,40.5 34.4,52.3 35.7,52.3 35.7,40.5 37.7,40.5 37.7,38.6 43.5,38.6 "/>
<polygon class="st1" points="38.4,26 11.8,26 11.8,26 11.8,14.8 38.4,14.8 "/>
<path class="st0" d="M16.2,24c-0.6,0-1.1,0-1.7-0.1l-0.1,0V17l0.1,0c0.7-0.1,1.3-0.1,2-0.1c1-0.1,2,0.2,2.9,0.8
	c0.8,0.6,1.2,1.6,1.1,2.6c0.1,1-0.3,2.1-1.1,2.8C18.5,23.7,17.4,24.1,16.2,24z M15.9,22.8c0.2,0,0.4,0,0.6,0h0
	c0.7,0,1.3-0.2,1.8-0.6c0.5-0.5,0.7-1.2,0.6-1.9c0-0.6-0.2-1.2-0.6-1.7c-0.5-0.4-1.1-0.6-1.7-0.6c-0.2,0-0.5,0-0.7,0L15.9,22.8z"/>
<path class="st1" d="M16.5,17c1-0.1,2,0.2,2.8,0.8c0.7,0.6,1.1,1.6,1.1,2.5c0.1,1-0.3,2-1.1,2.7c-0.9,0.7-2,1-3.1,0.9
	c-0.6,0-1.1,0-1.7-0.1v-6.7C15.2,17,15.9,17,16.5,17 M16.5,22.9c1.3,0.1,2.4-0.8,2.6-2.1c0-0.2,0-0.4,0-0.5c0.1-1.2-0.7-2.3-1.9-2.4
	c-0.2,0-0.3,0-0.5,0c-0.3,0-0.6,0-0.8,0.1v4.9C16,22.9,16.3,22.9,16.5,22.9L16.5,22.9 M16.5,16.7c-0.7,0-1.4,0-2,0.1l-0.2,0V24
	l0.2,0c0.6,0.1,1.1,0.1,1.7,0.1c1.2,0.1,2.3-0.3,3.2-1c0.8-0.8,1.2-1.8,1.1-2.9c0.1-1-0.4-2-1.1-2.7C18.6,16.9,17.6,16.6,16.5,16.7z
	 M16,18.2c0.2,0,0.4,0,0.6,0c0.6,0,1.2,0.2,1.7,0.6c0.4,0.4,0.6,1,0.5,1.6c0.2,1.2-0.6,2.2-1.8,2.4c-0.2,0-0.4,0-0.5,0l0,0
	c-0.2,0-0.3,0-0.5,0V18.2L16,18.2z"/>
<path class="st0" d="M26.1,23.9l-0.7-3.3c-0.1-0.6-0.2-1.1-0.3-1.5c-0.1,0.5-0.2,1-0.3,1.5L24,23.9h-1.5l-1.7-7h1.6l0.7,3.2
	c0.1,0.6,0.2,1.2,0.3,1.8c0.1-0.4,0.2-0.9,0.3-1.4l0.1-0.4l0.8-3.2h1.5l0.7,3.2c0.1,0.6,0.2,1.2,0.3,1.7c0.1-0.6,0.2-1.2,0.4-1.7
	l0.7-3.2h1.5l-1.9,7L26.1,23.9z"/>
<path class="st1" d="M29.4,17l-1.8,6.8h-1.3l-0.7-3.2c-0.2-0.7-0.3-1.4-0.4-2.2h0c-0.1,0.7-0.3,1.4-0.5,2.2l-0.8,3.2h-1.3L20.9,17
	h1.3l0.6,3.1c0.2,0.8,0.3,1.7,0.4,2.4h0c0.1-0.7,0.3-1.5,0.5-2.4l0.7-3.1h1.3l0.7,3.1c0.2,0.8,0.3,1.6,0.4,2.3h0
	c0.1-0.7,0.3-1.5,0.5-2.4l0.7-3.1H29.4 M29.7,16.8h-1.7l0,0.2L27.2,20c-0.1,0.4-0.2,0.7-0.2,1.1c-0.1-0.3-0.1-0.7-0.2-1.1L26.1,17
	l0-0.2h-1.7l0,0.2L23.6,20l-0.1,0.4c-0.1,0.3-0.1,0.6-0.2,0.8c-0.1-0.4-0.2-0.8-0.2-1.2L22.4,17l0-0.2h-1.8l0.1,0.3l1.7,6.8l0,0.2
	h1.7l0-0.2l0.8-3.2c0.1-0.3,0.2-0.6,0.2-0.9c0.1,0.3,0.1,0.6,0.2,0.9l0.7,3.2l0,0.2h1.7l0-0.2l1.8-6.8L29.7,16.8L29.7,16.8z"/>
<path class="st0" d="M33.4,24c-1,0.1-2-0.3-2.7-0.9c-0.7-0.7-1-1.6-1-2.6c0-2,1.5-3.6,3.5-3.7c0.1,0,0.3,0,0.4,0
	c0.6,0,1.3,0.1,1.9,0.3l0.1,0l-0.3,1.2l-0.1-0.1c-0.5-0.2-1-0.3-1.5-0.3c-1.2-0.1-2.2,0.7-2.4,1.9c0,0.1,0,0.3,0,0.4
	c-0.1,1.2,0.7,2.2,1.9,2.3c0.1,0,0.2,0,0.3,0c0.3,0,0.6,0,0.8-0.1v-1.5h-1.2v-1.2h2.6v3.6l-0.1,0C34.9,23.9,34.2,24,33.4,24z"/>
<path class="st1" d="M33.6,16.9c0.6,0,1.2,0.1,1.8,0.3l-0.3,1c-0.5-0.2-1-0.3-1.5-0.3c-1.3-0.1-2.4,0.8-2.5,2.1c0,0.1,0,0.3,0,0.4
	c-0.1,1.2,0.8,2.3,2,2.5c0.1,0,0.2,0,0.3,0c0.3,0,0.6,0,0.9-0.1V21h-1.2v-1h2.4v3.4c-0.7,0.2-1.4,0.4-2.2,0.4
	c-1,0.1-1.9-0.3-2.7-0.9c-0.6-0.7-1-1.6-1-2.5c-0.1-1.9,1.5-3.5,3.4-3.6C33.3,16.9,33.5,16.9,33.6,16.9 M33.6,16.7
	c-2-0.2-3.8,1.3-4,3.3c0,0.1,0,0.3,0,0.4c0,1,0.3,2,1,2.7c0.8,0.7,1.8,1,2.8,1c0.8,0,1.5-0.1,2.3-0.4l0.1-0.1v-3.8H33v1.4h1.2v1.3
	c-0.2,0.1-0.5,0.1-0.7,0.1c-1.1,0.1-2.1-0.8-2.1-1.9c0-0.1,0-0.2,0-0.3c-0.1-1.1,0.7-2.1,1.9-2.2c0.1,0,0.3,0,0.4,0
	c0.5,0,1,0.1,1.5,0.3l0.2,0.1l0.1-0.3l0.3-1l0.1-0.2l-0.2-0.1C34.9,16.8,34.3,16.7,33.6,16.7L33.6,16.7z"/>
</svg>
