<?xml version="1.0" encoding="utf-8"?>
<!-- Generator: Adobe Illustrator 25.0.0, SVG Export Plug-In . SVG Version: 6.00 Build 0)  -->
<svg version="1.1" id="Layer_1" xmlns="http://www.w3.org/2000/svg" xmlns:xlink="http://www.w3.org/1999/xlink" x="0px" y="0px"
	 viewBox="0 0 64 64" style="enable-background:new 0 0 64 64;" xml:space="preserve">
<style type="text/css">
	.st0{fill:#FFFFFF;}
	.st1{fill:#2159AA;}
</style>
<polygon class="st0" points="14.9,56.8 14.9,8.3 41,8.3 49.8,17.1 49.8,56.8 "/>
<path class="st1" d="M40.8,8.8l8.5,8.5v38.9H15.4V8.8H40.8 M41.2,7.7H14.4v49.6h36V16.9C50.4,16.9,41.2,7.7,41.2,7.7z"/>
<polygon class="st0" points="41.8,16.3 41.8,9.1 48.9,16.3 "/>
<path class="st1" d="M42.4,10.6l5.1,5.1h-5.1V10.6 M41.2,7.7v9.1h9.1L41.2,7.7z"/>
<rect x="25.4" y="29.9" class="st1" width="13.9" height="2"/>
<rect x="20.4" y="34.7" class="st1" width="24" height="2"/>
<rect x="20.4" y="38.5" class="st1" width="24" height="2"/>
<rect x="20.4" y="42.3" class="st1" width="24" height="2"/>
<rect x="20.4" y="46.1" class="st1" width="24" height="2"/>
<rect x="20.4" y="49.9" class="st1" width="24" height="2"/>
<polygon class="st1" points="38,26.1 11.5,26.1 11.5,26.1 11.5,15 38,15 "/>
<path class="st0" d="M16.9,24.1c-0.6,0-1.1,0-1.7-0.1h-0.1v-6.9h0.1c0.7-0.1,1.3-0.1,2-0.1c1-0.1,2,0.2,2.9,0.8
	c0.8,0.6,1.2,1.6,1.1,2.6c0.1,1-0.3,2.1-1.1,2.8C19.2,23.9,18,24.2,16.9,24.1z M16.6,22.9h0.6c0.7,0.1,1.3-0.2,1.9-0.6
	c0.5-0.5,0.7-1.2,0.6-1.9c0-0.6-0.2-1.2-0.6-1.6c-0.5-0.4-1.1-0.6-1.7-0.6c-0.2,0-0.5,0-0.7,0L16.6,22.9z"/>
<path class="st1" d="M17.2,17.1c1-0.1,2,0.2,2.8,0.8c0.7,0.6,1.1,1.6,1.1,2.5c0.1,1-0.3,2-1.1,2.7c-0.9,0.7-2,1-3.1,0.9
	c-0.6,0-1.1,0-1.7-0.1v-6.7C15.9,17.1,16.6,17.1,17.2,17.1 M17.2,23c1.3,0.1,2.4-0.8,2.6-2.1c0-0.2,0-0.4,0-0.5
	c0.1-1.2-0.7-2.2-1.9-2.4c-0.2,0-0.3,0-0.5,0c-0.3,0-0.6,0-0.8,0.1V23C16.7,23,17,23,17.2,23L17.2,23 M17.2,16.8c-0.7,0-1.3,0-2,0.1
	L15,17v7.1h0.2c0.6,0.1,1.1,0.1,1.7,0.1c1.2,0.1,2.3-0.3,3.2-1c0.8-0.8,1.2-1.8,1.1-2.9c0.1-1-0.4-2-1.1-2.7
	C19.3,17,18.3,16.7,17.2,16.8L17.2,16.8z M16.7,18.3c0.1,0,0.3,0,0.6,0c0.6,0,1.2,0.2,1.6,0.6c0.4,0.4,0.6,1,0.5,1.6
	c0.2,1.1-0.6,2.2-1.8,2.4c-0.2,0-0.4,0-0.5,0h-0.5L16.7,18.3L16.7,18.3z"/>
<path class="st0" d="M24.9,24.2c-1.9,0-3.2-1.4-3.2-3.6c-0.2-1.9,1.2-3.5,3.1-3.7c0.1,0,0.2,0,0.3,0c1.8,0,3.3,1.4,3.3,3.2
	c0,0.1,0,0.2,0,0.4C28.3,22.7,27,24.2,24.9,24.2z M25,18.2c-1.3,0-1.8,1.3-1.8,2.4S23.8,23,25,23c1.1,0,1.8-1,1.8-2.4
	C26.8,19.4,26.2,18.1,25,18.2L25,18.2z"/>
<path class="st1" d="M25,17c1.7,0,3.2,1.4,3.2,3.1c0,0.1,0,0.2,0,0.3c0,2.3-1.4,3.6-3.3,3.6c-1.7,0-3.2-1.4-3.2-3.2
	c0-0.1,0-0.2,0-0.3c-0.2-1.8,1.2-3.4,3-3.6C24.8,17,24.9,17,25,17 M25,23c1.2,0,1.9-1.1,1.9-2.5S26.2,18,25,18s-1.9,1.1-1.9,2.5
	S23.8,23,25,23 M25,16.8c-1.9,0-3.5,1.6-3.5,3.5c0,0.1,0,0.2,0,0.3c-0.2,1.9,1.2,3.5,3.1,3.7c0.1,0,0.2,0,0.3,0
	c2.1,0,3.5-1.5,3.5-3.8c0.2-1.8-1.2-3.5-3.1-3.6C25.2,16.8,25.1,16.8,25,16.8L25,16.8z M25,22.8c-1.1,0-1.7-1.1-1.7-2.3
	s0.4-2.3,1.7-2.3s1.6,1.2,1.6,2.3S26.2,22.8,25,22.8L25,22.8z"/>
<path class="st0" d="M32.4,24.2c-1.8,0.1-3.4-1.2-3.6-3.1c0-0.2,0-0.3,0-0.5c-0.1-2,1.4-3.6,3.3-3.7c0.1,0,0.3,0,0.4,0
	c0.6,0,1.2,0.1,1.7,0.3h0.1L34,18.5l-0.1,0c-0.4-0.2-0.8-0.3-1.3-0.2c-1.2-0.1-2.2,0.8-2.3,2c0,0.1,0,0.2,0,0.4
	c-0.1,1.2,0.7,2.2,1.9,2.3c0.1,0,0.3,0,0.4,0c0.4,0,0.9-0.1,1.3-0.2l0.1-0.1l0.2,1.2h-0.1C33.6,24.1,33,24.2,32.4,24.2z"/>
<path class="st1" d="M32.5,17c0.6,0,1.1,0.1,1.7,0.3l-0.3,1C33.5,18.1,33,18,32.6,18c-1.3-0.1-2.3,0.9-2.4,2.1c0,0.1,0,0.3,0,0.4
	c-0.1,1.2,0.8,2.3,2,2.4c0.1,0,0.2,0,0.4,0c0.5,0,0.9-0.1,1.3-0.3l0.2,1C33.6,24,33,24.1,32.4,24c-1.8,0.1-3.3-1.2-3.5-2.9
	c0-0.2,0-0.3,0-0.5c-0.1-1.9,1.3-3.5,3.2-3.6C32.3,17,32.4,17,32.5,17 M32.5,16.8c-2-0.1-3.7,1.4-3.9,3.4c0,0.1,0,0.3,0,0.4
	c-0.1,1.9,1.3,3.5,3.2,3.7c0.2,0,0.3,0,0.5,0c0.6,0,1.3,0,1.9-0.3l0.2-0.1v-0.2l-0.2-1l-0.1-0.3l-0.3,0.1c-0.4,0.2-0.8,0.2-1.2,0.2
	c-1.1,0.1-2.1-0.7-2.2-1.8c0-0.1,0-0.3,0-0.4c-0.2-1.1,0.6-2.1,1.7-2.3c0.2,0,0.3,0,0.5,0c0.4,0,0.8,0.1,1.2,0.2l0.2,0.1l0.1-0.3
	l0.3-1v-0.2l-0.2-0.1C33.7,16.9,33.1,16.8,32.5,16.8L32.5,16.8z"/>
</svg>
