<?xml version="1.0" encoding="utf-8"?>
<!-- Generator: Adobe Illustrator 25.0.0, SVG Export Plug-In . SVG Version: 6.00 Build 0)  -->
<svg version="1.1" id="Layer_1" xmlns="http://www.w3.org/2000/svg" xmlns:xlink="http://www.w3.org/1999/xlink" x="0px" y="0px"
	 viewBox="0 0 64 64" style="enable-background:new 0 0 64 64;" xml:space="preserve">
<style type="text/css">
	.st0{fill:#FFFFFF;}
	.st1{fill:#EA6B03;}
</style>
<polygon class="st0" points="14.7,56.6 14.7,8.1 40.8,8.1 49.6,16.9 49.6,56.6 "/>
<path class="st1" d="M40.6,8.7l8.5,8.5v38.9H15.3V8.7H40.6 M41.1,7.6H14.2v49.6h36V16.7L41.1,7.6L41.1,7.6z"/>
<polygon class="st0" points="41.6,16.1 41.6,9 48.8,16.1 "/>
<path class="st1" d="M42.2,10.4l5.1,5.1h-5.1V10.4 M41.1,7.6v9.1h9.1C50.2,16.7,41.1,7.6,41.1,7.6z"/>
<path class="st1" d="M43,44L43,44c-0.3-3.9-2.6-7.3-6.1-9h3.7v0.3h1.6v-1.6h-1.6v0.3h-7.6v-0.3h-1.8v0.3l-7.6,0v-0.3h-1.6v1.6h1.6
	v-0.3h3.7c-3.5,1.7-5.8,5.2-6.1,9H21v1.8h1.8V44h-0.3c0.4-4.7,4.1-8.4,8.7-8.9v0.3h1.8V35c4.7,0.5,8.3,4.2,8.7,8.9h-0.3v1.8h1.8V44
	H43z M22.3,45.2h-0.7v-0.7h0.7V45.2z M32.6,34.8h-0.7V34h0.7V34.8z M42.8,45.2h-0.7v-0.7h0.7V45.2z"/>
<rect x="11.3" y="14.8" class="st1" width="26.5" height="11.1"/>
<polygon class="st0" points="16.9,24 16.9,16.9 21.1,16.9 21.1,18.2 18.4,18.2 18.4,19.7 21,19.7 21,20.9 18.4,20.9 18.4,22.7 
	21.3,22.7 21.3,24 "/>
<path class="st1" d="M21,17v1h-2.7v1.8h2.6v1h-2.6v2h2.9v1h-4.1V17H21 M21.3,16.8h-4.5v7.3h4.6v-1.5h-2.9V21h2.6v-1.5h-2.6v-1.3h2.7
	L21.3,16.8L21.3,16.8z"/>
<path class="st0" d="M22.1,23.9V17l0.1,0c0.6-0.1,1.3-0.2,1.9-0.1c0.7-0.1,1.5,0.2,2.1,0.6c0.5,0.4,0.7,1,0.7,1.6
	c0,0.6-0.2,1.2-0.6,1.6c-0.6,0.5-1.4,0.8-2.2,0.8c-0.2,0-0.3,0-0.5,0v2.5L22.1,23.9z M23.6,20.2c0.2,0,0.3,0,0.5,0
	c0.9,0,1.4-0.4,1.4-1.1c0-0.9-0.8-1-1.3-1c-0.2,0-0.4,0-0.6,0V20.2z"/>
<path class="st1" d="M24.2,17c0.7-0.1,1.4,0.1,2,0.6c0.4,0.4,0.7,0.9,0.7,1.5c0,0.6-0.2,1.1-0.6,1.5c-0.6,0.5-1.4,0.8-2.2,0.7
	c-0.2,0-0.4,0-0.6,0v2.6h-1.2v-6.7C22.9,17,23.5,17,24.2,17 M24.1,20.3c0.9,0,1.5-0.5,1.5-1.3c0-0.8-0.5-1.2-1.4-1.2
	c-0.2,0-0.5,0-0.7,0.1v2.3C23.7,20.3,23.9,20.3,24.1,20.3 M24.2,16.7c-0.7,0-1.3,0-1.9,0.1l-0.2,0v7.2h1.7v-2.5c0.1,0,0.2,0,0.4,0
	c0.9,0.1,1.7-0.2,2.3-0.8c0.4-0.5,0.7-1.1,0.7-1.7c0-0.6-0.3-1.3-0.8-1.7C25.7,16.9,24.9,16.7,24.2,16.7L24.2,16.7z M23.7,18.2
	c0.2,0,0.3,0,0.5,0c0.5,0,1.1,0.2,1.1,0.9c0,0.9-0.8,1-1.3,1c-0.1,0-0.2,0-0.4,0C23.7,20.1,23.7,18.2,23.7,18.2z"/>
<path class="st0" d="M29.5,24.1c-0.7,0-1.3-0.1-1.9-0.4l-0.1,0l0.3-1.3l0.1,0.1c0.5,0.3,1,0.4,1.6,0.4c0.7,0,1.1-0.3,1.1-0.8
	c0-0.5-0.3-0.7-1.1-1c-1.3-0.5-1.9-1.2-1.9-2.1c0-1.2,1-2.1,2.5-2.1c0.6,0,1.2,0.1,1.7,0.4l0.1,0l-0.4,1.2l-0.1-0.1
	C31,18.1,30.6,18,30.1,18c-0.7,0-1,0.4-1,0.7c0,0.4,0.3,0.6,1.2,1c1.3,0.5,1.8,1.1,1.8,2.1C32.2,22.9,31.5,24.1,29.5,24.1z"/>
<path class="st1" d="M30.1,16.9c0.6,0,1.1,0.1,1.6,0.3l-0.3,1c-0.4-0.2-0.9-0.3-1.4-0.3c-0.8,0-1.1,0.4-1.1,0.8
	c0,0.5,0.4,0.8,1.3,1.1c1.2,0.4,1.8,1,1.8,2c0,1.1-0.8,2-2.6,2c-0.6,0-1.3-0.1-1.8-0.4l0.3-1c0.5,0.3,1.1,0.4,1.6,0.4
	c0.8,0,1.2-0.4,1.2-0.9c0-0.5-0.3-0.8-1.2-1.1c-1.1-0.4-1.8-1-1.8-2C27.7,17.7,28.7,16.9,30.1,16.9 M30.1,16.7
	c-1.6,0-2.7,0.9-2.7,2.2c0,1,0.7,1.7,2,2.2c0.9,0.3,1.1,0.6,1.1,0.9c0,0.6-0.7,0.7-1,0.7c-0.5,0-1.1-0.1-1.5-0.4l-0.3-0.2l-0.1,0.3
	l-0.3,1l0,0.2l0.2,0.1c0.6,0.3,1.3,0.5,2,0.5c2.1,0,2.8-1.2,2.8-2.3c0-1.1-0.6-1.8-1.9-2.3c-0.9-0.4-1.1-0.5-1.1-0.9
	c0-0.3,0.3-0.6,0.9-0.6c0.4,0,0.9,0.1,1.2,0.3l0.3,0.1l0.1-0.3l0.3-1l0.1-0.2L31.9,17C31.3,16.8,30.7,16.6,30.1,16.7L30.1,16.7z"/>
</svg>
