<?xml version="1.0" encoding="utf-8"?>
<!-- Generator: Adobe Illustrator 25.0.0, SVG Export Plug-In . SVG Version: 6.00 Build 0)  -->
<svg version="1.1" id="Layer_1" xmlns="http://www.w3.org/2000/svg" xmlns:xlink="http://www.w3.org/1999/xlink" x="0px" y="0px"
	 viewBox="0 0 64 64" style="enable-background:new 0 0 64 64;" xml:space="preserve">
<style type="text/css">
	.st0{fill:#FFFFFF;}
	.st1{fill:#2159AA;}
</style>
<polygon class="st0" points="14.7,57 14.7,8.5 40.8,8.5 49.6,17.3 49.6,57 "/>
<path class="st1" d="M40.6,9l8.5,8.5v38.9H15.3V9H40.6 M41.1,7.9H14.2v49.6h36V17.1L41.1,7.9L41.1,7.9z"/>
<polygon class="st0" points="41.6,16.5 41.6,9.4 48.8,16.5 "/>
<path class="st1" d="M42.2,10.8l5.1,5.1h-5.1V10.8 M41.1,7.9v9.1h9.1L41.1,7.9z"/>
<path class="st1" d="M36.6,42.4l-2-0.5c-0.1-0.4-0.3-0.9-0.5-1.3l1.1-1.8c0.1-0.1,0.1-0.3,0-0.4l-1.3-1.4c-0.1-0.1-0.3-0.1-0.4,0
	l-1.7,1.1c-0.4-0.2-0.8-0.4-1.2-0.5l-0.5-2c0-0.2-0.2-0.3-0.3-0.3h-1.9c-0.2,0-0.3,0.1-0.3,0.3l-0.5,2c-0.4,0.1-0.8,0.3-1.2,0.5
	l-1.7-1.1c-0.1-0.1-0.3-0.1-0.4,0l-1.3,1.4c-0.1,0.1-0.1,0.3,0,0.4l1.1,1.8c-0.2,0.4-0.4,0.8-0.5,1.3l-2,0.5c-0.2,0-0.3,0.2-0.3,0.3
	v1.9c0,0.2,0.1,0.3,0.3,0.3l2,0.5c0.1,0.4,0.3,0.9,0.5,1.3l-1.1,1.8c-0.1,0.1-0.1,0.3,0,0.4l1.3,1.4c0.1,0.1,0.3,0.1,0.4,0l1.7-1.1
	c0.4,0.2,0.8,0.4,1.2,0.5l0.5,2c0,0.2,0.2,0.3,0.3,0.3h1.9c0.2,0,0.3-0.1,0.3-0.3l0.5-2c0.4-0.1,0.8-0.3,1.2-0.5l1.7,1.1
	c0.1,0.1,0.3,0.1,0.4,0l1.3-1.4c0.1-0.1,0.1-0.3,0-0.4l-1.1-1.8c0.2-0.4,0.4-0.8,0.5-1.3l2-0.5c0.2,0,0.3-0.2,0.3-0.3v-1.9
	C36.9,42.6,36.8,42.5,36.6,42.4z M28.8,47.6c-2.1,0.1-3.9-1.6-3.9-3.7c-0.1-2.1,1.6-3.9,3.7-3.9c2.1-0.1,3.9,1.6,3.9,3.7
	c0,0,0,0.1,0,0.1C32.5,45.8,30.9,47.5,28.8,47.6L28.8,47.6z"/>
<path class="st1" d="M43.4,35.3l-0.9-0.8c0.1-0.3,0.1-0.5,0.1-0.8l1.1-0.6c0.1,0,0.1-0.1,0.1-0.2l-0.3-1.1c0-0.1-0.1-0.1-0.2-0.1
	L42,31.6c-0.1-0.2-0.3-0.4-0.5-0.6l0.3-1.2c0-0.1,0-0.2-0.1-0.2l-1-0.5c-0.1,0-0.2,0-0.2,0l-0.8,1c-0.3-0.1-0.5-0.1-0.8-0.1
	l-0.6-1.1c0-0.1-0.1-0.1-0.2-0.1l-1.1,0.3c-0.1,0-0.1,0.1-0.1,0.2l0.1,1.3c-0.2,0.2-0.4,0.3-0.6,0.5L35,30.8c-0.1,0-0.2,0-0.2,0.1
	l-0.6,1c0,0.1,0,0.2,0,0.2l0.9,0.8c-0.1,0.3-0.1,0.5-0.1,0.8L34,34.4c-0.1,0-0.1,0.1-0.1,0.2l0.3,1.1c0,0.1,0.1,0.1,0.2,0.1l1.2-0.1
	c0.1,0.2,0.3,0.4,0.5,0.6l-0.3,1.2c0,0.1,0,0.2,0.1,0.2l1,0.5c0.1,0,0.2,0,0.2,0l0.8-1c0.3,0.1,0.5,0.1,0.8,0.1l0.6,1.1
	c0,0.1,0.1,0.1,0.2,0.1l1.1-0.3c0.1,0,0.1-0.1,0.1-0.2l-0.1-1.3c0.2-0.2,0.4-0.3,0.6-0.5l1.2,0.3c0.1,0,0.2,0,0.2-0.1l0.6-1
	C43.5,35.5,43.4,35.4,43.4,35.3z M37.7,35.8c-1.1-0.6-1.6-2-1-3.1s2-1.6,3.1-1c1.1,0.6,1.6,2,1,3.1c0,0,0,0,0,0.1
	C40.2,35.9,38.8,36.3,37.7,35.8z"/>
<polygon class="st1" points="37.8,26.3 11.3,26.3 11.3,26.3 11.3,15.2 37.8,15.2 "/>
<polygon class="st0" points="16.8,24.3 16.8,17.2 21,17.2 21,18.5 18.2,18.5 18.2,20 20.8,20 20.8,21.3 18.2,21.3 18.2,23 21.1,23 
	21.1,24.3 "/>
<path class="st1" d="M20.9,17.4v1h-2.7v1.8h2.6v1h-2.6v2H21v1h-4.1v-6.8H20.9 M21.1,17.1h-4.4v7.3h4.6v-1.5h-2.9v-1.5h2.6v-1.5h-2.6
	v-1.3h2.7L21.1,17.1L21.1,17.1z"/>
<polygon class="st0" points="28,24.3 28,17.2 32.2,17.2 32.2,18.5 29.5,18.5 29.5,20 32,20 32,21.3 29.5,21.3 29.5,23 32.3,23 
	32.3,24.3 "/>
<path class="st1" d="M32.1,17.4v1h-2.7v1.8h2.6v1h-2.6v2h2.9v1h-4.1v-6.8H32.1 M32.3,17.1h-4.4v7.3h4.6v-1.5h-2.9v-1.5h2.6v-1.5
	h-2.6v-1.3h2.7L32.3,17.1L32.3,17.1z"/>
<path class="st0" d="M25.7,24.3l-0.8-1.4c-0.2-0.4-0.4-0.8-0.6-1.1c-0.1,0.3-0.3,0.7-0.5,1.1l-0.7,1.4h-1.7l2.1-3.6l-2-3.5h1.7
	l0.8,1.5c0.2,0.3,0.3,0.6,0.5,0.9c0.1-0.3,0.3-0.6,0.4-0.9l0.8-1.5h1.7l-2.1,3.4l2.1,3.6L25.7,24.3z"/>
<path class="st1" d="M27.1,17.4l-2,3.3l2.1,3.5h-1.4L25,22.8c-0.3-0.5-0.5-0.9-0.7-1.3h0c-0.2,0.4-0.3,0.8-0.6,1.3L23,24.2h-1.4
	l2-3.4l-1.9-3.4h1.4l0.7,1.4c0.2,0.4,0.4,0.8,0.6,1.1h0c0.2-0.4,0.3-0.7,0.5-1.1l0.7-1.4L27.1,17.4 M27.5,17.1h-2l-0.1,0.1l-0.7,1.4
	c-0.1,0.3-0.2,0.5-0.4,0.7c-0.1-0.2-0.2-0.5-0.4-0.7l-0.7-1.4l-0.1-0.1h-2l0.2,0.3l1.9,3.3l-2,3.3l-0.2,0.3h2l0.1-0.1l0.7-1.4
	c0.2-0.3,0.3-0.6,0.4-0.9c0.1,0.3,0.3,0.5,0.5,0.9l0.7,1.4l0.1,0.1h2l-0.2-0.3l-2-3.4l1.9-3.2L27.5,17.1L27.5,17.1z"/>
</svg>
