<?xml version="1.0" encoding="utf-8"?>
<!-- Generator: Adobe Illustrator 25.0.0, SVG Export Plug-In . SVG Version: 6.00 Build 0)  -->
<svg version="1.1" id="Layer_1" xmlns="http://www.w3.org/2000/svg" xmlns:xlink="http://www.w3.org/1999/xlink" x="0px" y="0px"
	 viewBox="0 0 64 64" style="enable-background:new 0 0 64 64;" xml:space="preserve">
<style type="text/css">
	.st0{fill:#FFFFFF;}
	.st1{fill:#D3132F;}
</style>
<polygon class="st0" points="15.3,56.6 15.3,8.1 41.4,8.1 50.2,16.9 50.2,56.6 "/>
<path class="st1" d="M41.1,8.6l8.5,8.5V56H15.8V8.6H41.1 M41.6,7.5H14.7v49.6h36V16.7C50.7,16.7,41.6,7.5,41.6,7.5z"/>
<polygon class="st0" points="42.2,16.1 42.2,9 49.3,16.1 "/>
<path class="st1" d="M42.8,10.4l5.1,5.1h-5.1V10.4 M41.6,7.5v9.1h9.1C50.7,16.7,41.6,7.5,41.6,7.5z"/>
<path class="st1" d="M38.5,29.7H23.6V52h18.2V29.7H38.5z M26.2,51.2h-1.8v-1.8h1.8V51.2z M26.2,48.5h-1.8v-1.8h1.8V48.5z M26.2,45.8
	h-1.8V44h1.8V45.8z M26.2,43.1h-1.8v-1.8h1.8V43.1z M26.2,40.4h-1.8v-1.8h1.8V40.4z M26.2,37.7h-1.8v-1.8h1.8V37.7z M26.2,35h-1.8
	v-1.8h1.8V35z M26.2,32.3h-1.8v-1.8h1.8V32.3z M37.9,51.3H27.5v-9.9h10.4V51.3z M37.9,40.3H27.5v-9.9h10.4V40.3z M41,51.2h-1.8v-1.8
	H41L41,51.2z M41,48.5h-1.8v-1.8H41L41,48.5z M41,45.8h-1.8V44H41L41,45.8z M41,43.1h-1.8v-1.8H41L41,43.1z M41,40.4h-1.8v-1.8H41
	L41,40.4z M41,37.7h-1.8v-1.8H41L41,37.7z M41,35h-1.8v-1.8H41L41,35z M41,32.3h-1.8v-1.8H41L41,32.3z"/>
<polygon class="st1" points="38.4,25.9 11.8,25.9 11.8,25.9 11.8,14.8 38.4,14.8 "/>
<polygon class="st0" points="17.7,23.9 17.7,16.8 21.9,16.8 21.9,18.1 19.2,18.1 19.2,19.7 21.7,19.7 21.7,21 19.2,21 19.2,23.9 "/>
<path class="st1" d="M21.8,16.9v1h-2.7v1.9h2.5v1h-2.5v2.9h-1.2v-6.8H21.8 M22,16.7h-4.4V24h1.7v-2.9h2.5v-1.5h-2.5v-1.4H22L22,16.7
	L22,16.7z"/>
<polygon class="st0" points="22.9,23.9 22.9,16.8 24.3,16.8 24.3,22.6 27.1,22.6 27.1,23.9 "/>
<path class="st1" d="M24.2,16.9v5.8H27v1h-4v-6.8H24.2 M24.5,16.7h-1.7V24h4.5v-1.5h-2.8L24.5,16.7L24.5,16.7z"/>
<path class="st0" d="M28.8,23.9l-2.3-7.1h1.6l1,3.2c0.2,0.8,0.4,1.4,0.6,2c0.2-0.6,0.3-1.3,0.6-2l1-3.2h1.6l-2.4,7.1H28.8z"/>
<path class="st1" d="M32.7,16.9l-2.4,6.8h-1.4l-2.2-6.8H28L29,20c0.3,0.9,0.5,1.7,0.7,2.5h0c0.2-0.8,0.4-1.6,0.7-2.5l1-3.1
	L32.7,16.9 M33,16.7h-1.8l-0.1,0.2l-1,3.1c-0.2,0.6-0.3,1.1-0.5,1.6c-0.1-0.5-0.3-1-0.4-1.6l-0.9-3.1l-0.1-0.2h-1.9l0.1,0.3l2.2,6.8
	l0.1,0.2h1.8l0.1-0.2l2.4-6.8L33,16.7L33,16.7z"/>
</svg>
