<?xml version="1.0" encoding="utf-8"?>
<!-- Generator: Adobe Illustrator 25.0.0, SVG Export Plug-In . SVG Version: 6.00 Build 0)  -->
<svg version="1.1" id="Layer_1" xmlns="http://www.w3.org/2000/svg" xmlns:xlink="http://www.w3.org/1999/xlink" x="0px" y="0px"
	 viewBox="0 0 64 64" style="enable-background:new 0 0 64 64;" xml:space="preserve">
<style type="text/css">
	.st0{fill:#FFFFFF;}
	.st1{fill:#EA6B03;}
</style>
<polygon class="st0" points="14.7,56.6 14.7,8.1 40.8,8.1 49.6,16.9 49.6,56.6 "/>
<path class="st1" d="M40.6,8.6l8.5,8.5V56H15.3V8.6H40.6 M41.1,7.5H14.2v49.6h36V16.7L41.1,7.5L41.1,7.5z"/>
<polygon class="st0" points="41.6,16.1 41.6,9 48.8,16.1 "/>
<path class="st1" d="M42.2,10.4l5.1,5.1h-5.1V10.4 M41.1,7.5v9.1h9.1C50.2,16.7,41.1,7.5,41.1,7.5z"/>
<path class="st1" d="M32.2,49.6c-5.4,0-9.7-4.3-9.7-9.7s4.3-9.7,9.7-9.7c5.4,0,9.7,4.3,9.7,9.7C41.9,45.2,37.5,49.6,32.2,49.6z
	 M32.2,31.8c-4.5,0-8.1,3.6-8.1,8.1s3.6,8.1,8.1,8.1c4.5,0,8.1-3.6,8.1-8.1c0,0,0,0,0,0C40.3,35.4,36.7,31.8,32.2,31.8z"/>
<path class="st1" d="M26.9,41.6c0,0,0,0,0.1,0.1c0.1,0.1,0.2,0.2,0.3,0.3c0.1,0.1,0.3,0.3,0.5,0.4c0.2,0.2,0.4,0.3,0.7,0.5
	c0.3,0.2,0.5,0.3,0.8,0.4c0.3,0.1,0.6,0.3,0.9,0.3c0.3,0.1,0.6,0.2,1,0.2c0.3,0,0.7,0.1,1,0.1l0.3,0c0,0,0.1,0,0.2,0l0.1,0
	c0.1,0,0.1,0,0.2,0l0.2,0c0.3-0.1,0.6-0.1,1-0.2c0.3-0.1,0.6-0.2,0.9-0.3c0.3-0.1,0.5-0.3,0.8-0.4c0.2-0.2,0.5-0.3,0.7-0.5
	c0.2-0.2,0.4-0.3,0.5-0.4c0.1-0.1,0.3-0.2,0.3-0.3l0.1-0.1l0,0c0,0,0.1,0,0.1,0c0,0,0,0.1,0,0.1l-0.1,0.2c0,0.1-0.1,0.3-0.2,0.4
	c-0.1,0.2-0.2,0.4-0.3,0.6l-0.2,0.4c-0.1,0.1-0.2,0.3-0.3,0.4c-0.2,0.3-0.5,0.5-0.8,0.8c-0.3,0.3-0.7,0.5-1,0.7
	c-0.4,0.2-0.8,0.3-1.2,0.5c-0.9,0.2-1.8,0.2-2.7,0c-0.4-0.1-0.8-0.3-1.2-0.5c-0.4-0.2-0.7-0.4-1-0.7c-0.3-0.2-0.6-0.5-0.8-0.8
	c-0.1-0.1-0.2-0.3-0.3-0.4l-0.2-0.4c-0.1-0.2-0.2-0.4-0.3-0.6c-0.1-0.1-0.1-0.3-0.2-0.4l-0.1-0.1c0,0,0-0.1,0-0.1
	C26.8,41.5,26.8,41.5,26.9,41.6L26.9,41.6z"/>
<circle class="st1" cx="28.3" cy="38.2" r="1.5"/>
<circle class="st1" cx="36.1" cy="38.2" r="1.5"/>
<rect x="11.3" y="14.8" class="st1" width="26.5" height="11.1"/>
<path class="st0" d="M21.3,24c-1,0.1-2-0.3-2.8-0.9c-0.7-0.7-1-1.6-1-2.6c0-2,1.5-3.6,3.5-3.7c0.1,0,0.3,0,0.4,0
	c0.6,0,1.3,0.1,1.9,0.3l0.1,0l-0.3,1.2L23,18.3c-0.5-0.2-1-0.3-1.5-0.3c-1.2-0.1-2.2,0.7-2.4,1.9c0,0.1,0,0.3,0,0.4
	c-0.1,1.2,0.7,2.2,1.9,2.3c0.1,0,0.2,0,0.3,0c0.3,0,0.6,0,0.8-0.1v-1.5H21v-1.2h2.7v3.7l-0.1,0C22.8,23.8,22.1,24,21.3,24z"/>
<path class="st1" d="M21.5,16.9c0.6,0,1.2,0.1,1.8,0.3l-0.3,1c-0.5-0.2-1-0.3-1.5-0.3c-1.3-0.1-2.4,0.8-2.5,2.1c0,0.1,0,0.3,0,0.4
	c-0.1,1.2,0.8,2.3,2,2.5c0.1,0,0.2,0,0.3,0c0.3,0,0.6,0,0.9-0.1V21h-1.2v-1h2.4v3.4c-0.7,0.2-1.4,0.4-2.2,0.4
	c-1,0.1-1.9-0.3-2.7-0.9c-0.6-0.7-1-1.6-1-2.5c-0.1-1.9,1.5-3.5,3.4-3.6C21.2,16.9,21.4,16.9,21.5,16.9 M21.5,16.6
	c-2-0.2-3.8,1.3-4,3.4c0,0.1,0,0.3,0,0.4c0,1,0.3,2,1,2.7c0.8,0.7,1.8,1,2.8,1c0.8,0,1.5-0.1,2.3-0.4l0.2-0.1v-3.9h-2.9v1.5h1.2v1.3
	c-0.2,0.1-0.5,0.1-0.7,0.1c-1.1,0.1-2.1-0.8-2.1-1.9c0-0.1,0-0.2,0-0.3c-0.1-1.1,0.7-2.1,1.9-2.2c0.1,0,0.3,0,0.4,0
	c0.5,0,1,0.1,1.5,0.3l0.3,0.1l0.1-0.3l0.3-1l0.1-0.2L23.4,17C22.8,16.7,22.2,16.6,21.5,16.6L21.5,16.6z"/>
<rect x="24.7" y="16.8" class="st0" width="1.5" height="7.1"/>
<path class="st1" d="M26,16.9v6.8h-1.2v-6.8H26 M26.3,16.7h-1.7V24h1.7L26.3,16.7L26.3,16.7z"/>
<polygon class="st0" points="27.3,23.9 27.3,16.8 31.5,16.8 31.5,18.1 28.8,18.1 28.8,19.7 31.3,19.7 31.3,21 28.8,21 28.8,23.9 "/>
<path class="st1" d="M31.4,16.9v1h-2.7v1.9h2.5v1h-2.5v2.9h-1.2v-6.8H31.4 M31.6,16.7h-4.4V24H29v-2.9h2.5v-1.5H29v-1.4h2.7
	L31.6,16.7L31.6,16.7z"/>
</svg>
