<?xml version="1.0" encoding="utf-8"?>
<!-- Generator: Adobe Illustrator 25.0.0, SVG Export Plug-In . SVG Version: 6.00 Build 0)  -->
<svg version="1.1" id="Layer_1" xmlns="http://www.w3.org/2000/svg" xmlns:xlink="http://www.w3.org/1999/xlink" x="0px" y="0px"
	 viewBox="0 0 64 64" style="enable-background:new 0 0 64 64;" xml:space="preserve">
<style type="text/css">
	.st0{fill:#FFFFFF;}
	.st1{fill:#2159AA;}
</style>
<polygon class="st0" points="14.7,57.2 14.7,8.7 40.8,8.7 49.6,17.5 49.6,57.2 "/>
<path class="st1" d="M40.6,9.2l8.5,8.5v38.9H15.3V9.2H40.6 M41.1,8.1H14.2v49.6h36V17.3L41.1,8.1L41.1,8.1z"/>
<polygon class="st0" points="41.6,16.7 41.6,9.6 48.8,16.7 "/>
<path class="st1" d="M42.2,11l5.1,5.1h-5.1V11 M41.1,8.1v9.1h9.1L41.1,8.1z"/>
<path class="st1" d="M29.2,46.8l4.4-13.1h1.6l-4.4,13.1H29.2z"/>
<path class="st1" d="M21.3,39.5l7-4.6v1.8l-5.6,3.5v0l5.6,3.5v1.8l-7-4.6V39.5z"/>
<path class="st1" d="M43.1,41l-7,4.6v-1.8l5.6-3.5v0l-5.6-3.5v-1.8l7,4.6V41z"/>
<polygon class="st1" points="37.8,26.5 11.3,26.5 11.3,26.5 11.3,15.4 37.8,15.4 "/>
<polygon class="st0" points="17.4,24.5 17.4,21.5 15,21.5 15,24.5 13.6,24.5 13.6,17.4 15,17.4 15,20.2 17.4,20.2 17.4,17.4 
	18.8,17.4 18.8,24.5 "/>
<path class="st1" d="M18.7,17.6v6.8h-1.1v-3h-2.7v3h-1.1v-6.8h1.1v2.7h2.7v-2.7H18.7 M18.9,17.3h-1.6v2.7h-2.2v-2.7h-1.6v7.3h1.6v-3
	h2.2v3h1.6L18.9,17.3L18.9,17.3z"/>
<polygon class="st0" points="21.1,24.5 21.1,18.7 19.3,18.7 19.3,17.4 24.3,17.4 24.3,18.7 22.5,18.7 22.5,24.5 "/>
<path class="st1" d="M24.2,17.6v1h-1.8v5.8h-1.1v-5.8h-1.8v-1H24.2 M24.4,17.3h-5.2v1.5H21v5.8h1.6v-5.8h1.8V17.3z"/>
<path class="st0" d="M30.2,24.5l-0.1-3c0-0.6-0.1-1.3-0.1-2c-0.2,0.6-0.4,1.3-0.6,1.9l-0.9,3h-1.1l-0.9-3c-0.2-0.6-0.3-1.2-0.5-1.8
	c0,0.7-0.1,1.4-0.1,2.1l-0.1,2.9h-1.3l0.4-7h1.7l0.8,2.8c0.2,0.6,0.3,1.3,0.5,2c0.1-0.5,0.3-1.2,0.5-2l0.9-2.8h1.7l0.4,7L30.2,24.5z
	"/>
<path class="st1" d="M31.1,17.6l0.4,6.8h-1.1l-0.1-2.8c0-0.9-0.1-1.9-0.1-2.9h0c-0.2,0.8-0.5,1.7-0.7,2.6l-0.9,3h-0.9l-0.8-2.9
	c-0.2-0.9-0.5-1.8-0.6-2.7h0c0,0.9-0.1,2-0.1,2.9l-0.1,2.7h-1.1l0.4-6.8h1.5l0.8,2.7c0.2,0.8,0.4,1.6,0.6,2.4h0
	c0.2-0.7,0.4-1.6,0.6-2.4l0.9-2.7L31.1,17.6 M31.3,17.3h-1.9l-0.1,0.2l-0.9,2.7c-0.2,0.5-0.3,1.1-0.4,1.5c-0.1-0.5-0.2-1-0.4-1.5
	l-0.8-2.7l0-0.2h-1.9l0,0.2l-0.4,6.8l0,0.2H26l0-0.2l0.1-2.7c0-0.4,0-0.8,0.1-1.2c0.1,0.3,0.2,0.7,0.3,1l0.8,2.9l0,0.2h1.2l0-0.2
	l0.9-3c0.1-0.4,0.2-0.8,0.4-1.2c0,0.5,0,0.9,0.1,1.3l0,0.1l0.1,2.8l0,0.2h1.6l0-0.2l-0.4-6.8L31.3,17.3L31.3,17.3z"/>
<polygon class="st0" points="32.5,24.5 32.5,17.4 33.9,17.4 33.9,23.2 36.4,23.2 36.4,24.5 "/>
<path class="st1" d="M33.7,17.6v5.8h2.6v1h-3.7v-6.8H33.7 M34,17.3h-1.6v7.3h4.2v-1.5H34C34,23.1,34,17.3,34,17.3z"/>
</svg>
