<?xml version="1.0" encoding="utf-8"?>
<!-- Generator: Adobe Illustrator 25.0.0, SVG Export Plug-In . SVG Version: 6.00 Build 0)  -->
<svg version="1.1" id="Layer_1" xmlns="http://www.w3.org/2000/svg" xmlns:xlink="http://www.w3.org/1999/xlink" x="0px" y="0px"
	 viewBox="0 0 64 64" style="enable-background:new 0 0 64 64;" xml:space="preserve">
<style type="text/css">
	.st0{fill:#FFFFFF;}
	.st1{fill:#EA6B03;}
</style>
<polygon class="st0" points="15.6,57 15.6,8.5 41.7,8.5 50.5,17.3 50.5,57 "/>
<path class="st1" d="M41.5,9l8.5,8.5v38.9H16.2V9H41.5 M41.9,7.9H15.1v49.6h36V17.1L41.9,7.9L41.9,7.9z"/>
<polygon class="st0" points="42.5,16.5 42.5,9.4 49.7,16.5 "/>
<path class="st1" d="M43.1,10.8l5.1,5.1h-5.1V10.8 M41.9,7.9v9.1h9.1L41.9,7.9z"/>
<path class="st1" d="M33.1,30.3c-5.5-0.1-10.1,4.2-10.2,9.8s4.2,10.1,9.8,10.2s10.1-4.2,10.2-9.8c0-0.1,0-0.2,0-0.2
	C42.9,34.9,38.5,30.4,33.1,30.3z M33.1,42.3c-1.1,0-1.9-0.9-1.9-1.9s0.9-1.9,1.9-1.9c1.1,0,1.9,0.8,1.9,1.9
	C35,41.4,34.2,42.3,33.1,42.3C33.1,42.3,33.1,42.3,33.1,42.3L33.1,42.3z"/>
<path class="st0" d="M31.8,37.8L30.6,32c-2.1,0.6-3.9,2-5,4l5.2,2.7C31,38.3,31.4,38.1,31.8,37.8z"/>
<path class="st0" d="M34.6,42.8l1.3,5.8c2.1-0.6,3.9-2.1,4.9-4.1L35.5,42C35.3,42.3,34.9,42.6,34.6,42.8z"/>
<rect x="12.2" y="15.2" class="st1" width="26.5" height="11.1"/>
<rect x="18.4" y="17.2" class="st0" width="1.5" height="7.1"/>
<path class="st1" d="M19.8,17.4v6.8h-1.2v-6.8H19.8 M20,17.1h-1.7v7.3H20L20,17.1L20,17.1z"/>
<path class="st0" d="M22.8,24.4c-0.7,0-1.3-0.1-1.9-0.4h-0.1l0.3-1.3l0.1,0.1c0.5,0.3,1,0.4,1.6,0.4c0.7,0,1.1-0.3,1.1-0.8
	s-0.3-0.7-1.1-1c-1.3-0.5-1.9-1.1-1.9-2.1c0.1-1.2,1.1-2.2,2.4-2.1c0.1,0,0.1,0,0.2,0c0.6,0,1.2,0.1,1.7,0.4h0.1l-0.4,1.2l-0.1-0.1
	c-0.4-0.2-0.8-0.3-1.3-0.3c-0.7,0-1,0.4-1,0.7s0.3,0.6,1.2,1c1.3,0.5,1.8,1.1,1.8,2.1S24.8,24.4,22.8,24.4z"/>
<path class="st1" d="M23.4,17.2c0.6,0,1.1,0.1,1.6,0.4l-0.3,1c-0.4-0.2-0.9-0.3-1.4-0.3c-0.8,0-1.1,0.4-1.1,0.8s0.4,0.8,1.3,1.1
	c1.2,0.4,1.8,1,1.8,2s-0.8,2-2.6,2c-0.6,0-1.3-0.1-1.8-0.4l0.3-1c0.5,0.3,1.1,0.4,1.6,0.4c0.8,0,1.2-0.4,1.2-0.9s-0.3-0.8-1.2-1.1
	c-1.1-0.4-1.8-1-1.8-2S22,17.2,23.4,17.2 M23.4,16.9c-1.6,0-2.6,0.9-2.6,2.2c0,1,0.7,1.7,2,2.2c0.9,0.3,1,0.6,1,0.9
	c0,0.6-0.7,0.7-1,0.7c-0.5,0-1.1-0.1-1.5-0.4L21,22.5l-0.1,0.3l-0.3,1l0,0.2l0.2,0.1c0.6,0.3,1.3,0.5,2,0.5c2.1,0,2.8-1.2,2.8-2.3
	S25,20.5,23.7,20c-0.9-0.4-1.1-0.5-1.1-0.9s0.3-0.6,0.9-0.6c0.4,0,0.9,0.1,1.2,0.3l0.3,0.1l0.1-0.3l0.3-1l0-0.2l-0.2-0.1
	C24.6,17.1,24,17,23.4,16.9L23.4,16.9z"/>
<path class="st0" d="M29.2,24.4c-2,0-3.2-1.4-3.2-3.6c-0.2-1.9,1.2-3.5,3.1-3.7c0.1,0,0.2,0,0.3,0c1.8,0,3.3,1.4,3.3,3.2
	c0,0.1,0,0.2,0,0.4C32.6,23,31.3,24.4,29.2,24.4z M29.3,18.4c-1.3,0-1.8,1.3-1.8,2.4s0.5,2.4,1.8,2.4s1.8-1,1.8-2.4
	C31.1,19.6,30.5,18.4,29.3,18.4L29.3,18.4z"/>
<path class="st1" d="M29.4,17.2c1.7,0,3.2,1.4,3.2,3.1c0,0.1,0,0.2,0,0.3c0,2.3-1.4,3.6-3.3,3.6c-1.7,0-3.2-1.4-3.2-3.1
	c0-0.1,0-0.2,0-0.3c-0.2-1.8,1.2-3.4,3-3.6C29.2,17.2,29.3,17.2,29.4,17.2 M29.4,23.2c1.2,0,1.9-1.1,1.9-2.5c0-1.3-0.6-2.5-1.9-2.5
	s-1.9,1.1-1.9,2.5S28.2,23.2,29.4,23.2 M29.4,17c-1.9,0-3.5,1.6-3.5,3.5c0,0.1,0,0.2,0,0.3c-0.2,1.9,1.2,3.5,3.1,3.7
	c0.1,0,0.2,0,0.3,0c2.1,0,3.5-1.5,3.5-3.8c0.2-1.9-1.2-3.5-3.1-3.6C29.6,17,29.5,17,29.4,17L29.4,17z M29.4,23
	c-1.1,0-1.6-1.1-1.6-2.2s0.4-2.3,1.6-2.3s1.6,1.2,1.6,2.3S30.5,23,29.4,23L29.4,23z"/>
</svg>
