<?xml version="1.0" encoding="utf-8"?>
<!-- Generator: Adobe Illustrator 25.0.0, SVG Export Plug-In . SVG Version: 6.00 Build 0)  -->
<svg version="1.1" id="Layer_1" xmlns="http://www.w3.org/2000/svg" xmlns:xlink="http://www.w3.org/1999/xlink" x="0px" y="0px"
	 viewBox="0 0 64 64" style="enable-background:new 0 0 64 64;" xml:space="preserve">
<style type="text/css">
	.st0{fill:#FFFFFF;}
	.st1{fill:#D3132F;}
</style>
<polygon class="st0" points="15.7,57.2 15.7,8.7 41.8,8.7 50.6,17.5 50.6,57.2 "/>
<path class="st1" d="M41.6,9.2l8.5,8.5v38.9H16.2V9.2H41.6 M42,8.1H15.1v49.6h36V17.3L42,8.1z"/>
<polygon class="st0" points="42.6,16.7 42.6,9.6 49.7,16.7 "/>
<path class="st1" d="M43.2,11l5.1,5.1h-5.1V11 M42,8.1v9.1h9.1L42,8.1z"/>
<rect x="32.3" y="38.5" class="st1" width="1.6" height="8.1"/>
<path class="st1" d="M34.1,36.4c0,0.5-0.4,1-0.9,1c-0.5,0-1-0.4-1-0.9c0-0.5,0.4-0.9,0.9-1C33.6,35.4,34.1,35.8,34.1,36.4
	C34.1,36.4,34.1,36.4,34.1,36.4z"/>
<path class="st1" d="M42.2,40.6c-1.3,0-1.5,0.8-1.5,1.3s0.1,1,0.1,1.5c0.1,0.5,0.1,1,0.2,1.6c0,1.9-1.2,2.6-2.8,2.6h-0.5v-1.4h0.3
	c1,0,1.3-0.6,1.3-1.5c0-0.4-0.1-0.8-0.1-1.2c-0.1-0.5-0.1-0.9-0.1-1.4c-0.2-1,0.5-1.9,1.5-2.1l0,0c-1-0.2-1.7-1.1-1.5-2.1
	c0,0,0-0.1,0-0.1c0-0.5,0-0.9,0.1-1.4c0.1-0.4,0.1-0.8,0.1-1.2c0-0.9-0.3-1.5-1.3-1.5h-0.3v-1.4h0.5c1.7,0,2.8,0.8,2.8,2.5
	c0,0.5-0.1,1-0.1,1.5c0,0.5-0.1,1-0.1,1.5s0.2,1.3,1.5,1.3L42.2,40.6z"/>
<path class="st1" d="M24.1,39.3c1.3,0,1.5-0.7,1.5-1.3c0-0.5-0.1-1-0.1-1.5c-0.1-0.5-0.1-1-0.1-1.5c0-1.8,1.1-2.5,2.8-2.5h0.6v1.4
	h-0.4c-1,0-1.3,0.5-1.3,1.5c0,0.4,0,0.8,0.1,1.2c0.1,0.5,0.1,0.9,0.1,1.4c0.2,1-0.5,2-1.5,2.1c0,0,0,0,0,0l0,0
	c1,0.2,1.7,1.1,1.5,2.2c0,0.5,0,0.9-0.1,1.4c-0.1,0.4-0.1,0.8-0.1,1.2c0,1,0.4,1.5,1.3,1.5h0.4v1.3h-0.6c-1.7,0-2.8-0.7-2.8-2.6
	c0-0.5,0.1-1,0.1-1.5c0.1-0.5,0.1-1,0.1-1.5c0-0.5-0.2-1.3-1.5-1.3V39.3z"/>
<polygon class="st1" points="38.8,26.5 12.2,26.5 12.2,26.5 12.2,15.4 38.8,15.4 "/>
<path class="st0" d="M15.8,24.5c-0.4,0-0.7-0.1-1.1-0.2h-0.1l0.2-1.2h0.1c0.2,0.1,0.5,0.1,0.7,0.1c0.6,0,1-0.2,1-1.4v-4.5h1.5v4.5
	C18.1,23.7,17.4,24.5,15.8,24.5z"/>
<path class="st1" d="M18,17.5v4.4c0,1.9-0.9,2.5-2.3,2.5c-0.3,0-0.7-0.1-1-0.2l0.2-1c0.2,0.1,0.5,0.1,0.8,0.1c0.7,0,1.1-0.3,1.1-1.5
	v-4.4H18 M18.2,17.3h-1.7v4.6c0,1.2-0.4,1.3-0.9,1.3c-0.2,0-0.5,0-0.7-0.1l-0.3,0v0.3l-0.2,1v0.2l0.2,0.1c0.4,0.1,0.7,0.2,1.1,0.2
	c1.7,0,2.5-0.9,2.5-2.8L18.2,17.3L18.2,17.3z"/>
<path class="st0" d="M23.4,24.4l-0.6-1.9h-2l-0.6,1.9h-1.5l2.3-7.1h1.8l2.2,7.1H23.4z M22.5,21.3l-0.5-1.5c-0.1-0.3-0.2-0.6-0.2-0.9
	c-0.1,0.3-0.1,0.6-0.2,0.9l-0.5,1.5H22.5z"/>
<path class="st1" d="M22.6,17.5l2.2,6.8h-1.3l-0.6-1.9h-2.2l-0.6,1.9h-1.3l2.2-6.8H22.6 M21,21.4h1.7l-0.5-1.7
	c-0.1-0.4-0.2-0.9-0.4-1.3l0,0c-0.1,0.4-0.2,0.9-0.3,1.3L21,21.4 M22.9,17.3h-2l-0.1,0.2l-2.2,6.8l-0.1,0.3h1.8v-0.2l0.5-1.8h1.8
	l0.6,1.8l0.1,0.2h1.9l-0.1-0.3l-2.2-6.8L22.9,17.3L22.9,17.3z M21.3,21.2l0.4-1.4c0-0.1,0.1-0.3,0.1-0.4l0.1,0.4l0.4,1.4H21.3z"/>
<path class="st0" d="M26.7,24.4l-2.3-7.1H26l1,3.2c0.2,0.8,0.4,1.4,0.6,2c0.1-0.6,0.4-1.3,0.6-2l1-3.2h1.6l-2.4,7.1L26.7,24.4z"/>
<path class="st1" d="M30.6,17.5l-2.4,6.8h-1.4l-2.2-6.8H26l0.9,3.1c0.3,0.9,0.5,1.7,0.7,2.5l0,0c0.2-0.8,0.4-1.7,0.7-2.5l1-3.1H30.6
	 M31,17.3h-1.9v0.2l-1,3.1c-0.2,0.6-0.3,1.1-0.5,1.6c-0.1-0.5-0.3-1-0.5-1.6l-0.9-3.1l0-0.2h-1.9l0.1,0.3l2.2,6.8l0,0.2h1.8l0.1-0.2
	l2.4-6.8L31,17.3L31,17.3z"/>
<path class="st0" d="M34.8,24.4l-0.6-1.9h-2l-0.6,1.9h-1.5l2.3-7.1h1.8l2.3,7.1H34.8z M33.9,21.3l-0.5-1.5c-0.1-0.3-0.2-0.6-0.2-0.9
	c-0.1,0.3-0.1,0.6-0.2,0.9l-0.5,1.5H33.9z"/>
<path class="st1" d="M34,17.5l2.2,6.8h-1.3l-0.6-1.9h-2.2l-0.6,1.9h-1.3l2.2-6.8H34 M32.3,21.4H34l-0.5-1.7
	c-0.1-0.4-0.2-0.9-0.3-1.3l0,0c-0.1,0.4-0.2,0.9-0.3,1.3L32.3,21.4 M34.2,17.3h-1.9l-0.1,0.2L30,24.2l-0.1,0.3h1.8l0.1-0.2l0.5-1.8
	h1.8l0.6,1.8v0.2h1.8l-0.1-0.3l-2.2-6.8L34.2,17.3L34.2,17.3z M32.7,21.2l0.4-1.4c0-0.1,0.1-0.3,0.1-0.4c0,0.1,0.1,0.3,0.1,0.4
	l0.4,1.4H32.7z"/>
</svg>
