<?xml version="1.0" encoding="utf-8"?>
<!-- Generator: Adobe Illustrator 25.0.0, SVG Export Plug-In . SVG Version: 6.00 Build 0)  -->
<svg version="1.1" id="Layer_1" xmlns="http://www.w3.org/2000/svg" xmlns:xlink="http://www.w3.org/1999/xlink" x="0px" y="0px"
	 viewBox="0 0 64 64" style="enable-background:new 0 0 64 64;" xml:space="preserve">
<style type="text/css">
	.st0{fill:#FFFFFF;}
	.st1{fill:#4C9315;}
</style>
<polygon class="st0" points="15.7,56.6 15.7,8.1 41.8,8.1 50.6,16.9 50.6,56.6 "/>
<path class="st1" d="M41.6,8.6l8.5,8.5V56H16.2V8.6H41.6 M42,7.5H15.1v49.6h36V16.7L42,7.5z"/>
<polygon class="st0" points="42.6,16.1 42.6,9 49.7,16.1 "/>
<path class="st1" d="M43.2,10.4l5.1,5.1h-5.1V10.4 M42,7.5v9.1h9.1L42,7.5z"/>
<path class="st1" d="M22.9,32.7v14.1h20.4V32.7H22.9z M42.3,33.8v8.6c-1-0.3-2.1-0.5-3.1-0.5c-2.8-0.2-2.8,1.9-6.8,0.9L29.8,38
	l-1.4,2.3l-2.1-4.4L24,41.1v-7.3H42.3z"/>
<circle class="st1" cx="38.4" cy="36.5" r="1.2"/>
<polygon class="st1" points="38.8,25.9 12.2,25.9 12.2,25.9 12.2,14.8 38.8,14.8 "/>
<path class="st0" d="M18.4,24c-0.4,0-0.7-0.1-1.1-0.2h-0.1l0.2-1.2h0.1c0.2,0.1,0.5,0.1,0.7,0.1c0.6,0,1-0.2,1-1.4v-4.5h1.5v4.5
	C20.8,23.1,20,24,18.4,24z"/>
<path class="st1" d="M20.7,16.9v4.4c0,1.9-0.9,2.5-2.3,2.5c-0.3,0-0.7-0.1-1-0.2l0.1-1c0.2,0.1,0.5,0.1,0.8,0.1
	c0.7,0,1.1-0.3,1.1-1.5v-4.4H20.7 M20.9,16.7h-1.7v4.6c0,1.2-0.4,1.3-0.9,1.3c-0.2,0-0.5,0-0.7-0.1l-0.3-0.1v0.3l-0.1,1v0.2l0.2,0.1
	c0.4,0.1,0.7,0.2,1.1,0.2c1.7,0,2.5-0.9,2.5-2.8L20.9,16.7L20.9,16.7z"/>
<path class="st0" d="M21.9,23.9v-7H22c0.6-0.1,1.3-0.2,2-0.2c0.7-0.1,1.5,0.1,2.1,0.6c0.5,0.4,0.7,1,0.7,1.6c0,0.6-0.2,1.2-0.6,1.6
	c-0.6,0.5-1.4,0.8-2.2,0.8h-0.5v2.5L21.9,23.9z M23.4,20.1c0.2,0,0.3,0,0.5,0c0.9,0,1.4-0.4,1.4-1.1c0-0.9-0.8-1-1.3-1
	c-0.2,0-0.4,0-0.6,0L23.4,20.1z"/>
<path class="st1" d="M24,16.9c0.7,0,1.4,0.1,2,0.5c0.4,0.4,0.7,0.9,0.7,1.5c0,0.6-0.2,1.1-0.6,1.5c-0.6,0.5-1.4,0.8-2.2,0.7
	c-0.2,0-0.4,0-0.6,0v2.6h-1.3V17C22.7,16.9,23.3,16.9,24,16.9 M23.9,20.2c0.9,0,1.5-0.5,1.5-1.3s-0.5-1.2-1.4-1.2
	c-0.2,0-0.5,0-0.7,0.1v2.3C23.5,20.2,23.7,20.3,23.9,20.2 M24,16.6c-0.6,0-1.3,0-1.9,0.1h-0.2V24h1.7v-2.5h0.4
	c0.9,0.1,1.7-0.2,2.3-0.8c0.5-0.5,0.7-1.1,0.7-1.7c0-0.6-0.3-1.3-0.8-1.7C25.5,16.8,24.8,16.6,24,16.6z M23.6,18.1
	c0.2,0,0.3,0,0.5,0c0.5,0,1.1,0.2,1.1,0.9s-0.8,1-1.3,1h-0.4C23.6,20,23.6,18.1,23.6,18.1z"/>
<path class="st0" d="M31,23.9c-1,0.1-2-0.3-2.8-1c-0.7-0.7-1-1.6-1-2.6c0-2,1.5-3.6,3.5-3.7c0.1,0,0.3,0,0.4,0
	c0.6,0,1.3,0.1,1.9,0.3l0.1,0l-0.3,1.2l-0.1-0.1c-0.5-0.2-1-0.3-1.5-0.3c-1.2-0.1-2.2,0.7-2.3,1.9c0,0.1,0,0.3,0,0.4
	c-0.1,1.2,0.7,2.2,1.9,2.4c0.1,0,0.2,0,0.3,0c0.3,0,0.6,0,0.8-0.1v-1.5h-1.2v-1.2h2.7v3.7h-0.1C32.5,23.8,31.8,23.9,31,23.9z"/>
<path class="st1" d="M31.1,16.9c0.6,0,1.2,0.1,1.8,0.3l-0.3,1c-0.5-0.2-1-0.3-1.5-0.3c-1.3-0.1-2.4,0.8-2.5,2.1c0,0.1,0,0.3,0,0.4
	c-0.1,1.2,0.8,2.3,2,2.5c0.1,0,0.2,0,0.3,0c0.3,0,0.6,0,0.9-0.1V21h-1.2v-1h2.4v3.5c-0.7,0.2-1.5,0.4-2.2,0.4
	c-1,0.1-1.9-0.3-2.7-0.9c-0.6-0.7-1-1.6-1-2.5c-0.1-1.9,1.5-3.5,3.4-3.6C30.8,16.9,31,16.9,31.1,16.9 M31.1,16.6
	c-2-0.2-3.8,1.4-4,3.4c0,0.1,0,0.3,0,0.4c0,1,0.3,2,1,2.7c0.8,0.7,1.8,1.1,2.8,1c0.8,0,1.5-0.1,2.3-0.4l0.2-0.1v-3.9h-2.9v1.5h1.2
	v1.3c-0.2,0.1-0.5,0.1-0.7,0.1c-1.1,0.1-2.1-0.8-2.1-1.9c0-0.1,0-0.2,0-0.4c-0.1-1.1,0.7-2.1,1.8-2.2c0.2,0,0.3,0,0.5,0
	c0.5,0,1,0.1,1.5,0.3l0.2,0.1l0.1-0.3l0.3-1v-0.2L33.1,17C32.5,16.7,31.8,16.6,31.1,16.6L31.1,16.6z"/>
</svg>
