<?xml version="1.0" encoding="utf-8"?>
<!-- Generator: Adobe Illustrator 25.0.0, SVG Export Plug-In . SVG Version: 6.00 Build 0)  -->
<svg version="1.1" id="Layer_1" xmlns="http://www.w3.org/2000/svg" xmlns:xlink="http://www.w3.org/1999/xlink" x="0px" y="0px"
	 viewBox="0 0 64 64" style="enable-background:new 0 0 64 64;" xml:space="preserve">
<style type="text/css">
	.st0{fill:#FFFFFF;}
	.st1{fill:#51448C;}
</style>
<polygon class="st0" points="15.7,57 15.7,8.5 41.8,8.5 50.6,17.3 50.6,57 "/>
<path class="st1" d="M41.6,9l8.5,8.5v38.9H16.2V9H41.6 M42,7.9H15.1v49.6h36V17.1L42,7.9z"/>
<polygon class="st0" points="42.6,16.5 42.6,9.4 49.7,16.5 "/>
<path class="st1" d="M43.2,10.8l5.1,5.1h-5.1V10.8 M42,7.9v9.1h9.1L42,7.9z"/>
<path class="st1" d="M37.4,35.4c0.1-2.3-1.7-4.3-4-4.4c-2.3-0.1-4.3,1.7-4.4,4c0,0.1,0,0.3,0,0.4c0,1.5,0.7,2.8,2,3.6l-0.5,1
	c-0.1,0.2,0,0.4,0.1,0.5c0.1,0,0.1,0,0.2,0h1V42L31,43l0.6,1.3v0.4l-0.7,1v0.8l0.7,1.1V48l-0.2,0.8l1.7,2.6l1.5-1.5v-9.5h0.9
	c0.2,0,0.3-0.2,0.3-0.4c0-0.1,0-0.1,0-0.2l-0.5-1C36.6,38.2,37.4,36.9,37.4,35.4z M33.1,32.7c0.7,0,1.3,0.6,1.3,1.3
	c0,0.7-0.6,1.3-1.3,1.3c-0.7,0-1.2-0.5-1.3-1.2C31.9,33.3,32.4,32.7,33.1,32.7C33.1,32.7,33.1,32.7,33.1,32.7z"/>
<rect x="12.2" y="15.2" class="st1" width="26.5" height="11.1"/>
<path class="st0" d="M21.4,24.3l-0.1-3c0-0.6-0.1-1.3-0.1-2c-0.2,0.6-0.4,1.3-0.6,1.9l-1,3h-1.1l-0.9-3c-0.2-0.6-0.4-1.2-0.5-1.8
	c0,0.6,0,1.4-0.1,2.1l-0.2,2.9h-1.4l0.5-7.1h1.8l0.9,2.8c0.2,0.6,0.4,1.3,0.5,2c0.1-0.5,0.3-1.2,0.6-2l1-2.8h1.8l0.4,7.1L21.4,24.3z
	"/>
<path class="st1" d="M22.3,17.3l0.4,6.8h-1.2l-0.1-2.8c0-0.9-0.1-1.9-0.1-2.9l0,0c-0.2,0.8-0.5,1.8-0.8,2.6l-1,3h-1l-0.9-2.9
	c-0.3-0.9-0.5-1.8-0.7-2.6l0,0c0,0.9-0.1,2-0.1,2.9l-0.1,2.7h-1.2l0.5-6.8h1.6l0.9,2.7c0.2,0.8,0.5,1.6,0.6,2.4l0,0
	c0.2-0.7,0.4-1.6,0.7-2.4l0.9-2.7H22.3 M22.5,17.1h-2l-0.1,0.2L19.5,20c-0.2,0.5-0.3,1-0.5,1.5c-0.1-0.5-0.3-1-0.4-1.5l-0.9-2.7
	l-0.1-0.2h-2v0.2l-0.5,6.8v0.3h1.7v-0.2l0.1-2.7c0-0.4,0-0.8,0.1-1.2c0.1,0.4,0.2,0.7,0.3,1l0.9,2.9l0,0.2h1.3l0.1-0.2l1-3
	c0.1-0.4,0.3-0.8,0.4-1.2c0,0.4,0,0.9,0,1.3v0.1l0.1,2.8v0.2H23v-0.2l-0.4-6.8L22.5,17.1L22.5,17.1z"/>
<path class="st0" d="M25.7,24.4c-0.6,0-1.1,0-1.7-0.1h-0.1v-6.9H24c0.7-0.1,1.3-0.1,2-0.1c1-0.1,2,0.2,2.9,0.8
	c0.8,0.6,1.2,1.6,1.1,2.6c0.1,1-0.4,2.1-1.1,2.8C27.9,24.1,26.8,24.4,25.7,24.4z M25.3,23.1c0.2,0,0.4,0,0.6,0l0,0
	c0.7,0,1.3-0.2,1.8-0.6c0.5-0.5,0.7-1.2,0.6-1.9c0-0.6-0.2-1.2-0.6-1.6c-0.5-0.4-1.1-0.6-1.7-0.6c-0.2,0-0.5,0-0.7,0V23.1z"/>
<path class="st1" d="M26,17.3c1-0.1,2,0.2,2.8,0.8c0.7,0.6,1.1,1.6,1.1,2.5c0.1,1-0.3,2-1.1,2.7c-0.9,0.7-2,1-3.1,0.9
	c-0.6,0-1.1,0-1.7-0.1v-6.7C24.7,17.3,25.3,17.3,26,17.3 M26,23.2c1.3,0.1,2.4-0.8,2.6-2.1c0-0.2,0-0.4,0-0.5
	c0.1-1.2-0.7-2.2-1.9-2.4c-0.2,0-0.3,0-0.5,0c-0.3,0-0.6,0-0.9,0.1v4.9C25.5,23.2,25.7,23.2,26,23.2L26,23.2 M26,17
	c-0.7,0-1.3,0-2,0.1h-0.2v7.1H24c0.6,0.1,1.1,0.1,1.7,0.1c1.2,0.1,2.3-0.3,3.2-1c0.8-0.8,1.2-1.8,1.1-2.9c0.1-1-0.4-2-1.1-2.7
	C28.1,17.2,27,16.9,26,17L26,17z M25.5,18.5c0.2,0,0.4,0,0.6,0c0.6,0,1.2,0.2,1.6,0.6c0.4,0.4,0.6,1,0.5,1.6
	c0.2,1.1-0.6,2.2-1.8,2.4c-0.2,0-0.4,0-0.5,0h-0.5L25.5,18.5L25.5,18.5z"/>
<path class="st0" d="M32.4,24.4c-0.5,0-1,0-1.5-0.1h-0.1v-6.9h0.1c0.6-0.1,1.2-0.2,1.8-0.1c0.7-0.1,1.4,0.1,2,0.5
	c0.5,0.3,0.8,0.8,0.8,1.4c0,0.6-0.4,1.2-1,1.5c0.7,0.3,1.2,1,1.2,1.7c0,0.6-0.2,1.1-0.7,1.5C34.3,24.2,33.3,24.4,32.4,24.4z
	 M32.2,23.1h0.5c0.5,0,1.4-0.1,1.4-1s-0.9-1-1.4-1h-0.5L32.2,23.1z M32.8,20c0.8,0,1.2-0.3,1.2-0.9s-0.4-0.8-1.2-0.8
	c-0.2,0-0.4,0-0.6,0V20H32.8z"/>
<path class="st1" d="M32.7,17.3c0.7-0.1,1.4,0.1,2,0.4c0.4,0.3,0.7,0.7,0.7,1.3c0,0.7-0.5,1.3-1.1,1.5l0,0c0.9,0.2,1.5,1.2,1.3,2.1
	c-0.1,0.4-0.3,0.7-0.6,1c-0.7,0.5-1.6,0.7-2.5,0.6c-0.5,0-1,0-1.5-0.1v-6.7C31.5,17.3,32.1,17.3,32.7,17.3 M32.1,20.1h0.6
	c0.9,0,1.3-0.4,1.3-1s-0.5-0.9-1.3-0.9c-0.2,0-0.5,0-0.7,0V20.1 M32.8,23.3c0.8,0,1.5-0.3,1.5-1.1S33.6,21,32.7,21h-0.6v2.2
	C32.3,23.2,32.6,23.2,32.8,23.3 M32.7,17c-0.6,0-1.2,0-1.9,0.1h-0.2v7.1h0.2c0.5,0.1,1,0.1,1.6,0.1c1,0.1,1.9-0.1,2.7-0.7
	c0.5-0.4,0.8-1,0.7-1.6c0-0.7-0.4-1.4-1-1.7c0.5-0.3,0.8-0.8,0.8-1.3c0-0.6-0.3-1.2-0.8-1.5C34.2,17.1,33.4,17,32.7,17L32.7,17z
	 M32.4,18.4h0.5c1,0,1,0.5,1,0.7c0,0.5-0.4,0.7-1.1,0.7h-0.4L32.4,18.4L32.4,18.4z M32.4,21.2h0.4c0.5,0,1.3,0.1,1.3,0.9
	S33.4,23,32.8,23h-0.4L32.4,21.2L32.4,21.2z"/>
</svg>
