<?xml version="1.0" encoding="utf-8"?>
<!-- Generator: Adobe Illustrator 25.0.0, SVG Export Plug-In . SVG Version: 6.00 Build 0)  -->
<svg version="1.1" id="Layer_1" xmlns="http://www.w3.org/2000/svg" xmlns:xlink="http://www.w3.org/1999/xlink" x="0px" y="0px"
	 viewBox="0 0 64 64" style="enable-background:new 0 0 64 64;" xml:space="preserve">
<style type="text/css">
	.st0{fill:#FFFFFF;}
	.st1{fill:#2159AA;}
</style>
<polygon class="st0" points="15.3,56.4 15.3,7.9 41.4,7.9 50.2,16.7 50.2,56.4 "/>
<path class="st1" d="M41.1,8.4l8.5,8.5v38.9H15.8V8.4H41.1 M41.6,7.4H14.7v49.6h36V16.5L41.6,7.4L41.6,7.4z"/>
<polygon class="st0" points="42.2,15.9 42.2,8.8 49.3,15.9 "/>
<path class="st1" d="M42.8,10.2l5.1,5.1h-5.1V10.2 M41.6,7.4v9.1h9.1L41.6,7.4z"/>
<path class="st1" d="M27.3,33V47c-0.5-0.5-1.2-0.7-1.9-0.7c-1.3-0.2-2.5,0.8-2.7,2.1c-0.2,1.3,0.8,2.5,2.1,2.7c0.2,0,0.4,0,0.6,0
	c1.4,0.1,2.6-1,2.7-2.4l0-6.2v-7.2l10.9-3.4v11.6c-0.5-0.5-1.2-0.7-1.9-0.7c-1.3,0.2-2.3,1.4-2.1,2.7c0.2,1.3,1.4,2.3,2.7,2.1
	c1.2-0.1,2.1-1.2,2.1-2.4V29.2L27.3,33z"/>
<path class="st0" d="M37.1,45.2c0.1,0.4-0.3,0.8-0.7,0.9c-0.4,0.1-0.8-0.3-0.9-0.7s0.3-0.8,0.7-0.9c0,0,0.1,0,0.1,0
	C36.7,44.5,37,44.8,37.1,45.2z"/>
<path class="st0" d="M25.3,48.8c0.1,0.4-0.3,0.8-0.7,0.9s-0.8-0.3-0.9-0.7c-0.1-0.4,0.3-0.8,0.7-0.9c0,0,0.1,0,0.1,0
	C25,48,25.3,48.4,25.3,48.8z"/>
<polygon class="st1" points="38.4,25.7 11.8,25.7 11.8,25.7 11.8,14.6 38.4,14.6 "/>
<path class="st0" d="M22.8,23.7l-0.1-3c0-0.7-0.1-1.4-0.1-2.1c-0.2,0.6-0.4,1.3-0.6,1.9l-1,3h-1.1l-0.9-3c-0.2-0.6-0.4-1.3-0.5-1.9
	c0,0.7-0.1,1.4-0.1,2.1l-0.2,2.8h-1.4l0.5-7H19l0.9,2.8c0.2,0.6,0.4,1.3,0.5,2c0.1-0.6,0.3-1.3,0.6-2l1-2.8h1.8l0.4,7L22.8,23.7z"/>
<path class="st1" d="M23.7,16.8l0.4,6.8h-1.2l-0.1-2.8c0-0.9-0.1-1.9-0.1-2.9h0c-0.2,0.8-0.5,1.7-0.8,2.6l-1,3h-1L19,20.6
	c-0.3-0.9-0.5-1.8-0.7-2.6h0c0,0.9-0.1,2-0.1,2.9L18,23.6h-1.2l0.5-6.8h1.6l0.9,2.7c0.2,0.8,0.5,1.6,0.6,2.4h0
	c0.2-0.7,0.4-1.6,0.7-2.4l0.9-2.7L23.7,16.8 M23.9,16.5h-2l-0.1,0.2l-0.9,2.7c-0.2,0.6-0.3,1.1-0.5,1.6c-0.1-0.5-0.3-1-0.4-1.5
	l-0.9-2.7l-0.1-0.2h-2l0,0.2l-0.5,6.8l0,0.2h1.6l0-0.2l0.2-2.7c0-0.4,0-0.9,0.1-1.3c0.1,0.4,0.2,0.8,0.3,1.1l0.9,2.9l0.1,0.2H21
	l0.1-0.2l1-3c0.1-0.4,0.3-0.8,0.4-1.2c0,0.5,0,0.9,0.1,1.3l0,0.1l0.1,2.8l0,0.2h1.7l0-0.2l-0.4-6.8L23.9,16.5L23.9,16.5z"/>
<rect x="25.2" y="16.6" class="st0" width="1.5" height="7"/>
<path class="st1" d="M26.6,16.8v6.8h-1.2v-6.8H26.6 M26.8,16.5h-1.7v7.3h1.7V16.5z"/>
<path class="st0" d="M29.7,23.8c-0.6,0-1.1,0-1.7-0.1l-0.1,0v-6.9l0.1,0c0.7-0.1,1.3-0.1,2-0.1c1-0.1,2,0.2,2.9,0.8
	C33.6,18,34,19,34,20c0.1,1-0.3,2.1-1.1,2.8C32,23.5,30.8,23.8,29.7,23.8z M29.4,22.5c0.2,0,0.4,0,0.6,0h0c0.7,0,1.3-0.2,1.8-0.6
	c0.5-0.5,0.7-1.2,0.6-1.9c0-0.6-0.2-1.2-0.6-1.7c-0.5-0.4-1.1-0.6-1.7-0.6c-0.2,0-0.5,0-0.7,0V22.5z"/>
<path class="st1" d="M30,16.7c1-0.1,2,0.2,2.8,0.8c0.7,0.6,1.1,1.6,1.1,2.5c0.1,1-0.3,2-1.1,2.7c-0.9,0.7-2,1-3.1,0.9
	c-0.6,0-1.1,0-1.7-0.1v-6.7C28.7,16.7,29.3,16.7,30,16.7 M30,22.6c1.3,0.1,2.4-0.8,2.6-2.1c0-0.2,0-0.4,0-0.5
	c0.1-1.2-0.7-2.3-1.9-2.4c-0.2,0-0.3,0-0.5,0c-0.3,0-0.6,0-0.8,0.1v4.9C29.5,22.6,29.7,22.7,30,22.6L30,22.6 M30,16.5
	c-0.7,0-1.4,0-2,0.1l-0.2,0v7.1l0.2,0c0.6,0.1,1.1,0.1,1.7,0.1c1.2,0.1,2.3-0.3,3.2-1c0.8-0.8,1.2-1.8,1.1-2.9c0.1-1-0.4-2-1.1-2.7
	C32.1,16.7,31.1,16.4,30,16.5z M29.5,17.9c0.2,0,0.4,0,0.6,0c0.6,0,1.2,0.2,1.7,0.6c0.4,0.4,0.6,1,0.5,1.6c0.2,1.2-0.6,2.2-1.8,2.4
	c-0.2,0-0.4,0-0.5,0l0,0c-0.2,0-0.3,0-0.5,0L29.5,17.9L29.5,17.9z"/>
</svg>
