<?xml version="1.0" encoding="utf-8"?>
<!-- Generator: Adobe Illustrator 25.0.0, SVG Export Plug-In . SVG Version: 6.00 Build 0)  -->
<svg version="1.1" id="Layer_1" xmlns="http://www.w3.org/2000/svg" xmlns:xlink="http://www.w3.org/1999/xlink" x="0px" y="0px"
	 viewBox="0 0 64 64" style="enable-background:new 0 0 64 64;" xml:space="preserve">
<style type="text/css">
	.st0{fill:#FFFFFF;}
	.st1{fill:#2159AA;}
</style>
<polygon class="st0" points="15.7,56.4 15.7,7.9 41.8,7.9 50.6,16.7 50.6,56.4 "/>
<path class="st1" d="M41.6,8.4l8.5,8.5v38.9H16.2V8.4H41.6 M42,7.3H15.1v49.6h36V16.5L42,7.3z"/>
<polygon class="st0" points="42.6,15.9 42.6,8.8 49.7,15.9 "/>
<path class="st1" d="M43.2,10.2l5.1,5.1h-5.1V10.2 M42,7.3v9.1h9.1L42,7.3z"/>
<path class="st1" d="M32.4,39.9c0.2,0,0.4-0.2,0.4-0.5c0-0.2-0.2-0.4-0.5-0.4c-0.2,0-0.4,0.2-0.4,0.5c0,0,0,0,0,0
	C31.9,39.7,32.1,39.9,32.4,39.9z"/>
<path class="st1" d="M41.6,45.9c-0.7-0.7-1.1-1.6-1.4-2.5c2.2-4.3,0.4-9.6-3.9-11.8s-9.6-0.4-11.8,3.9s-0.4,9.6,3.9,11.8
	c3.7,1.9,8.2,0.9,10.8-2.3c0.5,0.8,1,1.5,1.7,2.1c1,0.6,2,1,3.1,1.2l1.7-1.4C45.7,46.8,42.6,46.8,41.6,45.9z M35.4,32.7
	c1.4,0,2.6,1.2,2.6,2.6c0,1.4-1.2,2.6-2.6,2.6c-1.4,0-2.6-1.2-2.6-2.6c0,0,0,0,0,0C32.8,33.8,33.9,32.7,35.4,32.7
	C35.4,32.7,35.4,32.7,35.4,32.7z M33.2,39.5c0,0.5-0.4,0.9-0.9,0.9c-0.5,0-0.9-0.4-0.9-0.9s0.4-0.9,0.9-0.9c0,0,0,0,0,0
	C32.8,38.6,33.2,39,33.2,39.5z M29.3,32.7c1.4,0,2.6,1.2,2.6,2.6s-1.2,2.6-2.6,2.6c-1.4,0-2.6-1.2-2.6-2.6c0,0,0,0,0,0
	C26.7,33.8,27.9,32.7,29.3,32.7z M27.4,43.7c-1.4,0-2.6-1.1-2.7-2.6s1.1-2.6,2.6-2.7c1.4,0,2.6,1.1,2.7,2.6
	C30,42.4,28.9,43.6,27.4,43.7L27.4,43.7z M32.4,47.3c-1.4,0-2.6-1.2-2.6-2.6c0-1.4,1.2-2.6,2.6-2.6c1.4,0,2.6,1.2,2.6,2.6
	C35,46.1,33.8,47.3,32.4,47.3C32.4,47.3,32.4,47.3,32.4,47.3L32.4,47.3z M37.3,43.7c-1.4,0-2.6-1.2-2.6-2.6s1.2-2.6,2.6-2.6
	c1.4,0,2.6,1.1,2.6,2.6C39.9,42.4,38.8,43.6,37.3,43.7C37.3,43.6,37.3,43.7,37.3,43.7L37.3,43.7z"/>
<polygon class="st1" points="38.8,25.8 12.2,25.8 12.2,25.8 12.2,14.6 38.8,14.6 "/>
<path class="st0" d="M21.2,23.7l-0.1-3c0-0.6-0.1-1.4-0.1-2c-0.2,0.6-0.4,1.3-0.6,1.9l-1,3h-1.1l-0.9-3c-0.2-0.6-0.4-1.3-0.5-1.9
	c0,0.7-0.1,1.4-0.1,2.1l-0.2,2.9h-1.4l0.5-7h1.8l0.9,2.8c0.2,0.6,0.4,1.3,0.5,2c0.1-0.6,0.3-1.3,0.6-2l1-2.8h1.8l0.4,7L21.2,23.7z"
	/>
<path class="st1" d="M22.1,16.8l0.4,6.8h-1.2l-0.1-2.8c0-0.9-0.1-1.9-0.1-2.9l0,0c-0.2,0.8-0.5,1.7-0.8,2.6l-1,3h-1l-0.9-2.9
	c-0.3-0.9-0.5-1.8-0.7-2.6l0,0c0,0.9-0.1,2-0.1,2.9l-0.1,2.7h-1.2l0.4-6.8h1.6l0.9,2.7c0.2,0.8,0.5,1.6,0.6,2.4l0,0
	c0.2-0.7,0.4-1.6,0.7-2.4l0.9-2.7L22.1,16.8 M22.3,16.6h-2v0.2l-0.9,2.7C19.2,20,19,20.6,18.9,21c-0.1-0.5-0.3-1-0.4-1.5l-0.9-2.8
	l0-0.2h-2v0.2L15,23.6v0.2h1.6v-0.2l0.1-2.7c0-0.4,0-0.9,0.1-1.3c0.1,0.4,0.2,0.8,0.3,1.1l0.9,2.9l0,0.2h1.3v-0.2l1-3
	c0.1-0.4,0.3-0.8,0.4-1.2c0,0.5,0,0.9,0.1,1.3v0.1l0.1,2.8v0.2h1.7v-0.2l-0.4-6.8L22.3,16.6L22.3,16.6z"/>
<path class="st0" d="M26.5,23.8c-1.9,0-3.2-1.4-3.2-3.6c-0.2-1.9,1.2-3.5,3-3.7c0.1,0,0.2,0,0.3,0c1.8,0,3.3,1.4,3.3,3.2
	c0,0.1,0,0.2,0,0.4C29.9,22.4,28.6,23.8,26.5,23.8z M26.6,17.8c-1.3,0-1.8,1.3-1.8,2.4s0.5,2.4,1.8,2.4s1.8-1,1.8-2.4
	C28.4,19,27.8,17.8,26.6,17.8L26.6,17.8z"/>
<path class="st1" d="M26.6,16.7c1.7,0,3.2,1.4,3.2,3.1c0,0.1,0,0.2,0,0.3c0,2.3-1.4,3.6-3.3,3.6s-3.1-1.5-3.1-3.5
	c-0.2-1.8,1.1-3.4,2.9-3.6C26.5,16.7,26.6,16.7,26.6,16.7 M26.6,22.7c1.2,0,1.9-1.1,1.9-2.5s-0.6-2.5-1.9-2.5s-1.9,1.1-1.9,2.5
	S25.5,22.7,26.6,22.7 M26.6,16.4c-1.9,0-3.5,1.6-3.5,3.5c0,0.1,0,0.2,0,0.3c-0.2,1.9,1.2,3.5,3.1,3.7c0.1,0,0.2,0,0.3,0
	c2.1,0,3.5-1.5,3.5-3.8c0.2-1.8-1.2-3.5-3-3.7C26.9,16.4,26.8,16.4,26.6,16.4z M26.6,22.4c-1.1,0-1.7-1.1-1.7-2.3s0.4-2.3,1.7-2.3
	s1.7,1.2,1.7,2.3S27.9,22.4,26.6,22.4z"/>
<path class="st0" d="M32.3,23.7l-2.3-7h1.6l1,3.2c0.2,0.8,0.4,1.5,0.6,2.1c0.2-0.6,0.3-1.3,0.6-2l1-3.2h1.6l-2.4,7L32.3,23.7z"/>
<path class="st1" d="M36.2,16.8l-2.3,6.8h-1.4l-2.2-6.8h1.4l0.9,3.1c0.3,0.9,0.5,1.7,0.7,2.5l0,0c0.2-0.8,0.4-1.7,0.7-2.5l1-3.1
	H36.2 M36.5,16.5h-1.8l0,0.2l-1,3.1c-0.2,0.6-0.3,1.1-0.5,1.6c-0.1-0.5-0.3-1-0.5-1.6l-0.9-3.1l0-0.2h-1.8l0.1,0.3l2.2,6.8v0.2H34
	l0-0.2l2.4-6.8L36.5,16.5L36.5,16.5z"/>
</svg>
