<?xml version="1.0" encoding="utf-8"?>
<!-- Generator: Adobe Illustrator 25.0.0, SVG Export Plug-In . SVG Version: 6.00 Build 0)  -->
<svg version="1.1" id="Layer_1" xmlns="http://www.w3.org/2000/svg" xmlns:xlink="http://www.w3.org/1999/xlink" x="0px" y="0px"
	 viewBox="0 0 64 64" style="enable-background:new 0 0 64 64;" xml:space="preserve">
<style type="text/css">
	.st0{fill:#FFFFFF;}
	.st1{fill:#D3132F;}
</style>
<polygon class="st0" points="15.6,56.4 15.6,7.9 41.7,7.9 50.5,16.7 50.5,56.4 "/>
<path class="st1" d="M41.5,8.4l8.5,8.5v38.9H16.2V8.4H41.5 M41.9,7.3H15.1v49.6h36V16.5C51.1,16.5,41.9,7.3,41.9,7.3z"/>
<polygon class="st0" points="42.5,15.9 42.5,8.8 49.7,15.9 "/>
<path class="st1" d="M43.1,10.2l5.1,5.1h-5.1V10.2 M41.9,7.3v9.1h9.1L41.9,7.3z"/>
<path class="st1" d="M27.7,33v14c-0.5-0.5-1.2-0.7-2-0.7c-1.3-0.2-2.5,0.8-2.7,2.1c-0.2,1.3,0.8,2.5,2.1,2.7c0.2,0,0.4,0,0.6,0
	c1.4,0.1,2.6-1,2.7-2.4V35.2l11-3.4v11.6c-0.5-0.5-1.2-0.7-1.9-0.7c-1.3,0.2-2.3,1.4-2.1,2.7c0.2,1.3,1.4,2.3,2.7,2.1
	c1.2-0.1,2.1-1.2,2.1-2.4V29.2L27.7,33z"/>
<ellipse class="st0" cx="36.6" cy="45.2" rx="0.8" ry="0.7"/>
<path class="st0" d="M25.7,48.8c0.1,0.4-0.3,0.8-0.7,0.9c-0.4,0.1-0.8-0.3-0.9-0.7c-0.1-0.4,0.3-0.8,0.7-0.9c0,0,0.1,0,0.1,0
	C25.3,48,25.7,48.4,25.7,48.8z"/>
<polygon class="st1" points="38.7,25.8 12.2,25.8 12.2,25.8 12.2,14.6 38.7,14.6 "/>
<path class="st0" d="M22.5,23.7l-0.1-3c0-0.6-0.1-1.3-0.1-2c-0.2,0.6-0.4,1.3-0.6,1.9l-1,3h-1.2l-0.9-3c-0.2-0.6-0.4-1.2-0.5-1.8
	c0,0.6-0.1,1.4-0.1,2l-0.2,2.9h-1.4l0.5-7.1h1.8l0.9,2.8c0.2,0.6,0.4,1.3,0.5,2c0.1-0.5,0.3-1.2,0.6-2l1-2.8h1.8l0.4,7.1H22.5z"/>
<path class="st1" d="M23.5,16.7l0.4,6.8h-1.2l-0.1-2.8c0-0.9-0.1-1.9-0.1-2.9l0,0c-0.2,0.8-0.5,1.8-0.8,2.6l-1,3h-1l-0.9-2.9
	c-0.3-0.9-0.5-1.8-0.7-2.6l0,0c0,0.9-0.1,2-0.1,2.9l-0.2,2.7h-1.2l0.5-6.8h1.6l0.9,2.7c0.2,0.8,0.5,1.6,0.6,2.4l0,0
	c0.2-0.7,0.4-1.6,0.7-2.4l0.9-2.7L23.5,16.7 M23.7,16.5h-2l-0.1,0.2l-0.9,2.7c-0.2,0.5-0.3,1.1-0.5,1.5c-0.1-0.5-0.3-1-0.4-1.5
	l-0.9-2.7l-0.1-0.2h-2v0.2l-0.5,6.8v0.3H18v-0.2l0.1-2.7c0-0.4,0-0.8,0.1-1.2c0.1,0.4,0.2,0.7,0.3,1l0.9,2.9l0.1,0.2h1.3l0.1-0.2
	l1-3c0.1-0.4,0.3-0.8,0.4-1.2c0,0.4,0,0.9,0,1.3v0.1l0.1,2.8v0.2h1.7v-0.3l-0.4-6.8L23.7,16.5L23.7,16.5z"/>
<path class="st0" d="M25,23.7v-7h0.1c0.6-0.1,1.3-0.2,1.9-0.2c0.7-0.1,1.5,0.2,2.1,0.6c0.5,0.4,0.7,1,0.7,1.6c0,0.6-0.2,1.2-0.6,1.6
	c-0.6,0.5-1.4,0.8-2.2,0.8h-0.5v2.5L25,23.7z M26.5,19.9c0.2,0,0.3,0,0.5,0c0.9,0,1.4-0.4,1.4-1.1c0-0.9-0.8-1-1.3-1
	c-0.2,0-0.4,0-0.6,0V19.9z"/>
<path class="st1" d="M27,16.7c0.7-0.1,1.4,0.1,2,0.6c0.4,0.4,0.7,0.9,0.7,1.5c0,0.6-0.2,1.1-0.6,1.5C28.5,20.8,27.8,21,27,21
	c-0.2,0-0.4,0-0.6,0v2.6h-1.3v-6.7C25.8,16.7,26.4,16.7,27,16.7 M27,20.1c0.9,0,1.5-0.5,1.5-1.3s-0.5-1.2-1.4-1.2
	c-0.2,0-0.5,0-0.7,0.1V20C26.6,20,26.8,20,27,20.1 M27,16.5c-0.7,0-1.3,0-2,0.1h-0.2v7.2h1.8v-2.5H27c0.8,0.1,1.7-0.2,2.3-0.8
	c0.5-0.4,0.7-1.1,0.7-1.7c0-0.6-0.3-1.3-0.8-1.7C28.6,16.6,27.8,16.4,27,16.5z M26.6,17.9c0.2,0,0.3,0,0.5,0c0.5,0,1.1,0.2,1.1,0.9
	s-0.8,1-1.2,1h-0.4C26.6,19.8,26.6,17.9,26.6,17.9z"/>
<path class="st0" d="M32.3,23.8c-0.7,0-1.3-0.1-1.9-0.5l-0.1,0l0.4-1.2l0.1,0.1c0.4,0.2,0.9,0.4,1.4,0.4c0.4,0,0.7-0.1,1-0.3
	c0.2-0.2,0.2-0.4,0.2-0.6c0-0.7-0.7-1-1.4-1h-0.7v-1.2h0.7c0.4,0,1.2-0.2,1.2-0.8c0-0.4-0.3-0.7-0.9-0.7c-0.5,0-0.9,0.1-1.3,0.4
	l-0.1,0.1l-0.4-1.1h0.1c0.6-0.4,1.3-0.5,2-0.5c1.5,0,2.2,0.9,2.2,1.7c0,0.7-0.4,1.3-1,1.5c0.7,0.2,1.2,0.9,1.2,1.6
	C35,22.9,33.9,23.8,32.3,23.8z"/>
<path class="st1" d="M32.6,16.9c1.4,0,2,0.8,2,1.6c0,0.7-0.5,1.3-1.2,1.5l0,0c0.8,0.1,1.4,0.8,1.5,1.6c0,1.1-0.9,2-2.6,2
	c-0.6,0-1.3-0.1-1.8-0.5l0.3-0.9c0.5,0.3,1,0.4,1.5,0.4c1,0,1.3-0.5,1.3-1c0-0.8-0.7-1.1-1.5-1.1h-0.6v-0.9h0.5
	c0.6,0,1.3-0.3,1.3-0.9c0-0.4-0.3-0.8-1-0.8c-0.5,0-0.9,0.2-1.4,0.4l-0.3-0.9C31.3,17,32,16.9,32.6,16.9 M32.6,16.6
	c-0.7,0-1.4,0.2-2,0.5l-0.1,0.1l0.1,0.2l0.3,0.9l0.1,0.3l0.3-0.2c0.4-0.2,0.8-0.4,1.2-0.4c0.5,0,0.8,0.2,0.8,0.6s-0.6,0.7-1.1,0.7
	h-0.8v1.4h0.8c0.2,0,1.2,0,1.2,0.9c0,0.2-0.1,0.4-0.2,0.5c-0.2,0.2-0.6,0.3-0.9,0.3c-0.5,0-1-0.1-1.4-0.4l-0.3-0.2l-0.1,0.3
	l-0.3,0.9l0,0.2l0.1,0.1c0.6,0.3,1.3,0.5,2,0.5c1.7,0,2.8-0.9,2.8-2.2c0-0.8-0.5-1.4-1.2-1.7c0.5-0.3,0.8-0.9,0.8-1.5
	C34.8,17.6,34.1,16.6,32.6,16.6L32.6,16.6z"/>
</svg>
