<?xml version="1.0" encoding="utf-8"?>
<!-- Generator: Adobe Illustrator 25.0.0, SVG Export Plug-In . SVG Version: 6.00 Build 0)  -->
<svg version="1.1" id="Layer_1" xmlns="http://www.w3.org/2000/svg" xmlns:xlink="http://www.w3.org/1999/xlink" x="0px" y="0px"
	 viewBox="0 0 64 64" style="enable-background:new 0 0 64 64;" xml:space="preserve">
<style type="text/css">
	.st0{fill:#FFFFFF;}
	.st1{fill:#51448C;}
</style>
<polygon class="st0" points="14.9,56.4 14.9,7.9 41,7.9 49.8,16.7 49.8,56.4 "/>
<path class="st1" d="M40.8,8.4l8.5,8.5v38.9H15.4V8.4H40.8 M41.2,7.3H14.4v49.6h36V16.5C50.4,16.5,41.2,7.3,41.2,7.3z"/>
<polygon class="st0" points="41.8,15.9 41.8,8.8 48.9,15.9 "/>
<path class="st1" d="M42.4,10.2l5.1,5.1h-5.1V10.2 M41.2,7.3v9.1h9.1L41.2,7.3z"/>
<path class="st1" d="M38.2,29.5H23.2v22.3h18.2V29.5H38.2z M25.9,51h-1.8v-1.8h1.8V51z M25.9,48.3h-1.8v-1.8h1.8V48.3z M25.9,45.6
	h-1.8v-1.8h1.8V45.6z M25.9,42.9h-1.8v-1.8h1.8V42.9z M25.9,40.2h-1.8v-1.8h1.8V40.2z M25.9,37.5h-1.8v-1.8h1.8V37.5z M25.9,34.8
	h-1.8V33h1.8V34.8z M25.9,32.1h-1.8v-1.8h1.8V32.1z M37.5,51.1H27.2v-9.9h10.4V51.1z M37.5,40.1H27.2v-9.8h10.4V40.1z M40.6,51h-1.8
	v-1.8h1.8V51z M40.6,48.3h-1.8v-1.8h1.8V48.3z M40.6,45.6h-1.8v-1.8h1.8V45.6z M40.6,42.9h-1.8v-1.8h1.8V42.9z M40.6,40.2h-1.8v-1.8
	h1.8V40.2z M40.6,37.5h-1.8v-1.8h1.8V37.5z M40.6,34.8h-1.8V33h1.8V34.8z M40.6,32.1h-1.8v-1.8h1.8V32.1z"/>
<rect x="11.5" y="14.6" class="st1" width="26.5" height="11.1"/>
<path class="st0" d="M21.3,23.7l-0.1-3c0-0.6-0.1-1.3-0.1-2c-0.2,0.6-0.4,1.3-0.6,1.9l-1,3h-1.1l-0.9-3c-0.2-0.6-0.4-1.2-0.5-1.8
	c0,0.6-0.1,1.4-0.1,2.1l-0.2,2.9h-1.4l0.5-7.1h1.8l0.9,2.8c0.2,0.6,0.4,1.3,0.5,2c0.1-0.5,0.3-1.2,0.6-2l1-2.8h1.8l0.4,7.1
	L21.3,23.7z"/>
<path class="st1" d="M22.3,16.8l0.4,6.8h-1.2l-0.1-2.8c0-0.9-0.1-1.9-0.1-2.9l0,0c-0.2,0.8-0.5,1.8-0.8,2.6l-1,3h-1l-0.9-2.9
	c-0.3-0.9-0.5-1.8-0.7-2.6l0,0c0,0.9-0.1,2-0.1,2.9l-0.2,2.7h-1.2l0.5-6.8h1.6l0.9,2.7c0.2,0.8,0.5,1.6,0.6,2.4l0,0
	c0.2-0.7,0.4-1.6,0.7-2.4l0.9-2.7L22.3,16.8 M22.5,16.6h-2l-0.1,0.2l-0.9,2.7C19.3,20,19.2,20.6,19,21c-0.1-0.5-0.3-1-0.4-1.5
	l-0.9-2.8l-0.1-0.2h-2v0.2l-0.4,6.8v0.3h1.7v-0.2l0.1-2.8c0-0.4,0-0.8,0.1-1.2c0.1,0.4,0.2,0.7,0.3,1l0.9,2.9l0.1,0.2h1.3l0.1-0.2
	l1-3l0.3-1.1c0,0.4,0,0.9,0,1.3v0.1l0.1,2.8v0.2h1.7v-0.3l-0.4-6.8L22.5,16.6L22.5,16.6z"/>
<path class="st0" d="M23.8,23.7v-6.9h0.1c0.6-0.1,1.3-0.2,1.9-0.1c0.7-0.1,1.5,0.2,2.1,0.6c0.5,0.4,0.7,1,0.7,1.6
	c0,0.6-0.2,1.2-0.6,1.6c-0.6,0.5-1.4,0.8-2.2,0.8h-0.5v2.5L23.8,23.7z M25.3,20c0.2,0,0.3,0,0.5,0c0.9,0,1.4-0.4,1.4-1.1
	c0-0.9-0.8-1-1.3-1c-0.2,0-0.4,0-0.6,0V20z"/>
<path class="st1" d="M25.8,16.8c0.7-0.1,1.4,0.1,2,0.5c0.4,0.4,0.7,0.9,0.7,1.5c0,0.6-0.2,1.1-0.6,1.5c-0.6,0.5-1.4,0.8-2.1,0.7
	c-0.2,0-0.4,0-0.6,0v2.6h-1.2v-6.8C24.6,16.8,25.2,16.7,25.8,16.8 M25.8,20.1c0.9,0,1.5-0.5,1.5-1.2s-0.5-1.2-1.4-1.2
	c-0.2,0-0.5,0-0.7,0.1v2.3C25.4,20.1,25.6,20.1,25.8,20.1 M25.8,16.5c-0.7,0-1.3,0-2,0.1h-0.2v7.2h1.7v-2.5h0.4
	c0.8,0.1,1.7-0.2,2.3-0.8c0.5-0.5,0.7-1.1,0.7-1.7c0-0.6-0.3-1.3-0.8-1.7C27.4,16.7,26.6,16.4,25.8,16.5L25.8,16.5z M25.4,18h0.5
	c0.5,0,1.1,0.2,1.1,0.9s-0.8,1-1.2,1h-0.4C25.4,19.9,25.4,18,25.4,18z"/>
<path class="st0" d="M31.9,23.7v-1.7H29v-1l2.7-4.2h1.6v4h0.8v1.2h-0.8v1.7L31.9,23.7z M31.9,20.9v-1.7c0-0.2,0-0.4,0-0.6l-0.4,0.7
	l-1.1,1.6H31.9z"/>
<path class="st1" d="M33.2,17v4h0.8v0.9h-0.8v1.7H32v-1.7h-3v-0.8l2.7-4.1H33.2 M32.1,18L32.1,18c-0.2,0.4-0.4,0.8-0.6,1.1L30.3,21
	l0,0h1.8v-1.8C32.1,18.8,32.1,18.5,32.1,18 M33.4,16.8h-1.8l-0.1,0.1L28.9,21v0.1v1.1h3v1.7h1.6v-1.7h0.8v-1.4h-0.8L33.4,16.8
	L33.4,16.8z M30.7,20.8l1-1.4l0,0c0-0.1,0.1-0.1,0.1-0.2v1.7L30.7,20.8z"/>
</svg>
