<?xml version="1.0" encoding="utf-8"?>
<!-- Generator: Adobe Illustrator 25.0.0, SVG Export Plug-In . SVG Version: 6.00 Build 0)  -->
<svg version="1.1" id="Layer_1" xmlns="http://www.w3.org/2000/svg" xmlns:xlink="http://www.w3.org/1999/xlink" x="0px" y="0px"
	 viewBox="0 0 64 64" style="enable-background:new 0 0 64 64;" xml:space="preserve">
<style type="text/css">
	.st0{fill:#FFFFFF;}
	.st1{fill:#4C9315;}
</style>
<polygon class="st0" points="14.8,56.4 14.8,7.9 40.9,7.9 49.7,16.7 49.7,56.4 "/>
<path class="st1" d="M40.7,8.4l8.5,8.5v38.9H15.3V8.4H40.7 M41.1,7.3H14.2v49.6h36V16.5C50.2,16.5,41.1,7.3,41.1,7.3z"/>
<polygon class="st0" points="41.7,15.9 41.7,8.8 48.8,15.9 "/>
<path class="st1" d="M42.3,10.2l5.1,5.1h-5.1V10.2 M41.1,7.3v9.1h9.1L41.1,7.3z"/>
<path class="st1" d="M38.1,29.5H23.1v22.3h18.2V29.5H38.1z M25.8,51H24v-1.8h1.8L25.8,51z M25.8,48.3H24v-1.8h1.8L25.8,48.3z
	 M25.8,45.6H24v-1.8h1.8L25.8,45.6z M25.8,42.9H24v-1.8h1.8L25.8,42.9z M25.8,40.2H24v-1.8h1.8L25.8,40.2z M25.8,37.5H24v-1.8h1.8
	L25.8,37.5z M25.8,34.8H24V33h1.8L25.8,34.8z M25.8,32.1H24v-1.8h1.8L25.8,32.1z M37.4,51.1H27.1v-9.9h10.4V51.1z M37.4,40.1H27.1
	v-9.8h10.4V40.1z M40.5,51h-1.8v-1.8h1.8V51z M40.5,48.3h-1.8v-1.8h1.8V48.3z M40.5,45.6h-1.8v-1.8h1.8V45.6z M40.5,42.9h-1.8v-1.8
	h1.8V42.9z M40.5,40.2h-1.8v-1.8h1.8V40.2z M40.5,37.5h-1.8v-1.8h1.8V37.5z M40.5,34.8h-1.8V33h1.8V34.8z M40.5,32.1h-1.8v-1.8h1.8
	V32.1z"/>
<polygon class="st1" points="37.9,25.8 11.3,25.8 11.3,25.8 11.3,14.6 37.9,14.6 "/>
<path class="st0" d="M18.7,23.7l-0.1-3c0-0.6,0-1.3-0.1-2c-0.2,0.6-0.4,1.3-0.5,1.8l-0.9,3h-1l-0.9-3c-0.2-0.6-0.3-1.2-0.4-1.8
	c0,0.6,0,1.4-0.1,2l-0.1,2.9h-1.3l0.4-7.1h1.7l0.8,2.8c0.2,0.6,0.3,1.3,0.5,1.9c0.1-0.5,0.3-1.2,0.5-1.9l0.9-2.7h1.7l0.3,7.1H18.7z"
	/>
<path class="st1" d="M19.5,16.8l0.4,6.8h-1.1l-0.1-2.8c0-0.9-0.1-1.9-0.1-2.9l0,0c-0.2,0.8-0.5,1.7-0.7,2.6l-0.9,3h-0.9l-0.8-2.9
	c-0.2-0.9-0.5-1.8-0.6-2.6l0,0c0,0.9-0.1,2-0.1,2.9l-0.1,2.7h-1.1l0.4-6.8h1.5l0.8,2.7c0.2,0.8,0.4,1.6,0.6,2.4l0,0
	c0.2-0.7,0.4-1.6,0.6-2.4l0.9-2.7H19.5 M19.7,16.5h-1.8l-0.1,0.2L17,19.4c-0.2,0.5-0.3,1-0.4,1.5c-0.1-0.5-0.2-1-0.4-1.4l-0.8-2.8
	l-0.1-0.2h-1.9v0.2l-0.4,6.8v0.3h1.5v-0.2l0.1-2.7c0-0.4,0-0.8,0-1.1l0.2,0.9l0.8,2.9l0.1,0.2h1.2l0.1-0.2l0.9-3
	c0.1-0.4,0.2-0.7,0.3-1.1c0,0.4,0,0.8,0,1.2v0.1l0.1,2.8v0.2h1.6v-0.2l-0.4-6.8L19.7,16.5L19.7,16.5z"/>
<path class="st0" d="M21,23.7v-6.9h0.1c0.6-0.1,1.2-0.1,1.8-0.1c0.7,0,1.4,0.2,1.9,0.6c0.4,0.4,0.7,1,0.6,1.6c0,0.6-0.2,1.2-0.6,1.6
	c-0.5,0.5-1.3,0.8-2,0.8c-0.1,0-0.3,0-0.4,0v2.5L21,23.7z M22.4,19.9c0.1,0,0.3,0,0.4,0c0.6,0.1,1.1-0.4,1.2-1c0,0,0-0.1,0-0.1
	c0-0.7-0.4-1-1.1-1c-0.2,0-0.4,0-0.5,0L22.4,19.9z"/>
<path class="st1" d="M22.8,16.7c0.7-0.1,1.3,0.1,1.8,0.6c0.4,0.4,0.6,0.9,0.6,1.5c0,0.6-0.2,1.1-0.5,1.5c-0.5,0.5-1.3,0.8-2,0.7
	c-0.2,0-0.4,0-0.5,0v2.6h-1.1v-6.8C21.6,16.8,22.2,16.7,22.8,16.7 M22.7,20.1c0.7,0.1,1.3-0.4,1.4-1c0-0.1,0-0.1,0-0.2
	c0-0.6-0.4-1.1-1-1.2c-0.1,0-0.1,0-0.2,0c-0.2,0-0.4,0-0.6,0.1V20C22.4,20,22.6,20.1,22.7,20.1 M22.8,16.4c-0.6,0-1.2,0-1.8,0.1
	h-0.2v7.2h1.6v-2.5h0.3c0.8,0,1.6-0.2,2.1-0.8c0.4-0.5,0.6-1.1,0.6-1.7c0-0.6-0.2-1.2-0.7-1.7C24.2,16.6,23.5,16.4,22.8,16.4
	L22.8,16.4z M22.4,17.9c0.1,0,0.3,0,0.4,0c0.5,0,1,0.2,1,0.9c0,0.6-0.4,1-1,1c0,0-0.1,0-0.1,0h-0.3L22.4,17.9L22.4,17.9z"/>
<polygon class="st0" points="26.1,23.7 26.1,16.6 29.9,16.6 29.9,17.9 27.5,17.9 27.5,19.4 29.8,19.4 29.8,20.7 27.5,20.7 
	27.5,22.5 30.1,22.5 30.1,23.7 "/>
<path class="st1" d="M29.8,16.8v1h-2.5v1.8h2.3v1h-2.3v2H30v1h-3.8v-6.8H29.8 M30.1,16.5H26v7.3h4.2v-1.5h-2.6v-1.5h2.3v-1.5h-2.3
	V18h2.5V16.5z"/>
<path class="st0" d="M33.9,23.8c-0.9,0-1.9-0.3-2.5-1c-0.6-0.7-0.9-1.6-0.9-2.6c-0.1-1.9,1.3-3.5,3.2-3.7c0.1,0,0.3,0,0.4,0
	c0.6,0,1.2,0.1,1.7,0.3h0.1l-0.3,1.2l-0.1-0.1c-0.4-0.2-0.9-0.3-1.4-0.3c-1.1-0.1-2.1,0.8-2.2,2c0,0.1,0,0.2,0,0.4
	c0,1.5,0.8,2.4,2,2.4c0.3,0,0.5,0,0.7-0.1v-1.5h-1.1v-1.1h2.4v3.6H36C35.3,23.6,34.6,23.8,33.9,23.8z"/>
<path class="st1" d="M34.1,16.7c0.6,0,1.1,0.1,1.7,0.3l-0.2,1c-0.4-0.2-0.9-0.3-1.4-0.3c-1.2,0-2.2,0.9-2.3,2.1c0,0.1,0,0.2,0,0.4
	c0,1.5,0.9,2.5,2.2,2.5c0.3,0,0.6,0,0.9-0.1v-1.7h-1.1v-1h2.2v3.5c-0.6,0.2-1.3,0.4-2,0.4c-0.9,0.1-1.8-0.3-2.4-0.9
	c-0.6-0.7-0.9-1.6-0.9-2.5c-0.1-1.8,1.2-3.4,3-3.5C33.8,16.7,34,16.7,34.1,16.7 M34.1,16.4c-2-0.1-3.6,1.4-3.7,3.4
	c0,0.1,0,0.3,0,0.4c0,1,0.3,1.9,0.9,2.7c0.7,0.7,1.6,1.1,2.6,1c0.7,0,1.4-0.1,2.1-0.4l0.2-0.1v-3.9h-2.6V21h1.1v1.3
	c-0.2,0-0.4,0.1-0.6,0.1c-1.2,0-1.9-0.9-1.9-2.2c-0.1-1.1,0.6-2,1.7-2.2c0.1,0,0.2,0,0.3,0c0.5,0,0.9,0.1,1.3,0.3l0.2,0.1l0.1-0.3
	l0.2-1l0.1-0.2l-0.2-0.1C35.3,16.6,34.7,16.4,34.1,16.4L34.1,16.4z"/>
</svg>
