<?xml version="1.0" encoding="utf-8"?>
<!-- Generator: Adobe Illustrator 25.0.0, SVG Export Plug-In . SVG Version: 6.00 Build 0)  -->
<svg version="1.1" id="Layer_1" xmlns="http://www.w3.org/2000/svg" xmlns:xlink="http://www.w3.org/1999/xlink" x="0px" y="0px"
	 viewBox="0 0 64 64" style="enable-background:new 0 0 64 64;" xml:space="preserve">
<style type="text/css">
	.st0{fill:#D3132F;}
	.st1{fill:#FFFFFF;}
</style>
<path class="st0" d="M41.2,8.8l8.5,8.5v38.9H15.8V8.8H41.2 M41.6,7.7H14.7v49.6h36V16.9C50.7,16.9,41.6,7.7,41.6,7.7z"/>
<path class="st0" d="M42.8,10.6l5.1,5.1h-5.1V10.6 M41.6,7.7v9.1h9.1L41.6,7.7z"/>
<rect x="37.4" y="30.4" class="st0" width="7.4" height="5.8"/>
<rect x="20.7" y="30.4" class="st0" width="15.3" height="2"/>
<rect x="20.7" y="34.2" class="st0" width="15.3" height="2"/>
<rect x="20.7" y="38" class="st0" width="15.3" height="2"/>
<rect x="20.7" y="41.8" class="st0" width="24" height="2"/>
<rect x="20.7" y="45.6" class="st0" width="24" height="2"/>
<rect x="20.7" y="49.4" class="st0" width="24" height="2"/>
<rect x="37.4" y="38" class="st0" width="7.4" height="2"/>
<rect x="11.8" y="15" class="st0" width="26.5" height="11.1"/>
<path class="st1" d="M16.7,24.1v-6.9h0.1c0.6-0.1,1.3-0.1,1.9-0.1c0.7-0.1,1.5,0.1,2.1,0.6c0.5,0.4,0.7,1,0.7,1.6
	c0,0.6-0.2,1.2-0.6,1.6c-0.6,0.5-1.4,0.8-2.2,0.8h-0.5v2.5L16.7,24.1z M18.2,20.3c0.2,0,0.3,0,0.5,0c0.9,0,1.4-0.4,1.4-1.1
	c0-0.9-0.8-1-1.3-1c-0.2,0-0.4,0-0.6,0L18.2,20.3z"/>
<path class="st0" d="M18.8,17.1c0.7-0.1,1.4,0.1,2,0.6c0.4,0.4,0.7,0.9,0.7,1.5c0,0.6-0.2,1.1-0.6,1.5c-0.6,0.5-1.4,0.8-2.2,0.7
	c-0.2,0-0.4,0-0.6,0V24h-1.2v-6.8C17.5,17.1,18.1,17.1,18.8,17.1 M18.7,20.5c0.9,0,1.5-0.5,1.5-1.3S19.7,18,18.8,18
	c-0.2,0-0.5,0-0.7,0.1v2.3C18.3,20.4,18.5,20.5,18.7,20.5 M18.8,16.8c-0.6,0-1.3,0-1.9,0.1h-0.2v7.2h1.7v-2.5h0.4
	c0.9,0.1,1.7-0.2,2.3-0.8c0.5-0.5,0.7-1.1,0.7-1.7c0-0.6-0.3-1.3-0.8-1.7C20.3,17,19.5,16.8,18.8,16.8L18.8,16.8z M18.3,18.3
	c0.2,0,0.3,0,0.5,0c0.5,0,1.1,0.2,1.1,0.9s-0.8,1-1.3,1h-0.4C18.3,20.2,18.3,18.3,18.3,18.3z"/>
<path class="st1" d="M24.2,24.1c-0.6,0-1.1,0-1.7-0.1h-0.1v-6.9h0.1c0.7-0.1,1.3-0.1,2-0.1c1-0.1,2,0.2,2.9,0.8
	c0.8,0.6,1.2,1.6,1.1,2.6c0.1,1-0.3,2.1-1.1,2.8C26.5,23.9,25.3,24.2,24.2,24.1z M23.9,22.9c0.2,0,0.4,0,0.6,0l0,0
	c0.7,0,1.3-0.2,1.8-0.6c0.5-0.5,0.7-1.2,0.6-1.9c0-0.6-0.2-1.2-0.6-1.6c-0.5-0.4-1.1-0.6-1.7-0.6c-0.2,0-0.5,0-0.7,0V22.9z"/>
<path class="st0" d="M24.5,17.1c1-0.1,2,0.2,2.8,0.8c0.7,0.6,1.1,1.6,1.1,2.5c0.1,1-0.3,2-1.1,2.7c-0.9,0.7-2,1-3.1,0.9
	c-0.6,0-1.1,0-1.7-0.1v-6.7C23.2,17.1,23.9,17.1,24.5,17.1 M24.5,23.1c1.3,0.1,2.4-0.9,2.5-2.1c0-0.2,0-0.3,0-0.5
	c0.1-1.2-0.7-2.2-1.9-2.4c-0.2,0-0.3,0-0.5,0c-0.3,0-0.6,0-0.9,0.1V23c0.2,0,0.5,0,0.7,0l0,0 M24.4,16.8c-0.7,0-1.3,0-2,0.1h-0.2
	v7.1h0.2c0.6,0.1,1.1,0.1,1.7,0.1c1.2,0.1,2.3-0.3,3.2-1c0.8-0.8,1.2-1.8,1.1-2.9c0.1-1-0.4-2-1.2-2.7
	C26.5,16.9,25.5,16.6,24.4,16.8L24.4,16.8z M24,18.3c0.2,0,0.4,0,0.6,0c0.6,0,1.2,0.2,1.6,0.6c0.4,0.4,0.6,1,0.5,1.6
	c0.2,1.1-0.6,2.2-1.8,2.4c-0.2,0-0.4,0-0.5,0H24V18.3z"/>
<polygon class="st1" points="29.3,24.1 29.3,17 33.5,17 33.5,18.3 30.8,18.3 30.8,19.9 33.3,19.9 33.3,21.2 30.8,21.2 30.8,24.1 "/>
<path class="st0" d="M33.4,17.1v1h-2.7V20h2.5v1h-2.5v3h-1.2v-6.9H33.4 M33.6,16.9h-4.4v7.3h1.7v-2.9h2.5v-1.5h-2.5v-1.4h2.7
	C33.6,18.4,33.6,16.9,33.6,16.9z"/>
</svg>
