<?xml version="1.0" encoding="utf-8"?>
<!-- Generator: Adobe Illustrator 25.0.0, SVG Export Plug-In . SVG Version: 6.00 Build 0)  -->
<svg version="1.1" id="Layer_1" xmlns="http://www.w3.org/2000/svg" xmlns:xlink="http://www.w3.org/1999/xlink" x="0px" y="0px"
	 viewBox="0 0 64 64" style="enable-background:new 0 0 64 64;" xml:space="preserve">
<style type="text/css">
	.st0{fill:#FFFFFF;}
	.st1{fill:#4C9315;}
</style>
<polygon class="st0" points="14.9,57.2 14.9,8.7 41,8.7 49.8,17.5 49.8,57.2 "/>
<path class="st1" d="M40.8,9.2l8.5,8.5v38.9H15.4V9.2H40.8 M41.2,8.1H14.4v49.6h36V17.3C50.4,17.3,41.2,8.1,41.2,8.1z"/>
<polygon class="st0" points="41.8,16.7 41.8,9.6 48.9,16.7 "/>
<path class="st1" d="M42.4,11l5.1,5.1h-5.1V11 M41.2,8.1v9.1h9.1L41.2,8.1z"/>
<path class="st1" d="M19.3,39.2l5.6-3.7V37l-4.5,2.8l0,0l4.5,2.8v1.4l-5.6-3.7V39.2z"/>
<path class="st1" d="M45.4,40.4l-5.6,3.7v-1.4l4.5-2.8l0,0L39.8,37v-1.5l5.6,3.7L45.4,40.4z"/>
<path class="st1" d="M29.4,44.8l3.5-10.5h1.2l-3.5,10.5H29.4z"/>
<rect x="27.7" y="42.7" class="st1" width="1.2" height="1.5"/>
<path class="st1" d="M29.9,35.6c-0.4-0.5-1-0.7-1.6-0.7c-0.6,0-1.2,0.3-1.6,0.7c-0.4,0.6-0.7,1.2-0.7,1.9v0.1h1.1v-0.1
	c0.1-1,0.5-1.6,1.2-1.6c0.3,0,0.6,0.1,0.8,0.4c0.2,0.3,0.3,0.7,0.3,1.1c0,0.2,0,0.4-0.1,0.6c-0.2,0.3-0.4,0.6-0.6,0.9
	c-0.3,0.3-0.6,0.7-0.8,1.1c-0.2,0.5-0.2,1.1-0.2,1.7V42h1v-0.1c0-0.4,0-0.8,0.1-1.2c0.2-0.3,0.4-0.7,0.7-0.9
	c0.3-0.3,0.6-0.7,0.8-1.2c0.1-0.4,0.2-0.7,0.2-1.1C30.6,36.8,30.3,36.2,29.9,35.6z"/>
<rect x="35.9" y="42.7" class="st1" width="1.2" height="1.5"/>
<path class="st1" d="M38.1,35.6c-0.4-0.5-1-0.7-1.7-0.7c-0.6,0-1.2,0.3-1.6,0.7c-0.4,0.6-0.7,1.2-0.7,1.9v0.1h1.1v-0.1
	c0.1-1,0.5-1.6,1.2-1.6c0.3,0,0.6,0.1,0.8,0.4c0.2,0.3,0.3,0.7,0.3,1.1c0,0.2,0,0.4-0.1,0.6c-0.2,0.3-0.4,0.6-0.6,0.9
	c-0.3,0.3-0.6,0.7-0.8,1.1c-0.2,0.5-0.2,1.1-0.2,1.7V42h1v-0.1c0-0.4,0-0.8,0.1-1.2c0.2-0.3,0.4-0.7,0.7-0.9
	c0.3-0.3,0.6-0.7,0.8-1.2c0.1-0.4,0.2-0.7,0.2-1.1C38.8,36.8,38.6,36.2,38.1,35.6z"/>
<polygon class="st1" points="38,26.5 11.5,26.5 11.5,26.5 11.5,15.4 38,15.4 "/>
<path class="st0" d="M16.3,24.5v-7h0.1c0.6-0.1,1.3-0.1,1.9-0.1c0.7-0.1,1.5,0.1,2.1,0.6c0.5,0.4,0.7,1,0.7,1.6
	c0,0.6-0.2,1.2-0.6,1.6c-0.6,0.5-1.4,0.8-2.3,0.8h-0.5v2.5L16.3,24.5z M17.7,20.8c0.2,0,0.3,0,0.5,0c0.9,0,1.4-0.4,1.4-1.1
	c0-0.9-0.8-1-1.3-1c-0.2,0-0.4,0-0.6,0L17.7,20.8z"/>
<path class="st1" d="M18.3,17.5c0.7,0,1.4,0.1,2,0.6c0.4,0.4,0.7,0.9,0.7,1.5c0,0.6-0.2,1.1-0.6,1.5c-0.6,0.5-1.4,0.8-2.2,0.7
	c-0.2,0-0.4,0-0.6,0v2.5h-1.2v-6.7C17,17.6,17.7,17.5,18.3,17.5 M18.2,20.9c0.9,0,1.5-0.5,1.5-1.3s-0.5-1.2-1.4-1.2
	c-0.2,0-0.5,0-0.7,0.1v2.3C17.8,20.9,18,20.9,18.2,20.9 M18.3,17.2c-0.7,0-1.3,0-2,0.1h-0.2v7.2h1.7v-2.4h0.4
	c0.9,0.1,1.7-0.2,2.4-0.8c0.5-0.5,0.7-1.1,0.7-1.7c0-0.6-0.3-1.3-0.8-1.7C19.8,17.4,19,17.2,18.3,17.2L18.3,17.2z M17.9,18.7
	c0.2,0,0.3,0,0.5,0c0.5,0,1.1,0.2,1.1,0.9s-0.8,1-1.3,1h-0.4L17.9,18.7L17.9,18.7z"/>
<polygon class="st0" points="26.1,24.5 26.1,21.5 23.5,21.5 23.5,24.5 22,24.5 22,17.5 23.5,17.5 23.5,20.2 26.1,20.2 26.1,17.5 
	27.6,17.5 27.6,24.5 "/>
<path class="st1" d="M27.5,17.6v6.8h-1.2v-3h-2.9v3h-1.3v-6.8h1.3v2.7h2.9v-2.7H27.5 M27.7,17.3H26v2.7h-2.4v-2.7h-1.7v7.3h1.7v-3
	H26v3h1.7V17.3z"/>
<path class="st0" d="M28.8,24.5v-7h0.1c0.6-0.1,1.3-0.1,1.9-0.1c0.8-0.1,1.5,0.1,2.1,0.6c0.5,0.4,0.7,1,0.7,1.6
	c0,0.6-0.2,1.2-0.6,1.6c-0.6,0.5-1.5,0.8-2.3,0.8h-0.5v2.5L28.8,24.5z M30.3,20.8c0.2,0,0.3,0,0.5,0c0.9,0,1.4-0.4,1.4-1.1
	c0-0.9-0.8-1-1.3-1c-0.2,0-0.4,0-0.6,0L30.3,20.8z"/>
<path class="st1" d="M30.9,17.5c0.7,0,1.4,0.1,2,0.6c0.4,0.4,0.7,0.9,0.7,1.5c0.1,0.6-0.1,1.1-0.5,1.5c-0.6,0.5-1.4,0.8-2.2,0.7
	c-0.2,0-0.4,0-0.6,0v2.5h-1.3v-6.7C29.6,17.6,30.2,17.5,30.9,17.5 M30.8,20.9c0.9,0,1.5-0.5,1.5-1.3s-0.5-1.2-1.4-1.2
	c-0.2,0-0.5,0-0.7,0.1v2.3C30.4,20.9,30.6,20.9,30.8,20.9 M30.9,17.2c-0.7,0-1.3,0-2,0.1h-0.2v7.2h1.7v-2.4h0.4
	c0.9,0.1,1.7-0.2,2.3-0.8c0.5-0.5,0.7-1.1,0.7-1.7c0-0.6-0.3-1.3-0.8-1.7C32.4,17.4,31.6,17.2,30.9,17.2L30.9,17.2z M30.4,18.7
	c0.2,0,0.3,0,0.5,0c0.5,0,1.2,0.2,1.2,0.9s-0.8,1-1.3,1h-0.4V18.7L30.4,18.7z"/>
</svg>
