<?xml version="1.0" encoding="utf-8"?>
<!-- Generator: Adobe Illustrator 25.0.0, SVG Export Plug-In . SVG Version: 6.00 Build 0)  -->
<svg version="1.1" id="Layer_1" xmlns="http://www.w3.org/2000/svg" xmlns:xlink="http://www.w3.org/1999/xlink" x="0px" y="0px"
	 viewBox="0 0 64 64" style="enable-background:new 0 0 64 64;" xml:space="preserve">
<style type="text/css">
	.st0{fill:#FFFFFF;}
	.st1{fill:#2159AA;}
</style>
<polygon class="st0" points="15.6,56.6 15.6,8.1 41.7,8.1 50.5,16.9 50.5,56.6 "/>
<path class="st1" d="M41.5,8.6l8.5,8.5V56H16.2V8.6H41.5 M41.9,7.5H15.1v49.6h36V16.7C51.1,16.7,41.9,7.5,41.9,7.5z"/>
<polygon class="st0" points="42.5,16.1 42.5,9 49.7,16.1 "/>
<path class="st1" d="M43.1,10.4l5.1,5.1h-5.1V10.4 M41.9,7.5v9.1h9.1L41.9,7.5z"/>
<rect x="22.3" y="29.6" class="st1" width="2.4" height="2.4"/>
<rect x="22.3" y="39.2" class="st1" width="2.4" height="2.4"/>
<rect x="22.3" y="44" class="st1" width="2.4" height="2.4"/>
<rect x="22.3" y="48.8" class="st1" width="2.4" height="2.4"/>
<rect x="27.1" y="29.6" class="st1" width="2.4" height="2.4"/>
<rect x="24.7" y="32" class="st1" width="2.4" height="2.4"/>
<rect x="22.3" y="34.5" class="st1" width="2.4" height="2.4"/>
<rect x="27.1" y="34.4" class="st1" width="2.4" height="2.4"/>
<rect x="24.7" y="36.8" class="st1" width="2.4" height="2.4"/>
<rect x="27.1" y="39.2" class="st1" width="2.4" height="2.4"/>
<rect x="24.7" y="41.6" class="st1" width="2.4" height="2.4"/>
<rect x="27.1" y="44" class="st1" width="2.4" height="2.4"/>
<rect x="24.7" y="46.4" class="st1" width="2.4" height="2.4"/>
<rect x="27.1" y="48.8" class="st1" width="2.4" height="2.4"/>
<rect x="31.9" y="29.6" class="st1" width="2.4" height="2.4"/>
<rect x="29.5" y="32" class="st1" width="2.4" height="2.4"/>
<rect x="31.9" y="34.4" class="st1" width="2.4" height="2.4"/>
<rect x="29.5" y="36.8" class="st1" width="2.4" height="2.4"/>
<rect x="31.9" y="39.2" class="st1" width="2.4" height="2.4"/>
<rect x="29.5" y="41.6" class="st1" width="2.4" height="2.4"/>
<rect x="31.9" y="44" class="st1" width="2.4" height="2.4"/>
<rect x="29.5" y="46.4" class="st1" width="2.4" height="2.4"/>
<rect x="31.9" y="48.8" class="st1" width="2.4" height="2.4"/>
<rect x="36.7" y="29.6" class="st1" width="2.4" height="2.4"/>
<rect x="34.3" y="32" class="st1" width="2.4" height="2.4"/>
<rect x="36.7" y="34.4" class="st1" width="2.4" height="2.4"/>
<rect x="34.3" y="36.8" class="st1" width="2.4" height="2.4"/>
<rect x="36.7" y="39.2" class="st1" width="2.4" height="2.4"/>
<rect x="34.3" y="41.6" class="st1" width="2.4" height="2.4"/>
<rect x="36.7" y="44" class="st1" width="2.4" height="2.4"/>
<rect x="34.3" y="46.4" class="st1" width="2.4" height="2.4"/>
<rect x="36.7" y="48.8" class="st1" width="2.4" height="2.4"/>
<rect x="41.5" y="29.6" class="st1" width="2.4" height="2.4"/>
<rect x="39.1" y="32" class="st1" width="2.4" height="2.4"/>
<rect x="41.5" y="34.4" class="st1" width="2.4" height="2.4"/>
<rect x="39.1" y="36.8" class="st1" width="2.4" height="2.4"/>
<rect x="41.5" y="39.2" class="st1" width="2.4" height="2.4"/>
<rect x="39.1" y="41.6" class="st1" width="2.4" height="2.4"/>
<rect x="41.5" y="44" class="st1" width="2.4" height="2.4"/>
<rect x="39.1" y="46.4" class="st1" width="2.4" height="2.4"/>
<rect x="41.5" y="48.8" class="st1" width="2.4" height="2.4"/>
<polygon class="st1" points="38.7,25.9 12.2,25.9 12.2,25.9 12.2,14.8 38.7,14.8 "/>
<path class="st0" d="M16.6,23.9v-6.9h0.1c0.6-0.1,1.3-0.2,1.9-0.1c0.7-0.1,1.5,0.2,2.1,0.6c0.5,0.4,0.7,1,0.7,1.6
	c0,0.6-0.2,1.2-0.6,1.6c-0.6,0.5-1.4,0.8-2.2,0.8H18v2.5L16.6,23.9z M18,20.1c0.2,0,0.3,0,0.5,0c0.9,0,1.4-0.4,1.4-1.1
	c0-0.9-0.8-1-1.3-1c-0.2,0-0.4,0-0.6,0.1V20.1z"/>
<path class="st1" d="M18.6,16.9c0.7-0.1,1.4,0.1,2,0.5c0.4,0.4,0.7,1,0.7,1.6c0,0.6-0.2,1.1-0.6,1.5c-0.6,0.5-1.4,0.8-2.1,0.7
	c-0.2,0-0.4,0-0.6,0v2.6h-1.2V17C17.3,16.9,18,16.9,18.6,16.9 M18.5,20.2c0.9,0,1.5-0.5,1.5-1.3s-0.5-1.2-1.4-1.2
	c-0.2,0-0.5,0-0.7,0.1v2.3C18.1,20.2,18.3,20.2,18.5,20.2 M18.6,16.6c-0.7,0-1.3,0-2,0.1h-0.2V24h1.7v-2.5h0.4
	c0.8,0.1,1.7-0.2,2.3-0.8c0.5-0.4,0.7-1,0.7-1.7c0-0.6-0.3-1.3-0.8-1.7C20.1,16.9,19.4,16.7,18.6,16.6L18.6,16.6z M18.2,18.1h0.5
	c0.5,0,1.1,0.2,1.1,0.9s-0.8,1-1.3,1h-0.4V18.1L18.2,18.1z"/>
<path class="st0" d="M26.4,23.9l-1.8-3c-0.4-0.7-0.8-1.3-1-1.9c0,0.7,0,1.5,0,2.4v2.5h-1.4v-7h1.6l1.8,3c0.3,0.6,0.6,1.1,0.9,1.8
	c0-0.7-0.1-1.4-0.1-2.2v-2.5h1.4V24L26.4,23.9z"/>
<path class="st1" d="M27.8,17v6.8h-1.3l-1.8-3c-0.4-0.8-0.9-1.6-1.2-2.4l0,0c0,0.9,0.1,1.8,0.1,2.9v2.4h-1.2V17h1.4l1.8,2.9
	c0.4,0.7,0.8,1.5,1.2,2.3l0,0c-0.1-0.9-0.1-1.8-0.1-2.8V17H27.8 M28,16.8h-1.6v2.6c0,0.6,0,1.1,0,1.7c-0.2-0.4-0.4-0.8-0.7-1.2
	l-1.7-3l-0.1-0.1h-1.8V24h1.6v-2.7c0-0.7,0-1.3,0-1.9c0.2,0.4,0.5,0.9,0.8,1.4l1.8,3l0.1,0.1H28L28,16.8L28,16.8z"/>
<path class="st0" d="M32.5,24c-1,0-2-0.3-2.8-1c-0.7-0.7-1-1.6-1-2.6c-0.1-2,1.5-3.6,3.5-3.7c0.1,0,0.3,0,0.4,0
	c0.6,0,1.3,0.1,1.9,0.3h0.1l-0.3,1.2l-0.1,0c-0.5-0.2-1-0.3-1.5-0.3c-1.2-0.1-2.2,0.8-2.4,1.9c0,0.1,0,0.3,0,0.4
	c-0.1,1.2,0.7,2.2,1.9,2.3c0.1,0,0.2,0,0.4,0c0.3,0,0.6,0,0.8-0.1v-1.5h-1.2v-1.2h2.6v3.6h-0.1C34,23.8,33.2,24,32.5,24z"/>
<path class="st1" d="M32.6,16.9c0.6,0,1.2,0.1,1.8,0.3l-0.3,1c-0.5-0.2-1-0.3-1.5-0.3c-1.3-0.1-2.4,0.8-2.5,2.1c0,0.1,0,0.3,0,0.4
	c-0.1,1.2,0.8,2.3,2,2.5c0.1,0,0.2,0,0.3,0c0.3,0,0.6,0,0.9-0.1V21h-1.2v-1h2.4v3.5c-0.7,0.2-1.5,0.4-2.2,0.4
	c-1,0.1-1.9-0.3-2.7-0.9c-0.7-0.7-1-1.6-1-2.5c-0.1-1.9,1.5-3.5,3.4-3.6C32.3,16.9,32.4,16.9,32.6,16.9 M32.6,16.7
	c-2-0.2-3.8,1.3-4,3.4c0,0.1,0,0.3,0,0.4c0,1,0.3,2,1,2.7c0.8,0.7,1.8,1.1,2.8,1c0.8,0,1.5-0.1,2.3-0.4l0.2-0.1v-3.9H32v1.4h1.2v1.3
	c-0.2,0.1-0.5,0.1-0.7,0.1c-1.1,0.1-2.1-0.7-2.1-1.8c0-0.1,0-0.3,0-0.4c-0.1-1.1,0.7-2.1,1.9-2.2c0.1,0,0.3,0,0.4,0
	c0.5,0,1,0.1,1.5,0.3l0.2,0.1l0.1-0.3l0.3-1l0-0.2L34.5,17C33.9,16.8,33.3,16.6,32.6,16.7L32.6,16.7z"/>
</svg>
