<?xml version="1.0" encoding="utf-8"?>
<!-- Generator: Adobe Illustrator 25.0.0, SVG Export Plug-In . SVG Version: 6.00 Build 0)  -->
<svg version="1.1" id="Layer_1" xmlns="http://www.w3.org/2000/svg" xmlns:xlink="http://www.w3.org/1999/xlink" x="0px" y="0px"
	 viewBox="0 0 64 64" style="enable-background:new 0 0 64 64;" xml:space="preserve">
<style type="text/css">
	.st0{fill:#FFFFFF;}
	.st1{fill:#EA6B03;}
</style>
<polygon class="st0" points="15.3,57 15.3,8.5 41.4,8.5 50.2,17.3 50.2,57 "/>
<path class="st1" d="M41.2,9l8.5,8.5v38.9H15.8V9H41.2 M41.6,7.9H14.7v49.6h36V17.1L41.6,7.9L41.6,7.9z"/>
<polygon class="st0" points="42.2,16.5 42.2,9.4 49.3,16.5 "/>
<path class="st1" d="M42.8,10.8l5.1,5.1h-5.1V10.8 M41.6,7.9v9.1h9.1L41.6,7.9z"/>
<path class="st1" d="M25.3,34.7c-2.9,0-5.3,2.3-5.3,5.2c0,2.9,2.3,5.3,5.2,5.3s5.3-2.3,5.3-5.2c0,0,0,0,0,0h-5.2V34.7z"/>
<path class="st1" d="M26,34v5.2h5.2C31.2,36.4,28.9,34,26,34z"/>
<rect x="33.3" y="34.4" class="st1" width="12.1" height="1.5"/>
<rect x="33.3" y="37.3" class="st1" width="12.1" height="1.5"/>
<rect x="33.3" y="40.3" class="st1" width="12.1" height="1.5"/>
<rect x="33.3" y="43.3" class="st1" width="12.1" height="1.5"/>
<rect x="11.8" y="15.2" class="st1" width="26.5" height="11.1"/>
<path class="st0" d="M17.3,24.3v-7h0.1c0.6-0.1,1.3-0.2,1.9-0.1c0.7-0.1,1.5,0.2,2.1,0.6c0.5,0.4,0.7,1,0.7,1.6
	c0,0.6-0.2,1.2-0.6,1.6c-0.6,0.5-1.4,0.8-2.2,0.8c-0.2,0-0.3,0-0.5,0v2.5L17.3,24.3z M18.8,20.6c0.2,0,0.3,0,0.5,0
	c0.9,0,1.4-0.4,1.4-1.1c0-0.9-0.8-1-1.3-1c-0.2,0-0.4,0-0.6,0V20.6z"/>
<path class="st1" d="M19.4,17.4c0.7,0,1.4,0.1,2,0.6c0.4,0.4,0.7,0.9,0.6,1.5c0,0.6-0.2,1.2-0.6,1.6c-0.6,0.5-1.4,0.8-2.1,0.7
	c-0.2,0-0.4,0-0.6,0v2.6h-1.2v-6.8C18.1,17.4,18.7,17.3,19.4,17.4 M19.3,20.7c0.9,0,1.5-0.5,1.5-1.2s-0.5-1.2-1.4-1.2
	c-0.2,0-0.5,0-0.7,0.1v2.3C18.9,20.7,19.1,20.7,19.3,20.7 M19.4,17.1c-0.7,0-1.3,0-2,0.1h-0.2v7.2h1.7v-2.4h0.4
	c0.8,0.1,1.7-0.2,2.3-0.8c0.4-0.5,0.7-1.1,0.7-1.7c0-0.7-0.3-1.3-0.8-1.7C20.8,17.3,20.1,17,19.4,17.1L19.4,17.1z M18.9,18.5h0.5
	c0.5,0,1.1,0.2,1.1,0.9s-0.8,1-1.2,1h-0.4L18.9,18.5L18.9,18.5z"/>
<path class="st0" d="M23,24.3v-7h0.1c0.6-0.1,1.3-0.2,1.9-0.2c0.7-0.1,1.5,0.2,2.1,0.6c0.5,0.4,0.7,1,0.7,1.6c0,0.6-0.2,1.2-0.6,1.6
	c-0.6,0.5-1.4,0.8-2.2,0.8c-0.2,0-0.3,0-0.5,0v2.5L23,24.3z M24.5,20.6c0.2,0,0.3,0,0.5,0c0.9,0,1.4-0.4,1.4-1.1c0-0.9-0.8-1-1.3-1
	c-0.2,0-0.4,0-0.6,0V20.6z"/>
<path class="st1" d="M25,17.4c0.7,0,1.4,0.1,2,0.6c0.4,0.4,0.7,0.9,0.7,1.5c0,0.6-0.2,1.2-0.6,1.6c-0.6,0.5-1.4,0.8-2.1,0.7
	c-0.2,0-0.4,0-0.6,0v2.6h-1.2v-6.8C23.7,17.4,24.4,17.3,25,17.4 M24.9,20.7c0.9,0,1.5-0.5,1.5-1.2s-0.5-1.2-1.4-1.2
	c-0.2,0-0.5,0-0.7,0.1v2.3C24.5,20.7,24.7,20.7,24.9,20.7 M25,17.1c-0.7,0-1.3,0-2,0.1h-0.2v7.2h1.7v-2.5h0.4
	c0.9,0.1,1.7-0.2,2.3-0.8c0.4-0.5,0.7-1.1,0.6-1.7c0-0.6-0.3-1.3-0.8-1.7C26.5,17.3,25.8,17.1,25,17.1z M24.6,18.6H25
	c0.5,0,1.1,0.2,1.1,0.9s-0.8,1-1.2,1h-0.4L24.6,18.6L24.6,18.6z"/>
<polygon class="st0" points="29.9,24.3 29.9,18.6 28,18.6 28,17.3 33.4,17.3 33.4,18.6 31.4,18.6 31.4,24.3 "/>
<path class="st1" d="M33.3,17.4v1h-2v5.8h-1.2v-5.8h-1.9v-1.1H33.3 M33.5,17.2h-5.6v1.5h1.9v5.8h1.7v-5.8h2L33.5,17.2L33.5,17.2z"/>
</svg>
