<?xml version="1.0" encoding="utf-8"?>
<!-- Generator: Adobe Illustrator 25.0.0, SVG Export Plug-In . SVG Version: 6.00 Build 0)  -->
<svg version="1.1" id="Layer_1" xmlns="http://www.w3.org/2000/svg" xmlns:xlink="http://www.w3.org/1999/xlink" x="0px" y="0px"
	 viewBox="0 0 64 64" style="enable-background:new 0 0 64 64;" xml:space="preserve">
<style type="text/css">
	.st0{fill:#FFFFFF;}
	.st1{fill:#2159AA;}
</style>
<g>
	<g>
		<g>
			<polygon class="st0" points="14.8,56.6 14.8,8.1 40.9,8.1 49.7,16.9 49.7,56.6 			"/>
			<path class="st1" d="M40.6,8.7l8.5,8.5v38.9H15.3V8.7H40.6 M41.1,7.6H14.2v49.6h36V16.7L41.1,7.6L41.1,7.6z"/>
		</g>
		<g>
			<polygon class="st0" points="41.7,16.1 41.7,9 48.8,16.1 			"/>
			<path class="st1" d="M42.3,10.4l5.1,5.1h-5.1V10.4 M41.1,7.6v9.1h9.1L41.1,7.6L41.1,7.6z"/>
		</g>
	</g>
	<g>
		<polygon class="st1" points="37.9,26 11.3,26 11.3,26 11.3,14.8 37.9,14.8 		"/>
		<g>
			<g>
				<path class="st0" d="M19.6,23.9V17h0.1c0.5-0.1,1.2-0.1,1.9-0.1c0.9,0,1.6,0.2,2.1,0.6s0.7,1,0.7,1.6c0,0.7-0.2,1.2-0.6,1.6
					c-0.5,0.5-1.3,0.8-2.2,0.8c-0.2,0-0.4,0-0.5,0v2.6h-1.5V23.9z M21.1,20.2c0.1,0,0.3,0,0.5,0c0.9,0,1.4-0.4,1.4-1.1
					c0-0.9-0.8-1-1.3-1c-0.3,0-0.5,0-0.6,0V20.2z"/>
				<path class="st1" d="M21.6,17c0.9,0,1.6,0.2,2,0.6c0.4,0.3,0.7,0.9,0.7,1.5s-0.2,1.2-0.6,1.5c-0.5,0.5-1.3,0.7-2.2,0.7
					c-0.2,0-0.4,0-0.6,0v2.6h-1.2v-6.7C20.2,17,20.8,17,21.6,17 M21.6,20.3c0.9,0,1.5-0.5,1.5-1.3s-0.5-1.2-1.4-1.2
					c-0.3,0-0.6,0-0.7,0.1v2.3C21.1,20.3,21.3,20.3,21.6,20.3 M21.6,16.7c-0.8,0-1.4,0-1.9,0.1h-0.2V17v6.7v0.2h0.2h1.2h0.2v-0.2
					v-2.3c0.1,0,0.2,0,0.4,0c1,0,1.8-0.3,2.3-0.8c0.4-0.4,0.7-1,0.7-1.7s-0.3-1.3-0.8-1.7C23.3,16.9,22.6,16.7,21.6,16.7L21.6,16.7z
					 M21.2,18.2c0.1,0,0.3,0,0.5,0c0.5,0,1.2,0.2,1.2,0.9c0,0.9-0.8,1-1.3,1c-0.1,0-0.3,0-0.4,0L21.2,18.2L21.2,18.2z"/>
			</g>
			<g>
				<path class="st0" d="M26.9,24c-0.8,0-1.5-0.2-1.9-0.4h-0.1l0.3-1.3l0.1,0.1c0.5,0.3,1.1,0.4,1.6,0.4c0.7,0,1.1-0.3,1.1-0.8
					s-0.3-0.7-1.1-1c-1.3-0.5-1.9-1.1-1.9-2.1c0-1.2,1-2.1,2.5-2.1c0.8,0,1.4,0.2,1.7,0.4h0.1L29,18.4l-0.1-0.1
					c-0.2-0.1-0.7-0.3-1.3-0.3c-0.7,0-1,0.4-1,0.7c0,0.4,0.3,0.6,1.2,1c1.3,0.5,1.8,1.1,1.8,2.1C29.6,22.9,28.9,24,26.9,24z"/>
				<path class="st1" d="M27.6,16.9c0.7,0,1.3,0.2,1.6,0.3l-0.3,1c-0.2-0.1-0.7-0.3-1.4-0.3c-0.8,0-1.1,0.4-1.1,0.8
					c0,0.5,0.4,0.8,1.3,1.1c1.2,0.4,1.8,1,1.8,2c0,1.1-0.8,2-2.6,2c-0.7,0-1.5-0.2-1.8-0.4l0.3-1c0.4,0.2,1,0.4,1.6,0.4
					c0.8,0,1.2-0.4,1.2-0.9s-0.3-0.8-1.2-1.1c-1.1-0.4-1.8-1-1.8-2C25.2,17.7,26.1,16.9,27.6,16.9 M27.6,16.7
					c-1.6,0-2.6,0.9-2.6,2.2c0,1,0.7,1.7,2,2.2c0.9,0.3,1.1,0.6,1.1,0.9c0,0.6-0.7,0.7-1,0.7c-0.5,0-1.1-0.2-1.5-0.4l-0.3-0.1
					l-0.1,0.3l-0.3,1v0.2l0.1,0.1c0.5,0.3,1.3,0.5,2,0.5c2.1,0,2.8-1.2,2.8-2.3c0-1.1-0.6-1.7-1.9-2.2c-0.9-0.4-1.2-0.5-1.2-0.9
					c0-0.3,0.3-0.6,0.9-0.6s1.1,0.2,1.2,0.3l0.2,0.1l0.1-0.3l0.3-1l0.1-0.2L29.3,17C29,16.9,28.4,16.7,27.6,16.7L27.6,16.7z"/>
			</g>
		</g>
	</g>
	<g>
		<path class="st1" d="M38,35.9c0.6-1.3,0.9-3.2,0.8-5.6l-0.5,0.3c0,0-0.3,0.3-0.9,0.7c-0.1,0.1-0.3,0.2-0.5,0.4
			c-0.2,0.1-0.3,0.3-0.5,0.5s-0.4,0.3-0.6,0.5c-0.2,0.2-0.4,0.4-0.6,0.6c-0.2,0.2-0.4,0.5-0.7,0.7c-0.2,0.3-0.4,0.5-0.7,0.8
			c-0.1,0.1-0.2,0.3-0.3,0.4c-0.1,0.1-0.2,0.3-0.3,0.4c-0.2,0.3-0.4,0.6-0.7,0.9c-0.4,0.6-0.9,1.3-1.2,2c-0.2,0.4-0.4,0.7-0.6,1.1
			c-0.2,0.4-0.4,0.7-0.5,1.1c-0.1,0.4-0.3,0.8-0.4,1.1c-0.1,0.4-0.3,0.8-0.4,1.1c-0.1,0.2-0.1,0.4-0.2,0.6c-0.1,0.2-0.1,0.4-0.2,0.6
			c-0.1,0.4-0.2,0.8-0.3,1.1c-0.2,0.7-0.3,1.5-0.4,2.2c0,0.3-0.1,0.5-0.1,0.8c0.6,0.2,1.3,0.3,2.2-0.1l-1.2-0.3
			c0.7,0,1.7-0.3,2.7-0.9c-1.2,0.2-1.3,0.3-1.9,0c1.7-0.2,2.2-0.9,4.9-4.1c-0.8,0.3-1,0.4-1.6,0.3c2.6-1.1,4.2-4.5,5-6.9
			c-1.3,0.8-3.8,1.7-6,1.8C35,37.4,36.8,36.8,38,35.9z"/>
		<path class="st1" d="M28.7,43.2c0.1-0.2,0.1-0.4,0.2-0.6c0.1-0.4,0.2-0.8,0.4-1.1c0.2-0.4,0.3-0.8,0.5-1.1
			c0.2-0.4,0.3-0.7,0.5-1.1c0.2-0.4,0.4-0.7,0.6-1.1c0.2-0.4,0.5-0.8,0.7-1.2c0.2-0.2,0.3-0.5,0.5-0.7c0.2-0.3,0.5-0.6,0.7-0.9
			c0.1-0.1,0.2-0.3,0.3-0.4c0.1-0.1,0.2-0.3,0.4-0.4c0.2-0.3,0.5-0.5,0.7-0.8c0.2-0.2,0.5-0.4,0.7-0.7c0.2-0.2,0.4-0.4,0.7-0.6
			c0.2-0.2,0.4-0.3,0.6-0.5c0.2-0.2,0.4-0.3,0.5-0.4c0.2-0.1,0.3-0.2,0.5-0.3c0.6-0.4,0.9-0.7,0.9-0.7l0.5-0.3l0,0
			c-1.5-0.3-4.1,0.3-4.3,0.3s-0.3,1.3-0.2,2.3c-0.2-1-0.5-1.2-0.2-2c-1.9,1-3.9,2.6-4.3,3.5c-0.4,0.8-0.4,2.5,0,4
			c-0.4-1.2-0.7-2.4-0.6-3.3c-2.2,3.5-3.5,4.6-1.9,8.4c-0.7-1.7-0.8-0.9-1.1-2.2c-0.7,1.9-1.8,3.3,0.5,5.3c-0.7-0.1-0.8,0.2-1.3-0.2
			c0.3,0.5,0.6,0.7,1,0.8c-0.3,0.2-0.5,0.3-0.7,0.2c0.4,0.7,1.1,0.7,1.7,0.9v-0.1l0,0c0,0.3-0.1,0.6-0.1,0.8
			c-0.1,0.6-0.1,1.2-0.2,1.7c0,0.3,0,0.5-0.1,0.7c0,0.2,0,0.4,0,0.6c0,0.7-0.1,1.1-0.1,1.1l0,0c0,0.2,0.1,0.3,0.3,0.3
			c0.2,0,0.3-0.1,0.3-0.3c0,0,0-0.4,0-1.1c0-0.2,0-0.4,0-0.6c0-0.2,0-0.4,0.1-0.7c0-0.5,0.1-1.1,0.2-1.7c0-0.3,0.1-0.6,0.1-0.9
			c0-0.3,0.1-0.7,0.2-1c0.1-0.7,0.3-1.4,0.4-2.2c0.1-0.4,0.2-0.7,0.3-1.1C28.6,43.6,28.7,43.4,28.7,43.2z"/>
	</g>
</g>
</svg>
