<?xml version="1.0" encoding="utf-8"?>
<!-- Generator: Adobe Illustrator 25.0.0, SVG Export Plug-In . SVG Version: 6.00 Build 0)  -->
<svg version="1.1" id="Layer_1" xmlns="http://www.w3.org/2000/svg" xmlns:xlink="http://www.w3.org/1999/xlink" x="0px" y="0px"
	 viewBox="0 0 64 64" style="enable-background:new 0 0 64 64;" xml:space="preserve">
<style type="text/css">
	.st0{fill:#FFFFFF;}
	.st1{fill:#2159AA;}
</style>
<polygon class="st0" points="15.3,56.6 15.3,8.1 41.4,8.1 50.2,17 50.2,56.6 "/>
<path class="st1" d="M41.2,8.7l8.5,8.5v38.9H15.8V8.7H41.2 M41.6,7.6H14.7v49.6h36V16.7L41.6,7.6z"/>
<polygon class="st0" points="42.2,16.1 42.2,9 49.3,16.1 "/>
<path class="st1" d="M42.8,10.4l5.1,5.1h-5.1V10.4 M41.6,7.6v9.1h9.1L41.6,7.6z"/>
<path class="st1" d="M39.5,35.9c0.6-1.8,0.9-3.7,0.8-5.6l-0.5,0.3l-0.9,0.7l-0.5,0.4l-0.5,0.5l-0.6,0.5c-0.2,0.2-0.4,0.4-0.6,0.6
	L36.1,34l-0.7,0.8l-0.3,0.4l-0.3,0.4c-0.2,0.3-0.4,0.6-0.7,0.9c-0.4,0.7-0.8,1.3-1.2,2c-0.2,0.3-0.4,0.7-0.5,1.1s-0.4,0.7-0.5,1.1
	l-0.4,1.1c-0.1,0.4-0.3,0.8-0.4,1.2l-0.2,0.6l-0.2,0.6c-0.1,0.4-0.2,0.8-0.3,1.1c-0.1,0.8-0.3,1.5-0.4,2.2c0,0.3-0.1,0.5-0.1,0.8
	c0.7,0.3,1.5,0.2,2.2-0.1l-1.2-0.3c1-0.1,1.9-0.4,2.8-0.9c-1.2,0.2-1.3,0.3-1.9,0c1.7-0.2,2.2-0.9,4.9-4.1c-0.5,0.3-1,0.4-1.6,0.3
	c2.6-1.1,4.2-4.5,5-6.8c-1.8,1-3.9,1.6-6,1.8C36.5,37.4,38.3,36.8,39.5,35.9z"/>
<path class="st1" d="M30.2,43.2l0.2-0.6c0.1-0.4,0.2-0.8,0.4-1.1l0.5-1.1c0.2-0.4,0.4-0.7,0.5-1.1c0.2-0.4,0.4-0.7,0.6-1.1
	c0.2-0.4,0.5-0.8,0.7-1.2c0.2-0.2,0.3-0.5,0.5-0.7s0.5-0.6,0.7-0.9l0.3-0.4l0.4-0.4l0.7-0.8l0.7-0.7c0.2-0.2,0.4-0.4,0.7-0.6
	l0.6-0.5l0.5-0.4l0.5-0.4l0.9-0.7l0.5-0.3l0,0c-1.4-0.1-2.9,0-4.3,0.3c-0.2,0-0.3,1.3-0.2,2.3c-0.2-1-0.5-1.2-0.2-2
	c-1.9,1-3.9,2.6-4.3,3.5c-0.4,1.3-0.4,2.7,0,4c-0.4-1.1-0.7-2.2-0.6-3.3c-2.2,3.5-3.5,4.6-1.9,8.4c-0.7-1.7-0.9-0.9-1.1-2.2
	c-0.8,1.9-1.8,3.3,0.5,5.3c-0.7-0.1-0.8,0.2-1.3-0.2c0.3,0.5,0.6,0.8,1,0.8c-0.2,0.2-0.5,0.3-0.7,0.2c0.4,0.7,1.1,0.7,1.7,1v-0.2
	l0,0L28.5,49c-0.1,0.6-0.1,1.2-0.2,1.7l-0.1,0.7V52l-0.1,1.1l0,0c0,0.2,0.1,0.3,0.3,0.3c0.2,0,0.3-0.1,0.3-0.3c0,0,0-0.4,0-1.1v-0.6
	l0.1-0.7c0-0.5,0.1-1.1,0.2-1.7c0-0.3,0.1-0.6,0.1-1s0.1-0.7,0.2-1c0.1-0.7,0.3-1.4,0.4-2.2c0.1-0.4,0.2-0.8,0.3-1.1L30.2,43.2z"/>
<polygon class="st1" points="38.4,26 11.8,26 11.8,26 11.8,14.9 38.4,14.9 "/>
<path class="st0" d="M17.2,23.9V17h0.1c0.6-0.1,1.3-0.2,1.9-0.1c0.7-0.1,1.5,0.1,2.1,0.6c0.5,0.4,0.7,1,0.7,1.6
	c0,0.6-0.2,1.2-0.6,1.6c-0.6,0.5-1.4,0.8-2.2,0.8c-0.2,0-0.3,0-0.5,0v2.5L17.2,23.9z M18.6,20.2c0.2,0,0.3,0,0.5,0
	c0.9,0,1.4-0.4,1.4-1.1c0-0.9-0.8-1-1.3-1c-0.2,0-0.4,0-0.6,0L18.6,20.2z"/>
<path class="st1" d="M19.2,17c0.7-0.1,1.4,0.1,2,0.6c0.4,0.4,0.7,0.9,0.7,1.5c0,0.6-0.2,1.1-0.6,1.5c-0.6,0.5-1.4,0.8-2.2,0.7
	c-0.2,0-0.4,0-0.6,0v2.6h-1.2v-6.8C17.9,17,18.6,17,19.2,17 M19.1,20.3c0.9,0,1.5-0.5,1.5-1.3s-0.5-1.2-1.4-1.2
	c-0.2,0-0.5,0-0.7,0.1v2.3C18.7,20.3,18.9,20.3,19.1,20.3 M19.2,16.7c-0.6,0-1.3,0-1.9,0.1h-0.2V24h1.7v-2.5h0.4
	c0.8,0.1,1.7-0.2,2.3-0.8c0.5-0.5,0.7-1.1,0.6-1.7c0-0.6-0.3-1.3-0.8-1.7C20.7,16.9,20,16.7,19.2,16.7L19.2,16.7z M18.8,18.1
	c0.2,0,0.3,0,0.5,0c0.5,0,1.2,0.2,1.2,0.9s-0.8,1-1.3,1c-0.1,0-0.3,0-0.4,0V18.1L18.8,18.1z"/>
<path class="st0" d="M24.5,24c-0.7,0-1.3-0.1-1.9-0.4h-0.1l0.3-1.3l0.1,0.1c0.5,0.3,1,0.4,1.6,0.4c0.7,0,1.1-0.3,1.1-0.8
	s-0.3-0.7-1.1-1c-1.3-0.5-1.9-1.1-1.9-2.1c0-1.2,1-2.1,2.5-2.1c0.6,0,1.2,0.1,1.7,0.4l0.1,0l-0.4,1.2l-0.1-0.1
	c-0.4-0.2-0.8-0.3-1.3-0.3c-0.7,0-1,0.4-1,0.7s0.3,0.6,1.2,1c1.3,0.5,1.8,1.1,1.8,2.1S26.5,24,24.5,24z"/>
<path class="st1" d="M25.2,16.9c0.6,0,1.1,0.1,1.6,0.3l-0.3,1c-0.4-0.2-0.9-0.3-1.4-0.3c-0.8,0-1.1,0.4-1.1,0.8s0.4,0.8,1.3,1.1
	c1.2,0.5,1.8,1,1.8,2s-0.8,2-2.6,2c-0.6,0-1.3-0.1-1.8-0.4l0.3-1c0.5,0.3,1.1,0.4,1.6,0.4c0.8,0,1.2-0.4,1.2-0.9s-0.4-0.8-1.2-1.1
	c-1.1-0.4-1.8-1-1.8-2S23.7,16.8,25.2,16.9 M25.2,16.6c-1.5,0-2.6,0.9-2.6,2.2c0,1,0.6,1.7,2,2.2c0.9,0.3,1.1,0.6,1.1,0.9
	c0,0.6-0.7,0.7-1,0.7c-0.5,0-1.1-0.1-1.6-0.3l-0.3-0.1l-0.1,0.3l-0.3,1l0,0.2l0.1,0.1c0.6,0.3,1.3,0.5,2,0.5c2.1,0,2.8-1.2,2.8-2.3
	s-0.6-1.8-1.9-2.2c-0.9-0.4-1.1-0.5-1.1-0.9s0.3-0.6,0.9-0.6c0.4,0,0.9,0.1,1.2,0.3l0.2,0.1l0.1-0.3l0.3-1l0-0.2L26.9,17
	C26.4,16.7,25.8,16.6,25.2,16.6L25.2,16.6z"/>
<path class="st0" d="M29.9,24c-0.6,0-1.1,0-1.7-0.1h-0.1V17h0.1c0.7-0.1,1.3-0.1,2-0.1c1-0.1,2,0.2,2.9,0.8c0.8,0.6,1.2,1.6,1.1,2.6
	c0,1-0.4,2.1-1.1,2.8C32.1,23.7,31,24.1,29.9,24z M29.6,22.8h0.6c0.7,0.1,1.4-0.2,1.9-0.6c0.5-0.5,0.7-1.2,0.6-1.9
	c0-0.6-0.2-1.2-0.6-1.6c-0.5-0.4-1.1-0.6-1.7-0.6c-0.2,0-0.5,0-0.7,0L29.6,22.8z"/>
<path class="st1" d="M30.2,17c1-0.1,2,0.2,2.8,0.8c0.7,0.6,1.1,1.5,1,2.5c0.1,1-0.3,2-1,2.7c-0.9,0.7-2,1-3.1,0.9
	c-0.6,0-1.1,0-1.7-0.1v-6.7C28.9,17,29.6,17,30.2,17 M30.2,22.9c1.3,0.1,2.4-0.9,2.5-2.2c0-0.1,0-0.3,0-0.4c0.1-1.2-0.7-2.2-1.9-2.4
	c-0.2,0-0.3,0-0.5,0c-0.3,0-0.6,0-0.9,0.1v4.9C29.7,22.9,29.9,22.9,30.2,22.9L30.2,22.9 M30.1,16.7c-0.7,0-1.3,0-2,0.1h-0.2V24h0.2
	c0.6,0.1,1.1,0.1,1.7,0.1c1.2,0.1,2.3-0.3,3.2-1c0.8-0.8,1.2-1.8,1.1-2.9c0.1-1-0.4-2-1.2-2.7C32.2,16.9,31.2,16.6,30.1,16.7
	L30.1,16.7z M29.6,18.2c0.1,0,0.3,0,0.6,0c0.6,0,1.2,0.2,1.6,0.6c0.4,0.4,0.6,1,0.5,1.6c0.2,1.2-0.7,2.2-1.8,2.4c-0.2,0-0.3,0-0.5,0
	h-0.5V18.2L29.6,18.2z"/>
</svg>
