<?xml version="1.0" encoding="utf-8"?>
<!-- Generator: Adobe Illustrator 25.0.0, SVG Export Plug-In . SVG Version: 6.00 Build 0)  -->
<svg version="1.1" id="Layer_1" xmlns="http://www.w3.org/2000/svg" xmlns:xlink="http://www.w3.org/1999/xlink" x="0px" y="0px"
	 viewBox="0 0 64 64" style="enable-background:new 0 0 64 64;" xml:space="preserve">
<style type="text/css">
	.st0{fill:#FFFFFF;}
	.st1{fill:#D3132F;}
</style>
<polygon class="st0" points="15.6,56.8 15.6,8.3 41.7,8.3 50.5,17.1 50.5,56.8 "/>
<path class="st1" d="M41.5,8.8l8.5,8.5v38.9H16.2V8.8H41.5 M41.9,7.7H15.1v49.6h36V16.9C51.1,16.9,41.9,7.7,41.9,7.7z"/>
<polygon class="st0" points="42.5,16.3 42.5,9.1 49.7,16.3 "/>
<path class="st1" d="M43.1,10.6l5.1,5.1h-5.1V10.6 M41.9,7.7v9.1h9.1L41.9,7.7z"/>
<rect x="26.9" y="29.9" class="st1" width="12.3" height="2"/>
<rect x="21.1" y="34.7" class="st1" width="10.3" height="2"/>
<rect x="21.1" y="38.5" class="st1" width="10.3" height="2"/>
<rect x="21.1" y="42.3" class="st1" width="10.3" height="2"/>
<rect x="21.1" y="46.1" class="st1" width="10.3" height="2"/>
<rect x="21.1" y="49.9" class="st1" width="10.3" height="2"/>
<rect x="34.8" y="34.7" class="st1" width="10.3" height="2"/>
<rect x="34.8" y="38.5" class="st1" width="10.3" height="2"/>
<rect x="34.8" y="42.3" class="st1" width="10.3" height="2"/>
<rect x="34.8" y="46.1" class="st1" width="10.3" height="2"/>
<rect x="34.8" y="49.9" class="st1" width="10.3" height="2"/>
<polygon class="st1" points="38.7,26.1 12.2,26.1 12.2,26.1 12.2,15 38.7,15 "/>
<path class="st0" d="M16.8,24v-6.9h0.1c0.6-0.1,1.3-0.1,1.9-0.1c0.7-0.1,1.5,0.1,2.1,0.6c0.5,0.4,0.7,1,0.7,1.6
	c0,0.6-0.2,1.2-0.6,1.6c-0.6,0.5-1.4,0.8-2.2,0.8h-0.5v2.5L16.8,24z M18.2,20.3c0.2,0,0.3,0,0.5,0c0.9,0,1.4-0.4,1.4-1.1
	c0-0.9-0.8-1-1.3-1c-0.2,0-0.4,0-0.6,0L18.2,20.3z"/>
<path class="st1" d="M18.8,17.1c0.7-0.1,1.4,0.1,2,0.6c0.4,0.4,0.7,0.9,0.7,1.5c0,0.6-0.2,1.1-0.6,1.5c-0.6,0.5-1.4,0.8-2.2,0.7
	c-0.2,0-0.4,0-0.6,0V24h-1.2v-6.8C17.5,17.1,18.2,17.1,18.8,17.1 M18.7,20.4c0.9,0,1.5-0.5,1.5-1.3S19.7,18,18.8,18
	c-0.2,0-0.5,0-0.7,0.1v2.3C18.3,20.4,18.5,20.4,18.7,20.4 M18.8,16.8c-0.6,0-1.3,0-1.9,0.1h-0.2v7.2h1.7v-2.5h0.4
	c0.9,0.1,1.7-0.2,2.3-0.8c0.5-0.5,0.7-1.1,0.7-1.7c0-0.6-0.2-1.3-0.7-1.7C20.4,17,19.6,16.8,18.8,16.8L18.8,16.8z M18.4,18.3
	c0.2,0,0.3,0,0.5,0c0.5,0,1.1,0.2,1.1,0.9s-0.8,1-1.3,1h-0.4L18.4,18.3L18.4,18.3z"/>
<path class="st0" d="M25.1,24.2c-1.2,0-2.7-0.5-2.7-3.1v-4h1.5v4.1c0,1.2,0.5,1.8,1.3,1.8s1.3-0.6,1.3-1.8V17H28v4
	C28,23,27,24.2,25.1,24.2z"/>
<path class="st1" d="M27.9,17.1V21c0,2.1-1.1,3-2.7,3s-2.6-0.9-2.6-3v-3.9h1.2v4c0,1.3,0.5,2,1.4,2s1.4-0.6,1.4-2v-4L27.9,17.1
	 M28.1,16.9h-1.7v4.2c0,1.7-0.9,1.7-1.2,1.7c-1,0-1.1-0.9-1.1-1.7v-4.2h-1.7V21c0,2.7,1.5,3.3,2.8,3.3c1.9,0,3-1.2,3-3.3L28.1,16.9
	L28.1,16.9z"/>
<path class="st0" d="M30.8,24.1c-0.5,0-1,0-1.5-0.1h-0.1v-6.9h0.1c0.6-0.1,1.2-0.1,1.8-0.1c0.7-0.1,1.4,0.1,2,0.5
	c0.5,0.3,0.8,0.8,0.8,1.4c0,0.6-0.4,1.2-0.9,1.5c0.7,0.3,1.2,1,1.2,1.7c0,0.6-0.2,1.1-0.7,1.5C32.6,24,31.7,24.2,30.8,24.1z
	 M30.6,22.9h0.5c0.5,0,1.4-0.1,1.4-1s-0.9-1-1.4-1h-0.5L30.6,22.9z M31.1,19.8c0.8,0,1.2-0.3,1.2-0.9s-0.4-0.8-1.1-0.8
	c-0.2,0-0.4,0-0.6,0v1.6L31.1,19.8z"/>
<path class="st1" d="M31.1,17.1c0.7-0.1,1.4,0.1,2,0.4c0.5,0.3,0.7,0.8,0.7,1.3c0,0.7-0.5,1.3-1.1,1.5l0,0c0.8,0.2,1.4,0.9,1.4,1.8
	c0,0.5-0.2,1.1-0.7,1.4c-0.7,0.5-1.6,0.7-2.5,0.6c-0.5,0-1,0-1.5-0.1v-6.8C29.9,17.1,30.5,17.1,31.1,17.1 M30.5,19.9h0.6
	c0.9,0,1.4-0.4,1.4-1S32,18,31.2,18c-0.2,0-0.5,0-0.7,0L30.5,19.9 M31.2,23.1c0.8,0,1.5-0.3,1.5-1.1s-0.7-1.1-1.6-1.1h-0.6V23
	C30.7,23,31,23,31.2,23.1 M31.1,16.8c-0.6,0-1.2,0-1.9,0.1L29,17v7.1h0.2c0.5,0.1,1,0.1,1.6,0.1c1,0.1,1.9-0.2,2.7-0.7
	c0.5-0.4,0.8-0.9,0.8-1.5c0-0.7-0.4-1.4-1-1.7c0.5-0.3,0.8-0.9,0.8-1.5c0-0.6-0.3-1.2-0.8-1.5c-0.6-0.4-1.4-0.5-2.1-0.5L31.1,16.8z
	 M30.8,18.2h0.5c1,0,1,0.5,1,0.7c0,0.5-0.4,0.7-1.1,0.7h-0.4L30.8,18.2L30.8,18.2z M30.8,21h0.4c0.5,0,1.3,0.1,1.3,0.9
	s-0.7,0.9-1.3,0.9h-0.4L30.8,21L30.8,21z"/>
</svg>
