<?xml version="1.0" encoding="utf-8"?>
<!-- Generator: Adobe Illustrator 25.0.0, SVG Export Plug-In . SVG Version: 6.00 Build 0)  -->
<svg version="1.1" id="Layer_1" xmlns="http://www.w3.org/2000/svg" xmlns:xlink="http://www.w3.org/1999/xlink" x="0px" y="0px"
	 viewBox="0 0 64 64" style="enable-background:new 0 0 64 64;" xml:space="preserve">
<style type="text/css">
	.st0{fill:#FFFFFF;}
	.st1{fill:#51448C;}
</style>
<polygon class="st0" points="14.9,57 14.9,8.5 41,8.5 49.8,17.3 49.8,57 "/>
<path class="st1" d="M40.8,9l8.5,8.5v38.9H15.4V9H40.8 M41.2,7.9H14.4v49.6h36V17.1L41.2,7.9L41.2,7.9z"/>
<polygon class="st0" points="41.8,16.5 41.8,9.4 48.9,16.5 "/>
<path class="st1" d="M42.4,10.8l5.1,5.1h-5.1V10.8 M41.2,7.9v9.1h9.1L41.2,7.9z"/>
<path class="st1" d="M44.7,49.8l-0.4-1.3c-0.1-0.3-0.2-0.6-0.2-0.9L44,46.3v-0.1c-0.1-0.4-0.4-0.7-0.9-0.7H43v-0.8l1.5,0.1v-1.2
	l-1.2,0.1v-0.9l1.2,0v-1.2l-1.2,0.1v-0.9l1.2,0.1v-1.2l-1.2,0.1v-0.9l1.2,0.1v-1.2l-1.2,0.1v-0.9l1.2,0.1v-1.2l-1.2,0.1V35l1.2,0.1
	v-1.2l-1.2,0.1V33h1.2v-1.1L43.3,32v-0.9L40.6,31v1.1l1.2-0.1v0.9l-1.2-0.1V34l1.2,0v0.9h-1.2V36h1.2v0.9l-1.2-0.1V38l1.2-0.1v0.9
	l-1.2-0.1V40l1.2-0.1v0.9l-1.2-0.1v1.2h1.2v0.9l-1.2-0.1v1.2l1.2-0.1v0.9H42v0.8h-0.1c-0.4,0-0.8,0.3-0.9,0.7l0,1.4
	c0,0.3-0.1,0.6-0.2,0.8l-0.4,1.2v0.1c-0.1,0.5,0.3,0.9,0.8,1c0,0,0.1,0,0.1,0h2.7c0.3,0,0.5-0.1,0.7-0.3
	C44.7,50.2,44.8,50,44.7,49.8z M41.5,49.7l0.3-0.8c0.1-0.2,0.1-0.3,0.1-0.5h1.2c0,0.2,0.1,0.3,0.1,0.5l0.3,0.8H41.5z"/>
<path class="st1" d="M39.6,36.9H22.2c-1.2,0-2.2-1-2.2-2.2c0,0,0,0,0,0v-1.6c0-1.2,1-2.2,2.2-2.2h17.4v1.5H22.2
	c-0.4,0-0.7,0.3-0.7,0.7c0,0,0,0,0,0v1.6c0,0.4,0.3,0.7,0.7,0.7c0,0,0,0,0,0h17.4V36.9z"/>
<path class="st1" d="M39.6,43.7H22.2c-1.2,0-2.2-1-2.2-2.2v-1.6c0-1.2,1-2.2,2.2-2.2c0,0,0,0,0,0h17.4v1.5H22.2
	c-0.4,0-0.7,0.3-0.7,0.7c0,0,0,0,0,0v1.6c0,0.4,0.3,0.7,0.7,0.7h0h17.4V43.7z"/>
<path class="st1" d="M39.6,50.4H22.2c-1.2,0-2.2-1-2.2-2.2v-1.6c0-1.2,1-2.2,2.2-2.2h17.4V46H22.2c-0.4,0-0.7,0.3-0.7,0.7l0,0v1.6
	c0,0.4,0.3,0.7,0.7,0.7h17.4L39.6,50.4z"/>
<rect x="11.5" y="15.2" class="st1" width="26.5" height="11.1"/>
<path class="st0" d="M19.6,24.3L19.6,24.3c-0.2-0.6-0.4-1.1-0.5-1.7c-0.2-0.8-0.4-1.1-1.1-1.1h-0.5v2.8H16v-6.9h0.1
	c0.6-0.1,1.3-0.2,1.9-0.2c0.8-0.1,1.5,0.1,2.2,0.6c0.4,0.4,0.6,0.9,0.6,1.5c0,0.8-0.4,1.4-1.1,1.8c0.4,0.3,0.7,0.8,0.8,1.3l0.1,0.4
	c0.1,0.5,0.2,1,0.4,1.5l0.1,0.2H19.6z M18.1,20.3c0.8,0,1.2-0.4,1.2-1c0-0.8-0.7-1-1.2-1c-0.2,0-0.4,0-0.6,0v1.9L18.1,20.3z"/>
<path class="st1" d="M18,17.3c0.7-0.1,1.5,0.1,2.1,0.5c0.4,0.3,0.6,0.8,0.6,1.4c0,0.8-0.5,1.5-1.2,1.8l0,0c0.5,0.3,0.9,0.7,1,1.3
	c0.1,0.6,0.3,1.3,0.5,1.9h-1.3c-0.2-0.5-0.4-1.1-0.5-1.6c-0.2-0.9-0.5-1.2-1.2-1.2h-0.6v2.8h-1.2v-6.7C16.7,17.4,17.4,17.3,18,17.3
	 M17.4,20.5h0.7c0.8,0,1.4-0.4,1.4-1.1s-0.5-1.1-1.3-1.1c-0.3,0-0.5,0-0.8,0.1V20.5 M18,17.1c-0.6,0-1.3,0-1.9,0.1h-0.2v7.2h1.7
	v-2.8H18c0.5,0,0.8,0.2,1,1c0.1,0.6,0.3,1.1,0.5,1.7l0.1,0.1h1.8L21.2,24c-0.2-0.5-0.3-1-0.4-1.5l-0.1-0.4c-0.1-0.5-0.3-0.9-0.7-1.3
	c0.6-0.4,1-1,1-1.7c0-0.6-0.2-1.2-0.7-1.5C19.7,17.2,18.9,17,18,17.1L18,17.1z M17.6,18.5c0.2,0,0.4,0,0.5,0c0.7,0,1.1,0.3,1.1,0.9
	s-0.4,0.9-1.1,0.9h-0.5V18.5L17.6,18.5z"/>
<path class="st0" d="M26,24.3l-0.6-1.9h-2l-0.6,1.9h-1.5l2.3-7.1h1.8l2.3,7.1H26z M25.1,21.2l-0.5-1.5c-0.1-0.3-0.2-0.6-0.2-0.9
	c-0.1,0.3-0.1,0.6-0.2,0.9l-0.5,1.5H25.1z"/>
<path class="st1" d="M25.2,17.4l2.2,6.8h-1.3l-0.6-1.9h-2.2l-0.6,1.9h-1.3l2.2-6.8H25.2 M23.5,21.3h1.8l-0.5-1.7
	c-0.1-0.4-0.2-0.9-0.3-1.3l0,0c-0.1,0.4-0.2,0.9-0.3,1.3L23.5,21.3 M25.4,17.1h-2l0,0.2l-2.2,6.8l-0.1,0.3h1.8l0-0.2l0.5-1.8h1.8
	l0.6,1.8v0.2h1.9l-0.1-0.3l-2.2-6.8L25.4,17.1L25.4,17.1z M23.8,21.1l0.4-1.4c0-0.1,0.1-0.3,0.1-0.4l0.1,0.4l0.4,1.4H23.8z"/>
<path class="st0" d="M31.8,24.3L31.8,24.3c-0.2-0.6-0.4-1.2-0.5-1.7c-0.2-0.8-0.5-1.1-1.1-1.1h-0.5v2.8h-1.5v-6.9h0.1
	c0.6-0.1,1.3-0.1,1.9-0.1c0.8-0.1,1.6,0.1,2.2,0.6c0.4,0.4,0.6,0.9,0.6,1.5c0,0.7-0.4,1.4-1.1,1.7c0.4,0.3,0.7,0.8,0.8,1.3l0.1,0.4
	c0.1,0.5,0.2,1,0.4,1.5l0.1,0.2L31.8,24.3z M30.3,20.3c0.8,0,1.2-0.4,1.2-1c0-0.8-0.7-1-1.2-1c-0.2,0-0.4,0-0.6,0v1.9L30.3,20.3z"/>
<path class="st1" d="M30.2,17.3c0.7-0.1,1.5,0.1,2.1,0.5c0.4,0.3,0.6,0.8,0.6,1.4c0,0.8-0.5,1.5-1.2,1.8l0,0c0.5,0.3,0.9,0.7,1,1.3
	c0.1,0.6,0.3,1.3,0.5,1.9h-1.3c-0.2-0.5-0.3-1.1-0.5-1.6c-0.2-0.9-0.5-1.2-1.2-1.2h-0.6v2.8h-1.2v-6.7C29,17.4,29.6,17.3,30.2,17.3
	 M29.6,20.5h0.7c0.8,0,1.4-0.4,1.4-1.1s-0.5-1.1-1.3-1.1c-0.3,0-0.5,0-0.8,0.1V20.5 M30.2,17.1c-0.6,0-1.3,0-1.9,0.1h-0.2v7.2h1.7
	v-2.8h0.4c0.5,0,0.8,0.2,1,1c0.1,0.6,0.3,1.1,0.5,1.7l0.1,0.1h1.8L33.4,24c-0.2-0.5-0.3-1-0.4-1.4l-0.1-0.4
	c-0.1-0.5-0.4-0.9-0.7-1.2c0.6-0.4,1-1,1-1.7c0-0.6-0.2-1.2-0.7-1.5C31.8,17.2,31,17,30.2,17.1L30.2,17.1z M29.8,18.5
	c0.2,0,0.4,0,0.5,0c0.7,0,1.1,0.3,1.1,0.9s-0.4,0.9-1.1,0.9h-0.5L29.8,18.5L29.8,18.5z"/>
</svg>
