<?xml version="1.0" encoding="utf-8"?>
<!-- Generator: Adobe Illustrator 25.0.0, SVG Export Plug-In . SVG Version: 6.00 Build 0)  -->
<svg version="1.1" id="Layer_1" xmlns="http://www.w3.org/2000/svg" xmlns:xlink="http://www.w3.org/1999/xlink" x="0px" y="0px"
	 viewBox="0 0 64 64" style="enable-background:new 0 0 64 64;" xml:space="preserve">
<style type="text/css">
	.st0{fill:#FFFFFF;}
	.st1{fill:#D3132F;}
</style>
<polygon class="st0" points="14.9,56.6 14.9,8.1 41,8.1 49.8,16.9 49.8,56.6 "/>
<path class="st1" d="M40.8,8.6l8.5,8.5V56H15.4V8.6H40.8 M41.2,7.5H14.4v49.6h36V16.7C50.4,16.7,41.2,7.5,41.2,7.5z"/>
<polygon class="st0" points="41.8,16.1 41.8,9 48.9,16.1 "/>
<path class="st1" d="M42.4,10.4l5.1,5.1h-5.1V10.4 M41.2,7.5v9.1h9.1L41.2,7.5z"/>
<path class="st1" d="M25,35.5c-0.3,0.8-0.4,1.7-0.4,2.5c0,1.7,0.5,3.3,1.5,4.6l4.1-7.1H25z"/>
<path class="st1" d="M26.5,43.2c1.5,1.7,3.6,2.7,5.9,2.7c0.3,0,0.6,0,0.9,0l-4.2-7.1L26.5,43.2z"/>
<path class="st1" d="M38.2,33c-1.5-1.7-3.6-2.7-5.9-2.7c-0.3,0-0.5,0-0.8,0l4.1,7.1L38.2,33z"/>
<path class="st1" d="M30.9,30.4c-2.5,0.5-4.6,2.2-5.6,4.5h8.2L30.9,30.4z"/>
<path class="st1" d="M39.7,40.6c0.8-2.4,0.4-5.1-1.1-7.1l-4.1,7.1H39.7z"/>
<path class="st1" d="M33.9,45.7c2.5-0.5,4.6-2.2,5.6-4.5h-8.2L33.9,45.7z"/>
<path class="st1" d="M32.4,47.3c-5.1,0-9.2-4.1-9.2-9.2s4.1-9.2,9.2-9.2s9.2,4.1,9.2,9.2l0,0C41.6,43.2,37.5,47.3,32.4,47.3z
	 M32.4,29.6c-4.7,0-8.5,3.8-8.5,8.5s3.8,8.5,8.5,8.5s8.5-3.8,8.5-8.5l0,0C40.8,33.4,37,29.6,32.4,29.6z"/>
<polygon class="st1" points="38,25.9 11.5,25.9 11.5,25.9 11.5,14.8 38,14.8 "/>
<path class="st0" d="M18.6,23.9L18.6,23.9c-0.2-0.6-0.4-1.1-0.5-1.7c-0.2-0.8-0.4-1.1-1.1-1.1h-0.5v2.8H15V17h0.1
	c0.6-0.1,1.3-0.2,1.9-0.2c0.8-0.1,1.6,0.1,2.2,0.6c0.4,0.4,0.6,0.9,0.6,1.5c0,0.7-0.4,1.4-1.1,1.7c0.4,0.3,0.7,0.8,0.8,1.3l0.1,0.4
	c0.1,0.5,0.2,1,0.4,1.5l0.1,0.2H18.6z M17.1,20c0.8,0,1.2-0.4,1.2-1c0-0.8-0.7-1-1.2-1c-0.2,0-0.4,0-0.6,0v2H17.1z"/>
<path class="st1" d="M17,16.9c0.7-0.1,1.5,0.1,2.1,0.5c0.4,0.3,0.6,0.8,0.6,1.4c0,0.8-0.5,1.5-1.2,1.7l0,0c0.5,0.3,0.9,0.7,1,1.3
	c0.1,0.6,0.3,1.3,0.5,1.9h-1.3c-0.2-0.5-0.3-1.1-0.5-1.6C18,21.3,17.7,21,17,21h-0.6v2.8h-1.3v-6.7C15.7,17,16.4,16.9,17,16.9
	 M16.4,20.1h0.7c0.8,0,1.4-0.5,1.4-1.1s-0.5-1.1-1.3-1.1c-0.3,0-0.5,0-0.8,0.1V20.1 M17,16.7c-0.6,0-1.3,0-1.9,0.1h-0.2V24h1.7v-2.8
	H17c0.5,0,0.8,0.2,1,1c0.1,0.6,0.3,1.1,0.5,1.7l0.1,0.1h1.8l-0.2-0.4c-0.2-0.5-0.3-1-0.4-1.5l-0.1-0.4c-0.1-0.5-0.3-0.9-0.7-1.2
	c0.6-0.4,1-1,1-1.8c0-0.6-0.2-1.2-0.7-1.5C18.6,16.8,17.8,16.6,17,16.7L17,16.7z M16.6,18.1h0.5c0.7,0,1.1,0.3,1.1,0.9
	s-0.4,0.9-1.1,0.9h-0.5V18.1z"/>
<path class="st0" d="M25,23.9L24.4,22h-2l-0.6,1.9h-1.5l2.3-7.1h1.8l2.3,7.1L25,23.9z M24.1,20.8l-0.5-1.5c-0.1-0.3-0.2-0.6-0.2-0.9
	c-0.1,0.3-0.1,0.6-0.2,0.8l-0.5,1.5H24.1z"/>
<path class="st1" d="M24.2,17l2.2,6.8h-1.3l-0.6-1.9h-2.2l-0.6,1.9h-1.3l2.2-6.8H24.2 M22.5,21h1.8l-0.5-1.7
	c-0.1-0.4-0.2-0.9-0.3-1.3l0,0c-0.1,0.4-0.2,0.9-0.3,1.3L22.5,21 M24.4,16.8h-2l0,0.2l-2.2,6.7L20.1,24h1.8l0-0.2l0.5-1.8h1.8
	l0.6,1.8l0.1,0.2h1.9l-0.1-0.3L24.4,16.8L24.4,16.8L24.4,16.8z M22.9,20.8l0.4-1.4c0-0.1,0.1-0.3,0.1-0.4c0,0.1,0.1,0.3,0.1,0.4
	l0.4,1.4H22.9z"/>
<path class="st0" d="M31.5,23.9l-0.7-3.3c-0.1-0.6-0.2-1-0.3-1.5c-0.1,0.5-0.2,1-0.3,1.5l-0.8,3.3h-1.5l-1.7-7.1h1.6l0.7,3.1
	c0.1,0.6,0.2,1.2,0.3,1.8c0.1-0.4,0.2-0.9,0.3-1.4l0-0.4l0.8-3.2h1.5L32,20c0.1,0.6,0.2,1.1,0.3,1.6c0.1-0.6,0.2-1.2,0.3-1.7
	l0.7-3.2h1.5L33,23.9H31.5z"/>
<path class="st1" d="M34.8,17l-1.8,6.8h-1.3l-0.7-3.2c-0.2-0.7-0.3-1.4-0.4-2.2l0,0c-0.1,0.7-0.3,1.4-0.5,2.2l-0.8,3.2h-1.4L26.2,17
	h1.3l0.6,3.1c0.2,0.8,0.3,1.7,0.5,2.4l0,0c0.1-0.7,0.3-1.5,0.5-2.4l0.8-3.1h1.3l0.7,3.1c0.2,0.8,0.3,1.6,0.4,2.3l0,0
	c0.1-0.8,0.3-1.5,0.5-2.4l0.7-3.1H34.8 M35.1,16.8h-1.8V17l-0.8,3c-0.1,0.3-0.2,0.7-0.2,1.1c-0.1-0.3-0.1-0.6-0.2-1l-0.7-3.1v-0.2
	h-1.7l0,0.2L28.9,20l-0.1,0.4c0,0.3-0.1,0.5-0.2,0.8c-0.1-0.4-0.1-0.8-0.2-1.1l-0.6-3.1v-0.2h-1.9L26,17l1.7,6.8l0,0.2h1.7l0-0.2
	l0.8-3.2c0.1-0.3,0.1-0.6,0.2-0.8c0,0.3,0.1,0.5,0.2,0.8l0.7,3.2V24h1.7v-0.2L35,17L35.1,16.8L35.1,16.8z"/>
</svg>
