<?xml version="1.0" encoding="utf-8"?>
<!-- Generator: Adobe Illustrator 25.0.0, SVG Export Plug-In . SVG Version: 6.00 Build 0)  -->
<svg version="1.1" id="Layer_1" xmlns="http://www.w3.org/2000/svg" xmlns:xlink="http://www.w3.org/1999/xlink" x="0px" y="0px"
	 viewBox="0 0 64 64" style="enable-background:new 0 0 64 64;" xml:space="preserve">
<style type="text/css">
	.st0{fill:#FFFFFF;}
	.st1{fill:#EA6B03;}
</style>
<polygon class="st0" points="14.8,57.2 14.8,8.7 40.9,8.7 49.7,17.5 49.7,57.2 "/>
<path class="st1" d="M40.7,9.2l8.5,8.5v38.9H15.3V9.2H40.7 M41.1,8.1H14.2v49.6h36V17.3C50.2,17.3,41.1,8.1,41.1,8.1z"/>
<polygon class="st0" points="41.7,16.7 41.7,9.6 48.8,16.7 "/>
<path class="st1" d="M42.3,11l5.1,5.1h-5.1V11 M41.1,8.1v9.1h9.1L41.1,8.1z"/>
<path class="st1" d="M39.4,48.3L39.4,48.3c-0.7,0-1.3-0.6-1.3-1.3c0.1-6.5-5.1-11.9-11.6-12c-0.1,0-0.3,0-0.4,0l0,0
	c-0.7-0.1-1.3-0.7-1.2-1.5c0.1-0.6,0.6-1.2,1.2-1.2h0.2c8,0,14.5,6.4,14.5,14.4c0,0.1,0,0.2,0,0.2C40.8,47.7,40.2,48.3,39.4,48.3z"
	/>
<path class="st1" d="M34.5,48.1L34.5,48.1c-0.7,0-1.3-0.6-1.3-1.3c0,0,0,0,0,0c0.1-3.7-2.9-6.8-6.6-6.8c-0.1,0-0.2,0-0.3,0
	c-0.7,0-1.3-0.6-1.4-1.3c0-0.7,0.6-1.3,1.3-1.3c0,0,0,0,0,0c5.2-0.1,9.4,4,9.5,9.2c0,0.1,0,0.2,0,0.4C35.8,47.5,35.2,48.1,34.5,48.1
	C34.5,48.1,34.5,48.1,34.5,48.1z"/>
<path class="st1" d="M29.3,47.8c-1.2,1.1-3,1-4.1-0.1c-1.1-1.2-1-3,0.1-4.1c1.1-1.1,2.9-1,4,0.1C30.5,44.8,30.5,46.7,29.3,47.8
	C29.3,47.8,29.3,47.8,29.3,47.8z"/>
<rect x="11.3" y="15.4" class="st1" width="26.5" height="11.1"/>
<path class="st0" d="M20.6,24.5L20.6,24.5c-0.2-0.6-0.4-1.2-0.5-1.7C20,22,19.7,21.7,19,21.7h-0.5v2.8H17v-7h0.1
	c0.6-0.1,1.3-0.1,1.9-0.1c0.8-0.1,1.6,0.1,2.2,0.6c0.4,0.4,0.7,0.9,0.6,1.5c0,0.7-0.4,1.4-1.1,1.7c0.4,0.3,0.7,0.8,0.8,1.3l0.1,0.4
	c0.1,0.5,0.2,1,0.4,1.5l0.1,0.2L20.6,24.5z M19.1,20.5c0.8,0,1.2-0.4,1.2-1c0-0.8-0.7-1-1.2-1c-0.2,0-0.4,0-0.6,0v1.9L19.1,20.5z"/>
<path class="st1" d="M19,17.5c0.7-0.1,1.5,0.1,2.1,0.5c0.4,0.3,0.6,0.8,0.6,1.4c0,0.8-0.5,1.5-1.2,1.7l0,0c0.5,0.3,0.9,0.7,1,1.3
	c0.1,0.6,0.3,1.3,0.5,1.9h-1.3c-0.2-0.5-0.3-1.1-0.5-1.6c-0.2-0.9-0.5-1.2-1.2-1.2h-0.6v2.8h-1.2v-6.7C17.8,17.6,18.4,17.5,19,17.5
	 M18.4,20.7h0.7c0.8,0,1.4-0.4,1.4-1.1s-0.5-1.1-1.3-1.1c-0.3,0-0.5,0-0.8,0.1V20.7 M19,17.3c-0.6,0-1.3,0-1.9,0.1h-0.2v7.2h1.7
	v-2.8H19c0.5,0,0.8,0.2,1,1c0.1,0.6,0.3,1.1,0.5,1.7l0.1,0.1h1.8l-0.2-0.4c-0.2-0.5-0.3-1-0.4-1.5l-0.1-0.4
	c-0.1-0.5-0.3-0.9-0.7-1.3c0.6-0.4,1-1,1-1.7c0-0.6-0.2-1.2-0.7-1.5C20.6,17.4,19.8,17.1,19,17.3L19,17.3z M18.6,18.7
	c0.2,0,0.3,0,0.5,0c0.7,0,1.1,0.3,1.1,0.9s-0.4,0.9-1.1,0.9h-0.5V18.7L18.6,18.7z"/>
<path class="st0" d="M24.4,24.6c-0.7,0-1.3-0.1-1.9-0.4l-0.1,0l0.3-1.3l0.1,0.1c0.5,0.3,1,0.4,1.6,0.4c0.7,0,1.1-0.3,1.1-0.8
	s-0.3-0.7-1.1-1c-1.3-0.5-1.9-1.1-1.9-2.1c0-1.2,1-2.1,2.5-2.1c0.6,0,1.2,0.1,1.7,0.4l0.1,0L26.5,19l-0.1-0.1
	c-0.4-0.2-0.8-0.3-1.3-0.3c-0.7,0-1,0.4-1,0.7s0.3,0.6,1.2,1c1.3,0.5,1.8,1.1,1.8,2.1S26.4,24.6,24.4,24.6z"/>
<path class="st1" d="M25.1,17.5c0.6,0,1.1,0.1,1.6,0.3l-0.3,1c-0.4-0.2-0.9-0.3-1.4-0.3c-0.8,0-1.1,0.4-1.1,0.8s0.4,0.8,1.3,1.1
	c1.2,0.5,1.8,1,1.8,2s-0.8,2-2.6,2c-0.6,0-1.3-0.1-1.8-0.4l0.3-1c0.5,0.3,1.1,0.4,1.6,0.4c0.8,0,1.2-0.4,1.2-0.9s-0.4-0.8-1.2-1.1
	c-1.1-0.4-1.8-1-1.8-2S23.6,17.4,25.1,17.5 M25.1,17.2c-1.6,0-2.6,0.9-2.6,2.2c0,1,0.6,1.7,2,2.2c0.9,0.3,1,0.6,1,0.9
	c0,0.6-0.7,0.7-1,0.7c-0.5,0-1.1-0.1-1.5-0.4l-0.3-0.2l-0.1,0.3l-0.3,1l0,0.2l0.2,0.1c0.6,0.3,1.3,0.5,2,0.5c2.1,0,2.8-1.2,2.8-2.3
	s-0.6-1.8-1.9-2.2c-0.9-0.4-1.1-0.5-1.1-0.9s0.3-0.6,0.9-0.6c0.4,0,0.9,0.1,1.2,0.3l0.3,0.1l0.1-0.3l0.3-1l0.1-0.2l-0.2-0.1
	C26.4,17.2,25.8,17.1,25.1,17.2L25.1,17.2z"/>
<path class="st0" d="M29.7,24.6c-0.7,0-1.3-0.1-1.9-0.4l-0.1,0l0.3-1.3l0.1,0.1c0.5,0.3,1,0.4,1.6,0.4c0.7,0,1.1-0.3,1.1-0.8
	s-0.3-0.7-1.1-1c-1.3-0.5-1.9-1.1-1.9-2.1c0-1.2,1-2.1,2.5-2.1c0.6,0,1.2,0.1,1.7,0.4l0.1,0L31.8,19l-0.1-0.1
	c-0.4-0.2-0.8-0.3-1.3-0.3c-0.7,0-1,0.4-1,0.7s0.3,0.6,1.2,1c1.3,0.5,1.8,1.1,1.8,2.1S31.7,24.6,29.7,24.6z"/>
<path class="st1" d="M30.4,17.5c0.6,0,1.1,0.1,1.6,0.3l-0.3,1c-0.4-0.2-0.9-0.3-1.4-0.3c-0.8,0-1.1,0.4-1.1,0.8s0.4,0.8,1.3,1.1
	c1.2,0.5,1.8,1,1.8,2s-0.8,2-2.6,2c-0.6,0-1.3-0.1-1.8-0.4l0.3-1c0.5,0.3,1.1,0.4,1.6,0.4c0.8,0,1.2-0.4,1.2-0.9s-0.4-0.8-1.2-1.1
	c-1.1-0.4-1.8-1-1.8-2S28.9,17.4,30.4,17.5 M30.4,17.2c-1.6,0-2.6,0.9-2.6,2.2c0,1,0.6,1.7,2,2.2c0.9,0.3,1,0.6,1,0.9
	c0,0.6-0.7,0.7-1,0.7c-0.5,0-1.1-0.1-1.5-0.4L28,22.6L27.9,23l-0.3,1v0.2l0.2,0.1c0.6,0.3,1.3,0.5,2,0.5c2.1,0,2.8-1.2,2.8-2.3
	s-0.6-1.8-1.9-2.2c-0.9-0.4-1.1-0.5-1.1-0.9s0.3-0.6,0.9-0.6c0.4,0,0.9,0.1,1.2,0.3l0.3,0.1l0.1-0.3l0.3-1l0.1-0.2l-0.2-0.1
	c-0.5-0.3-1.1-0.4-1.8-0.4L30.4,17.2z"/>
</svg>
