<?xml version="1.0" encoding="utf-8"?>
<!-- Generator: Adobe Illustrator 25.0.0, SVG Export Plug-In . SVG Version: 6.00 Build 0)  -->
<svg version="1.1" id="Layer_1" xmlns="http://www.w3.org/2000/svg" xmlns:xlink="http://www.w3.org/1999/xlink" x="0px" y="0px"
	 viewBox="0 0 64 64" style="enable-background:new 0 0 64 64;" xml:space="preserve">
<style type="text/css">
	.st0{fill:#FFFFFF;}
	.st1{fill:#4C9315;}
</style>
<polygon class="st0" points="15.6,56.6 15.6,8.1 41.7,8.1 50.5,17 50.5,56.6 "/>
<path class="st1" d="M41.5,8.7l8.5,8.5v38.9H16.2V8.7H41.5 M41.9,7.6H15.1v49.6h36V16.7C51.1,16.7,41.9,7.6,41.9,7.6z"/>
<polygon class="st0" points="42.5,16.1 42.5,9 49.7,16.1 "/>
<path class="st1" d="M43.1,10.4l5.1,5.1h-5.1V10.4 M41.9,7.6v9.1h9.1L41.9,7.6z"/>
<path class="st1" d="M43.9,44L43.9,44c-0.3-3.9-2.6-7.3-6.1-9h3.7v0.3h1.6v-1.7h-1.6v0.3H34v-0.3h-1.8v0.3h-7.6v-0.3H23v1.6h1.6
	v-0.3h3.7c-3.5,1.7-5.8,5.1-6.1,9h-0.4v1.8h1.8V44h-0.3c0.4-4.7,4.1-8.4,8.7-8.9v0.3H34v-0.3c4.7,0.5,8.3,4.2,8.7,8.9h-0.3v1.8h1.8
	V44H43.9z M23.1,45.3h-0.8v-0.8h0.8V45.3z M33.4,34.8h-0.7V34h0.7L33.4,34.8z M43.7,45.2H43v-0.8h0.8L43.7,45.2z"/>
<polygon class="st1" points="38.7,26 12.2,26 12.2,26 12.2,14.9 38.7,14.9 "/>
<path class="st0" d="M18.8,24c-0.7,0-1.3-0.1-1.9-0.4l-0.1,0l0.3-1.3l0.1,0.1c0.5,0.3,1,0.4,1.6,0.4c0.7,0,1.1-0.3,1.1-0.8
	s-0.3-0.7-1.1-1c-1.3-0.5-1.9-1.1-1.9-2.1c0-1.2,1-2.1,2.5-2.1c0.6,0,1.2,0.1,1.7,0.4h0.1l-0.4,1.2l-0.1-0.1
	c-0.4-0.2-0.8-0.3-1.3-0.3c-0.7,0-1,0.4-1,0.7s0.3,0.6,1.2,1c1.3,0.5,1.8,1.1,1.8,2.1S20.8,24,18.8,24z"/>
<path class="st1" d="M19.5,16.9c0.6,0,1.1,0.1,1.6,0.3l-0.3,1c-0.4-0.2-0.9-0.3-1.4-0.3c-0.8,0-1.1,0.4-1.1,0.8s0.4,0.8,1.3,1.1
	c1.2,0.5,1.8,1,1.8,2s-0.8,2-2.6,2c-0.6,0-1.3-0.1-1.8-0.4l0.3-1c0.5,0.3,1.1,0.4,1.6,0.4c0.8,0,1.2-0.4,1.2-0.9s-0.4-0.8-1.2-1.1
	c-1.1-0.4-1.8-1-1.8-2s0.9-2,2.4-2 M19.5,16.6c-1.6,0-2.6,0.9-2.6,2.2c0,1,0.6,1.7,2,2.2c0.9,0.3,1,0.6,1,0.9c0,0.6-0.7,0.7-1,0.7
	c-0.5,0-1.1-0.1-1.5-0.4L17.1,22L17,22.3l-0.3,1l0,0.2l0.2,0.1c0.6,0.3,1.3,0.5,2,0.5c2.1,0,2.8-1.2,2.8-2.3s-0.6-1.6-1.9-2.1
	c-0.9-0.4-1.1-0.5-1.1-0.9s0.3-0.6,0.9-0.6c0.4,0,0.9,0.1,1.2,0.3l0.3,0.1l0.1-0.3l0.3-1l0.1-0.2L21.2,17
	C20.7,16.7,20.1,16.6,19.5,16.6L19.5,16.6z"/>
<path class="st0" d="M24,24l-2.3-7.1h1.6l1,3.2c0.2,0.8,0.4,1.4,0.6,2c0.1-0.6,0.4-1.3,0.6-2l1-3.2H28L25.6,24H24z"/>
<path class="st1" d="M27.8,17l-2.4,6.8H24L21.8,17h1.4l0.9,3.1c0.3,0.9,0.5,1.6,0.7,2.5l0,0c0.2-0.8,0.4-1.7,0.7-2.5l1-3.1H27.8
	 M28.2,16.8h-1.8v0.2l-1,3.1c-0.2,0.6-0.3,1.1-0.5,1.6c-0.1-0.5-0.3-1-0.5-1.6l-0.9-3.1l0-0.2h-1.9l0.1,0.3l2.2,6.8l0,0.2h1.8
	l0.1-0.2l2.4-6.8L28.2,16.8L28.2,16.8z"/>
<path class="st0" d="M31.8,24c-1,0.1-2-0.3-2.8-0.9c-0.7-0.7-1-1.6-1-2.6c0-2,1.5-3.6,3.5-3.7c0.2,0,0.3,0,0.5,0
	c0.6,0,1.3,0.1,1.9,0.3l0.1,0l-0.3,1.2l-0.1,0c-0.5-0.2-1-0.3-1.5-0.3c-1.2-0.1-2.2,0.7-2.4,1.9c0,0.1,0,0.3,0,0.4
	c-0.1,1.2,0.7,2.2,1.9,2.3c0.1,0,0.2,0,0.4,0c0.3,0,0.6,0,0.8-0.1v-1.5h-1.2v-1.2h2.6v3.7H34C33.3,23.9,32.6,24,31.8,24z"/>
<path class="st1" d="M32,16.9c0.6,0,1.2,0.1,1.8,0.3l-0.3,1c-0.5-0.2-1-0.3-1.5-0.3c-1.3-0.1-2.4,0.8-2.5,2.1c0,0.1,0,0.3,0,0.4
	c-0.1,1.2,0.8,2.3,2,2.5c0.1,0,0.2,0,0.4,0c0.3,0,0.6,0,0.9-0.1v-1.7h-1.3v-1H34v3.4c-0.7,0.3-1.4,0.4-2.2,0.4c-1,0.1-2-0.3-2.7-0.9
	c-0.6-0.7-1-1.6-1-2.5c-0.1-1.9,1.4-3.5,3.3-3.6C31.7,16.9,31.8,16.9,32,16.9 M32,16.7c-2-0.2-3.8,1.4-4,3.4c0,0.1,0,0.2,0,0.4
	c0,1,0.3,2,1,2.7c0.8,0.7,1.8,1.1,2.8,1c0.8,0,1.5-0.1,2.3-0.4l0.2-0.1v-3.9h-2.9v1.5h1.2v1.3c-0.2,0.1-0.5,0.1-0.7,0.1
	c-1.1,0.1-2.1-0.8-2.1-1.9c0-0.1,0-0.2,0-0.4c-0.1-1.1,0.7-2.1,1.8-2.2c0.2,0,0.4,0,0.5,0c0.5,0,1,0.1,1.5,0.3l0.3,0.1l0.1-0.3
	l0.3-1l0.1-0.2L33.9,17C33.3,16.8,32.6,16.7,32,16.7z"/>
</svg>
