<?xml version="1.0" encoding="utf-8"?>
<!-- Generator: Adobe Illustrator 25.0.0, SVG Export Plug-In . SVG Version: 6.00 Build 0)  -->
<svg version="1.1" id="Layer_1" xmlns="http://www.w3.org/2000/svg" xmlns:xlink="http://www.w3.org/1999/xlink" x="0px" y="0px"
	 viewBox="0 0 64 64" style="enable-background:new 0 0 64 64;" xml:space="preserve">
<style type="text/css">
	.st0{fill:#FFFFFF;}
	.st1{fill:#51448C;}
</style>
<g>
	<g>
		<g>
			<polygon class="st0" points="14.8,56.6 14.8,8.1 40.9,8.1 49.7,16.9 49.7,56.6 			"/>
			<path class="st1" d="M40.6,8.6l8.5,8.5V56H15.3V8.6H40.6 M41.1,7.5H14.2v49.6h36V16.7L41.1,7.5L41.1,7.5z"/>
		</g>
		<g>
			<polygon class="st0" points="41.7,16.1 41.7,9 48.8,16.1 			"/>
			<path class="st1" d="M42.3,10.4l5.1,5.1h-5.1V10.4 M41.1,7.5v9.1h9.1L41.1,7.5L41.1,7.5z"/>
		</g>
	</g>
	<g>
		<path class="st1" d="M22,32.7v14.1h20.5V32.7H22z M41.4,33.8v8.6c-0.5-0.2-1.5-0.4-3.1-0.5c-2.8-0.2-2.8,1.9-6.8,0.9L28.9,38
			l-1.4,2.3l-2.1-4.4L23,41.1v-7.3H41.4z"/>
		<path class="st1" d="M37.5,37.7c0.7,0,1.2-0.6,1.2-1.2c0-0.7-0.6-1.2-1.2-1.2c-0.7,0-1.2,0.6-1.2,1.2
			C36.3,37.1,36.8,37.7,37.5,37.7z"/>
	</g>
	<rect x="11.3" y="14.8" class="st1" width="26.5" height="11.1"/>
	<g>
		<g>
			<polygon class="st0" points="17.6,23.9 17.6,18.1 15.6,18.1 15.6,16.8 21,16.8 21,18.1 19.1,18.1 19.1,23.9 			"/>
			<path class="st1" d="M20.9,16.9v1h-2v5.8h-1.2V18h-1.9v-1h5.1 M21.1,16.7h-0.2h-5.1h-0.2v0.2v1v0.2h0.2h1.7v5.5V24h0.2h1.2h0.2
				v-0.2v-5.5h1.7H21V18v-1L21.1,16.7L21.1,16.7z"/>
		</g>
		<g>
			<rect x="21.6" y="16.8" class="st0" width="1.5" height="7.1"/>
			<path class="st1" d="M22.9,16.9v6.8h-1.2v-6.8L22.9,16.9 M23.2,16.7H23h-1.2h-0.2v0.2v6.8V24h0.2H23h0.2v-0.2V17V16.7L23.2,16.7z
				"/>
		</g>
		<g>
			<polygon class="st0" points="24.2,23.9 24.2,16.8 28.4,16.8 28.4,18.1 25.7,18.1 25.7,19.7 28.2,19.7 28.2,21 25.7,21 25.7,23.9 
							"/>
			<path class="st1" d="M28.3,16.9v1h-2.7v1.9h2.5v1h-2.5v2.9h-1.2v-6.8L28.3,16.9 M28.5,16.7h-0.2h-3.9h-0.2v0.2v6.8V24h0.2h1.2
				h0.2v-0.2v-2.6h2.3h0.2V21v-1v-0.2h-0.2h-2.3v-1.4h2.4h0.2V18v-1L28.5,16.7L28.5,16.7z"/>
		</g>
		<g>
			<polygon class="st0" points="29.4,23.9 29.4,16.8 33.6,16.8 33.6,18.1 30.9,18.1 30.9,19.7 33.4,19.7 33.4,21 30.9,21 30.9,23.9 
							"/>
			<path class="st1" d="M33.5,16.9v1h-2.7v1.9h2.5v1h-2.5v2.9h-1.2v-6.8L33.5,16.9 M33.7,16.7h-0.2h-3.9h-0.2v0.2v6.8V24h0.2h1.2H31
				v-0.2v-2.6h2.3h0.2V21v-1v-0.2h-0.2H31v-1.4h2.4h0.2V18v-1L33.7,16.7L33.7,16.7z"/>
		</g>
	</g>
</g>
</svg>
