<?xml version="1.0" encoding="utf-8"?>
<!-- Generator: Adobe Illustrator 25.0.0, SVG Export Plug-In . SVG Version: 6.00 Build 0)  -->
<svg version="1.1" id="Layer_1" xmlns="http://www.w3.org/2000/svg" xmlns:xlink="http://www.w3.org/1999/xlink" x="0px" y="0px"
	 viewBox="0 0 64 64" style="enable-background:new 0 0 64 64;" xml:space="preserve">
<style type="text/css">
	.st0{fill:#FFFFFF;}
	.st1{fill:#EA6B03;}
</style>
<g>
	<g>
		<g>
			<polygon class="st0" points="16.6,56.2 16.6,10.2 41.3,10.2 49.7,18.6 49.7,56.2 			"/>
			<path class="st1" d="M41.1,10.8l8.1,8.1v36.9H17.1v-45H41.1 M41.6,9.7H16.1v47h34.1V18.4L41.6,9.7L41.6,9.7z"/>
		</g>
		<g>
			<polygon class="st0" points="42.1,17.8 42.1,11.1 48.9,17.8 			"/>
			<path class="st1" d="M42.7,12.4l4.8,4.8h-4.8V12.4 M41.6,9.7v8.7h8.7L41.6,9.7L41.6,9.7z"/>
		</g>
	</g>
	<g>
		<rect x="21.8" y="31.2" class="st1" width="22.8" height="1.9"/>
		<rect x="21.8" y="34.8" class="st1" width="22.8" height="1.9"/>
		<rect x="21.8" y="38.4" class="st1" width="22.8" height="1.9"/>
		<rect x="21.8" y="42" class="st1" width="22.8" height="1.9"/>
		<rect x="21.8" y="45.6" class="st1" width="22.8" height="1.9"/>
		<rect x="21.8" y="49.2" class="st1" width="22.8" height="1.9"/>
	</g>
	<g>
		<rect x="13.3" y="16.6" class="st1" width="25.2" height="10.6"/>
		<g>
			<g>
				<polygon class="st0" points="19.7,25.2 19.7,19.8 17.9,19.8 17.9,18.5 23,18.5 23,19.8 21.1,19.8 21.1,25.2 				"/>
				<path class="st1" d="M22.9,18.6v1H21v5.5h-1.2v-5.5H18v-1H22.9 M23.1,18.4h-0.2H18h-0.2v0.2v1v0.2H18h1.6V25v0.2h0.2H21h0.2V25
					v-5.2h1.6H23v-0.2v-1L23.1,18.4L23.1,18.4z"/>
			</g>
			<g>
				<path class="st0" d="M27.2,25.2l-0.7-1.3c-0.2-0.4-0.4-0.7-0.5-1c-0.1,0.3-0.3,0.6-0.5,1l-0.7,1.3h-1.6l2-3.4l-1.9-3.3h1.6
					l0.7,1.4c0.2,0.3,0.3,0.6,0.4,0.9c0.1-0.3,0.3-0.6,0.4-0.9l0.7-1.4h1.6l-2,3.3l2,3.4H27.2z"/>
				<path class="st1" d="M28.6,18.6l-1.9,3.2l2,3.3h-1.4l-0.7-1.3c-0.3-0.5-0.5-0.8-0.6-1.2l0,0c-0.2,0.4-0.3,0.7-0.6,1.2l-0.6,1.3
					h-1.4l1.9-3.3l-1.8-3.2h1.4l0.7,1.3c0.2,0.4,0.4,0.7,0.5,1.1l0,0c0.2-0.4,0.3-0.7,0.5-1.1l0.7-1.3H28.6 M29,18.4h-0.4h-1.4h-0.1
					L27,18.5l-0.7,1.3c-0.1,0.2-0.2,0.4-0.3,0.7c-0.1-0.2-0.2-0.4-0.3-0.7L25,18.5l-0.1-0.1h-0.1h-1.4H23l0.2,0.3l1.8,3.1L23.1,25
					l-0.2,0.3h0.4h1.4h0.1l0.1-0.1l0.6-1.3c0.2-0.3,0.3-0.6,0.4-0.8c0.1,0.2,0.3,0.5,0.4,0.8l0.7,1.3l0.1,0.1h0.1h1.4H29L28.8,25
					l-1.9-3.2l1.8-3L29,18.4L29,18.4z"/>
			</g>
			<g>
				<polygon class="st0" points="30.7,25.2 30.7,19.8 28.9,19.8 28.9,18.5 34,18.5 34,19.8 32.1,19.8 32.1,25.2 				"/>
				<path class="st1" d="M33.9,18.6v1H32v5.5h-1.2v-5.5H29v-1H33.9 M34.1,18.4h-0.2H29h-0.2v0.2v1v0.2H29h1.6V25v0.2h0.2H32h0.2V25
					v-5.2h1.6H34v-0.2v-1L34.1,18.4L34.1,18.4z"/>
			</g>
		</g>
	</g>
</g>
</svg>
