<?xml version="1.0" encoding="utf-8"?>
<!-- Generator: Adobe Illustrator 25.0.0, SVG Export Plug-In . SVG Version: 6.00 Build 0)  -->
<svg version="1.1" id="Layer_1" xmlns="http://www.w3.org/2000/svg" xmlns:xlink="http://www.w3.org/1999/xlink" x="0px" y="0px"
	 viewBox="0 0 64 64" style="enable-background:new 0 0 64 64;" xml:space="preserve">
<style type="text/css">
	.st0{fill:#FFFFFF;}
	.st1{fill:#020202;}
</style>
<polygon class="st0" points="14.3,57.5 14.3,9 40.4,9 49.2,17.8 49.2,57.5 "/>
<path d="M40.1,9.6l8.5,8.5V57H14.8V9.6H40.1 M40.6,8.5H13.7v49.6h36V17.6L40.6,8.5z"/>
<polygon class="st0" points="41.2,17 41.2,9.9 48.3,17 "/>
<path d="M41.8,11.3l5.1,5.1h-5.1V11.3 M40.6,8.5v9.1h9.1L40.6,8.5L40.6,8.5z"/>
<path d="M15.1,15.7h18c2.3,0,4.2,1.9,4.2,4.2v2.6c0,2.3-1.9,4.2-4.2,4.2h-18c-2.3,0-4.2-1.9-4.2-4.2V20
	C10.8,17.6,12.7,15.7,15.1,15.7z"/>
<path class="st0" d="M16.4,17.9v3.9c0,1.5,0.7,2.1,1.6,2.1c1,0,1.6-0.7,1.6-2.1v-3.9h0.9v3.9c0,2-1.1,2.9-2.5,2.9
	c-1.4,0-2.4-0.8-2.4-2.8v-3.9H16.4z"/>
<path class="st0" d="M21.9,24.6v-6.7h0.9l2.1,3.4c0.4,0.7,0.8,1.4,1.2,2.2l0,0c-0.1-0.9-0.1-1.7-0.1-2.7v-2.8H27v6.7h-0.9L24,21.2
	c-0.5-0.7-0.9-1.5-1.2-2.2l0,0c0,0.8,0.1,1.6,0.1,2.8v2.8L21.9,24.6z"/>
<path class="st0" d="M28.5,17.9h0.9v3.2h0c0.2-0.3,0.4-0.5,0.5-0.7l2-2.5H33l-2.4,2.8l2.6,3.8h-1L30,21.3L29.3,22v2.5h-0.9
	L28.5,17.9z"/>
<ellipse class="st1" cx="32.3" cy="40.9" rx="9.7" ry="9.9"/>
<path class="st0" d="M30.8,44.7l0-0.6c-0.1-1.5,0.4-2.9,1.4-4c1-1.2,1.6-2.1,1.6-3.1c0-1.2-0.7-2-2.2-2c-0.8,0-1.6,0.2-2.3,0.7
	l-0.6-1.4c1-0.6,2.1-0.9,3.3-0.9c2.6,0,3.8,1.6,3.8,3.4c0,1.6-0.9,2.7-2,4c-0.9,0.9-1.4,2.1-1.3,3.4l0,0.6L30.8,44.7z M30.3,47.9
	c0-0.7,0.5-1.4,1.3-1.4c0,0,0.1,0,0.1,0c0.8,0,1.5,0.6,1.5,1.4c0,0.8-0.6,1.5-1.4,1.5C31,49.4,30.4,48.8,30.3,47.9
	C30.3,48,30.3,48,30.3,47.9z"/>
</svg>
