<?xml version="1.0" encoding="utf-8"?>
<!-- Generator: Adobe Illustrator 25.0.0, SVG Export Plug-In . SVG Version: 6.00 Build 0)  -->
<svg version="1.1" id="Layer_1" xmlns="http://www.w3.org/2000/svg" xmlns:xlink="http://www.w3.org/1999/xlink" x="0px" y="0px"
	 viewBox="0 0 64 64" style="enable-background:new 0 0 64 64;" xml:space="preserve">
<style type="text/css">
	.st0{fill:#FFFFFF;}
	.st1{fill:#4C9315;}
</style>
<polygon class="st0" points="15.3,57.2 15.3,8.7 41.4,8.7 50.2,17.5 50.2,57.2 "/>
<path class="st1" d="M41.2,9.2l8.5,8.5v38.9H15.8V9.2H41.2 M41.6,8.1H14.7v49.6h36V17.3C50.7,17.3,41.6,8.1,41.6,8.1z"/>
<polygon class="st0" points="42.2,16.7 42.2,9.6 49.3,16.7 "/>
<path class="st1" d="M42.8,11l5.1,5.1h-5.1V11 M41.6,8.1v9.1h9.1L41.6,8.1z"/>
<path class="st1" d="M27.4,33.6v14c-0.5-0.5-1.2-0.7-2-0.7c-1.3-0.2-2.5,0.8-2.7,2.1c-0.2,1.3,0.8,2.5,2.1,2.7c0.2,0,0.4,0,0.6,0
	c1.4,0.1,2.6-1,2.7-2.4V35.7l11-3.4V44c-0.5-0.5-1.2-0.7-1.9-0.7c-1.3,0.2-2.3,1.4-2.1,2.7c0.2,1.3,1.4,2.3,2.7,2.1
	c1.2-0.1,2.1-1.2,2.1-2.4V29.7L27.4,33.6z"/>
<path class="st0" d="M37.1,45.8c0.1,0.4-0.3,0.8-0.7,0.9c-0.4,0.1-0.8-0.3-0.9-0.7c-0.1-0.4,0.3-0.8,0.7-0.9c0,0,0.1,0,0.1,0
	C36.7,45.1,37.1,45.4,37.1,45.8z"/>
<path class="st0" d="M25.4,49.3c0,0.4-0.3,0.8-0.7,0.9c-0.4,0-0.8-0.3-0.9-0.7c0-0.4,0.3-0.8,0.7-0.9c0,0,0.1,0,0.1,0
	C25,48.6,25.3,48.9,25.4,49.3C25.4,49.3,25.4,49.3,25.4,49.3z"/>
<polygon class="st1" points="38.4,26.5 11.8,26.5 11.8,26.5 11.8,15.4 38.4,15.4 "/>
<path class="st0" d="M20.4,24.5l-0.7-3.3c-0.1-0.6-0.2-1-0.3-1.5c-0.1,0.5-0.2,1-0.3,1.5l-0.8,3.3h-1.5l-1.7-7.1h1.6l0.7,3.2
	c0.1,0.6,0.2,1.2,0.3,1.8c0.1-0.4,0.2-0.9,0.3-1.4l0.1-0.4l0.8-3.2h1.5l0.7,3.2c0.1,0.6,0.2,1.1,0.3,1.6c0.1-0.6,0.2-1.2,0.4-1.7
	l0.7-3.2h1.5l-1.9,7.1L20.4,24.5z"/>
<path class="st1" d="M23.6,17.5l-1.8,6.8h-1.3l-0.7-3.2c-0.2-0.7-0.3-1.4-0.4-2.2l0,0c-0.1,0.7-0.3,1.4-0.5,2.2l-0.8,3.2h-1.4
	l-1.7-6.8h1.3l0.6,3.1c0.2,0.8,0.3,1.7,0.4,2.4l0,0c0.1-0.7,0.3-1.5,0.5-2.4l0.7-3.1H20l0.7,3.1c0.2,0.8,0.3,1.6,0.4,2.3l0,0
	c0.1-0.8,0.3-1.5,0.5-2.4l0.7-3.1L23.6,17.5 M23.9,17.3h-1.7l0,0.2l-0.7,3.1c-0.1,0.3-0.1,0.7-0.2,1c-0.1-0.3-0.1-0.6-0.2-1
	l-0.7-3.1v-0.2h-1.7v0.2l-0.7,3.1L17.7,21c-0.1,0.3-0.1,0.5-0.2,0.8c-0.1-0.4-0.1-0.8-0.2-1.1l-0.6-3.1v-0.2h-1.9l0.1,0.3l1.7,6.8
	v0.2h1.8l0-0.2l0.8-3.2c0.1-0.3,0.1-0.6,0.2-0.8c0,0.3,0.1,0.5,0.2,0.8l0.7,3.2v0.2H22l0-0.2l1.8-6.8L23.9,17.3L23.9,17.3z"/>
<path class="st0" d="M28,24.5l-0.6-1.9h-2l-0.6,1.9h-1.6l2.3-7.1h1.8l2.3,7.1H28z M27.1,21.4l-0.5-1.5c-0.1-0.3-0.2-0.6-0.2-0.9
	c-0.1,0.3-0.1,0.6-0.2,0.8l-0.5,1.5H27.1z"/>
<path class="st1" d="M27.2,17.5l2.2,6.8H28l-0.6-1.9h-2.1l-0.6,1.9h-1.3l2.2-6.8H27.2 M25.5,21.5h1.8l-0.5-1.7
	c-0.1-0.4-0.2-0.9-0.4-1.3l0,0c-0.1,0.4-0.2,0.9-0.3,1.3L25.5,21.5 M27.4,17.3h-2l-0.1,0.2l-2.2,6.8l-0.1,0.3h1.8l0-0.2l0.5-1.8h1.8
	l0.6,1.8l0.1,0.2h1.8l-0.1-0.3l-2.2-6.8L27.4,17.3L27.4,17.3z M25.8,21.3l0.4-1.4c0-0.1,0.1-0.3,0.1-0.4l0.1,0.4l0.4,1.4H25.8z"/>
<path class="st0" d="M31.2,24.5l-2.3-7.1h1.6l1,3.2c0.2,0.8,0.4,1.4,0.6,2c0.2-0.6,0.3-1.3,0.6-2l1-3.2h1.6l-2.4,7.1L31.2,24.5z"/>
<path class="st1" d="M35.1,17.5l-2.3,6.8h-1.4l-2.2-6.8h1.4l0.9,3.1c0.3,0.9,0.5,1.7,0.7,2.5l0,0c0.2-0.8,0.4-1.7,0.7-2.5l1-3.1
	H35.1 M35.4,17.3h-1.8l0,0.2l-1,3.1c-0.2,0.5-0.3,1.1-0.5,1.6c-0.1-0.5-0.3-1-0.5-1.6l-0.9-3.1l0-0.2h-1.9l0.1,0.3l2.2,6.8l0,0.2
	h1.8l0.1-0.2l2.3-6.8L35.4,17.3L35.4,17.3z"/>
</svg>
