<?xml version="1.0" encoding="utf-8"?>
<!-- Generator: Adobe Illustrator 25.0.0, SVG Export Plug-In . SVG Version: 6.00 Build 0)  -->
<svg version="1.1" id="Layer_1" xmlns="http://www.w3.org/2000/svg" xmlns:xlink="http://www.w3.org/1999/xlink" x="0px" y="0px"
	 viewBox="0 0 64 64" style="enable-background:new 0 0 64 64;" xml:space="preserve">
<style type="text/css">
	.st0{fill:#FFFFFF;}
	.st1{fill:#EA6B03;}
</style>
<polygon class="st0" points="14.7,56.4 14.7,7.9 40.8,7.9 49.6,16.7 49.6,56.4 "/>
<path class="st1" d="M40.6,8.4l8.5,8.5v38.9H15.3V8.4H40.6 M41.1,7.4H14.2v49.6h36V16.5L41.1,7.4z"/>
<polygon class="st0" points="41.6,15.9 41.6,8.8 48.8,15.9 "/>
<path class="st1" d="M42.2,10.2l5.1,5.1h-5.1V10.2 M41.1,7.4v9.1h9.1L41.1,7.4z"/>
<path class="st1" d="M26.8,33V47c-0.5-0.5-1.2-0.7-1.9-0.7c-1.3-0.2-2.5,0.8-2.7,2.1C22,49.7,23,50.9,24.3,51c0.2,0,0.4,0,0.6,0
	c1.4,0.1,2.6-1,2.7-2.4l0-6.2v-7.2l10.9-3.4v11.6c-0.5-0.5-1.2-0.7-1.9-0.7c-1.3,0.2-2.3,1.4-2.1,2.7c0.2,1.3,1.4,2.3,2.7,2.1
	c1.2-0.1,2.1-1.2,2.1-2.4V29.2L26.8,33z"/>
<path class="st0" d="M36.5,45.2c0.1,0.4-0.3,0.8-0.7,0.9c-0.4,0.1-0.8-0.3-0.9-0.7s0.3-0.8,0.7-0.9c0,0,0.1,0,0.1,0
	C36.2,44.5,36.5,44.8,36.5,45.2z"/>
<path class="st0" d="M24.8,48.8c0.1,0.4-0.3,0.8-0.7,0.9c-0.4,0.1-0.8-0.3-0.9-0.7c-0.1-0.4,0.3-0.8,0.7-0.9c0,0,0.1,0,0.1,0
	C24.4,48,24.8,48.4,24.8,48.8z"/>
<rect x="11.3" y="14.6" class="st1" width="26.5" height="11.1"/>
<path class="st0" d="M18.5,23.7l-0.7-3.3c-0.1-0.6-0.2-1-0.3-1.5c-0.1,0.5-0.2,1-0.3,1.5l-0.8,3.3h-1.5l-1.7-7.1h1.5l0.6,3.2
	c0.1,0.6,0.2,1.2,0.3,1.8c0.1-0.4,0.2-0.9,0.3-1.4l0.1-0.4l0.7-3.2h1.4l0.7,3.2c0.1,0.6,0.2,1.1,0.3,1.6c0.1-0.6,0.2-1.1,0.3-1.7
	l0.7-3.2h1.5l-1.8,7.1L18.5,23.7z"/>
<path class="st1" d="M21.6,16.8l-1.8,6.8h-1.3l-0.7-3.2c-0.2-0.7-0.3-1.4-0.4-2.2h0c-0.1,0.7-0.2,1.4-0.4,2.2l-0.8,3.2H15l-1.6-6.8
	h1.3l0.6,3.1c0.2,0.8,0.3,1.7,0.4,2.4h0c0.1-0.7,0.3-1.5,0.5-2.4l0.7-3.1h1.3l0.7,3.1c0.2,0.8,0.3,1.6,0.4,2.3h0
	c0.1-0.7,0.3-1.5,0.4-2.4l0.7-3.1L21.6,16.8 M21.9,16.5h-1.7l0,0.2l-0.7,3.1c-0.1,0.3-0.1,0.7-0.2,1.1c-0.1-0.3-0.1-0.6-0.2-1
	l-0.7-3.1l0-0.2h-1.6l0,0.2L16,19.8l-0.1,0.4c-0.1,0.3-0.1,0.5-0.2,0.8c-0.1-0.4-0.1-0.8-0.2-1.1l-0.6-3.1l0-0.2h-1.8l0.1,0.3
	l1.6,6.8l0,0.2h1.7l0-0.2l0.8-3.2c0.1-0.3,0.1-0.6,0.2-0.8c0,0.3,0.1,0.5,0.2,0.8l0.7,3.2l0,0.2H20l0-0.2l1.8-6.8L21.9,16.5
	L21.9,16.5z"/>
<path class="st0" d="M28,23.7l-0.1-3c0-0.6-0.1-1.3-0.1-2c-0.2,0.6-0.4,1.3-0.6,1.9l-1,3h-1.1l-0.9-3c-0.2-0.6-0.3-1.2-0.5-1.8
	c0,0.7-0.1,1.4-0.1,2.1l-0.2,2.9h-1.4l0.5-7.1h1.8l0.9,2.8c0.2,0.6,0.4,1.3,0.5,2c0.1-0.5,0.3-1.2,0.6-2l0.9-2.8H29l0.4,7.1L28,23.7
	z"/>
<path class="st1" d="M28.9,16.8l0.4,6.8h-1.2L28,20.8c0-0.9-0.1-1.9-0.1-2.9h0c-0.2,0.8-0.5,1.7-0.8,2.6l-1,3h-0.9l-0.9-2.9
	c-0.3-0.9-0.5-1.8-0.7-2.7h0c0,0.9-0.1,2-0.1,2.9l-0.1,2.7h-1.1l0.4-6.8h1.6l0.9,2.7c0.2,0.8,0.4,1.6,0.6,2.4h0
	c0.2-0.7,0.4-1.6,0.7-2.4l0.9-2.7L28.9,16.8 M29.1,16.5h-1.9l-0.1,0.2l-0.9,2.7c-0.2,0.5-0.3,1.1-0.4,1.5c-0.1-0.5-0.3-1-0.4-1.5
	l-0.9-2.7l-0.1-0.2h-2l0,0.2L22,23.6l0,0.3h1.6l0-0.2l0.1-2.7c0-0.4,0-0.8,0.1-1.2c0.1,0.3,0.2,0.7,0.3,1l0.9,2.9l0.1,0.2h1.3
	l0.1-0.2l1-3c0.1-0.4,0.3-0.8,0.4-1.2c0,0.4,0,0.9,0.1,1.3l0,0.1l0.1,2.8l0,0.2h1.6l0-0.3l-0.4-6.8L29.1,16.5L29.1,16.5z"/>
<path class="st0" d="M34.3,23.7l-0.6-1.9h-1.9l-0.6,1.9h-1.5l2.2-7.1h1.7l2.2,7.1H34.3z M33.4,20.6L33,19.1
	c-0.1-0.3-0.2-0.6-0.2-0.8c-0.1,0.3-0.1,0.6-0.2,0.8l-0.5,1.5H33.4z"/>
<path class="st1" d="M33.6,16.8l2.1,6.8h-1.3l-0.6-1.9h-2.1l-0.6,1.9h-1.2l2.1-6.8H33.6 M31.9,20.7h1.7L33.1,19
	c-0.1-0.4-0.2-0.9-0.3-1.3h0c-0.1,0.4-0.2,0.9-0.3,1.3L31.9,20.7 M33.7,16.5h-1.9l-0.1,0.2l-2.1,6.8l-0.1,0.3h1.7l0.1-0.2l0.5-1.8
	h1.7l0.5,1.8l0.1,0.2H36l-0.1-0.3l-2.1-6.8L33.7,16.5L33.7,16.5z M32.2,20.5l0.4-1.4c0-0.1,0.1-0.3,0.1-0.4c0,0.1,0.1,0.3,0.1,0.4
	l0.4,1.4H32.2z"/>
</svg>
