<?xml version="1.0" encoding="utf-8"?>
<!-- Generator: Adobe Illustrator 25.0.0, SVG Export Plug-In . SVG Version: 6.00 Build 0)  -->
<svg version="1.1" id="Layer_1" xmlns="http://www.w3.org/2000/svg" xmlns:xlink="http://www.w3.org/1999/xlink" x="0px" y="0px"
	 viewBox="0 0 64 64" style="enable-background:new 0 0 64 64;" xml:space="preserve">
<style type="text/css">
	.st0{fill:#FFFFFF;}
	.st1{fill:#4C9315;}
</style>
<polygon class="st0" points="14.7,56.8 14.7,8.3 40.8,8.3 49.6,17.1 49.6,56.8 "/>
<path class="st1" d="M40.6,8.8l8.5,8.5v38.9H15.3V8.8H40.6 M41,7.7H14.2v49.6h36V16.9C50.2,16.9,41,7.7,41,7.7z"/>
<polygon class="st0" points="41.6,16.3 41.6,9.1 48.8,16.3 "/>
<path class="st1" d="M42.2,10.6l5.1,5.1h-5.1V10.6 M41,7.7v9.1h9.1L41,7.7z"/>
<path class="st1" d="M20.8,33.4v16h22.9v-16H20.8z M27.2,44.6V42h7.2v2.7L27.2,44.6z M34.4,45.7v2.7h-7.2v-2.7H34.4z M27.2,40.9
	v-2.7h7.2v2.7H27.2z M27.2,37.2v-2.7h7.2v2.7H27.2z M21.8,34.5h4.4v2.7h-4.4V34.5z M21.8,38.2h4.4v2.7h-4.4V38.2z M21.8,42h4.4v2.7
	h-4.4V42z M21.8,45.7h4.4v2.7h-4.4V45.7z M42.6,48.4h-7.2v-2.7h7.2V48.4z M42.6,44.6h-7.2V42h7.2V44.6z M42.6,40.9h-7.2v-2.7h7.2
	V40.9z M42.6,37.2h-7.2v-2.7h7.2V37.2z"/>
<polygon class="st1" points="37.8,26.1 11.3,26.1 11.3,26.1 11.3,15 37.8,15 "/>
<path class="st0" d="M20.9,24.1l-0.8-1.4c-0.2-0.4-0.4-0.8-0.6-1.1c-0.1,0.3-0.3,0.6-0.5,1.1l-0.7,1.4h-1.7l2.1-3.6l-2-3.5h1.7
	l0.8,1.5c0.2,0.3,0.3,0.6,0.5,0.9c0.1-0.3,0.3-0.6,0.4-0.9l0.8-1.5h1.7l-2.1,3.5l2.1,3.6H20.9z"/>
<path class="st1" d="M22.4,17.1l-2,3.3l2.1,3.5H21l-0.7-1.4c-0.3-0.5-0.5-0.9-0.7-1.3l0,0c-0.2,0.4-0.4,0.9-0.6,1.3L18.3,24h-1.4
	l2-3.5l-1.9-3.4h1.4l0.7,1.4c0.2,0.4,0.4,0.8,0.6,1.1l0,0c0.2-0.4,0.3-0.7,0.5-1.1l0.7-1.4L22.4,17.1 M22.7,16.9h-2l-0.1,0.1
	L20,18.4l-0.3,0.7c-0.1-0.2-0.2-0.5-0.4-0.7L18.5,17l-0.1-0.1h-2l0.2,0.4l1.9,3.2l-2,3.3l-0.2,0.4h2l0.1-0.1l0.7-1.4
	c0.2-0.3,0.3-0.6,0.4-0.9c0.1,0.3,0.3,0.5,0.5,0.9l0.7,1.4l0.1,0.1h2l-0.2-0.4l-2-3.4l1.9-3.2L22.7,16.9L22.7,16.9z"/>
<polygon class="st0" points="23.2,24.1 23.2,17 24.7,17 24.7,22.8 27.5,22.8 27.5,24.1 "/>
<path class="st1" d="M24.6,17.1v5.8h2.8v1h-4v-6.8H24.6 M24.8,16.9h-1.7v7.3h4.5v-1.5h-2.8C24.8,22.7,24.8,16.9,24.8,16.9z"/>
<path class="st0" d="M29.9,24.2c-0.7,0-1.3-0.2-1.9-0.5h-0.1l0.3-1.3l0.1,0.1c0.5,0.3,1,0.4,1.6,0.4c0.7,0,1.1-0.3,1.1-0.8
	s-0.3-0.7-1.1-1c-1.3-0.5-2-1.2-2-2.1c0.1-1.2,1.1-2.2,2.4-2.1c0.1,0,0.1,0,0.2,0c0.6,0,1.2,0.1,1.7,0.4l0.1,0L32,18.6l-0.1-0.1
	c-0.4-0.2-0.8-0.3-1.3-0.3c-0.7,0-1,0.4-1,0.7s0.3,0.6,1.2,1c1.2,0.5,1.8,1.1,1.8,2.1S31.9,24.2,29.9,24.2z"/>
<path class="st1" d="M30.5,17c0.6,0,1.1,0.1,1.6,0.4l-0.3,1C31.5,18.1,31,18,30.5,18c-0.8,0-1.1,0.4-1.1,0.8s0.4,0.8,1.3,1.1
	c1.2,0.4,1.8,1,1.8,2s-0.8,2-2.6,2c-0.6,0-1.3-0.1-1.9-0.3l0.3-1c0.5,0.3,1.1,0.4,1.7,0.4c0.8,0,1.2-0.4,1.2-0.9S30.9,21.3,30,21
	c-1.1-0.4-1.8-1-1.8-2S29.1,17,30.5,17 M30.6,16.8c-1.6,0-2.6,0.9-2.6,2.2c0,1,0.7,1.7,2,2.2c0.9,0.3,1,0.6,1,0.9
	c0,0.6-0.7,0.7-1,0.7c-0.5,0-1.1-0.1-1.5-0.4l-0.3-0.2l-0.1,0.3l-0.3,1l0,0.2l0.2,0.1c0.6,0.3,1.3,0.5,2,0.5c2.1,0,2.8-1.2,2.8-2.3
	s-0.6-1.8-1.9-2.2c-0.9-0.4-1.1-0.5-1.1-0.9s0.3-0.6,0.9-0.6c0.4,0,0.9,0.1,1.2,0.3l0.3,0.1l0.1-0.3l0.3-1v-0.2l-0.2-0.1
	C31.7,16.8,31.1,16.7,30.6,16.8L30.6,16.8z"/>
</svg>
