<?xml version="1.0" encoding="utf-8"?>
<!-- Generator: Adobe Illustrator 25.0.0, SVG Export Plug-In . SVG Version: 6.00 Build 0)  -->
<svg version="1.1" id="Layer_1" xmlns="http://www.w3.org/2000/svg" xmlns:xlink="http://www.w3.org/1999/xlink" x="0px" y="0px"
	 viewBox="0 0 64 64" style="enable-background:new 0 0 64 64;" xml:space="preserve">
<style type="text/css">
	.st0{fill:#FFFFFF;}
	.st1{fill:#51448C;}
</style>
<polygon class="st0" points="15.6,57.2 15.6,8.7 41.7,8.7 50.5,17.5 50.5,57.2 "/>
<path class="st1" d="M41.5,9.2l8.5,8.5v38.9H16.2V9.2H41.5 M41.9,8.1H15.1v49.6h36V17.3C51.1,17.3,41.9,8.1,41.9,8.1z"/>
<polygon class="st0" points="42.5,16.7 42.5,9.6 49.7,16.7 "/>
<path class="st1" d="M43.1,11l5.1,5.1h-5.1V11 M41.9,8.1v9.1h9.1L41.9,8.1z"/>
<path class="st1" d="M30.1,46.8l4.4-13.1h1.6l-4.4,13.1H30.1z"/>
<path class="st1" d="M22.1,39.5l7-4.6v1.8l-5.5,3.5l0,0l5.6,3.5v1.8l-7-4.6L22.1,39.5z"/>
<path class="st1" d="M44,41l-7,4.6v-1.8l5.6-3.5l0,0L37,36.7v-1.8l7,4.6V41z"/>
<rect x="12.2" y="15.4" class="st1" width="26.5" height="11.1"/>
<path class="st0" d="M20.5,24.5l-0.8-1.4c-0.2-0.4-0.4-0.8-0.6-1.1c-0.1,0.3-0.3,0.6-0.5,1.1l-0.7,1.4h-1.7l2.1-3.6l-2-3.5H18
	l0.8,1.5c0.2,0.4,0.3,0.6,0.5,0.9c0.1-0.3,0.3-0.6,0.4-0.9l0.8-1.5h1.7l-2.1,3.4l2.1,3.6H20.5z"/>
<path class="st1" d="M22,17.5l-2,3.3l2,3.5h-1.4L19.9,23c-0.3-0.5-0.5-0.9-0.7-1.3l0,0c-0.2,0.4-0.3,0.8-0.6,1.3l-0.7,1.4h-1.5
	l2-3.5l-2-3.4h1.4l0.8,1.5l0.6,1.1l0,0c0.2-0.4,0.3-0.7,0.5-1.1l0.7-1.4L22,17.5 M22.4,17.4h-2l-0.1,0.1l-0.7,1.4
	c-0.1,0.3-0.2,0.5-0.3,0.7c-0.1-0.2-0.2-0.4-0.4-0.7l-0.7-1.4l-0.1-0.1h-2l0.2,0.4l1.9,3.2l-2,3.3L16,24.7h2l0.1-0.1l0.7-1.4
	c0.2-0.3,0.3-0.6,0.4-0.9c0.1,0.2,0.3,0.5,0.5,0.9l0.7,1.4l0.1,0.1h2l-0.2-0.4l-2-3.4l1.9-3.2L22.4,17.4L22.4,17.4z"/>
<path class="st0" d="M28.7,24.5l-0.1-3c0-0.6-0.1-1.3-0.1-2c-0.2,0.6-0.4,1.3-0.6,1.9l-1,3h-1.2l-0.9-3c-0.2-0.6-0.4-1.2-0.5-1.8
	c0,0.6,0,1.4-0.1,2.1l-0.2,2.9h-1.4l0.5-7.1H25l0.9,2.8c0.2,0.6,0.4,1.3,0.5,2c0.1-0.5,0.3-1.2,0.6-2l1-2.8h1.8l0.4,7.1L28.7,24.5z"
	/>
<path class="st1" d="M29.7,17.5l0.4,6.8h-1.2l-0.1-2.8c0-0.9-0.1-1.9-0.1-2.9l0,0c-0.2,0.8-0.5,1.8-0.8,2.6l-1,3h-1l-0.9-2.9
	c-0.3-0.9-0.5-1.8-0.7-2.6l0,0c0,0.9-0.1,2-0.1,2.9L24,24.4h-1.2l0.5-6.8h1.6l0.9,2.8c0.2,0.8,0.5,1.6,0.6,2.4l0,0
	c0.2-0.7,0.4-1.6,0.7-2.4l0.9-2.7H29.7 M29.9,17.3h-2l-0.1,0.2l-0.9,2.7c-0.2,0.5-0.3,1-0.5,1.5c-0.1-0.5-0.3-1-0.4-1.5l-0.9-2.7
	l0-0.2h-2v0.2l-0.5,6.8v0.2h1.7v-0.2l0.1-2.8c0-0.4,0-0.8,0.1-1.2c0.1,0.4,0.2,0.7,0.3,1l0.9,2.9l0,0.2H27l0.1-0.2l1-3
	c0.1-0.4,0.3-0.8,0.4-1.2c0,0.4,0,0.9,0,1.3v0.1l0.1,2.8v0.2h1.7v-0.2l-0.4-6.8L29.9,17.3L29.9,17.3z"/>
<polygon class="st0" points="31.2,24.5 31.2,17.4 32.7,17.4 32.7,23.2 35.5,23.2 35.5,24.5 "/>
<path class="st1" d="M32.6,17.5v5.8h2.8v1h-4v-6.8H32.6 M32.9,17.3h-1.8v7.3h4.5v-1.5h-2.8L32.9,17.3L32.9,17.3z"/>
</svg>
