<?xml version="1.0" encoding="utf-8"?>
<!-- Generator: Adobe Illustrator 25.0.0, SVG Export Plug-In . SVG Version: 6.00 Build 0)  -->
<svg version="1.1" id="Layer_1" xmlns="http://www.w3.org/2000/svg" xmlns:xlink="http://www.w3.org/1999/xlink" x="0px" y="0px"
	 viewBox="0 0 64 64" style="enable-background:new 0 0 64 64;" xml:space="preserve">
<style type="text/css">
	.st0{fill:#FFFFFF;}
	.st1{fill:#EA6B03;}
</style>
<polygon class="st0" points="14.8,57 14.8,8.5 40.9,8.5 49.7,17.3 49.7,57 "/>
<path class="st1" d="M40.7,9l8.5,8.5v38.9H15.3V9H40.7 M41.1,7.9H14.2v49.6h36V17.1L41.1,7.9L41.1,7.9z"/>
<polygon class="st0" points="41.7,16.5 41.7,9.4 48.8,16.5 "/>
<path class="st1" d="M42.3,10.8l5.1,5.1h-5.1V10.8 M41.1,7.9v9.1h9.1L41.1,7.9z"/>
<path class="st1" d="M34.8,50.2l-0.5-1.3c-0.1-0.3-0.2-0.6-0.2-0.9L34,46.7v-0.1c-0.1-0.4-0.5-0.7-1-0.7h-0.1v-0.8l1.7,0.1V44
	l-1.4,0.1v-0.9l1.4,0.1V42l-1.4,0.1v-0.9l1.4,0.1V40l-1.4,0.1v-0.9l1.4,0.1V38l-1.4,0v-0.9l1.4,0.1V36l-1.4,0.1v-0.9l1.4,0.1V34
	l-1.4,0.1v-0.9l1.4,0.1V32l-1.4,0.1v-0.9L30,31v1.2l1.4-0.1v0.9L30,33v1.2l1.4-0.1v0.9L30,35v1.2h1.4v0.9L30,37v1.2h1.4v0.9L30,39
	v1.2l1.4-0.1v0.9L30,41v1.2l1.4-0.1v0.9L30,43v1.2h1.4v0.9h0.3v0.8h-0.1c-0.5,0-0.9,0.3-1,0.7L30.4,48c0,0.3-0.1,0.6-0.2,0.9
	l-0.5,1.2v0.1c-0.1,0.3,0,0.5,0.2,0.7c0.2,0.2,0.5,0.4,0.8,0.3h3.1c0.3,0,0.6-0.1,0.8-0.3C34.8,50.7,34.8,50.5,34.8,50.2z
	 M31.1,50.1l0.3-0.8c0.1-0.2,0.1-0.4,0.2-0.5h1.4c0,0.2,0.1,0.4,0.2,0.5l0.3,0.8L31.1,50.1z"/>
<rect x="11.3" y="15.2" class="st1" width="26.5" height="11.1"/>
<polygon class="st0" points="17.8,24.3 17.8,23.5 21.2,18.5 18.1,18.5 18.1,17.3 23.1,17.3 23.1,18.1 19.8,23 23.2,23 23.2,24.3 "/>
<path class="st1" d="M23,17.4v0.7l-3.4,5l0,0H23v1h-5.2v-0.7l3.5-5.1l0,0h-3.2v-1L23,17.4 M23.2,17.1H18v1.5h3l-3.2,4.7l0,0.1v1h5.6
	v-1.5H20l3.2-4.7v-0.1L23.2,17.1L23.2,17.1z"/>
<rect x="24" y="17.3" class="st0" width="1.5" height="7.1"/>
<path class="st1" d="M25.3,17.4v6.8h-1.2v-6.8H25.3 M25.5,17.1h-1.7v7.3h1.7V17.1z"/>
<path class="st0" d="M26.6,24.3v-6.9h0.1c0.6-0.1,1.3-0.1,1.9-0.1c0.7-0.1,1.5,0.1,2.1,0.6c0.5,0.4,0.7,1,0.7,1.6
	c0,0.6-0.2,1.2-0.6,1.6c-0.6,0.5-1.4,0.8-2.2,0.8h-0.5v2.5L26.6,24.3z M28.1,20.5c0.2,0,0.3,0,0.5,0c0.9,0,1.4-0.4,1.4-1.1
	c0-0.9-0.8-1-1.3-1c-0.2,0-0.4,0-0.6,0V20.5z"/>
<path class="st1" d="M28.6,17.3c0.7-0.1,1.4,0.1,2,0.5c0.4,0.4,0.7,0.9,0.7,1.5c0,0.6-0.2,1.1-0.6,1.5c-0.6,0.5-1.4,0.8-2.1,0.7
	c-0.2,0-0.4,0-0.6,0v2.5h-1.2v-6.7C27.4,17.4,28,17.3,28.6,17.3 M28.6,20.7c0.9,0,1.5-0.5,1.5-1.3s-0.5-1.2-1.4-1.2
	c-0.2,0-0.5,0-0.7,0.1v2.3C28.2,20.7,28.4,20.7,28.6,20.7 M28.6,17.1c-0.7,0-1.3,0-2,0.1h-0.2v7.2h1.7v-2.5h0.4
	c0.8,0.1,1.7-0.2,2.3-0.8c0.5-0.5,0.7-1.1,0.7-1.7c0-0.6-0.3-1.3-0.8-1.7C30.2,17.2,29.4,17,28.6,17.1L28.6,17.1z M28.2,18.5
	c0.2,0,0.3,0,0.5,0c0.5,0,1.1,0.2,1.1,0.9s-0.8,1-1.2,1h-0.4C28.2,20.5,28.2,18.5,28.2,18.5z"/>
</svg>
