<?xml version="1.0" encoding="utf-8"?>
<!-- Generator: Adobe Illustrator 24.1.3, SVG Export Plug-In . SVG Version: 6.00 Build 0)  -->
<svg version="1.1" id="Layer_1" xmlns="http://www.w3.org/2000/svg" xmlns:xlink="http://www.w3.org/1999/xlink" x="0px" y="0px"
	 viewBox="0 0 250 250" style="enable-background:new 0 0 250 250;" xml:space="preserve">
<style type="text/css">
	.st0{fill-rule:evenodd;clip-rule:evenodd;fill:#FFFFFF;}
</style>
<circle cx="125" cy="125" r="124"/>
<g>
	<path class="st0" d="M165.6,139.7c-2.1-1.1-12.2-6.5-14-7.3c-1.9-0.8-3.3-1.2-4.7,0.9c-1.5,2-5.7,6.5-6.9,7.9
		c-1.3,1.4-2.5,1.5-4.6,0.4c-2.1-1.1-8.7-3.6-16.4-10.9c-6-5.7-10-12.7-11.1-14.8c-1.1-2.1,0-3.2,1.1-4.2c1-0.9,2.2-2.4,3.3-3.5
		c1.1-1.2,1.5-2,2.2-3.4c0.8-1.4,0.5-2.6,0-3.6c-0.5-1.1-4.3-11.4-5.9-15.6c-1.6-4.2-3.3-3.6-4.6-3.6c-1.2,0-2.6-0.3-4-0.3
		c-1.4-0.1-3.7,0.4-5.7,2.4c-2,2-7.6,6.8-8,17.1c-0.4,10.2,6.7,20.4,7.7,21.8c1,1.4,13.6,23.6,34.6,32.7c21,9.1,21.1,6.3,24.9,6.1
		s12.6-4.6,14.5-9.4c1.9-4.8,2.1-8.9,1.6-9.8C169,141.4,167.6,140.8,165.6,139.7L165.6,139.7z M127.1,188.9
		c-13.9,0-26.8-4.1-37.5-11.2l-26.2,8.3l8.5-25.2c-8.2-11.2-13-24.9-13-39.7c0-37.3,30.6-67.7,68.2-67.7s68.2,30.4,68.2,67.7
		C195.4,158.6,164.8,188.9,127.1,188.9L127.1,188.9z M127.1,39.9c-45.3,0-82,36.4-82,81.4c0,15.4,4.3,29.7,11.8,42l-14.8,43.6
		l45.4-14.4c11.7,6.4,25.3,10.1,39.6,10.1c45.3,0,82-36.4,82-81.4C209.1,76.3,172.4,39.9,127.1,39.9L127.1,39.9z"/>
</g>
</svg>
