<?xml version="1.0" encoding="utf-8"?>
<!-- Generator: Adobe Illustrator 24.1.3, SVG Export Plug-In . SVG Version: 6.00 Build 0)  -->
<svg version="1.1" id="Layer_1" xmlns="http://www.w3.org/2000/svg" xmlns:xlink="http://www.w3.org/1999/xlink" x="0px" y="0px"
	 viewBox="0 0 250 250" style="enable-background:new 0 0 250 250;" xml:space="preserve">
<style type="text/css">
	.st0{fill:#FFFFFF;}
</style>
<circle cx="125" cy="125" r="124"/>
<path id="XMLID_8_" class="st0" d="M151.8,61.8c6.4-7.9,10.7-18.8,9.5-29.6c-9.2,0.4-20.3,6.2-26.9,14c-5.9,7-11.1,18.1-9.7,28.7
	C135,75.8,145.4,69.6,151.8,61.8z"/>
<path id="XMLID_7_" class="st0" d="M174.8,130.8c-0.1-7.4,1.8-13.6,4.4-18.7c5.6-10.9,14.7-16.3,15.3-16.7
	c-10.7-15.9-27.4-18.1-33.4-18.4c-14.2-1.5-27.7,8.5-34.9,8.5c-7.2,0-18.3-8.3-30.1-8.1c-15.5,0.2-29.8,9.2-37.7,23.3
	c-2.5,4.4-4.3,9.1-5.5,14c-6.8,26.9,3.8,60.1,17.1,79.6c7.7,11.3,16.8,24,28.8,23.5c11.6-0.5,15.9-7.6,29.9-7.6
	c14,0,17.9,7.6,30.1,7.4c12.4-0.2,20.3-11.5,27.9-22.8c8.8-13.1,12.4-25.8,12.6-26.4C199,168.2,175,158.9,174.8,130.8z"/>
</svg>
