<?xml version="1.0" encoding="utf-8"?>
<!-- Generator: Adobe Illustrator 24.1.3, SVG Export Plug-In . SVG Version: 6.00 Build 0)  -->
<svg version="1.1" id="Layer_1" xmlns="http://www.w3.org/2000/svg" xmlns:xlink="http://www.w3.org/1999/xlink" x="0px" y="0px"
	 viewBox="0 0 250 250" style="enable-background:new 0 0 250 250;" xml:space="preserve">
<style type="text/css">
	.st0{fill-rule:evenodd;clip-rule:evenodd;fill:#FFFFFF;}
</style>
<circle cx="125" cy="125" r="124"/>
<path id="XMLID_6_" class="st0" d="M213.2,166.1L213.2,166.1c0-0.1-0.1-0.1-0.2-0.2c0,0,0,0,0,0l0,0c-2.2-1.4-4.3-1.6-5.7-2.1
	c0,0-0.1,0-0.1,0c-9.3-2.9-17.4-9.3-23.5-17.1c-3.3-4.3-6.2-9-8-14c0,0,0,0,0-0.1c-0.7-2.2-0.8-4.6,0.3-6c0,0,0,0,0,0
	c1.7-2.4,4.8-3.9,8.1-5.1c0,0,0,0,0,0c3.7-1.3,7.6-2.7,10.9-5.6c0,0,0,0,0.1,0c0.5-0.4,1.1-1.1,1.6-2c0.1-0.2,0.2-0.4,0.3-0.7
	c0.3-0.9,0.3-1.9-0.2-2.9c0,0,0,0,0,0c-1-1.9-2.6-2.9-3.8-3.6h0c-2-1.2-4.4-1.3-6.5-0.6l0,0h0c-2.2,0.7-4.1,1.5-5.8,1.7
	c0,0-0.1,0-0.1,0c-2.4,0.4-4.8,0.5-6.6-0.2c0-0.3,0-0.8-0.1-1.4h0c-0.2-4,0.2-8.1,0.3-12.3c0,0,0,0,0,0c0.2-6.4,0.4-13.1-0.5-19.8
	c0,0,0-0.1,0-0.1c-2.1-11.3-9.3-21-18.5-27.5c-6.7-4.7-14.6-7.3-22.7-8.1l0,0c-2.8-0.3-5.5-0.3-8.2-0.3c-10.9,0.1-22.2,2.9-31,9.8
	c-6.6,5.2-11.8,12-15.1,19.7v0c-3.1,7.9-2.9,16.3-2.4,24l0,0c0.3,5.5,0.9,10.7,0.4,15.8c0,0.2,0,0.3-0.1,0.3
	c-2.4,0.4-5.1,0.3-7.8-0.2h0c-1.8-0.3-3.8-1-6-1.7c0,0-0.1,0-0.1,0c-2.1-0.4-4.2,0.1-5.8,1.3c0,0-0.1,0-0.1,0c0,0-0.1,0-0.1,0.1
	c-1.3,0.8-3.1,2.3-3.2,4.8c0,0.2,0,0.3,0,0.4c0,0,0,0,0,0c0.3,1.4,1.2,2.5,2,3.2c0.8,0.7,1.6,1.2,2,1.5c0,0,0.1,0,0.1,0.1
	c4,2.6,8.4,3.8,12.2,5.3l0,0c2.6,1.2,4.9,2.9,5.5,5.2c0.7,2.9-0.6,6.2-2.2,9.3v0c-4.3,8.4-10.7,15.8-18.5,21.2
	c-4.1,2.8-8.8,4.9-13.6,6.2c0,0-0.1,0-0.2,0.1c-1,0.4-3.3,0.6-4.8,2.8c-0.1,0.2-0.2,0.3-0.3,0.5c-0.5,1.4,0.1,2.9,0.8,3.8
	c0.7,0.8,1.4,1.3,2.1,1.6c0,0,0.1,0,0.1,0c4,2.4,8.5,3.3,12.6,4.4c0,0,0,0,0,0c2.9,0.6,5.7,1,7.9,1.9c0.1,0.2,0.3,0.9,0.8,2.1
	c0.7,2.2,1.1,4.8,1.9,7.6c0.3,0.7,0.9,1.4,1.7,1.5c1.9,0.4,2.9-0.2,3-0.3c0.1,0,0.2,0,0.3,0c6.8-1.2,13.6-2.2,19.9-0.7l0,0
	c6.5,1.7,12.2,6.2,18.6,10.1v0.1l0,0c4.3,2.6,9.2,5.3,14.9,5.5l0,0c0,0,0,0,0,0c4.3,0.3,8.5,0,12.6-0.3c0,0,0,0,0.1,0
	c3.5-0.3,6.9-1.5,9.9-3.4c0,0,0.1-0.1,0.1-0.1c6.7-3.9,12.7-8.4,19.3-11.3h0c2.1-0.7,4.8-0.7,7.7-0.9c0,0,0.1,0,0.1,0
	c5.5-0.2,10.9,0.1,16.3,0.8c0.2,0,0.4,0,0.5,0c0.7-0.1,1.5-0.6,1.9-1c0.4-0.4,0.5-0.9,0.6-1.2c0.2-0.5,0.3-0.8,0-0.3
	c0.1-0.2,0.2-0.3,0.2-0.4c1-3.3,1.5-6.2,3.1-8c0.7-0.7,1.9-1,3.3-1c0.1,0,0.2,0,0.3,0c4.7-0.5,8.9-2.2,12.9-3.6c0,0,0.1,0,0.2,0
	c1.5-0.7,3.7-1.4,5.3-3.5c0,0,0,0,0,0l0,0C215.6,169.7,215,167.2,213.2,166.1L213.2,166.1z"/>
</svg>
