<?xml version="1.0" encoding="utf-8"?>
<!-- Generator: Adobe Illustrator 24.1.3, SVG Export Plug-In . SVG Version: 6.00 Build 0)  -->
<svg version="1.1" id="Layer_1" xmlns="http://www.w3.org/2000/svg" xmlns:xlink="http://www.w3.org/1999/xlink" x="0px" y="0px"
	 viewBox="0 0 250 250" style="enable-background:new 0 0 250 250;" xml:space="preserve">
<style type="text/css">
	.st0{fill:#FFFFFF;}
</style>
<circle cx="125" cy="125" r="124"/>
<g>
	<path class="st0" d="M84.5,109.8c-0.1,1.9,0.2,3.7,0.7,5.5c0.6,1.5,1.2,3,2,4.4c0.3,0.4,0.4,0.9,0.4,1.4c0,0.6-0.4,1.2-1.2,1.9
		l-3.9,2.6c-0.5,0.3-1,0.5-1.6,0.6c-0.7-0.1-1.4-0.4-1.9-0.9c-0.8-0.9-1.6-1.9-2.2-2.9c-0.6-1.1-1.2-2.2-1.9-3.6
		c-4.8,5.7-10.9,8.5-18.2,8.5c-5.2,0-9.3-1.5-12.3-4.5c-3-3-4.6-6.9-4.6-11.8c0-5.3,1.9-9.5,5.6-12.7c3.8-3.2,8.8-4.8,15.1-4.8
		c2.2,0,4.4,0.2,6.6,0.5c2.3,0.3,4.6,0.8,7.1,1.4v-4.5c0-4.7-1-8-2.9-9.9c-2-1.9-5.3-2.8-10.1-2.8c-2.2,0-4.5,0.3-6.7,0.8
		c-2.3,0.5-4.5,1.2-6.7,2.1c-0.7,0.3-1.4,0.6-2.2,0.8c-0.3,0.1-0.6,0.2-1,0.2c-0.9,0-1.3-0.6-1.3-1.9v-3c0-1,0.1-1.7,0.4-2.2
		c0.5-0.6,1.1-1,1.7-1.3c2.5-1.2,5.1-2.2,7.8-2.8c3.1-0.8,6.4-1.2,9.6-1.2c7.4,0,12.7,1.7,16.2,5c3.4,3.3,5.1,8.4,5.1,15.2
		L84.5,109.8L84.5,109.8L84.5,109.8z M59.4,119.2c2.2,0,4.3-0.4,6.4-1.1c2.3-0.8,4.3-2.2,5.9-4c1-1.1,1.7-2.5,2.1-4
		c0.4-1.8,0.6-3.6,0.6-5.4v-2.6c-1.9-0.5-3.8-0.8-5.7-1.1c-1.9-0.2-3.9-0.4-5.8-0.4c-4.1,0-7.2,0.8-9.2,2.5c-2,1.7-3,4-3,7.1
		c0,2.9,0.7,5.1,2.3,6.6C54.4,118.5,56.6,119.2,59.4,119.2L59.4,119.2z M109,125.9c-1.1,0-1.9-0.2-2.3-0.6c-0.5-0.4-0.9-1.2-1.3-2.4
		L90.8,75.1c-0.3-0.8-0.5-1.6-0.6-2.5c0-1,0.5-1.5,1.5-1.5h6.1c1.2,0,2,0.2,2.4,0.6c0.5,0.4,0.9,1.2,1.2,2.4l10.4,40.9l9.6-40.9
		c0.3-1.2,0.7-2,1.2-2.4c0.5-0.4,1.4-0.6,2.5-0.6h4.9c1.2,0,2,0.2,2.5,0.6c0.5,0.4,0.9,1.2,1.2,2.4l9.7,41.4l10.7-41.4
		c0.4-1.2,0.8-2,1.2-2.4c0.5-0.4,1.3-0.6,2.4-0.6h5.7c1,0,1.5,0.5,1.5,1.5c0,0.3-0.1,0.7-0.1,1c-0.1,0.5-0.2,1-0.4,1.5l-14.9,47.7
		c-0.4,1.2-0.8,2-1.3,2.4c-0.7,0.4-1.5,0.7-2.3,0.6h-5.3c-1.2,0-2-0.2-2.5-0.6c-0.5-0.4-0.9-1.2-1.2-2.5L127.5,83l-9.5,39.8
		c-0.3,1.2-0.7,2-1.2,2.5c-0.5,0.4-1.4,0.6-2.5,0.6L109,125.9L109,125.9z M188.4,127.5c-3.2,0-6.4-0.4-9.5-1.1
		c-3.1-0.7-5.5-1.5-7.1-2.5c-1-0.6-1.7-1.2-1.9-1.7c-0.2-0.5-0.4-1.1-0.4-1.7v-3.2c0-1.3,0.5-1.9,1.4-1.9c0.4,0,0.8,0.1,1.1,0.2
		c0.4,0.1,0.9,0.4,1.5,0.6c2.2,1,4.5,1.7,6.8,2.2c2.4,0.5,4.9,0.7,7.4,0.7c3.9,0,6.9-0.7,9-2c2-1.2,3.3-3.5,3.2-5.9
		c0-1.6-0.6-3.2-1.7-4.3c-1.1-1.2-3.2-2.2-6.2-3.2l-8.9-2.8c-4.5-1.4-7.8-3.5-9.9-6.3c-2-2.6-3.1-5.7-3.1-8.9
		c-0.1-2.4,0.5-4.8,1.7-6.9c1.1-2,2.6-3.7,4.4-5.1c1.9-1.4,4.1-2.5,6.4-3.2c2.5-0.7,5.1-1.1,7.8-1c1.4,0,2.8,0.1,4.1,0.2
		c1.4,0.2,2.7,0.4,4,0.7c1.2,0.3,2.4,0.6,3.5,1c0.9,0.3,1.8,0.6,2.6,1.1c0.7,0.4,1.4,0.9,1.9,1.5c0.4,0.6,0.6,1.3,0.6,2V79
		c0,1.3-0.5,2-1.4,2c-0.5,0-1.3-0.2-2.3-0.7c-3.5-1.6-7.5-2.4-11.9-2.4c-3.5,0-6.3,0.6-8.2,1.7c-1.9,1.2-2.9,3-2.9,5.5
		c0,1.7,0.6,3.2,1.9,4.4c1.2,1.2,3.5,2.3,6.8,3.4l8.8,2.8c4.5,1.4,7.7,3.4,9.6,5.9c1.9,2.5,2.9,5.5,2.8,8.7c0,2.5-0.5,4.9-1.6,7.2
		c-1.1,2.1-2.6,4-4.5,5.4c-2,1.6-4.4,2.8-6.9,3.5C194.3,127.1,191.3,127.6,188.4,127.5L188.4,127.5z"/>
	<path class="st0" d="M200,157.6c-20.3,15-49.8,23-75.2,23c-35.6,0-67.6-13.1-91.8-35c-1.9-1.7-0.2-4.1,2.1-2.7
		c26.2,15.2,58.5,24.4,91.9,24.4c22.5,0,47.3-4.7,70.1-14.3C200.5,151.3,203.4,155.1,200,157.6L200,157.6z"/>
	<path class="st0" d="M208.5,147.9c-2.6-3.3-17.2-1.6-23.8-0.8c-2,0.2-2.3-1.5-0.5-2.8c11.6-8.2,30.7-5.8,32.9-3.1
		c2.2,2.8-0.6,21.9-11.5,31c-1.7,1.4-3.3,0.7-2.5-1.2C205.6,165,211.1,151.2,208.5,147.9L208.5,147.9z"/>
</g>
</svg>
