<?xml version="1.0" encoding="utf-8"?>
<!-- Generator: Adobe Illustrator 24.1.3, SVG Export Plug-In . SVG Version: 6.00 Build 0)  -->
<svg version="1.1" id="Layer_1" xmlns="http://www.w3.org/2000/svg" xmlns:xlink="http://www.w3.org/1999/xlink" x="0px" y="0px"
	 viewBox="0 0 250 250" style="enable-background:new 0 0 250 250;" xml:space="preserve">
<style type="text/css">
	.st0{fill:#FFFFFF;}
</style>
<circle cx="125" cy="125" r="124"/>
<g>
	<path class="st0" d="M124.9,32.9C76,32.9,36,71.1,33,119.2h63.1V102c0-3.2,2.6-5.8,5.8-5.8h46.1c3.2,0,5.8,2.6,5.8,5.8V148
		c0,3.2-2.6,5.8-5.8,5.8h-46.1c-3.2,0-5.8-2.6-5.8-5.8v-17.3H33c3,48.1,43,86.4,91.9,86.4c50.8,0,92.1-41.3,92.1-92.1
		S175.7,32.9,124.9,32.9L124.9,32.9z"/>
</g>
</svg>
