<?xml version="1.0" encoding="utf-8"?>
<!-- Generator: Adobe Illustrator 24.1.3, SVG Export Plug-In . SVG Version: 6.00 Build 0)  -->
<svg version="1.1" id="Layer_1" xmlns="http://www.w3.org/2000/svg" xmlns:xlink="http://www.w3.org/1999/xlink" x="0px" y="0px"
	 viewBox="0 0 250 250" style="enable-background:new 0 0 250 250;" xml:space="preserve">
<style type="text/css">
	.st0{fill:#FFFFFF;}
</style>
<circle cx="125" cy="125" r="124"/>
<path id="XMLID_1_" class="st0" d="M43.3,125.1c0,45.1,36.6,81.7,81.7,81.7c5.2,0,10.3-0.5,15.3-1.5c7.2,4.3,15.6,6.8,24.6,6.8
	c26.3,0,47.7-21.4,47.7-47.7c0-9.2-2.6-17.8-7.2-25.1c0.8-4.6,1.3-9.4,1.3-14.2c0-45.1-36.6-81.7-81.7-81.7c-5.1,0-10.2,0.5-15,1.4
	c-7.2-4.4-15.7-6.9-24.7-6.9c-26.3,0-47.6,21.3-47.6,47.7c0,9.2,2.6,17.7,7.1,25C43.7,115.3,43.3,120.1,43.3,125.1z M125.8,67
	c26.3,1.5,41.8,13.1,43.3,23.9c0.7,7.1-4,12.6-12.1,12.6c-11.9,0-13.1-15.9-33.6-15.9c-9.3,0-17.1,3.9-17.1,12.2
	c0,17.4,65.7,7.3,65.7,45.7c0,22.1-17.7,36.6-44.2,36.6c-23.3,0-46.6-10.5-46.5-28.7c0-5.5,4.1-10.5,9.6-10.5
	c13.7,0,13.6,20.4,35.4,20.4c15.3,0,20.5-8.3,20.5-14.2c0-21-66.1-8.1-66.1-47.6C80.6,80.2,98.2,65.4,125.8,67z"/>
</svg>
