<?xml version="1.0" encoding="utf-8"?>
<!-- Generator: Adobe Illustrator 24.1.3, SVG Export Plug-In . SVG Version: 6.00 Build 0)  -->
<svg version="1.1" id="Layer_1" xmlns="http://www.w3.org/2000/svg" xmlns:xlink="http://www.w3.org/1999/xlink" x="0px" y="0px"
	 viewBox="0 0 250 250" style="enable-background:new 0 0 250 250;" xml:space="preserve">
<style type="text/css">
	.st0{fill:#FFFFFF;}
</style>
<circle cx="125" cy="125" r="124"/>
<g>
	<path class="st0" d="M217,164.3c-0.4,0.6-1,0.7-1.6,0.6c-6.4-0.3-12.3-2-17.7-5.5c-8.7-5.7-13.8-13.8-15.5-24
		c-0.7-4.1-0.4-8.2-0.4-12.3c0-5.9,0-11.9,0-17.8c0-4.2-3.6-7.9-7.9-8.3c-4.6-0.4-8.5,2.7-9.4,7.3c0,0.1,0,0.1,0,0.2
		c0,2.5,0,5.1,0,7.7c0.4,0,0.7,0,1.1,0c2.7,0,5.5,0,8.2,0c1.3,0,1.6,0.3,1.6,1.6c0,7.7,0,15.4,0,23.1c0,1.4-0.4,1.8-1.8,1.8
		c-3,0-6,0-9.1,0c-0.1,0.7-0.2,1.4-0.2,2.1c-0.5,5.8-2.6,10.8-6.5,15.2c-4.2,4.7-9.3,7.6-15.6,8.6c-1,0.2-1.9,0.3-2.9,0.3
		c-1,0.1-1.4-0.4-1.4-1.3c0-0.3,0-0.5,0-0.8c0-19.2,0-38.4,0-57.6c0-7.8,2.6-14.8,7.3-21c3.7-4.8,8.4-8.4,13.9-10.9
		c3.3-1.4,6.8-2.4,10.4-2.7c0.2,0,0.4-0.1,0.7-0.1c1.9,0,3.8,0,5.7,0c0.2,0,0.4,0.1,0.6,0.1c5.4,0.5,10.4,2.2,15,5
		c8.2,5.1,13.5,12.5,15.8,21.9c0.1,0.5,0.2,0.9,0.4,1.5c0.4,0,0.8,0,1.1,0c2.2,0,4.4,0,6.6,0c0.6,0,1.2,0.1,1.5,0.7
		c0,8.4,0,16.7,0,25c-0.3,0.6-0.8,0.7-1.4,0.7c-1.9,0-3.9,0-5.8,0c-0.5,0-1,0-1.5,0c0,1.4,0,2.7,0,3.9c-0.2,4.5,3,8.3,7.4,9.1
		c0.5,0.1,0.9,0.4,1.4,0.6C217,147.4,217,155.8,217,164.3z"/>
	<path class="st0" d="M37,73.3c0.5-0.5,1-0.6,1.7-0.6c7.7,0,15.3,0,23,0c1.4,0,1.8,0.4,1.8,1.8c0,22.8,0,45.6,0,68.5
		c0,4.1,0.7,8.1,2.4,11.9c0.9,2.1,2.1,4,3.6,5.7c1.2,1.3,1,2-0.6,2.7c-11.8,4.9-25.6-0.7-30.1-13.6c-0.8-2.4-1.4-4.9-1.6-7.4
		c0-0.3-0.1-0.5-0.1-0.8C37,118.7,37,96,37,73.3z"/>
	<path class="st0" d="M106,159.8c-1.9,1.5-3.9,2.7-6.1,3.5c-7.6,2.8-14.7,1.9-21.2-2.8c-4.5-3.2-7.2-7.6-8.4-13
		c-0.3-1.5-0.5-3.1-0.5-4.6c0-14,0-28,0-42c0-1.7,0.3-2,1.9-2c7.6,0,15.1,0,22.7,0c1.6,0,1.9,0.2,1.9,1.9c0,10.9,0,21.8,0,32.7
		c0,1.5,0.3,2.8,1.4,3.8c1.4,1.2,3,1.5,4.7,0.7c1.7-0.8,2.5-2.1,2.6-3.9c0.1-2.2,0-4.4,0-6.6c0-8.9,0-17.9,0-26.8
		c0-1.7,0.2-1.9,1.9-1.9c7.6,0,15.1,0,22.7,0c1.6,0,1.8,0.2,1.8,1.8c0,6.4,0,12.8,0,19.2c0,4.3,0,8.6,0,13c0,5.4,0,10.7,0,16.1
		c0,4.1,0.1,8.1-0.1,12.2c-0.4,8.5-3.4,16.1-9.5,22.2c-4.6,4.5-10.2,7.3-16.4,8.8c-5.8,1.4-11.7,1.5-17.7,0.6
		c-3.4-0.5-6.8-1.4-10-2.6c-1.2-0.4-1.3-0.6-1.3-1.8c0-6.6,0-13.2,0-19.9c0-1.5,0.6-2,2-1.3c3.9,1.8,8,2.7,12.3,2.7
		c3.9-0.1,7.6-0.8,10.9-3.2C104.1,165.2,105.5,162.9,106,159.8z"/>
</g>
</svg>
