<?xml version="1.0" encoding="utf-8"?>
<!-- Generator: Adobe Illustrator 24.1.3, SVG Export Plug-In . SVG Version: 6.00 Build 0)  -->
<svg version="1.1" id="Layer_1" xmlns="http://www.w3.org/2000/svg" xmlns:xlink="http://www.w3.org/1999/xlink" x="0px" y="0px"
	 viewBox="0 0 250 250" style="enable-background:new 0 0 250 250;" xml:space="preserve">
<style type="text/css">
	.st0{fill:#FFFFFF;}
</style>
<circle cx="125" cy="125" r="124"/>
<g>
	<path class="st0" d="M45.2,190.6c0.3-0.3,0.5-0.5,0.8-0.8c19.1-15.1,38.2-30.1,57.4-45.2c1.6-1.3,1.3-1,2.8,0
		c2.8,1.9,5.5,3.9,8.4,5.6c6.3,3.8,12.6,3.6,18.8-0.2c2.9-1.8,5.7-3.8,8.5-5.8c0.7-0.5,1.2-0.6,2,0c19.2,15.1,38.4,30.3,57.6,45.4
		c0.4,0.3,0.7,0.6,1,0.9c-0.1,0.1-0.1,0.2-0.1,0.3c-52.4,0-104.7,0-157.1,0C45.3,190.8,45.3,190.7,45.2,190.6z"/>
	<path class="st0" d="M209.6,187.9c-20.3-16-40.6-32-61-48.1c0.6-0.5,1-0.8,1.4-1.1c14.2-10.3,28.5-20.6,42.7-31
		c4.9-3.6,9.7-7.6,13.9-12.1c0.6-0.7,1.2-1.4,1.9-2.1c0.2-0.2,0.7-0.6,0.8-0.5c0.3,0.2,0.6,0.6,0.7,1c0.1,0.3,0.1,0.7,0.1,1.1
		c0,30.4,0,60.8,0,91.2c0,0.5,0,1,0,1.4C209.8,187.8,209.7,187.8,209.6,187.9z"/>
	<path class="st0" d="M99.4,139.7c-19.9,15.6-39.5,31.1-59.4,46.8c0-30.9,0-61.5,0-92.1c0.1,0,0.2,0,0.3,0.1
		c6.1,6.6,13.1,12,20.3,17.3c12.3,9,24.7,17.8,37,26.7C98.1,138.9,98.7,139.2,99.4,139.7z"/>
	<path class="st0" d="M64.2,106.5c-0.4-0.2-0.7-0.5-1.1-0.7c-5.1-4.2-10.2-8.4-15.3-12.7c-0.8-0.7-1.5-1.6-2.3-2.4
		c-0.8-0.7-0.7-1.2,0.2-1.9c3.9-3,7.7-6,11.6-9c1-0.7,1.4-1.5,1.4-2.8c-0.1-8.5,0-16.9,0-25.4c0-1.8,0-1.8,1.9-1.8
		c11.3,0,22.5,0,33.8,0c1.1,0,1.9-0.3,2.8-1c5.8-4.6,11.7-9.1,17.6-13.7c6.2-4.8,14.1-4.8,20.3-0.1c6,4.6,11.9,9.2,17.8,13.9
		c0.8,0.6,1.6,0.9,2.7,0.9c11.1,0,22.2,0,33.3,0c2.7,0,2.3-0.1,2.3,2.3c0,8.4,0,16.7,0,25.1c0,1,0.3,1.7,1.1,2.3
		c3.6,2.7,7,5.4,10.6,8.2c1.3,1,1.4,1.1,0.2,2.2c-2.4,2.5-4.9,4.9-7.5,7.2c-2.9,2.5-6,4.9-9,7.3c-0.2,0.2-0.5,0.3-1,0.6
		c-0.1-0.7-0.1-1.3-0.1-1.8c0-15,0-29.9,0-44.9c0-0.4,0-0.8,0-1.2c0.1-1-0.4-1.3-1.3-1.2c-0.3,0-0.5,0-0.8,0c-38.8,0-77.7,0-116.5,0
		c-2.1,0-2.1,0-2.1,2.1c0,15.5,0,30.9,0,46.3c0,0.6,0,1.2,0,1.8C64.5,106.4,64.3,106.4,64.2,106.5z"/>
	<path class="st0" d="M131.1,87.4c0.6-1.5,1.7-1.8,3.1-1.7c1.6,0.1,2.3,0.7,2.3,2.3c0.1,3.5,0,6.9,0,10.4c0,0.9,0,1.8,0.2,2.7
		c0.5,2.4,2,3.5,4.5,3.5c2.3,0,3.9-1.3,4.2-3.6c0.5-3.9,0.6-7.8-0.6-11.6c-1.4-4.8-4.8-7.6-9.4-8.8c-6.6-1.7-13.3-1.8-19.9,0
		c-5.9,1.6-9.5,5.5-10.6,11.6c-0.6,3.5-0.6,7,0,10.5c1.2,6.9,5.7,10.6,12.2,12c8.2,1.8,16.2,1,23.8-2.8c0.9-0.5,1.9-0.8,2.9-1
		c1.1-0.3,2,0.3,2.4,1.2c0.5,1,0.1,1.8-0.6,2.4c-0.7,0.6-1.5,1.2-2.3,1.5c-4.7,2.2-9.8,3.3-14.9,3.7c-5.1,0.4-10.1,0.1-14.9-1.3
		c-9-2.6-14.1-9.3-14.4-18.8c-0.1-3.3-0.1-6.5,0.8-9.7c1.5-5.6,5-9.6,10.3-12.1c3.6-1.8,7.5-2.6,11.5-2.8c5.2-0.3,10.3-0.2,15.4,1.3
		c1.8,0.5,3.5,1.1,5.1,2c5.8,3,8.6,8,9,14.4c0.1,2.3,0.1,4.5,0,6.8c-0.1,6.9-4.8,9.8-10.8,9.4c-2.3-0.2-4.4-0.8-6.1-2.4
		c-0.7-0.6-1.1-0.3-1.7,0.2c-4.2,3.4-11,3.8-15.6,0.9c-4.3-2.7-5.5-6.9-5.1-11.7c0.8-10.8,12.6-12.8,18.8-9
		C130.6,87.1,130.8,87.2,131.1,87.4z M131.2,97.4c-0.1,0-0.1,0-0.2,0c0-0.7,0.1-1.3,0-2c-0.3-2.8-1.7-4.6-4.2-5.3
		c-1.9-0.5-3.7-0.4-5.5,0.1c-2.2,0.6-3.7,2-4.2,4.2c-0.3,1.4-0.4,2.8-0.3,4.2c0.3,3.5,2.2,5.8,5.3,6.4c1.1,0.2,2.2,0.2,3.3,0.1
		c2.8-0.2,4.7-1.8,5.4-4.6C131,99.5,131,98.4,131.2,97.4z"/>
</g>
</svg>
