<?xml version="1.0" encoding="utf-8"?>
<!-- Generator: Adobe Illustrator 24.1.3, SVG Export Plug-In . SVG Version: 6.00 Build 0)  -->
<svg version="1.1" id="Layer_1" xmlns="http://www.w3.org/2000/svg" xmlns:xlink="http://www.w3.org/1999/xlink" x="0px" y="0px"
	 viewBox="0 0 250 250" style="enable-background:new 0 0 250 250;" xml:space="preserve">
<style type="text/css">
	.st0{fill:#FFFFFF;}
</style>
<circle cx="125" cy="125" r="124"/>
<path class="st0" d="M126.9,111.7v31.8h52.7c-2.1,13.7-15.9,40.1-52.7,40.1c-31.7,0-57.6-26.3-57.6-58.6s25.9-58.6,57.6-58.6
	c18,0,30.1,7.7,37,14.3l25.2-24.3c-16.2-15.1-37.1-24.3-62.2-24.3C75.5,32.2,34,73.7,34,125s41.5,92.8,92.8,92.8
	c53.6,0,89.1-37.7,89.1-90.7c0-6.1-0.7-10.8-1.5-15.4L126.9,111.7L126.9,111.7z"/>
</svg>
