<?xml version="1.0" encoding="utf-8"?>
<!-- Generator: Adobe Illustrator 24.1.3, SVG Export Plug-In . SVG Version: 6.00 Build 0)  -->
<svg version="1.1" id="Layer_1" xmlns="http://www.w3.org/2000/svg" xmlns:xlink="http://www.w3.org/1999/xlink" x="0px" y="0px"
	 viewBox="0 0 250 250" style="enable-background:new 0 0 250 250;" xml:space="preserve">
<style type="text/css">
	.st0{fill:#FFFFFF;}
</style>
<circle cx="125" cy="125" r="124"/>
<path class="st0" d="M176.8,107.6c1.7-11.7-1.8-23.5-9.5-32.4c-7.7-8.9-18.9-14.1-30.7-14.1c-14.3,0-27.5,7.6-34.9,19.8
	c-9.2-4-19.9-2.9-28.1,2.9c-8.2,5.8-13,15.4-12.4,25.5c-17.2,5.1-29.1,20.9-29.1,38.9c0,22.4,18.2,40.6,40.6,40.6h104.4
	c22.4,0,40.6-18.2,40.6-40.6c0-10.8-4.3-21.3-12-28.9C198.1,111.7,187.6,107.5,176.8,107.6L176.8,107.6z"/>
</svg>
