<?xml version="1.0" encoding="utf-8"?>
<!-- Generator: Adobe Illustrator 24.1.3, SVG Export Plug-In . SVG Version: 6.00 Build 0)  -->
<svg version="1.1" id="Layer_1" xmlns="http://www.w3.org/2000/svg" xmlns:xlink="http://www.w3.org/1999/xlink" x="0px" y="0px"
	 viewBox="0 0 250 250" style="enable-background:new 0 0 250 250;" xml:space="preserve">
<style type="text/css">
	.st0{fill:#FFFFFF;}
</style>
<circle cx="125" cy="125" r="124"/>
<g>
	<path class="st0" d="M217.8,75.1l-54.8-34.7L125,71.6l56.9,33.1L217.8,75.1z"/>
	<path class="st0" d="M32.2,135.3l56.4,33.1l36.4-28L71,106L32.2,135.3z"/>
	<path class="st0" d="M88.6,40.4L32.2,76.7L71,106l54-34.3L88.6,40.4z"/>
	<path class="st0" d="M125,140.3l37.2,28l55.6-33l-36-30.5L125,140.3z"/>
	<path class="st0" d="M167.3,177.2l-5.9,3.5l-5.5-4.2L125,153.4l-30.1,23.1l-5.5,4.2l-6-3.5l-15.1-8.9v13.8l56.7,37.5l56.8-37.2
		v-13.8L167.3,177.2z"/>
</g>
</svg>
