<?xml version="1.0" encoding="utf-8"?>
<!-- Generator: Adobe Illustrator 24.1.3, SVG Export Plug-In . SVG Version: 6.00 Build 0)  -->
<svg version="1.1" id="Layer_1" xmlns="http://www.w3.org/2000/svg" xmlns:xlink="http://www.w3.org/1999/xlink" x="0px" y="0px"
	 viewBox="0 0 250 250" style="enable-background:new 0 0 250 250;" xml:space="preserve">
<style type="text/css">
	.st0{fill:#FFFFFF;}
</style>
<circle cx="125" cy="125" r="124"/>
<g>
	<path class="st0" d="M101.1,132.1c0-2.7-1.8-4.4-4.4-4.4H43.3c-2.7,0-4.4,1.8-4.4,4.4v44.4c0,2.7,1.8,4.4,4.4,5.4l53.3,6.2
		c2.7,0,4.4-1.8,4.4-3.6L101.1,132.1L101.1,132.1z M114.4,127.7c-2.7,0-4.4,1.8-4.4,4.4v52.4c0,2.7,1.8,4.4,4.4,5.4l80,8.9
		c2.7,0,4.4-1.8,4.4-3.5V133c0-2.7-1.8-4.4-4.4-4.4L114.4,127.7z M101.1,62.8c0-2.7-1.8-4.4-4.4-3.5l-53.3,6.2
		c-2.7,0-4.4,1.8-4.4,4.4v44.4c0,2.7,1.8,4.4,4.4,4.4h53.3c2.7,0,4.4-1.8,4.4-4.4V62.8z M114.4,57.5c-2.7,0-4.4,2.6-4.4,5.3v52.5
		c0,2.6,1.8,4.4,4.4,4.4h80c2.7,0,4.4-1.8,4.4-4.4V53c0-2.7-1.8-4.4-4.4-3.6L114.4,57.5z"/>
</g>
</svg>
