<?xml version="1.0" encoding="utf-8"?>
<!-- Generator: Adobe Illustrator 24.1.3, SVG Export Plug-In . SVG Version: 6.00 Build 0)  -->
<svg version="1.1" id="Layer_1" xmlns="http://www.w3.org/2000/svg" xmlns:xlink="http://www.w3.org/1999/xlink" x="0px" y="0px"
	 viewBox="0 0 250 250" style="enable-background:new 0 0 250 250;" xml:space="preserve">
<style type="text/css">
	.st0{fill:#FFFFFF;}
</style>
<circle cx="125" cy="125" r="124"/>
<g>
	<path class="st0" d="M163.7,38H86.3C59.6,38,38,59.6,38,86.3v77.3c0,26.7,21.6,48.3,48.3,48.3h77.3c26.7,0,48.3-21.6,48.3-48.3
		V86.3C212,59.6,190.4,38,163.7,38z M125,173.3c-26.7,0-48.3-21.6-48.3-48.3S98.3,76.7,125,76.7s48.3,21.6,48.3,48.3
		S151.7,173.3,125,173.3z M183,76.7c-5.3,0-9.7-4.3-9.7-9.7s4.3-9.7,9.7-9.7c5.3,0,9.7,4.3,9.7,9.7S188.3,76.7,183,76.7z"/>
	<path class="st0" d="M125,96c-16,0-29,13-29,29c0,16,13,29,29,29c16,0,29-13,29-29C154,109,141,96,125,96z"/>
</g>
</svg>
