<?xml version="1.0" encoding="utf-8"?>
<!-- Generator: Adobe Illustrator 24.1.3, SVG Export Plug-In . SVG Version: 6.00 Build 0)  -->
<svg version="1.1" id="Layer_1" xmlns="http://www.w3.org/2000/svg" xmlns:xlink="http://www.w3.org/1999/xlink" x="0px" y="0px"
	 viewBox="0 0 250 250" style="enable-background:new 0 0 250 250;" xml:space="preserve">
<style type="text/css">
	.st0{fill-rule:evenodd;clip-rule:evenodd;fill:#FFFFFF;}
</style>
<circle cx="125" cy="125" r="124"/>
<g>
	<g>
		<path class="st0" d="M213.1,75.3c-2.1-9.7-7.2-16-16.8-19.1c-9.5-3.1-26.8-1.9-38.9,6.9c-12.4,9-19.7,24.7-22.2,34.6
			c6.1-2.6,9.9-3.2,16.1-2.8c6.2,0.3,10.1,5,10.3,10.5c0.1,4.1-0.1,7.7-1.5,11.4c-4.5,11.9-11.4,23.3-19.7,33.4
			c-1.2,1.5-2.6,2.8-4.1,4.1c-4.2,3.4-7.8,2.5-10.5-2.1c-2.2-3.8-3.7-7.8-5-12c-5.1-16.4-6.9-33.4-9.8-50.2
			c-1.4-8-2.9-16.5-7.4-23.5c-4.8-7.3-11.8-10.2-20.7-9.1c-6.1,0.7-15.2,7.2-19.7,10.9c0,0-23.1,19.4-33.8,29.5l8.8,11.2
			c0,0,7.4-5.2,11.4-7.6c2.4-1.4,5.1-1.7,7.1,0.1c1.9,1.6,4,3.7,5.1,5.8c2.4,4.4,4.6,9,6.1,13.8c5.5,18.3,10.5,36.6,15.6,55.1
			c2.6,9.4,5.7,18.3,11.6,26.3c8,11,16.4,13.5,29.3,8.9c10.5-3.8,19.2-10.8,27.3-18.1c13.7-12.5,24.4-27,35.3-41.8
			c8.4-11.4,15.4-23,21.2-35.9C213.7,102.5,216,89,213.1,75.3L213.1,75.3z"/>
	</g>
</g>
</svg>
