<?xml version="1.0" encoding="utf-8"?>
<!-- Generator: Adobe Illustrator 24.1.3, SVG Export Plug-In . SVG Version: 6.00 Build 0)  -->
<svg version="1.1" id="Layer_1" xmlns="http://www.w3.org/2000/svg" xmlns:xlink="http://www.w3.org/1999/xlink" x="0px" y="0px"
	 viewBox="0 0 250 250" style="enable-background:new 0 0 250 250;" xml:space="preserve">
<style type="text/css">
	.st0{fill:#FFFFFF;}
</style>
<circle cx="125" cy="125" r="124"/>
<g>
	<path class="st0" d="M164,38H86c-26.5,0-48,21.5-48,48V164c0,26.5,21.5,47.9,48,47.9H164c26.5,0,48-21.5,48-48V86
		C212,59.5,190.5,38,164,38z M197.9,163.8c0,18.8-15.3,34.1-34.1,34.1H86.2c-18.8,0-34.1-15.3-34.1-34.1V86.2
		c0-18.8,15.3-34.1,34.1-34.1h77.7c18.8,0,34.1,15.3,34.1,34.1V163.8z"/>
	<path class="st0" d="M125,79.2c-25.3,0-45.8,20.5-45.8,45.8s20.5,45.8,45.8,45.8s45.8-20.5,45.8-45.8S150.3,79.2,125,79.2z
		 M125,154.9c-16.5,0-29.9-13.4-29.9-29.9s13.4-29.9,29.9-29.9s29.9,13.4,29.9,29.9S141.5,154.9,125,154.9z"/>
	<path class="st0" d="M182.7,77.6c0,5.7-4.6,10.3-10.3,10.3c-5.7,0-10.3-4.6-10.3-10.3c0-5.7,4.6-10.3,10.3-10.3
		S182.7,72,182.7,77.6z"/>
</g>
</svg>
