<?xml version="1.0" encoding="utf-8"?>
<!-- Generator: Adobe Illustrator 24.1.3, SVG Export Plug-In . SVG Version: 6.00 Build 0)  -->
<svg version="1.1" id="Layer_1" xmlns="http://www.w3.org/2000/svg" xmlns:xlink="http://www.w3.org/1999/xlink" x="0px" y="0px"
	 viewBox="0 0 250 250" style="enable-background:new 0 0 250 250;" xml:space="preserve">
<style type="text/css">
	.st0{fill:#FFFFFF;}
</style>
<circle cx="125" cy="125" r="124"/>
<g>
	<path class="st0" d="M205,138.8v59.9h-34.7v-55.9c0-14-5-23.6-17.6-23.6c-9.6,0-15.3,6.5-17.8,12.7c-0.9,2.2-1.2,5.3-1.2,8.5v58.4
		H98.9c0,0,0.5-94.7,0-104.5h34.7v14.8c-0.1,0.1-0.2,0.2-0.2,0.3h0.2v-0.3c4.6-7.1,12.9-17.3,31.3-17.3
		C187.9,91.8,205,106.7,205,138.8L205,138.8z M45,198.7h34.7V94.2H45V198.7z M80.8,58.8c0,9.9-8,17.9-17.9,17.9
		c-9.9,0-17.9-8-17.9-17.9s8-17.9,17.9-17.9C72.8,40.9,80.8,48.9,80.8,58.8z"/>
</g>
</svg>
