<?xml version="1.0" encoding="utf-8"?>
<!-- Generator: Adobe Illustrator 24.1.3, SVG Export Plug-In . SVG Version: 6.00 Build 0)  -->
<svg version="1.1" id="Layer_1" xmlns="http://www.w3.org/2000/svg" xmlns:xlink="http://www.w3.org/1999/xlink" x="0px" y="0px"
	 viewBox="0 0 250 250" style="enable-background:new 0 0 250 250;" xml:space="preserve">
<style type="text/css">
	.st0{fill:#FFFFFF;}
</style>
<circle cx="125" cy="125" r="124"/>
<g>
	<path class="st0" d="M35,149c0,9.9,8,18,18,18s18-8.1,18-18v-18H53C43.1,131,35,139.1,35,149L35,149z M148.8,119c9.9,0,18-8,18-18
		V53c0-9.9-8.1-18-18-18c-10,0-18,8-18,18V101c0,4.8,1.9,9.4,5.3,12.8c3.4,3.4,8,5.3,12.8,5.2H148.8z M214.6,101c0-9.9-8-18-18-18
		s-18,8.1-18,18v18h18c4.8,0.1,9.5-1.7,12.9-5.1c3.5-3.4,5.4-8,5.4-12.9H214.6z M101.1,131c-10,0-18,8-18,18V197c0,9.9,8,18,18,18
		s18-8,18-18V149C119.1,139.1,111,131,101.1,131L101.1,131z M148.9,179h-18v18c0,9.9,8.1,18,18,18c10,0,18-8,18-18
		C166.9,187.1,158.9,179,148.9,179L148.9,179z M197,131h-48.1c-10,0-18,8-18,18c0,9.9,8.1,18,18,18H197c9.9,0,18-8.1,18-18
		C215,139.1,206.9,131,197,131L197,131z M101.1,83H53c-9.9,0-18,8.1-18,18c0,10,8,18,18,18h48.1c10,0,18-8,18-18
		C119.1,91,111,83,101.1,83L101.1,83z M101.1,35c-10,0-18,8-18,18s8,18,18,18h18V53C119.1,43.1,111,35,101.1,35L101.1,35z"/>
</g>
</svg>
