<?xml version="1.0" encoding="utf-8"?>
<!-- Generator: Adobe Illustrator 24.1.3, SVG Export Plug-In . SVG Version: 6.00 Build 0)  -->
<svg version="1.1" id="Layer_1" xmlns="http://www.w3.org/2000/svg" xmlns:xlink="http://www.w3.org/1999/xlink" x="0px" y="0px"
	 viewBox="0 0 250 250" style="enable-background:new 0 0 250 250;" xml:space="preserve">
<style type="text/css">
	.st0{fill:#FFFFFF;}
</style>
<circle cx="125" cy="125" r="124"/>
<g>
	<path class="st0" d="M131.9,104c-13.8,0-25.8,7.8-31.9,19.2C94,111.8,82,104,68.2,104c-8.1,0-15.6,2.7-21.6,7.2V80.8l0,0
		c-0.1-3.9-3.3-7.1-7.2-7.1c-3.9,0-7.1,3.2-7.2,7.1l0,0v59.8h0c0.3,19.6,16.3,35.5,36,35.5c13.8,0,25.8-7.8,31.8-19.2
		c6.1,11.4,18,19.2,31.8,19.2c19.9,0,36.1-16.2,36.1-36.1C168,120.2,151.8,104,131.9,104L131.9,104z M68.2,161.7
		c-11.9,0-21.6-9.7-21.6-21.6s9.7-21.6,21.6-21.6c11.9,0,21.6,9.7,21.6,21.6C89.8,152,80.2,161.7,68.2,161.7L68.2,161.7z
		 M131.9,161.7c-11.9,0-21.6-9.7-21.6-21.6s9.7-21.6,21.6-21.6c11.9,0,21.6,9.7,21.6,21.6C153.6,152,143.9,161.7,131.9,161.7
		L131.9,161.7z"/>
	<path class="st0" d="M216.5,164.8L198,140.1l18.5-24.7l0,0c2.3-3.2,1.6-7.6-1.5-10c-3.1-2.4-7.6-1.8-10,1.3l0,0L189,128.1
		l-15.9-21.3l0,0c-2.4-3.1-6.9-3.7-10-1.3c-3.1,2.4-3.8,6.8-1.5,10l0,0l18.5,24.7l-18.5,24.7l0,0c-2.3,3.2-1.6,7.6,1.5,10
		c3.1,2.4,7.6,1.8,10-1.3l0,0l15.9-21.3l15.9,21.3l0,0c2.4,3.1,6.9,3.7,10,1.3C218.1,172.4,218.8,168,216.5,164.8L216.5,164.8z"/>
</g>
</svg>
