<?xml version="1.0" encoding="utf-8"?>
<!-- Generator: Adobe Illustrator 24.1.3, SVG Export Plug-In . SVG Version: 6.00 Build 0)  -->
<svg version="1.1" id="Layer_1" xmlns="http://www.w3.org/2000/svg" xmlns:xlink="http://www.w3.org/1999/xlink" x="0px" y="0px"
	 viewBox="0 0 250 250" style="enable-background:new 0 0 250 250;" xml:space="preserve">
<style type="text/css">
	.st0{fill:#FFFFFF;}
</style>
<circle cx="125" cy="125" r="124"/>
<g>
	<path class="st0" d="M91.2,116.6v20.3h33.5c-1.4,8.7-10.1,25.5-33.5,25.5c-20.2,0-36.6-16.7-36.6-37.3s16.5-37.3,36.6-37.3
		c11.5,0,19.2,4.9,23.5,9.1l16-15.4c-10.3-9.6-23.6-15.4-39.6-15.4c-32.7,0-59.1,26.4-59.1,59.1s26.4,59.1,59.1,59.1
		c34.1,0,56.7-24,56.7-57.7c0-3.9-0.4-6.8-0.9-9.8L91.2,116.6L91.2,116.6z"/>
	<path class="st0" d="M217.8,116.6H201V99.7h-16.9v16.9h-16.9v16.9h16.9v16.9H201v-16.9h16.9V116.6z"/>
</g>
</svg>
