<?xml version="1.0" encoding="utf-8"?>
<!-- Generator: Adobe Illustrator 24.1.3, SVG Export Plug-In . SVG Version: 6.00 Build 0)  -->
<svg version="1.1" id="Layer_1" xmlns="http://www.w3.org/2000/svg" xmlns:xlink="http://www.w3.org/1999/xlink" x="0px" y="0px"
	 viewBox="0 0 250 250" style="enable-background:new 0 0 250 250;" xml:space="preserve">
<style type="text/css">
	.st0{fill:#FFFFFF;}
</style>
<circle cx="125" cy="125" r="124"/>
<g>
	<path class="st0" d="M121,171.8c-0.7,0.7-1.4,1.3-2.1,1.9c-5.9,5.7-11.8,11.5-17.7,17.2c-2,1.9-4.1,3.5-6.9,4
		c-3.8,0.6-5.6-0.4-6.8-4c-4.8-14.8-9.6-29.7-14.5-44.6c-0.2-0.5-0.4-1.1-0.5-1.6c-0.5-2.6-2.2-3.9-4.7-4.6
		c-11.4-3.5-22.9-7.1-34.3-10.7c-1.9-0.6-3.9-1.4-5.7-2.4c-3.4-1.9-3.7-4.8-0.7-7.1c2.4-1.8,5.2-3.5,8-4.6c46.5-18.1,93-36,139.5-54
		c5.6-2.2,11.2-4.3,16.8-6.5c1.1-0.4,2.3-0.9,3.5-1.2c5.8-1.5,10.3,1.9,10.2,7.8c0,3.1-0.6,6.3-1.3,9.4
		c-8.7,41.2-17.5,82.4-26.2,123.6c-0.4,1.9-1,3.8-1.9,5.5c-2.1,4-5.8,5.4-10,3.7c-2.1-0.8-4-2.1-5.8-3.4
		c-12.1-8.9-24.1-17.8-36.2-26.7C122.8,173.1,121.9,172.5,121,171.8z M173.1,81.4c-3-1.2-5.3,0.3-7.6,1.8
		c-28.3,17.8-56.5,35.6-84.8,53.4c-3,1.9-3.1,2.2-2,5.5c4.3,13.1,8.5,26.1,12.8,39.2c0.2,0.7,0.6,1.3,1.1,2.6
		c0.3-1.4,0.4-2.1,0.5-2.9c0.8-8,1.6-16,2.2-24c0.2-2.8,1.3-4.9,3.4-6.8c10.1-9,20.1-18,30.1-27.1c14-12.6,28-25.2,41.9-37.9
		C171.9,84.2,173.1,83.2,173.1,81.4z"/>
</g>
</svg>
