<?xml version="1.0" encoding="utf-8"?>
<!-- Generator: Adobe Illustrator 24.1.3, SVG Export Plug-In . SVG Version: 6.00 Build 0)  -->
<svg version="1.1" id="Layer_1" xmlns="http://www.w3.org/2000/svg" xmlns:xlink="http://www.w3.org/1999/xlink" x="0px" y="0px"
	 viewBox="0 0 250 250" style="enable-background:new 0 0 250 250;" xml:space="preserve">
<style type="text/css">
	.st0{fill:#FFFFFF;}
</style>
<circle cx="125" cy="125" r="124"/>
<path class="st0" d="M125,39L125,39c-46.9,0-85,38.1-85,85c0,17.9,5.6,35.4,16.2,49.8l-10.6,31.6L78.3,195
	c13.9,9.2,30.1,14.1,46.8,14c46.9,0,85-38.1,85-85S171.9,39,125,39L125,39z M174.5,159c-2,5.8-10.2,10.6-16.7,12
	c-4.4,1-10.3,1.7-29.8-6.4c-25-10.3-41-35.7-42.3-37.4c-1.2-1.6-10.1-13.5-10.1-25.6c0-12.2,6.2-18.1,8.7-20.7c2-2.1,5.4-3,8.7-3
	c1,0,2,0,2.9,0.1c2.5,0.1,3.7,0.3,5.4,4.2c2,4.9,7,17.1,7.6,18.4c0.6,1.2,1.2,2.9,0.3,4.6c-0.8,1.7-1.5,2.4-2.7,3.9
	c-1.2,1.4-2.5,2.6-3.7,4.1c-1.2,1.3-2.4,2.8-1,5.3c1.5,2.4,6.4,10.6,13.8,17.1c9.5,8.5,17.2,11.2,19.9,12.3c2.1,0.9,4.5,0.7,6-0.9
	c1.9-2.1,4.2-5.5,6.6-8.8c1.7-2.4,3.8-2.7,6.1-1.9c2.3,0.8,14.4,6.8,16.9,8c2.5,1.2,4.1,1.9,4.7,2.9
	C176.6,148.3,176.6,153.2,174.5,159L174.5,159z"/>
</svg>
