<?xml version="1.0" encoding="utf-8"?>
<!-- Generator: Adobe Illustrator 24.1.3, SVG Export Plug-In . SVG Version: 6.00 Build 0)  -->
<svg version="1.1" id="Layer_1" xmlns="http://www.w3.org/2000/svg" xmlns:xlink="http://www.w3.org/1999/xlink" x="0px" y="0px"
	 viewBox="0 0 250 250" style="enable-background:new 0 0 250 250;" xml:space="preserve">
<style type="text/css">
	.st0{fill:#FFFFFF;}
</style>
<circle cx="125" cy="125" r="124"/>
<g>
	<path class="st0" d="M215,71.2c-6.6,2.9-13.7,4.9-21.2,5.8c7.6-4.6,13.5-11.8,16.2-20.4c-7.1,4.2-15,7.3-23.5,9
		c-6.7-7.2-16.3-11.7-27-11.7c-20.4,0-36.9,16.5-36.9,36.9c0,2.9,0.3,5.7,1,8.4C92.9,97.7,65.7,83,47.5,60.6c-3.2,5.5-5,11.8-5,18.6
		c0,12.8,6.5,24.1,16.4,30.7c-6.1-0.2-11.7-1.9-16.7-4.6c0,0.2,0,0.3,0,0.5c0,17.9,12.7,32.8,29.6,36.2c-3.1,0.8-6.4,1.3-9.7,1.3
		c-2.4,0-4.7-0.2-6.9-0.7c4.7,14.7,18.3,25.3,34.5,25.6c-12.6,9.9-28.6,15.8-45.9,15.8c-3,0-5.9-0.2-8.8-0.5
		c16.3,10.5,35.8,16.6,56.6,16.6c67.9,0,105.1-56.3,105.1-105.1c0-1.6,0-3.2-0.1-4.8C203.7,85.1,210,78.6,215,71.2L215,71.2z
		 M215,71.2"/>
</g>
</svg>
